M48
; DRILL file {KiCad 9.0.4} date 2025-11-12T11:38:42+0530
; FORMAT={-:-/ absolute / metric / decimal}
; #@! TF.CreationDate,2025-11-12T11:38:42+05:30
; #@! TF.GenerationSoftware,Kicad,Pcbnew,9.0.4
; #@! TF.FileFunction,MixedPlating,1,2
FMAT,2
METRIC
; #@! TA.AperFunction,Plated,PTH,ViaDrill
T1C0.900
; #@! TA.AperFunction,Plated,PTH,ComponentDrill
T2C1.000
; #@! TA.AperFunction,Plated,PTH,ComponentDrill
T3C1.500
%
G90
G05
T1
X198.2Y-45.6
T2
X183.5Y-52.96
X183.5Y-55.5
X183.5Y-58.04
X183.5Y-60.58
X183.725Y-40.945
X183.725Y-43.485
X183.725Y-46.025
X192.75Y-41.25
X192.75Y-43.79
X192.75Y-46.33
X192.75Y-48.87
X192.75Y-51.41
X192.75Y-53.95
X192.75Y-56.49
X192.75Y-59.03
X207.99Y-41.25
X207.99Y-43.79
X207.99Y-46.33
X207.99Y-48.87
X207.99Y-51.41
X207.99Y-53.95
X207.99Y-56.49
X207.99Y-59.03
X274.85Y-50.25
X274.85Y-52.75
T3
X219.0Y-47.5
X219.0Y-54.5
X249.0Y-47.5
X249.0Y-54.5
X257.5Y-48.0
X257.5Y-55.0
M30
