%TF.GenerationSoftware,KiCad,Pcbnew,9.0.4*%
%TF.CreationDate,2025-11-12T11:38:36+05:30*%
%TF.ProjectId,BikeSSv3,42696b65-5353-4763-932e-6b696361645f,rev?*%
%TF.SameCoordinates,Original*%
%TF.FileFunction,Copper,L1,Top*%
%TF.FilePolarity,Positive*%
%FSLAX46Y46*%
G04 Gerber Fmt 4.6, Leading zero omitted, Abs format (unit mm)*
G04 Created by KiCad (PCBNEW 9.0.4) date 2025-11-12 11:38:36*
%MOMM*%
%LPD*%
G01*
G04 APERTURE LIST*
G04 Aperture macros list*
%AMRoundRect*
0 Rectangle with rounded corners*
0 $1 Rounding radius*
0 $2 $3 $4 $5 $6 $7 $8 $9 X,Y pos of 4 corners*
0 Add a 4 corners polygon primitive as box body*
4,1,4,$2,$3,$4,$5,$6,$7,$8,$9,$2,$3,0*
0 Add four circle primitives for the rounded corners*
1,1,$1+$1,$2,$3*
1,1,$1+$1,$4,$5*
1,1,$1+$1,$6,$7*
1,1,$1+$1,$8,$9*
0 Add four rect primitives between the rounded corners*
20,1,$1+$1,$2,$3,$4,$5,0*
20,1,$1+$1,$4,$5,$6,$7,0*
20,1,$1+$1,$6,$7,$8,$9,0*
20,1,$1+$1,$8,$9,$2,$3,0*%
G04 Aperture macros list end*
%TA.AperFunction,ComponentPad*%
%ADD10RoundRect,0.650000X0.650000X-0.650000X0.650000X0.650000X-0.650000X0.650000X-0.650000X-0.650000X0*%
%TD*%
%TA.AperFunction,ComponentPad*%
%ADD11C,2.600000*%
%TD*%
%TA.AperFunction,ComponentPad*%
%ADD12R,1.700000X1.700000*%
%TD*%
%TA.AperFunction,ComponentPad*%
%ADD13C,1.700000*%
%TD*%
%TA.AperFunction,ComponentPad*%
%ADD14RoundRect,0.650000X-0.650000X0.650000X-0.650000X-0.650000X0.650000X-0.650000X0.650000X0.650000X0*%
%TD*%
%TA.AperFunction,ComponentPad*%
%ADD15C,1.348000*%
%TD*%
%TA.AperFunction,ComponentPad*%
%ADD16RoundRect,0.250000X0.750000X-0.600000X0.750000X0.600000X-0.750000X0.600000X-0.750000X-0.600000X0*%
%TD*%
%TA.AperFunction,ComponentPad*%
%ADD17O,2.000000X1.700000*%
%TD*%
%TA.AperFunction,ViaPad*%
%ADD18C,1.200000*%
%TD*%
%TA.AperFunction,Conductor*%
%ADD19C,1.000000*%
%TD*%
G04 APERTURE END LIST*
D10*
%TO.P,TP102,1,1*%
%TO.N,/VCCs*%
X257500000Y-55000000D03*
D11*
%TO.P,TP102,2,2*%
%TO.N,/GNDs*%
X257500000Y-48000000D03*
%TD*%
D12*
%TO.P,J110,1,Pin_1*%
%TO.N,/GNDs*%
X183725000Y-46025000D03*
D13*
%TO.P,J110,2,Pin_2*%
%TO.N,/3.3V*%
X183725000Y-43485000D03*
%TO.P,J110,3,Pin_3*%
%TO.N,/4*%
X183725000Y-40945000D03*
%TD*%
D14*
%TO.P,TP104,1,1*%
%TO.N,/VCCs*%
X249000000Y-47500000D03*
D11*
%TO.P,TP104,2,2*%
%TO.N,/GNDs*%
X249000000Y-54500000D03*
%TD*%
D15*
%TO.P,U102,0,GPIO0*%
%TO.N,unconnected-(U102-GPIO0-Pad0)*%
X207990000Y-59030000D03*
%TO.P,U102,1,GPIO1*%
%TO.N,unconnected-(U102-GPIO1-Pad1)*%
X207990000Y-56490000D03*
%TO.P,U102,2,GPIO2*%
%TO.N,unconnected-(U102-GPIO2-Pad2)*%
X207990000Y-53950000D03*
%TO.P,U102,3,GPIO3*%
%TO.N,unconnected-(U102-GPIO3-Pad3)*%
X207990000Y-51410000D03*
%TO.P,U102,3.3,3V3*%
%TO.N,/3.3V*%
X207990000Y-46330000D03*
%TO.P,U102,4,GPIO4*%
%TO.N,/4*%
X207990000Y-48870000D03*
%TO.P,U102,5,GPIO5*%
%TO.N,/5*%
X192750000Y-41250000D03*
%TO.P,U102,5V,5V*%
%TO.N,/VCCb*%
X207990000Y-41250000D03*
%TO.P,U102,6,GPIO6*%
%TO.N,unconnected-(U102-GPIO6-Pad6)*%
X192750000Y-43790000D03*
%TO.P,U102,7,GPIO7*%
%TO.N,unconnected-(U102-GPIO7-Pad7)*%
X192750000Y-46330000D03*
%TO.P,U102,8,GPIO8*%
%TO.N,unconnected-(U102-GPIO8-Pad8)*%
X192750000Y-48870000D03*
%TO.P,U102,9,GPIO9*%
%TO.N,unconnected-(U102-GPIO9-Pad9)*%
X192750000Y-51410000D03*
%TO.P,U102,10,GPIO10*%
%TO.N,unconnected-(U102-GPIO10-Pad10)*%
X192750000Y-53950000D03*
%TO.P,U102,20,GPIO20*%
%TO.N,unconnected-(U102-GPIO20-Pad20)*%
X192750000Y-56490000D03*
%TO.P,U102,21,GPIO21*%
%TO.N,unconnected-(U102-GPIO21-Pad21)*%
X192750000Y-59030000D03*
%TO.P,U102,G,GND*%
%TO.N,/GNDs*%
X207990000Y-43790000D03*
%TD*%
D12*
%TO.P,J109,1,Pin_1*%
%TO.N,/VCCb*%
X183500000Y-60580000D03*
D13*
%TO.P,J109,2,Pin_2*%
%TO.N,/GNDs*%
X183500000Y-58040000D03*
%TO.P,J109,3,Pin_3*%
%TO.N,unconnected-(J109-Pin_3-Pad3)*%
X183500000Y-55500000D03*
%TO.P,J109,4,Pin_4*%
%TO.N,/5*%
X183500000Y-52960000D03*
%TD*%
D14*
%TO.P,TP105,1,1*%
%TO.N,/VCCb*%
X219000000Y-47500000D03*
D11*
%TO.P,TP105,2,2*%
%TO.N,/GNDs*%
X219000000Y-54500000D03*
%TD*%
D16*
%TO.P,J111,1,Pin_1*%
%TO.N,/VCCs*%
X274850000Y-52750000D03*
D17*
%TO.P,J111,2,Pin_2*%
%TO.N,/GNDs*%
X274850000Y-50250000D03*
%TD*%
D18*
%TO.N,/4*%
X198200000Y-45600000D03*
%TD*%
D19*
%TO.N,/VCCs*%
X250000000Y-47500000D02*
X249000000Y-47500000D01*
X257500000Y-55000000D02*
X250000000Y-47500000D01*
%TO.N,/4*%
X207990000Y-48870000D02*
X201670000Y-48870000D01*
X201670000Y-48870000D02*
X198400000Y-45600000D01*
X198400000Y-45600000D02*
X198200000Y-45600000D01*
%TO.N,/VCCb*%
X209850000Y-41250000D02*
X212600000Y-44000000D01*
X212600000Y-45400000D02*
X214700000Y-47500000D01*
X207990000Y-41250000D02*
X209850000Y-41250000D01*
X214700000Y-47500000D02*
X219000000Y-47500000D01*
X212600000Y-44000000D02*
X212600000Y-45400000D01*
%TO.N,/5*%
X189000000Y-45000000D02*
X189000000Y-47460000D01*
X192750000Y-41250000D02*
X189000000Y-45000000D01*
X183500000Y-52960000D02*
X189000000Y-47460000D01*
%TO.N,/3.3V*%
X186315000Y-43485000D02*
X187600000Y-42200000D01*
X194500000Y-38000000D02*
X189210000Y-38000000D01*
X207990000Y-46330000D02*
X202830000Y-46330000D01*
X202830000Y-46330000D02*
X194500000Y-38000000D01*
X187600000Y-42200000D02*
X187600000Y-39610000D01*
X187600000Y-39610000D02*
X189210000Y-38000000D01*
X183725000Y-43485000D02*
X186315000Y-43485000D01*
%TD*%
M02*
