%TF.GenerationSoftware,KiCad,Pcbnew,9.0.4*%
%TF.CreationDate,2025-11-03T20:32:51+05:30*%
%TF.ProjectId,BikeSSv2,42696b65-5353-4763-922e-6b696361645f,rev?*%
%TF.SameCoordinates,Original*%
%TF.FileFunction,Copper,L2,Bot*%
%TF.FilePolarity,Positive*%
%FSLAX46Y46*%
G04 Gerber Fmt 4.6, Leading zero omitted, Abs format (unit mm)*
G04 Created by KiCad (PCBNEW 9.0.4) date 2025-11-03 20:32:51*
%MOMM*%
%LPD*%
G01*
G04 APERTURE LIST*
G04 Aperture macros list*
%AMRoundRect*
0 Rectangle with rounded corners*
0 $1 Rounding radius*
0 $2 $3 $4 $5 $6 $7 $8 $9 X,Y pos of 4 corners*
0 Add a 4 corners polygon primitive as box body*
4,1,4,$2,$3,$4,$5,$6,$7,$8,$9,$2,$3,0*
0 Add four circle primitives for the rounded corners*
1,1,$1+$1,$2,$3*
1,1,$1+$1,$4,$5*
1,1,$1+$1,$6,$7*
1,1,$1+$1,$8,$9*
0 Add four rect primitives between the rounded corners*
20,1,$1+$1,$2,$3,$4,$5,0*
20,1,$1+$1,$4,$5,$6,$7,0*
20,1,$1+$1,$6,$7,$8,$9,0*
20,1,$1+$1,$8,$9,$2,$3,0*%
G04 Aperture macros list end*
%TA.AperFunction,ComponentPad*%
%ADD10R,1.700000X1.700000*%
%TD*%
%TA.AperFunction,ComponentPad*%
%ADD11C,1.700000*%
%TD*%
%TA.AperFunction,ComponentPad*%
%ADD12RoundRect,0.650000X0.650000X-0.650000X0.650000X0.650000X-0.650000X0.650000X-0.650000X-0.650000X0*%
%TD*%
%TA.AperFunction,ComponentPad*%
%ADD13C,2.600000*%
%TD*%
%TA.AperFunction,ComponentPad*%
%ADD14R,2.000000X2.000000*%
%TD*%
%TA.AperFunction,ComponentPad*%
%ADD15C,2.000000*%
%TD*%
%TA.AperFunction,ComponentPad*%
%ADD16RoundRect,0.250000X-1.350000X-1.350000X1.350000X-1.350000X1.350000X1.350000X-1.350000X1.350000X0*%
%TD*%
%TA.AperFunction,ComponentPad*%
%ADD17C,3.200000*%
%TD*%
%TA.AperFunction,ComponentPad*%
%ADD18RoundRect,0.250000X0.750000X-0.600000X0.750000X0.600000X-0.750000X0.600000X-0.750000X-0.600000X0*%
%TD*%
%TA.AperFunction,ComponentPad*%
%ADD19O,2.000000X1.700000*%
%TD*%
%TA.AperFunction,ComponentPad*%
%ADD20RoundRect,0.250000X0.550000X0.550000X-0.550000X0.550000X-0.550000X-0.550000X0.550000X-0.550000X0*%
%TD*%
%TA.AperFunction,ComponentPad*%
%ADD21C,1.600000*%
%TD*%
%TA.AperFunction,ViaPad*%
%ADD22C,0.600000*%
%TD*%
%TA.AperFunction,Conductor*%
%ADD23C,1.500000*%
%TD*%
G04 APERTURE END LIST*
D10*
%TO.P,J107,1,Pin_1*%
%TO.N,VCC*%
X99380000Y-83000000D03*
D11*
%TO.P,J107,2,Pin_2*%
%TO.N,GND*%
X101920000Y-83000000D03*
%TO.P,J107,3,Pin_3*%
%TO.N,D16*%
X104460000Y-83000000D03*
%TO.P,J107,4,Pin_4*%
%TO.N,D17*%
X107000000Y-83000000D03*
%TD*%
D10*
%TO.P,J108,1,Pin_1*%
%TO.N,GND*%
X64500000Y-143500000D03*
%TD*%
%TO.P,J104,1,Pin_1*%
%TO.N,VCC*%
X92500000Y-122760000D03*
D11*
%TO.P,J104,2,Pin_2*%
%TO.N,GND*%
X92500000Y-125300000D03*
%TO.P,J104,3,Pin_3*%
%TO.N,D22*%
X92500000Y-127840000D03*
%TO.P,J104,4,Pin_4*%
%TO.N,D21*%
X92500000Y-130380000D03*
%TO.P,J104,5,Pin_5*%
%TO.N,unconnected-(J104-Pin_5-Pad5)*%
X92500000Y-132920000D03*
%TO.P,J104,6,Pin_6*%
%TO.N,unconnected-(J104-Pin_6-Pad6)*%
X92500000Y-135460000D03*
%TO.P,J104,7,Pin_7*%
%TO.N,GND*%
X92500000Y-138000000D03*
%TO.P,J104,8,Pin_8*%
%TO.N,unconnected-(J104-Pin_8-Pad8)*%
X92500000Y-140540000D03*
%TD*%
D12*
%TO.P,TP101,1,1*%
%TO.N,VCC*%
X92500000Y-109540000D03*
D13*
%TO.P,TP101,2,2*%
%TO.N,GND*%
X92500000Y-104460000D03*
%TD*%
D10*
%TO.P,J105,1,Pin_1*%
%TO.N,GND*%
X135275000Y-113700000D03*
D11*
%TO.P,J105,2,Pin_2*%
%TO.N,D26*%
X135275000Y-116240000D03*
%TO.P,J105,3,Pin_3*%
%TO.N,D25*%
X135275000Y-118780000D03*
%TO.P,J105,4,Pin_4*%
%TO.N,VCC*%
X135275000Y-121320000D03*
%TD*%
D10*
%TO.P,J106,1,Pin_1*%
%TO.N,/12V-*%
X64500000Y-103500000D03*
%TD*%
%TO.P,J102,1,Pin_1*%
%TO.N,/12V+ DO*%
X82500000Y-103500000D03*
%TD*%
D14*
%TO.P,U101,1,3V3*%
%TO.N,unconnected-(U101-3V3-Pad1)*%
X102580000Y-105960000D03*
D15*
%TO.P,U101,2,GND*%
%TO.N,GND*%
X102580000Y-108500000D03*
%TO.P,U101,3,D15*%
%TO.N,unconnected-(U101-D15-Pad3)*%
X102580000Y-111040000D03*
%TO.P,U101,4,D2*%
%TO.N,unconnected-(U101-D2-Pad4)*%
X102580000Y-113580000D03*
%TO.P,U101,5,D4*%
%TO.N,unconnected-(U101-D4-Pad5)*%
X102580000Y-116120000D03*
%TO.P,U101,6,RX2*%
%TO.N,D16*%
X102580000Y-118660000D03*
%TO.P,U101,7,TX2*%
%TO.N,D17*%
X102580000Y-121200000D03*
%TO.P,U101,8,D5*%
%TO.N,unconnected-(U101-D5-Pad8)*%
X102580000Y-123740000D03*
%TO.P,U101,9,D18*%
%TO.N,unconnected-(U101-D18-Pad9)*%
X102580000Y-126280000D03*
%TO.P,U101,10,D19*%
%TO.N,unconnected-(U101-D19-Pad10)*%
X102580000Y-128820000D03*
%TO.P,U101,11,D21*%
%TO.N,unconnected-(U101-D21-Pad11)*%
X102580000Y-131360000D03*
%TO.P,U101,12,RX0*%
%TO.N,unconnected-(U101-RX0-Pad12)*%
X102580000Y-133900000D03*
%TO.P,U101,13,TX0*%
%TO.N,unconnected-(U101-TX0-Pad13)*%
X102580000Y-136440000D03*
%TO.P,U101,14,D22*%
%TO.N,D22*%
X102580000Y-138980000D03*
%TO.P,U101,15,D23*%
%TO.N,D21*%
X102580000Y-141520000D03*
%TO.P,U101,16,EN*%
%TO.N,unconnected-(U101-EN-Pad16)*%
X127980000Y-141520000D03*
%TO.P,U101,17,VP*%
%TO.N,unconnected-(U101-VP-Pad17)*%
X127980000Y-138980000D03*
%TO.P,U101,18,VN*%
%TO.N,unconnected-(U101-VN-Pad18)*%
X127980000Y-136440000D03*
%TO.P,U101,19,D34*%
%TO.N,unconnected-(U101-D34-Pad19)*%
X127980000Y-133900000D03*
%TO.P,U101,20,D35*%
%TO.N,unconnected-(U101-D35-Pad20)*%
X127980000Y-131360000D03*
%TO.P,U101,21,D32*%
%TO.N,unconnected-(U101-D32-Pad21)*%
X127980000Y-128820000D03*
%TO.P,U101,22,D33*%
%TO.N,unconnected-(U101-D33-Pad22)*%
X127980000Y-126280000D03*
%TO.P,U101,23,D25*%
%TO.N,D25*%
X127980000Y-123740000D03*
%TO.P,U101,24,D26*%
%TO.N,D26*%
X127980000Y-121200000D03*
%TO.P,U101,25,D27*%
%TO.N,unconnected-(U101-D27-Pad25)*%
X127980000Y-118660000D03*
%TO.P,U101,26,D14*%
%TO.N,unconnected-(U101-D14-Pad26)*%
X127980000Y-116120000D03*
%TO.P,U101,27,D12*%
%TO.N,unconnected-(U101-D12-Pad27)*%
X127980000Y-113580000D03*
%TO.P,U101,28,D13*%
%TO.N,unconnected-(U101-D13-Pad28)*%
X127980000Y-111040000D03*
%TO.P,U101,29,GND*%
%TO.N,GND*%
X127980000Y-108500000D03*
%TO.P,U101,30,VIN*%
%TO.N,unconnected-(U101-VIN-Pad30)*%
X127980000Y-105960000D03*
%TD*%
D16*
%TO.P,D101,1,K*%
%TO.N,/12V+DI*%
X73880000Y-83500000D03*
D17*
%TO.P,D101,2,A*%
%TO.N,/12V+ DO*%
X89120000Y-83500000D03*
%TD*%
D18*
%TO.P,J101,1,Pin_1*%
%TO.N,/12V-*%
X65500000Y-91500000D03*
D19*
%TO.P,J101,2,Pin_2*%
%TO.N,/12V+DI*%
X65500000Y-89000000D03*
%TD*%
D20*
%TO.P,C101,1*%
%TO.N,/12V+ DO*%
X77652651Y-92500000D03*
D21*
%TO.P,C101,2*%
%TO.N,/12V-*%
X74152651Y-92500000D03*
%TD*%
D10*
%TO.P,J103,1,Pin_1*%
%TO.N,VCC*%
X82500000Y-143500000D03*
%TD*%
D22*
%TO.N,GND*%
X110200000Y-102400000D03*
X104000000Y-102000000D03*
%TD*%
D23*
%TO.N,GND*%
X109800000Y-102000000D02*
X110200000Y-102400000D01*
X104000000Y-102000000D02*
X109800000Y-102000000D01*
%TD*%
M02*
