M48
; DRILL file {KiCad 9.0.4} date 2025-11-10T11:11:50+0530
; FORMAT={-:-/ absolute / metric / decimal}
; #@! TF.CreationDate,2025-11-10T11:11:50+05:30
; #@! TF.GenerationSoftware,Kicad,Pcbnew,9.0.4
; #@! TF.FileFunction,MixedPlating,1,2
FMAT,2
METRIC
; #@! TA.AperFunction,Plated,PTH,ViaDrill
T1C0.900
; #@! TA.AperFunction,Plated,PTH,ComponentDrill
T2C1.000
; #@! TA.AperFunction,Plated,PTH,ComponentDrill
T3C1.500
; #@! TA.AperFunction,NonPlated,NPTH,ComponentDrill
T4C1.200
%
G90
G05
T1
X266.88Y-126.0
T2
X193.054Y-85.5
X193.054Y-88.0
X195.1Y-100.025
X195.1Y-140.025
X195.13Y-154.725
X195.88Y-143.19
X195.88Y-150.81
X197.67Y-154.725
X202.88Y-143.19
X202.88Y-150.81
X203.53Y-154.725
X206.07Y-154.725
X210.88Y-142.99
X210.88Y-150.61
X210.93Y-154.525
X213.1Y-100.025
X213.1Y-140.025
X213.47Y-154.525
X217.2Y-117.18
X217.2Y-119.72
X217.2Y-122.26
X217.2Y-124.8
X217.2Y-127.34
X217.2Y-129.88
X217.2Y-132.42
X217.2Y-134.96
X219.88Y-155.0
X222.42Y-155.0
X223.88Y-143.19
X223.88Y-150.81
X226.34Y-155.0
X228.88Y-143.19
X228.88Y-150.81
X228.88Y-155.0
X229.98Y-79.525
X232.52Y-79.525
X233.18Y-98.485
X233.18Y-101.025
X233.18Y-103.565
X233.18Y-106.105
X233.18Y-108.645
X233.18Y-111.185
X233.18Y-113.725
X233.18Y-116.265
X233.18Y-118.805
X233.18Y-121.345
X233.18Y-123.885
X233.18Y-126.425
X233.18Y-128.965
X233.18Y-131.505
X233.18Y-134.045
X233.88Y-143.19
X233.88Y-150.81
X235.06Y-79.525
X237.6Y-79.525
X239.78Y-149.645
X241.78Y-143.525
X241.78Y-155.525
X244.44Y-77.95
X252.06Y-77.95
X253.98Y-143.525
X253.98Y-155.525
X258.58Y-98.485
X258.58Y-101.025
X258.58Y-103.565
X258.58Y-106.105
X258.58Y-108.645
X258.58Y-111.185
X258.58Y-113.725
X258.58Y-116.265
X258.58Y-118.805
X258.58Y-121.345
X258.58Y-123.885
X258.58Y-126.425
X258.58Y-128.965
X258.58Y-131.505
X258.58Y-134.045
X260.7Y-141.02
X260.7Y-146.1
X261.6Y-127.715
X261.6Y-135.335
X263.24Y-143.56
X264.0Y-111.2
X264.0Y-113.74
X264.0Y-116.28
X264.0Y-118.82
T3
X196.26Y-78.0
X200.753Y-89.0
X208.253Y-89.0
X211.5Y-78.0
X219.88Y-100.985
X219.88Y-106.065
X255.75Y-78.025
X255.75Y-83.025
X261.72Y-156.6
X266.8Y-156.6
X268.25Y-78.025
X268.25Y-83.025
X271.88Y-156.6
T4
X195.054Y-89.6
M30
