%TF.GenerationSoftware,KiCad,Pcbnew,9.0.4*%
%TF.CreationDate,2025-11-10T11:11:46+05:30*%
%TF.ProjectId,BikeSSv3,42696b65-5353-4763-932e-6b696361645f,rev?*%
%TF.SameCoordinates,Original*%
%TF.FileFunction,Soldermask,Top*%
%TF.FilePolarity,Negative*%
%FSLAX46Y46*%
G04 Gerber Fmt 4.6, Leading zero omitted, Abs format (unit mm)*
G04 Created by KiCad (PCBNEW 9.0.4) date 2025-11-10 11:11:46*
%MOMM*%
%LPD*%
G01*
G04 APERTURE LIST*
G04 Aperture macros list*
%AMRoundRect*
0 Rectangle with rounded corners*
0 $1 Rounding radius*
0 $2 $3 $4 $5 $6 $7 $8 $9 X,Y pos of 4 corners*
0 Add a 4 corners polygon primitive as box body*
4,1,4,$2,$3,$4,$5,$6,$7,$8,$9,$2,$3,0*
0 Add four circle primitives for the rounded corners*
1,1,$1+$1,$2,$3*
1,1,$1+$1,$4,$5*
1,1,$1+$1,$6,$7*
1,1,$1+$1,$8,$9*
0 Add four rect primitives between the rounded corners*
20,1,$1+$1,$2,$3,$4,$5,0*
20,1,$1+$1,$4,$5,$6,$7,0*
20,1,$1+$1,$6,$7,$8,$9,0*
20,1,$1+$1,$8,$9,$2,$3,0*%
G04 Aperture macros list end*
%ADD10R,1.700000X1.700000*%
%ADD11C,1.700000*%
%ADD12C,1.400000*%
%ADD13R,1.800000X1.800000*%
%ADD14C,1.800000*%
%ADD15RoundRect,0.650000X0.650000X-0.650000X0.650000X0.650000X-0.650000X0.650000X-0.650000X-0.650000X0*%
%ADD16C,2.600000*%
%ADD17RoundRect,0.250000X-0.500000X0.500000X-0.500000X-0.500000X0.500000X-0.500000X0.500000X0.500000X0*%
%ADD18C,1.500000*%
%ADD19O,3.200000X1.900000*%
%ADD20RoundRect,0.102000X-1.000000X-1.000000X1.000000X-1.000000X1.000000X1.000000X-1.000000X1.000000X0*%
%ADD21C,2.204000*%
%ADD22RoundRect,0.250000X-1.350000X-1.350000X1.350000X-1.350000X1.350000X1.350000X-1.350000X1.350000X0*%
%ADD23C,3.200000*%
%ADD24R,2.800000X2.800000*%
%ADD25C,2.800000*%
%ADD26C,1.512000*%
%ADD27RoundRect,0.250000X-0.550000X0.550000X-0.550000X-0.550000X0.550000X-0.550000X0.550000X0.550000X0*%
%ADD28C,1.600000*%
%ADD29C,1.200000*%
%ADD30RoundRect,0.220589X0.529411X-0.529411X0.529411X0.529411X-0.529411X0.529411X-0.529411X-0.529411X0*%
%ADD31O,1.500000X1.500000*%
%ADD32RoundRect,0.250001X0.949999X0.949999X-0.949999X0.949999X-0.949999X-0.949999X0.949999X-0.949999X0*%
%ADD33C,2.400000*%
G04 APERTURE END LIST*
D10*
%TO.C,J107*%
X229980000Y-79525000D03*
D11*
X232520000Y-79525000D03*
X235060000Y-79525000D03*
X237600000Y-79525000D03*
%TD*%
D10*
%TO.C,J108*%
X195100000Y-140025000D03*
%TD*%
D12*
%TO.C,R102*%
X210880000Y-150610000D03*
X210880000Y-142990000D03*
%TD*%
D10*
%TO.C,J104*%
X217200000Y-117180000D03*
D11*
X217200000Y-119720000D03*
X217200000Y-122260000D03*
X217200000Y-124800000D03*
X217200000Y-127340000D03*
X217200000Y-129880000D03*
X217200000Y-132420000D03*
X217200000Y-134960000D03*
%TD*%
D13*
%TO.C,D107*%
X219880000Y-155000000D03*
D14*
X222420000Y-155000000D03*
%TD*%
D13*
%TO.C,D106*%
X228880000Y-155000000D03*
D14*
X226340000Y-155000000D03*
%TD*%
D12*
%TO.C,R103*%
X195880000Y-150810000D03*
X195880000Y-143190000D03*
%TD*%
D15*
%TO.C,TP101*%
X219880000Y-106065000D03*
D16*
X219880000Y-100985000D03*
%TD*%
D12*
%TO.C,R105*%
X228880000Y-143190000D03*
X228880000Y-150810000D03*
%TD*%
D13*
%TO.C,D103*%
X210930000Y-154525000D03*
D14*
X213470000Y-154525000D03*
%TD*%
D17*
%TO.C,Q101*%
X260700000Y-141020000D03*
D18*
X263240000Y-143560000D03*
X260700000Y-146100000D03*
%TD*%
D19*
%TO.C,SW102*%
X255750000Y-78025000D03*
X268250000Y-78025000D03*
X255750000Y-83025000D03*
X268250000Y-83025000D03*
%TD*%
D10*
%TO.C,J105*%
X264000000Y-111200000D03*
D11*
X264000000Y-113740000D03*
X264000000Y-116280000D03*
X264000000Y-118820000D03*
%TD*%
D10*
%TO.C,J106*%
X195100000Y-100025000D03*
%TD*%
D12*
%TO.C,R107*%
X261600000Y-127715000D03*
X261600000Y-135335000D03*
%TD*%
%TO.C,R101*%
X202880000Y-150810000D03*
X202880000Y-143190000D03*
%TD*%
D10*
%TO.C,J102*%
X213100000Y-100025000D03*
%TD*%
D12*
%TO.C,R106*%
X223880000Y-143190000D03*
X223880000Y-150810000D03*
%TD*%
D13*
%TO.C,D102*%
X203530000Y-154725000D03*
D14*
X206070000Y-154725000D03*
%TD*%
D20*
%TO.C,U101*%
X233180000Y-98485000D03*
D21*
X233180000Y-101025000D03*
X233180000Y-103565000D03*
X233180000Y-106105000D03*
X233180000Y-108645000D03*
X233180000Y-111185000D03*
X233180000Y-113725000D03*
X233180000Y-116265000D03*
X233180000Y-118805000D03*
X233180000Y-121345000D03*
X233180000Y-123885000D03*
X233180000Y-126425000D03*
X233180000Y-128965000D03*
X233180000Y-131505000D03*
X233180000Y-134045000D03*
X258580000Y-134045000D03*
X258580000Y-131505000D03*
X258580000Y-128965000D03*
X258580000Y-126425000D03*
X258580000Y-123885000D03*
X258580000Y-121345000D03*
X258580000Y-118805000D03*
X258580000Y-116265000D03*
X258580000Y-113725000D03*
X258580000Y-111185000D03*
X258580000Y-108645000D03*
X258580000Y-106105000D03*
X258580000Y-103565000D03*
X258580000Y-101025000D03*
X258580000Y-98485000D03*
%TD*%
D22*
%TO.C,D101*%
X196260000Y-78000000D03*
D23*
X211500000Y-78000000D03*
%TD*%
D12*
%TO.C,R104*%
X244440000Y-77950000D03*
X252060000Y-77950000D03*
%TD*%
D24*
%TO.C,J112*%
X261720000Y-156600000D03*
D25*
X266800000Y-156600000D03*
X271880000Y-156600000D03*
%TD*%
D26*
%TO.C,K101*%
X241780000Y-143525000D03*
X241780000Y-155525000D03*
X239780000Y-149645000D03*
X253980000Y-143525000D03*
X253980000Y-155525000D03*
%TD*%
D13*
%TO.C,D104*%
X195130000Y-154725000D03*
D14*
X197670000Y-154725000D03*
%TD*%
D27*
%TO.C,D105*%
X233880000Y-143190000D03*
D28*
X233880000Y-150810000D03*
%TD*%
D29*
%TO.C,J101*%
X195053674Y-89600000D03*
D30*
X193053674Y-88000000D03*
D31*
X193053674Y-85500000D03*
%TD*%
D32*
%TO.C,C101*%
X208252651Y-89000000D03*
D33*
X200752651Y-89000000D03*
%TD*%
D10*
%TO.C,J103*%
X213100000Y-140025000D03*
%TD*%
M02*
