%TF.GenerationSoftware,KiCad,Pcbnew,9.0.4*%
%TF.CreationDate,2025-11-10T11:11:46+05:30*%
%TF.ProjectId,BikeSSv3,42696b65-5353-4763-932e-6b696361645f,rev?*%
%TF.SameCoordinates,Original*%
%TF.FileFunction,Legend,Top*%
%TF.FilePolarity,Positive*%
%FSLAX46Y46*%
G04 Gerber Fmt 4.6, Leading zero omitted, Abs format (unit mm)*
G04 Created by KiCad (PCBNEW 9.0.4) date 2025-11-10 11:11:46*
%MOMM*%
%LPD*%
G01*
G04 APERTURE LIST*
%ADD10C,0.100000*%
%ADD11C,0.150000*%
%ADD12C,0.120000*%
%ADD13C,0.127000*%
%ADD14C,0.200000*%
G04 APERTURE END LIST*
D10*
X195100000Y-100025000D02*
X213100000Y-100025000D01*
X213100000Y-140025000D01*
X195100000Y-140025000D01*
X195100000Y-100025000D01*
X216000000Y-42500000D02*
X252000000Y-42500000D01*
X252000000Y-59500000D01*
X216000000Y-59500000D01*
X216000000Y-42500000D01*
D11*
X232314285Y-76379819D02*
X232314285Y-77094104D01*
X232314285Y-77094104D02*
X232266666Y-77236961D01*
X232266666Y-77236961D02*
X232171428Y-77332200D01*
X232171428Y-77332200D02*
X232028571Y-77379819D01*
X232028571Y-77379819D02*
X231933333Y-77379819D01*
X233314285Y-77379819D02*
X232742857Y-77379819D01*
X233028571Y-77379819D02*
X233028571Y-76379819D01*
X233028571Y-76379819D02*
X232933333Y-76522676D01*
X232933333Y-76522676D02*
X232838095Y-76617914D01*
X232838095Y-76617914D02*
X232742857Y-76665533D01*
X233933333Y-76379819D02*
X234028571Y-76379819D01*
X234028571Y-76379819D02*
X234123809Y-76427438D01*
X234123809Y-76427438D02*
X234171428Y-76475057D01*
X234171428Y-76475057D02*
X234219047Y-76570295D01*
X234219047Y-76570295D02*
X234266666Y-76760771D01*
X234266666Y-76760771D02*
X234266666Y-76998866D01*
X234266666Y-76998866D02*
X234219047Y-77189342D01*
X234219047Y-77189342D02*
X234171428Y-77284580D01*
X234171428Y-77284580D02*
X234123809Y-77332200D01*
X234123809Y-77332200D02*
X234028571Y-77379819D01*
X234028571Y-77379819D02*
X233933333Y-77379819D01*
X233933333Y-77379819D02*
X233838095Y-77332200D01*
X233838095Y-77332200D02*
X233790476Y-77284580D01*
X233790476Y-77284580D02*
X233742857Y-77189342D01*
X233742857Y-77189342D02*
X233695238Y-76998866D01*
X233695238Y-76998866D02*
X233695238Y-76760771D01*
X233695238Y-76760771D02*
X233742857Y-76570295D01*
X233742857Y-76570295D02*
X233790476Y-76475057D01*
X233790476Y-76475057D02*
X233838095Y-76427438D01*
X233838095Y-76427438D02*
X233933333Y-76379819D01*
X234600000Y-76379819D02*
X235266666Y-76379819D01*
X235266666Y-76379819D02*
X234838095Y-77379819D01*
X193714285Y-136379819D02*
X193714285Y-137094104D01*
X193714285Y-137094104D02*
X193666666Y-137236961D01*
X193666666Y-137236961D02*
X193571428Y-137332200D01*
X193571428Y-137332200D02*
X193428571Y-137379819D01*
X193428571Y-137379819D02*
X193333333Y-137379819D01*
X194714285Y-137379819D02*
X194142857Y-137379819D01*
X194428571Y-137379819D02*
X194428571Y-136379819D01*
X194428571Y-136379819D02*
X194333333Y-136522676D01*
X194333333Y-136522676D02*
X194238095Y-136617914D01*
X194238095Y-136617914D02*
X194142857Y-136665533D01*
X195333333Y-136379819D02*
X195428571Y-136379819D01*
X195428571Y-136379819D02*
X195523809Y-136427438D01*
X195523809Y-136427438D02*
X195571428Y-136475057D01*
X195571428Y-136475057D02*
X195619047Y-136570295D01*
X195619047Y-136570295D02*
X195666666Y-136760771D01*
X195666666Y-136760771D02*
X195666666Y-136998866D01*
X195666666Y-136998866D02*
X195619047Y-137189342D01*
X195619047Y-137189342D02*
X195571428Y-137284580D01*
X195571428Y-137284580D02*
X195523809Y-137332200D01*
X195523809Y-137332200D02*
X195428571Y-137379819D01*
X195428571Y-137379819D02*
X195333333Y-137379819D01*
X195333333Y-137379819D02*
X195238095Y-137332200D01*
X195238095Y-137332200D02*
X195190476Y-137284580D01*
X195190476Y-137284580D02*
X195142857Y-137189342D01*
X195142857Y-137189342D02*
X195095238Y-136998866D01*
X195095238Y-136998866D02*
X195095238Y-136760771D01*
X195095238Y-136760771D02*
X195142857Y-136570295D01*
X195142857Y-136570295D02*
X195190476Y-136475057D01*
X195190476Y-136475057D02*
X195238095Y-136427438D01*
X195238095Y-136427438D02*
X195333333Y-136379819D01*
X196238095Y-136808390D02*
X196142857Y-136760771D01*
X196142857Y-136760771D02*
X196095238Y-136713152D01*
X196095238Y-136713152D02*
X196047619Y-136617914D01*
X196047619Y-136617914D02*
X196047619Y-136570295D01*
X196047619Y-136570295D02*
X196095238Y-136475057D01*
X196095238Y-136475057D02*
X196142857Y-136427438D01*
X196142857Y-136427438D02*
X196238095Y-136379819D01*
X196238095Y-136379819D02*
X196428571Y-136379819D01*
X196428571Y-136379819D02*
X196523809Y-136427438D01*
X196523809Y-136427438D02*
X196571428Y-136475057D01*
X196571428Y-136475057D02*
X196619047Y-136570295D01*
X196619047Y-136570295D02*
X196619047Y-136617914D01*
X196619047Y-136617914D02*
X196571428Y-136713152D01*
X196571428Y-136713152D02*
X196523809Y-136760771D01*
X196523809Y-136760771D02*
X196428571Y-136808390D01*
X196428571Y-136808390D02*
X196238095Y-136808390D01*
X196238095Y-136808390D02*
X196142857Y-136856009D01*
X196142857Y-136856009D02*
X196095238Y-136903628D01*
X196095238Y-136903628D02*
X196047619Y-136998866D01*
X196047619Y-136998866D02*
X196047619Y-137189342D01*
X196047619Y-137189342D02*
X196095238Y-137284580D01*
X196095238Y-137284580D02*
X196142857Y-137332200D01*
X196142857Y-137332200D02*
X196238095Y-137379819D01*
X196238095Y-137379819D02*
X196428571Y-137379819D01*
X196428571Y-137379819D02*
X196523809Y-137332200D01*
X196523809Y-137332200D02*
X196571428Y-137284580D01*
X196571428Y-137284580D02*
X196619047Y-137189342D01*
X196619047Y-137189342D02*
X196619047Y-136998866D01*
X196619047Y-136998866D02*
X196571428Y-136903628D01*
X196571428Y-136903628D02*
X196523809Y-136856009D01*
X196523809Y-136856009D02*
X196428571Y-136808390D01*
X209414819Y-147919047D02*
X208938628Y-148252380D01*
X209414819Y-148490475D02*
X208414819Y-148490475D01*
X208414819Y-148490475D02*
X208414819Y-148109523D01*
X208414819Y-148109523D02*
X208462438Y-148014285D01*
X208462438Y-148014285D02*
X208510057Y-147966666D01*
X208510057Y-147966666D02*
X208605295Y-147919047D01*
X208605295Y-147919047D02*
X208748152Y-147919047D01*
X208748152Y-147919047D02*
X208843390Y-147966666D01*
X208843390Y-147966666D02*
X208891009Y-148014285D01*
X208891009Y-148014285D02*
X208938628Y-148109523D01*
X208938628Y-148109523D02*
X208938628Y-148490475D01*
X209414819Y-146966666D02*
X209414819Y-147538094D01*
X209414819Y-147252380D02*
X208414819Y-147252380D01*
X208414819Y-147252380D02*
X208557676Y-147347618D01*
X208557676Y-147347618D02*
X208652914Y-147442856D01*
X208652914Y-147442856D02*
X208700533Y-147538094D01*
X208414819Y-146347618D02*
X208414819Y-146252380D01*
X208414819Y-146252380D02*
X208462438Y-146157142D01*
X208462438Y-146157142D02*
X208510057Y-146109523D01*
X208510057Y-146109523D02*
X208605295Y-146061904D01*
X208605295Y-146061904D02*
X208795771Y-146014285D01*
X208795771Y-146014285D02*
X209033866Y-146014285D01*
X209033866Y-146014285D02*
X209224342Y-146061904D01*
X209224342Y-146061904D02*
X209319580Y-146109523D01*
X209319580Y-146109523D02*
X209367200Y-146157142D01*
X209367200Y-146157142D02*
X209414819Y-146252380D01*
X209414819Y-146252380D02*
X209414819Y-146347618D01*
X209414819Y-146347618D02*
X209367200Y-146442856D01*
X209367200Y-146442856D02*
X209319580Y-146490475D01*
X209319580Y-146490475D02*
X209224342Y-146538094D01*
X209224342Y-146538094D02*
X209033866Y-146585713D01*
X209033866Y-146585713D02*
X208795771Y-146585713D01*
X208795771Y-146585713D02*
X208605295Y-146538094D01*
X208605295Y-146538094D02*
X208510057Y-146490475D01*
X208510057Y-146490475D02*
X208462438Y-146442856D01*
X208462438Y-146442856D02*
X208414819Y-146347618D01*
X208510057Y-145633332D02*
X208462438Y-145585713D01*
X208462438Y-145585713D02*
X208414819Y-145490475D01*
X208414819Y-145490475D02*
X208414819Y-145252380D01*
X208414819Y-145252380D02*
X208462438Y-145157142D01*
X208462438Y-145157142D02*
X208510057Y-145109523D01*
X208510057Y-145109523D02*
X208605295Y-145061904D01*
X208605295Y-145061904D02*
X208700533Y-145061904D01*
X208700533Y-145061904D02*
X208843390Y-145109523D01*
X208843390Y-145109523D02*
X209414819Y-145680951D01*
X209414819Y-145680951D02*
X209414819Y-145061904D01*
X215914285Y-113864819D02*
X215914285Y-114579104D01*
X215914285Y-114579104D02*
X215866666Y-114721961D01*
X215866666Y-114721961D02*
X215771428Y-114817200D01*
X215771428Y-114817200D02*
X215628571Y-114864819D01*
X215628571Y-114864819D02*
X215533333Y-114864819D01*
X216914285Y-114864819D02*
X216342857Y-114864819D01*
X216628571Y-114864819D02*
X216628571Y-113864819D01*
X216628571Y-113864819D02*
X216533333Y-114007676D01*
X216533333Y-114007676D02*
X216438095Y-114102914D01*
X216438095Y-114102914D02*
X216342857Y-114150533D01*
X217533333Y-113864819D02*
X217628571Y-113864819D01*
X217628571Y-113864819D02*
X217723809Y-113912438D01*
X217723809Y-113912438D02*
X217771428Y-113960057D01*
X217771428Y-113960057D02*
X217819047Y-114055295D01*
X217819047Y-114055295D02*
X217866666Y-114245771D01*
X217866666Y-114245771D02*
X217866666Y-114483866D01*
X217866666Y-114483866D02*
X217819047Y-114674342D01*
X217819047Y-114674342D02*
X217771428Y-114769580D01*
X217771428Y-114769580D02*
X217723809Y-114817200D01*
X217723809Y-114817200D02*
X217628571Y-114864819D01*
X217628571Y-114864819D02*
X217533333Y-114864819D01*
X217533333Y-114864819D02*
X217438095Y-114817200D01*
X217438095Y-114817200D02*
X217390476Y-114769580D01*
X217390476Y-114769580D02*
X217342857Y-114674342D01*
X217342857Y-114674342D02*
X217295238Y-114483866D01*
X217295238Y-114483866D02*
X217295238Y-114245771D01*
X217295238Y-114245771D02*
X217342857Y-114055295D01*
X217342857Y-114055295D02*
X217390476Y-113960057D01*
X217390476Y-113960057D02*
X217438095Y-113912438D01*
X217438095Y-113912438D02*
X217533333Y-113864819D01*
X218723809Y-114198152D02*
X218723809Y-114864819D01*
X218485714Y-113817200D02*
X218247619Y-114531485D01*
X218247619Y-114531485D02*
X218866666Y-114531485D01*
X219459524Y-152494819D02*
X219459524Y-151494819D01*
X219459524Y-151494819D02*
X219697619Y-151494819D01*
X219697619Y-151494819D02*
X219840476Y-151542438D01*
X219840476Y-151542438D02*
X219935714Y-151637676D01*
X219935714Y-151637676D02*
X219983333Y-151732914D01*
X219983333Y-151732914D02*
X220030952Y-151923390D01*
X220030952Y-151923390D02*
X220030952Y-152066247D01*
X220030952Y-152066247D02*
X219983333Y-152256723D01*
X219983333Y-152256723D02*
X219935714Y-152351961D01*
X219935714Y-152351961D02*
X219840476Y-152447200D01*
X219840476Y-152447200D02*
X219697619Y-152494819D01*
X219697619Y-152494819D02*
X219459524Y-152494819D01*
X220983333Y-152494819D02*
X220411905Y-152494819D01*
X220697619Y-152494819D02*
X220697619Y-151494819D01*
X220697619Y-151494819D02*
X220602381Y-151637676D01*
X220602381Y-151637676D02*
X220507143Y-151732914D01*
X220507143Y-151732914D02*
X220411905Y-151780533D01*
X221602381Y-151494819D02*
X221697619Y-151494819D01*
X221697619Y-151494819D02*
X221792857Y-151542438D01*
X221792857Y-151542438D02*
X221840476Y-151590057D01*
X221840476Y-151590057D02*
X221888095Y-151685295D01*
X221888095Y-151685295D02*
X221935714Y-151875771D01*
X221935714Y-151875771D02*
X221935714Y-152113866D01*
X221935714Y-152113866D02*
X221888095Y-152304342D01*
X221888095Y-152304342D02*
X221840476Y-152399580D01*
X221840476Y-152399580D02*
X221792857Y-152447200D01*
X221792857Y-152447200D02*
X221697619Y-152494819D01*
X221697619Y-152494819D02*
X221602381Y-152494819D01*
X221602381Y-152494819D02*
X221507143Y-152447200D01*
X221507143Y-152447200D02*
X221459524Y-152399580D01*
X221459524Y-152399580D02*
X221411905Y-152304342D01*
X221411905Y-152304342D02*
X221364286Y-152113866D01*
X221364286Y-152113866D02*
X221364286Y-151875771D01*
X221364286Y-151875771D02*
X221411905Y-151685295D01*
X221411905Y-151685295D02*
X221459524Y-151590057D01*
X221459524Y-151590057D02*
X221507143Y-151542438D01*
X221507143Y-151542438D02*
X221602381Y-151494819D01*
X222269048Y-151494819D02*
X222935714Y-151494819D01*
X222935714Y-151494819D02*
X222507143Y-152494819D01*
X225919524Y-158414819D02*
X225919524Y-157414819D01*
X225919524Y-157414819D02*
X226157619Y-157414819D01*
X226157619Y-157414819D02*
X226300476Y-157462438D01*
X226300476Y-157462438D02*
X226395714Y-157557676D01*
X226395714Y-157557676D02*
X226443333Y-157652914D01*
X226443333Y-157652914D02*
X226490952Y-157843390D01*
X226490952Y-157843390D02*
X226490952Y-157986247D01*
X226490952Y-157986247D02*
X226443333Y-158176723D01*
X226443333Y-158176723D02*
X226395714Y-158271961D01*
X226395714Y-158271961D02*
X226300476Y-158367200D01*
X226300476Y-158367200D02*
X226157619Y-158414819D01*
X226157619Y-158414819D02*
X225919524Y-158414819D01*
X227443333Y-158414819D02*
X226871905Y-158414819D01*
X227157619Y-158414819D02*
X227157619Y-157414819D01*
X227157619Y-157414819D02*
X227062381Y-157557676D01*
X227062381Y-157557676D02*
X226967143Y-157652914D01*
X226967143Y-157652914D02*
X226871905Y-157700533D01*
X228062381Y-157414819D02*
X228157619Y-157414819D01*
X228157619Y-157414819D02*
X228252857Y-157462438D01*
X228252857Y-157462438D02*
X228300476Y-157510057D01*
X228300476Y-157510057D02*
X228348095Y-157605295D01*
X228348095Y-157605295D02*
X228395714Y-157795771D01*
X228395714Y-157795771D02*
X228395714Y-158033866D01*
X228395714Y-158033866D02*
X228348095Y-158224342D01*
X228348095Y-158224342D02*
X228300476Y-158319580D01*
X228300476Y-158319580D02*
X228252857Y-158367200D01*
X228252857Y-158367200D02*
X228157619Y-158414819D01*
X228157619Y-158414819D02*
X228062381Y-158414819D01*
X228062381Y-158414819D02*
X227967143Y-158367200D01*
X227967143Y-158367200D02*
X227919524Y-158319580D01*
X227919524Y-158319580D02*
X227871905Y-158224342D01*
X227871905Y-158224342D02*
X227824286Y-158033866D01*
X227824286Y-158033866D02*
X227824286Y-157795771D01*
X227824286Y-157795771D02*
X227871905Y-157605295D01*
X227871905Y-157605295D02*
X227919524Y-157510057D01*
X227919524Y-157510057D02*
X227967143Y-157462438D01*
X227967143Y-157462438D02*
X228062381Y-157414819D01*
X229252857Y-157414819D02*
X229062381Y-157414819D01*
X229062381Y-157414819D02*
X228967143Y-157462438D01*
X228967143Y-157462438D02*
X228919524Y-157510057D01*
X228919524Y-157510057D02*
X228824286Y-157652914D01*
X228824286Y-157652914D02*
X228776667Y-157843390D01*
X228776667Y-157843390D02*
X228776667Y-158224342D01*
X228776667Y-158224342D02*
X228824286Y-158319580D01*
X228824286Y-158319580D02*
X228871905Y-158367200D01*
X228871905Y-158367200D02*
X228967143Y-158414819D01*
X228967143Y-158414819D02*
X229157619Y-158414819D01*
X229157619Y-158414819D02*
X229252857Y-158367200D01*
X229252857Y-158367200D02*
X229300476Y-158319580D01*
X229300476Y-158319580D02*
X229348095Y-158224342D01*
X229348095Y-158224342D02*
X229348095Y-157986247D01*
X229348095Y-157986247D02*
X229300476Y-157891009D01*
X229300476Y-157891009D02*
X229252857Y-157843390D01*
X229252857Y-157843390D02*
X229157619Y-157795771D01*
X229157619Y-157795771D02*
X228967143Y-157795771D01*
X228967143Y-157795771D02*
X228871905Y-157843390D01*
X228871905Y-157843390D02*
X228824286Y-157891009D01*
X228824286Y-157891009D02*
X228776667Y-157986247D01*
X194414819Y-148119047D02*
X193938628Y-148452380D01*
X194414819Y-148690475D02*
X193414819Y-148690475D01*
X193414819Y-148690475D02*
X193414819Y-148309523D01*
X193414819Y-148309523D02*
X193462438Y-148214285D01*
X193462438Y-148214285D02*
X193510057Y-148166666D01*
X193510057Y-148166666D02*
X193605295Y-148119047D01*
X193605295Y-148119047D02*
X193748152Y-148119047D01*
X193748152Y-148119047D02*
X193843390Y-148166666D01*
X193843390Y-148166666D02*
X193891009Y-148214285D01*
X193891009Y-148214285D02*
X193938628Y-148309523D01*
X193938628Y-148309523D02*
X193938628Y-148690475D01*
X194414819Y-147166666D02*
X194414819Y-147738094D01*
X194414819Y-147452380D02*
X193414819Y-147452380D01*
X193414819Y-147452380D02*
X193557676Y-147547618D01*
X193557676Y-147547618D02*
X193652914Y-147642856D01*
X193652914Y-147642856D02*
X193700533Y-147738094D01*
X193414819Y-146547618D02*
X193414819Y-146452380D01*
X193414819Y-146452380D02*
X193462438Y-146357142D01*
X193462438Y-146357142D02*
X193510057Y-146309523D01*
X193510057Y-146309523D02*
X193605295Y-146261904D01*
X193605295Y-146261904D02*
X193795771Y-146214285D01*
X193795771Y-146214285D02*
X194033866Y-146214285D01*
X194033866Y-146214285D02*
X194224342Y-146261904D01*
X194224342Y-146261904D02*
X194319580Y-146309523D01*
X194319580Y-146309523D02*
X194367200Y-146357142D01*
X194367200Y-146357142D02*
X194414819Y-146452380D01*
X194414819Y-146452380D02*
X194414819Y-146547618D01*
X194414819Y-146547618D02*
X194367200Y-146642856D01*
X194367200Y-146642856D02*
X194319580Y-146690475D01*
X194319580Y-146690475D02*
X194224342Y-146738094D01*
X194224342Y-146738094D02*
X194033866Y-146785713D01*
X194033866Y-146785713D02*
X193795771Y-146785713D01*
X193795771Y-146785713D02*
X193605295Y-146738094D01*
X193605295Y-146738094D02*
X193510057Y-146690475D01*
X193510057Y-146690475D02*
X193462438Y-146642856D01*
X193462438Y-146642856D02*
X193414819Y-146547618D01*
X193414819Y-145880951D02*
X193414819Y-145261904D01*
X193414819Y-145261904D02*
X193795771Y-145595237D01*
X193795771Y-145595237D02*
X193795771Y-145452380D01*
X193795771Y-145452380D02*
X193843390Y-145357142D01*
X193843390Y-145357142D02*
X193891009Y-145309523D01*
X193891009Y-145309523D02*
X193986247Y-145261904D01*
X193986247Y-145261904D02*
X194224342Y-145261904D01*
X194224342Y-145261904D02*
X194319580Y-145309523D01*
X194319580Y-145309523D02*
X194367200Y-145357142D01*
X194367200Y-145357142D02*
X194414819Y-145452380D01*
X194414819Y-145452380D02*
X194414819Y-145738094D01*
X194414819Y-145738094D02*
X194367200Y-145833332D01*
X194367200Y-145833332D02*
X194319580Y-145880951D01*
X222234819Y-105739285D02*
X222234819Y-105167857D01*
X223234819Y-105453571D02*
X222234819Y-105453571D01*
X223234819Y-104834523D02*
X222234819Y-104834523D01*
X222234819Y-104834523D02*
X222234819Y-104453571D01*
X222234819Y-104453571D02*
X222282438Y-104358333D01*
X222282438Y-104358333D02*
X222330057Y-104310714D01*
X222330057Y-104310714D02*
X222425295Y-104263095D01*
X222425295Y-104263095D02*
X222568152Y-104263095D01*
X222568152Y-104263095D02*
X222663390Y-104310714D01*
X222663390Y-104310714D02*
X222711009Y-104358333D01*
X222711009Y-104358333D02*
X222758628Y-104453571D01*
X222758628Y-104453571D02*
X222758628Y-104834523D01*
X223234819Y-103310714D02*
X223234819Y-103882142D01*
X223234819Y-103596428D02*
X222234819Y-103596428D01*
X222234819Y-103596428D02*
X222377676Y-103691666D01*
X222377676Y-103691666D02*
X222472914Y-103786904D01*
X222472914Y-103786904D02*
X222520533Y-103882142D01*
X222234819Y-102691666D02*
X222234819Y-102596428D01*
X222234819Y-102596428D02*
X222282438Y-102501190D01*
X222282438Y-102501190D02*
X222330057Y-102453571D01*
X222330057Y-102453571D02*
X222425295Y-102405952D01*
X222425295Y-102405952D02*
X222615771Y-102358333D01*
X222615771Y-102358333D02*
X222853866Y-102358333D01*
X222853866Y-102358333D02*
X223044342Y-102405952D01*
X223044342Y-102405952D02*
X223139580Y-102453571D01*
X223139580Y-102453571D02*
X223187200Y-102501190D01*
X223187200Y-102501190D02*
X223234819Y-102596428D01*
X223234819Y-102596428D02*
X223234819Y-102691666D01*
X223234819Y-102691666D02*
X223187200Y-102786904D01*
X223187200Y-102786904D02*
X223139580Y-102834523D01*
X223139580Y-102834523D02*
X223044342Y-102882142D01*
X223044342Y-102882142D02*
X222853866Y-102929761D01*
X222853866Y-102929761D02*
X222615771Y-102929761D01*
X222615771Y-102929761D02*
X222425295Y-102882142D01*
X222425295Y-102882142D02*
X222330057Y-102834523D01*
X222330057Y-102834523D02*
X222282438Y-102786904D01*
X222282438Y-102786904D02*
X222234819Y-102691666D01*
X223234819Y-101405952D02*
X223234819Y-101977380D01*
X223234819Y-101691666D02*
X222234819Y-101691666D01*
X222234819Y-101691666D02*
X222377676Y-101786904D01*
X222377676Y-101786904D02*
X222472914Y-101882142D01*
X222472914Y-101882142D02*
X222520533Y-101977380D01*
X231254819Y-148119047D02*
X230778628Y-148452380D01*
X231254819Y-148690475D02*
X230254819Y-148690475D01*
X230254819Y-148690475D02*
X230254819Y-148309523D01*
X230254819Y-148309523D02*
X230302438Y-148214285D01*
X230302438Y-148214285D02*
X230350057Y-148166666D01*
X230350057Y-148166666D02*
X230445295Y-148119047D01*
X230445295Y-148119047D02*
X230588152Y-148119047D01*
X230588152Y-148119047D02*
X230683390Y-148166666D01*
X230683390Y-148166666D02*
X230731009Y-148214285D01*
X230731009Y-148214285D02*
X230778628Y-148309523D01*
X230778628Y-148309523D02*
X230778628Y-148690475D01*
X231254819Y-147166666D02*
X231254819Y-147738094D01*
X231254819Y-147452380D02*
X230254819Y-147452380D01*
X230254819Y-147452380D02*
X230397676Y-147547618D01*
X230397676Y-147547618D02*
X230492914Y-147642856D01*
X230492914Y-147642856D02*
X230540533Y-147738094D01*
X230254819Y-146547618D02*
X230254819Y-146452380D01*
X230254819Y-146452380D02*
X230302438Y-146357142D01*
X230302438Y-146357142D02*
X230350057Y-146309523D01*
X230350057Y-146309523D02*
X230445295Y-146261904D01*
X230445295Y-146261904D02*
X230635771Y-146214285D01*
X230635771Y-146214285D02*
X230873866Y-146214285D01*
X230873866Y-146214285D02*
X231064342Y-146261904D01*
X231064342Y-146261904D02*
X231159580Y-146309523D01*
X231159580Y-146309523D02*
X231207200Y-146357142D01*
X231207200Y-146357142D02*
X231254819Y-146452380D01*
X231254819Y-146452380D02*
X231254819Y-146547618D01*
X231254819Y-146547618D02*
X231207200Y-146642856D01*
X231207200Y-146642856D02*
X231159580Y-146690475D01*
X231159580Y-146690475D02*
X231064342Y-146738094D01*
X231064342Y-146738094D02*
X230873866Y-146785713D01*
X230873866Y-146785713D02*
X230635771Y-146785713D01*
X230635771Y-146785713D02*
X230445295Y-146738094D01*
X230445295Y-146738094D02*
X230350057Y-146690475D01*
X230350057Y-146690475D02*
X230302438Y-146642856D01*
X230302438Y-146642856D02*
X230254819Y-146547618D01*
X230254819Y-145309523D02*
X230254819Y-145785713D01*
X230254819Y-145785713D02*
X230731009Y-145833332D01*
X230731009Y-145833332D02*
X230683390Y-145785713D01*
X230683390Y-145785713D02*
X230635771Y-145690475D01*
X230635771Y-145690475D02*
X230635771Y-145452380D01*
X230635771Y-145452380D02*
X230683390Y-145357142D01*
X230683390Y-145357142D02*
X230731009Y-145309523D01*
X230731009Y-145309523D02*
X230826247Y-145261904D01*
X230826247Y-145261904D02*
X231064342Y-145261904D01*
X231064342Y-145261904D02*
X231159580Y-145309523D01*
X231159580Y-145309523D02*
X231207200Y-145357142D01*
X231207200Y-145357142D02*
X231254819Y-145452380D01*
X231254819Y-145452380D02*
X231254819Y-145690475D01*
X231254819Y-145690475D02*
X231207200Y-145785713D01*
X231207200Y-145785713D02*
X231159580Y-145833332D01*
X209304819Y-155715475D02*
X208304819Y-155715475D01*
X208304819Y-155715475D02*
X208304819Y-155477380D01*
X208304819Y-155477380D02*
X208352438Y-155334523D01*
X208352438Y-155334523D02*
X208447676Y-155239285D01*
X208447676Y-155239285D02*
X208542914Y-155191666D01*
X208542914Y-155191666D02*
X208733390Y-155144047D01*
X208733390Y-155144047D02*
X208876247Y-155144047D01*
X208876247Y-155144047D02*
X209066723Y-155191666D01*
X209066723Y-155191666D02*
X209161961Y-155239285D01*
X209161961Y-155239285D02*
X209257200Y-155334523D01*
X209257200Y-155334523D02*
X209304819Y-155477380D01*
X209304819Y-155477380D02*
X209304819Y-155715475D01*
X209304819Y-154191666D02*
X209304819Y-154763094D01*
X209304819Y-154477380D02*
X208304819Y-154477380D01*
X208304819Y-154477380D02*
X208447676Y-154572618D01*
X208447676Y-154572618D02*
X208542914Y-154667856D01*
X208542914Y-154667856D02*
X208590533Y-154763094D01*
X208304819Y-153572618D02*
X208304819Y-153477380D01*
X208304819Y-153477380D02*
X208352438Y-153382142D01*
X208352438Y-153382142D02*
X208400057Y-153334523D01*
X208400057Y-153334523D02*
X208495295Y-153286904D01*
X208495295Y-153286904D02*
X208685771Y-153239285D01*
X208685771Y-153239285D02*
X208923866Y-153239285D01*
X208923866Y-153239285D02*
X209114342Y-153286904D01*
X209114342Y-153286904D02*
X209209580Y-153334523D01*
X209209580Y-153334523D02*
X209257200Y-153382142D01*
X209257200Y-153382142D02*
X209304819Y-153477380D01*
X209304819Y-153477380D02*
X209304819Y-153572618D01*
X209304819Y-153572618D02*
X209257200Y-153667856D01*
X209257200Y-153667856D02*
X209209580Y-153715475D01*
X209209580Y-153715475D02*
X209114342Y-153763094D01*
X209114342Y-153763094D02*
X208923866Y-153810713D01*
X208923866Y-153810713D02*
X208685771Y-153810713D01*
X208685771Y-153810713D02*
X208495295Y-153763094D01*
X208495295Y-153763094D02*
X208400057Y-153715475D01*
X208400057Y-153715475D02*
X208352438Y-153667856D01*
X208352438Y-153667856D02*
X208304819Y-153572618D01*
X208304819Y-152905951D02*
X208304819Y-152286904D01*
X208304819Y-152286904D02*
X208685771Y-152620237D01*
X208685771Y-152620237D02*
X208685771Y-152477380D01*
X208685771Y-152477380D02*
X208733390Y-152382142D01*
X208733390Y-152382142D02*
X208781009Y-152334523D01*
X208781009Y-152334523D02*
X208876247Y-152286904D01*
X208876247Y-152286904D02*
X209114342Y-152286904D01*
X209114342Y-152286904D02*
X209209580Y-152334523D01*
X209209580Y-152334523D02*
X209257200Y-152382142D01*
X209257200Y-152382142D02*
X209304819Y-152477380D01*
X209304819Y-152477380D02*
X209304819Y-152763094D01*
X209304819Y-152763094D02*
X209257200Y-152858332D01*
X209257200Y-152858332D02*
X209209580Y-152905951D01*
X265400057Y-144617619D02*
X265352438Y-144712857D01*
X265352438Y-144712857D02*
X265257200Y-144808095D01*
X265257200Y-144808095D02*
X265114342Y-144950952D01*
X265114342Y-144950952D02*
X265066723Y-145046190D01*
X265066723Y-145046190D02*
X265066723Y-145141428D01*
X265304819Y-145093809D02*
X265257200Y-145189047D01*
X265257200Y-145189047D02*
X265161961Y-145284285D01*
X265161961Y-145284285D02*
X264971485Y-145331904D01*
X264971485Y-145331904D02*
X264638152Y-145331904D01*
X264638152Y-145331904D02*
X264447676Y-145284285D01*
X264447676Y-145284285D02*
X264352438Y-145189047D01*
X264352438Y-145189047D02*
X264304819Y-145093809D01*
X264304819Y-145093809D02*
X264304819Y-144903333D01*
X264304819Y-144903333D02*
X264352438Y-144808095D01*
X264352438Y-144808095D02*
X264447676Y-144712857D01*
X264447676Y-144712857D02*
X264638152Y-144665238D01*
X264638152Y-144665238D02*
X264971485Y-144665238D01*
X264971485Y-144665238D02*
X265161961Y-144712857D01*
X265161961Y-144712857D02*
X265257200Y-144808095D01*
X265257200Y-144808095D02*
X265304819Y-144903333D01*
X265304819Y-144903333D02*
X265304819Y-145093809D01*
X265304819Y-143712857D02*
X265304819Y-144284285D01*
X265304819Y-143998571D02*
X264304819Y-143998571D01*
X264304819Y-143998571D02*
X264447676Y-144093809D01*
X264447676Y-144093809D02*
X264542914Y-144189047D01*
X264542914Y-144189047D02*
X264590533Y-144284285D01*
X264304819Y-143093809D02*
X264304819Y-142998571D01*
X264304819Y-142998571D02*
X264352438Y-142903333D01*
X264352438Y-142903333D02*
X264400057Y-142855714D01*
X264400057Y-142855714D02*
X264495295Y-142808095D01*
X264495295Y-142808095D02*
X264685771Y-142760476D01*
X264685771Y-142760476D02*
X264923866Y-142760476D01*
X264923866Y-142760476D02*
X265114342Y-142808095D01*
X265114342Y-142808095D02*
X265209580Y-142855714D01*
X265209580Y-142855714D02*
X265257200Y-142903333D01*
X265257200Y-142903333D02*
X265304819Y-142998571D01*
X265304819Y-142998571D02*
X265304819Y-143093809D01*
X265304819Y-143093809D02*
X265257200Y-143189047D01*
X265257200Y-143189047D02*
X265209580Y-143236666D01*
X265209580Y-143236666D02*
X265114342Y-143284285D01*
X265114342Y-143284285D02*
X264923866Y-143331904D01*
X264923866Y-143331904D02*
X264685771Y-143331904D01*
X264685771Y-143331904D02*
X264495295Y-143284285D01*
X264495295Y-143284285D02*
X264400057Y-143236666D01*
X264400057Y-143236666D02*
X264352438Y-143189047D01*
X264352438Y-143189047D02*
X264304819Y-143093809D01*
X265304819Y-141808095D02*
X265304819Y-142379523D01*
X265304819Y-142093809D02*
X264304819Y-142093809D01*
X264304819Y-142093809D02*
X264447676Y-142189047D01*
X264447676Y-142189047D02*
X264542914Y-142284285D01*
X264542914Y-142284285D02*
X264590533Y-142379523D01*
X259294286Y-73022200D02*
X259437143Y-73069819D01*
X259437143Y-73069819D02*
X259675238Y-73069819D01*
X259675238Y-73069819D02*
X259770476Y-73022200D01*
X259770476Y-73022200D02*
X259818095Y-72974580D01*
X259818095Y-72974580D02*
X259865714Y-72879342D01*
X259865714Y-72879342D02*
X259865714Y-72784104D01*
X259865714Y-72784104D02*
X259818095Y-72688866D01*
X259818095Y-72688866D02*
X259770476Y-72641247D01*
X259770476Y-72641247D02*
X259675238Y-72593628D01*
X259675238Y-72593628D02*
X259484762Y-72546009D01*
X259484762Y-72546009D02*
X259389524Y-72498390D01*
X259389524Y-72498390D02*
X259341905Y-72450771D01*
X259341905Y-72450771D02*
X259294286Y-72355533D01*
X259294286Y-72355533D02*
X259294286Y-72260295D01*
X259294286Y-72260295D02*
X259341905Y-72165057D01*
X259341905Y-72165057D02*
X259389524Y-72117438D01*
X259389524Y-72117438D02*
X259484762Y-72069819D01*
X259484762Y-72069819D02*
X259722857Y-72069819D01*
X259722857Y-72069819D02*
X259865714Y-72117438D01*
X260199048Y-72069819D02*
X260437143Y-73069819D01*
X260437143Y-73069819D02*
X260627619Y-72355533D01*
X260627619Y-72355533D02*
X260818095Y-73069819D01*
X260818095Y-73069819D02*
X261056191Y-72069819D01*
X261960952Y-73069819D02*
X261389524Y-73069819D01*
X261675238Y-73069819D02*
X261675238Y-72069819D01*
X261675238Y-72069819D02*
X261580000Y-72212676D01*
X261580000Y-72212676D02*
X261484762Y-72307914D01*
X261484762Y-72307914D02*
X261389524Y-72355533D01*
X262580000Y-72069819D02*
X262675238Y-72069819D01*
X262675238Y-72069819D02*
X262770476Y-72117438D01*
X262770476Y-72117438D02*
X262818095Y-72165057D01*
X262818095Y-72165057D02*
X262865714Y-72260295D01*
X262865714Y-72260295D02*
X262913333Y-72450771D01*
X262913333Y-72450771D02*
X262913333Y-72688866D01*
X262913333Y-72688866D02*
X262865714Y-72879342D01*
X262865714Y-72879342D02*
X262818095Y-72974580D01*
X262818095Y-72974580D02*
X262770476Y-73022200D01*
X262770476Y-73022200D02*
X262675238Y-73069819D01*
X262675238Y-73069819D02*
X262580000Y-73069819D01*
X262580000Y-73069819D02*
X262484762Y-73022200D01*
X262484762Y-73022200D02*
X262437143Y-72974580D01*
X262437143Y-72974580D02*
X262389524Y-72879342D01*
X262389524Y-72879342D02*
X262341905Y-72688866D01*
X262341905Y-72688866D02*
X262341905Y-72450771D01*
X262341905Y-72450771D02*
X262389524Y-72260295D01*
X262389524Y-72260295D02*
X262437143Y-72165057D01*
X262437143Y-72165057D02*
X262484762Y-72117438D01*
X262484762Y-72117438D02*
X262580000Y-72069819D01*
X263294286Y-72165057D02*
X263341905Y-72117438D01*
X263341905Y-72117438D02*
X263437143Y-72069819D01*
X263437143Y-72069819D02*
X263675238Y-72069819D01*
X263675238Y-72069819D02*
X263770476Y-72117438D01*
X263770476Y-72117438D02*
X263818095Y-72165057D01*
X263818095Y-72165057D02*
X263865714Y-72260295D01*
X263865714Y-72260295D02*
X263865714Y-72355533D01*
X263865714Y-72355533D02*
X263818095Y-72498390D01*
X263818095Y-72498390D02*
X263246667Y-73069819D01*
X263246667Y-73069819D02*
X263865714Y-73069819D01*
X262714285Y-107884819D02*
X262714285Y-108599104D01*
X262714285Y-108599104D02*
X262666666Y-108741961D01*
X262666666Y-108741961D02*
X262571428Y-108837200D01*
X262571428Y-108837200D02*
X262428571Y-108884819D01*
X262428571Y-108884819D02*
X262333333Y-108884819D01*
X263714285Y-108884819D02*
X263142857Y-108884819D01*
X263428571Y-108884819D02*
X263428571Y-107884819D01*
X263428571Y-107884819D02*
X263333333Y-108027676D01*
X263333333Y-108027676D02*
X263238095Y-108122914D01*
X263238095Y-108122914D02*
X263142857Y-108170533D01*
X264333333Y-107884819D02*
X264428571Y-107884819D01*
X264428571Y-107884819D02*
X264523809Y-107932438D01*
X264523809Y-107932438D02*
X264571428Y-107980057D01*
X264571428Y-107980057D02*
X264619047Y-108075295D01*
X264619047Y-108075295D02*
X264666666Y-108265771D01*
X264666666Y-108265771D02*
X264666666Y-108503866D01*
X264666666Y-108503866D02*
X264619047Y-108694342D01*
X264619047Y-108694342D02*
X264571428Y-108789580D01*
X264571428Y-108789580D02*
X264523809Y-108837200D01*
X264523809Y-108837200D02*
X264428571Y-108884819D01*
X264428571Y-108884819D02*
X264333333Y-108884819D01*
X264333333Y-108884819D02*
X264238095Y-108837200D01*
X264238095Y-108837200D02*
X264190476Y-108789580D01*
X264190476Y-108789580D02*
X264142857Y-108694342D01*
X264142857Y-108694342D02*
X264095238Y-108503866D01*
X264095238Y-108503866D02*
X264095238Y-108265771D01*
X264095238Y-108265771D02*
X264142857Y-108075295D01*
X264142857Y-108075295D02*
X264190476Y-107980057D01*
X264190476Y-107980057D02*
X264238095Y-107932438D01*
X264238095Y-107932438D02*
X264333333Y-107884819D01*
X265571428Y-107884819D02*
X265095238Y-107884819D01*
X265095238Y-107884819D02*
X265047619Y-108361009D01*
X265047619Y-108361009D02*
X265095238Y-108313390D01*
X265095238Y-108313390D02*
X265190476Y-108265771D01*
X265190476Y-108265771D02*
X265428571Y-108265771D01*
X265428571Y-108265771D02*
X265523809Y-108313390D01*
X265523809Y-108313390D02*
X265571428Y-108361009D01*
X265571428Y-108361009D02*
X265619047Y-108456247D01*
X265619047Y-108456247D02*
X265619047Y-108694342D01*
X265619047Y-108694342D02*
X265571428Y-108789580D01*
X265571428Y-108789580D02*
X265523809Y-108837200D01*
X265523809Y-108837200D02*
X265428571Y-108884819D01*
X265428571Y-108884819D02*
X265190476Y-108884819D01*
X265190476Y-108884819D02*
X265095238Y-108837200D01*
X265095238Y-108837200D02*
X265047619Y-108789580D01*
X193454819Y-104610714D02*
X194169104Y-104610714D01*
X194169104Y-104610714D02*
X194311961Y-104658333D01*
X194311961Y-104658333D02*
X194407200Y-104753571D01*
X194407200Y-104753571D02*
X194454819Y-104896428D01*
X194454819Y-104896428D02*
X194454819Y-104991666D01*
X194454819Y-103610714D02*
X194454819Y-104182142D01*
X194454819Y-103896428D02*
X193454819Y-103896428D01*
X193454819Y-103896428D02*
X193597676Y-103991666D01*
X193597676Y-103991666D02*
X193692914Y-104086904D01*
X193692914Y-104086904D02*
X193740533Y-104182142D01*
X193454819Y-102991666D02*
X193454819Y-102896428D01*
X193454819Y-102896428D02*
X193502438Y-102801190D01*
X193502438Y-102801190D02*
X193550057Y-102753571D01*
X193550057Y-102753571D02*
X193645295Y-102705952D01*
X193645295Y-102705952D02*
X193835771Y-102658333D01*
X193835771Y-102658333D02*
X194073866Y-102658333D01*
X194073866Y-102658333D02*
X194264342Y-102705952D01*
X194264342Y-102705952D02*
X194359580Y-102753571D01*
X194359580Y-102753571D02*
X194407200Y-102801190D01*
X194407200Y-102801190D02*
X194454819Y-102896428D01*
X194454819Y-102896428D02*
X194454819Y-102991666D01*
X194454819Y-102991666D02*
X194407200Y-103086904D01*
X194407200Y-103086904D02*
X194359580Y-103134523D01*
X194359580Y-103134523D02*
X194264342Y-103182142D01*
X194264342Y-103182142D02*
X194073866Y-103229761D01*
X194073866Y-103229761D02*
X193835771Y-103229761D01*
X193835771Y-103229761D02*
X193645295Y-103182142D01*
X193645295Y-103182142D02*
X193550057Y-103134523D01*
X193550057Y-103134523D02*
X193502438Y-103086904D01*
X193502438Y-103086904D02*
X193454819Y-102991666D01*
X193454819Y-101801190D02*
X193454819Y-101991666D01*
X193454819Y-101991666D02*
X193502438Y-102086904D01*
X193502438Y-102086904D02*
X193550057Y-102134523D01*
X193550057Y-102134523D02*
X193692914Y-102229761D01*
X193692914Y-102229761D02*
X193883390Y-102277380D01*
X193883390Y-102277380D02*
X194264342Y-102277380D01*
X194264342Y-102277380D02*
X194359580Y-102229761D01*
X194359580Y-102229761D02*
X194407200Y-102182142D01*
X194407200Y-102182142D02*
X194454819Y-102086904D01*
X194454819Y-102086904D02*
X194454819Y-101896428D01*
X194454819Y-101896428D02*
X194407200Y-101801190D01*
X194407200Y-101801190D02*
X194359580Y-101753571D01*
X194359580Y-101753571D02*
X194264342Y-101705952D01*
X194264342Y-101705952D02*
X194026247Y-101705952D01*
X194026247Y-101705952D02*
X193931009Y-101753571D01*
X193931009Y-101753571D02*
X193883390Y-101801190D01*
X193883390Y-101801190D02*
X193835771Y-101896428D01*
X193835771Y-101896428D02*
X193835771Y-102086904D01*
X193835771Y-102086904D02*
X193883390Y-102182142D01*
X193883390Y-102182142D02*
X193931009Y-102229761D01*
X193931009Y-102229761D02*
X194026247Y-102277380D01*
X263974819Y-132644047D02*
X263498628Y-132977380D01*
X263974819Y-133215475D02*
X262974819Y-133215475D01*
X262974819Y-133215475D02*
X262974819Y-132834523D01*
X262974819Y-132834523D02*
X263022438Y-132739285D01*
X263022438Y-132739285D02*
X263070057Y-132691666D01*
X263070057Y-132691666D02*
X263165295Y-132644047D01*
X263165295Y-132644047D02*
X263308152Y-132644047D01*
X263308152Y-132644047D02*
X263403390Y-132691666D01*
X263403390Y-132691666D02*
X263451009Y-132739285D01*
X263451009Y-132739285D02*
X263498628Y-132834523D01*
X263498628Y-132834523D02*
X263498628Y-133215475D01*
X263974819Y-131691666D02*
X263974819Y-132263094D01*
X263974819Y-131977380D02*
X262974819Y-131977380D01*
X262974819Y-131977380D02*
X263117676Y-132072618D01*
X263117676Y-132072618D02*
X263212914Y-132167856D01*
X263212914Y-132167856D02*
X263260533Y-132263094D01*
X262974819Y-131072618D02*
X262974819Y-130977380D01*
X262974819Y-130977380D02*
X263022438Y-130882142D01*
X263022438Y-130882142D02*
X263070057Y-130834523D01*
X263070057Y-130834523D02*
X263165295Y-130786904D01*
X263165295Y-130786904D02*
X263355771Y-130739285D01*
X263355771Y-130739285D02*
X263593866Y-130739285D01*
X263593866Y-130739285D02*
X263784342Y-130786904D01*
X263784342Y-130786904D02*
X263879580Y-130834523D01*
X263879580Y-130834523D02*
X263927200Y-130882142D01*
X263927200Y-130882142D02*
X263974819Y-130977380D01*
X263974819Y-130977380D02*
X263974819Y-131072618D01*
X263974819Y-131072618D02*
X263927200Y-131167856D01*
X263927200Y-131167856D02*
X263879580Y-131215475D01*
X263879580Y-131215475D02*
X263784342Y-131263094D01*
X263784342Y-131263094D02*
X263593866Y-131310713D01*
X263593866Y-131310713D02*
X263355771Y-131310713D01*
X263355771Y-131310713D02*
X263165295Y-131263094D01*
X263165295Y-131263094D02*
X263070057Y-131215475D01*
X263070057Y-131215475D02*
X263022438Y-131167856D01*
X263022438Y-131167856D02*
X262974819Y-131072618D01*
X262974819Y-130405951D02*
X262974819Y-129739285D01*
X262974819Y-129739285D02*
X263974819Y-130167856D01*
X201414819Y-148119047D02*
X200938628Y-148452380D01*
X201414819Y-148690475D02*
X200414819Y-148690475D01*
X200414819Y-148690475D02*
X200414819Y-148309523D01*
X200414819Y-148309523D02*
X200462438Y-148214285D01*
X200462438Y-148214285D02*
X200510057Y-148166666D01*
X200510057Y-148166666D02*
X200605295Y-148119047D01*
X200605295Y-148119047D02*
X200748152Y-148119047D01*
X200748152Y-148119047D02*
X200843390Y-148166666D01*
X200843390Y-148166666D02*
X200891009Y-148214285D01*
X200891009Y-148214285D02*
X200938628Y-148309523D01*
X200938628Y-148309523D02*
X200938628Y-148690475D01*
X201414819Y-147166666D02*
X201414819Y-147738094D01*
X201414819Y-147452380D02*
X200414819Y-147452380D01*
X200414819Y-147452380D02*
X200557676Y-147547618D01*
X200557676Y-147547618D02*
X200652914Y-147642856D01*
X200652914Y-147642856D02*
X200700533Y-147738094D01*
X200414819Y-146547618D02*
X200414819Y-146452380D01*
X200414819Y-146452380D02*
X200462438Y-146357142D01*
X200462438Y-146357142D02*
X200510057Y-146309523D01*
X200510057Y-146309523D02*
X200605295Y-146261904D01*
X200605295Y-146261904D02*
X200795771Y-146214285D01*
X200795771Y-146214285D02*
X201033866Y-146214285D01*
X201033866Y-146214285D02*
X201224342Y-146261904D01*
X201224342Y-146261904D02*
X201319580Y-146309523D01*
X201319580Y-146309523D02*
X201367200Y-146357142D01*
X201367200Y-146357142D02*
X201414819Y-146452380D01*
X201414819Y-146452380D02*
X201414819Y-146547618D01*
X201414819Y-146547618D02*
X201367200Y-146642856D01*
X201367200Y-146642856D02*
X201319580Y-146690475D01*
X201319580Y-146690475D02*
X201224342Y-146738094D01*
X201224342Y-146738094D02*
X201033866Y-146785713D01*
X201033866Y-146785713D02*
X200795771Y-146785713D01*
X200795771Y-146785713D02*
X200605295Y-146738094D01*
X200605295Y-146738094D02*
X200510057Y-146690475D01*
X200510057Y-146690475D02*
X200462438Y-146642856D01*
X200462438Y-146642856D02*
X200414819Y-146547618D01*
X201414819Y-145261904D02*
X201414819Y-145833332D01*
X201414819Y-145547618D02*
X200414819Y-145547618D01*
X200414819Y-145547618D02*
X200557676Y-145642856D01*
X200557676Y-145642856D02*
X200652914Y-145738094D01*
X200652914Y-145738094D02*
X200700533Y-145833332D01*
X213654819Y-104810714D02*
X214369104Y-104810714D01*
X214369104Y-104810714D02*
X214511961Y-104858333D01*
X214511961Y-104858333D02*
X214607200Y-104953571D01*
X214607200Y-104953571D02*
X214654819Y-105096428D01*
X214654819Y-105096428D02*
X214654819Y-105191666D01*
X214654819Y-103810714D02*
X214654819Y-104382142D01*
X214654819Y-104096428D02*
X213654819Y-104096428D01*
X213654819Y-104096428D02*
X213797676Y-104191666D01*
X213797676Y-104191666D02*
X213892914Y-104286904D01*
X213892914Y-104286904D02*
X213940533Y-104382142D01*
X213654819Y-103191666D02*
X213654819Y-103096428D01*
X213654819Y-103096428D02*
X213702438Y-103001190D01*
X213702438Y-103001190D02*
X213750057Y-102953571D01*
X213750057Y-102953571D02*
X213845295Y-102905952D01*
X213845295Y-102905952D02*
X214035771Y-102858333D01*
X214035771Y-102858333D02*
X214273866Y-102858333D01*
X214273866Y-102858333D02*
X214464342Y-102905952D01*
X214464342Y-102905952D02*
X214559580Y-102953571D01*
X214559580Y-102953571D02*
X214607200Y-103001190D01*
X214607200Y-103001190D02*
X214654819Y-103096428D01*
X214654819Y-103096428D02*
X214654819Y-103191666D01*
X214654819Y-103191666D02*
X214607200Y-103286904D01*
X214607200Y-103286904D02*
X214559580Y-103334523D01*
X214559580Y-103334523D02*
X214464342Y-103382142D01*
X214464342Y-103382142D02*
X214273866Y-103429761D01*
X214273866Y-103429761D02*
X214035771Y-103429761D01*
X214035771Y-103429761D02*
X213845295Y-103382142D01*
X213845295Y-103382142D02*
X213750057Y-103334523D01*
X213750057Y-103334523D02*
X213702438Y-103286904D01*
X213702438Y-103286904D02*
X213654819Y-103191666D01*
X213750057Y-102477380D02*
X213702438Y-102429761D01*
X213702438Y-102429761D02*
X213654819Y-102334523D01*
X213654819Y-102334523D02*
X213654819Y-102096428D01*
X213654819Y-102096428D02*
X213702438Y-102001190D01*
X213702438Y-102001190D02*
X213750057Y-101953571D01*
X213750057Y-101953571D02*
X213845295Y-101905952D01*
X213845295Y-101905952D02*
X213940533Y-101905952D01*
X213940533Y-101905952D02*
X214083390Y-101953571D01*
X214083390Y-101953571D02*
X214654819Y-102524999D01*
X214654819Y-102524999D02*
X214654819Y-101905952D01*
X226254819Y-148119047D02*
X225778628Y-148452380D01*
X226254819Y-148690475D02*
X225254819Y-148690475D01*
X225254819Y-148690475D02*
X225254819Y-148309523D01*
X225254819Y-148309523D02*
X225302438Y-148214285D01*
X225302438Y-148214285D02*
X225350057Y-148166666D01*
X225350057Y-148166666D02*
X225445295Y-148119047D01*
X225445295Y-148119047D02*
X225588152Y-148119047D01*
X225588152Y-148119047D02*
X225683390Y-148166666D01*
X225683390Y-148166666D02*
X225731009Y-148214285D01*
X225731009Y-148214285D02*
X225778628Y-148309523D01*
X225778628Y-148309523D02*
X225778628Y-148690475D01*
X226254819Y-147166666D02*
X226254819Y-147738094D01*
X226254819Y-147452380D02*
X225254819Y-147452380D01*
X225254819Y-147452380D02*
X225397676Y-147547618D01*
X225397676Y-147547618D02*
X225492914Y-147642856D01*
X225492914Y-147642856D02*
X225540533Y-147738094D01*
X225254819Y-146547618D02*
X225254819Y-146452380D01*
X225254819Y-146452380D02*
X225302438Y-146357142D01*
X225302438Y-146357142D02*
X225350057Y-146309523D01*
X225350057Y-146309523D02*
X225445295Y-146261904D01*
X225445295Y-146261904D02*
X225635771Y-146214285D01*
X225635771Y-146214285D02*
X225873866Y-146214285D01*
X225873866Y-146214285D02*
X226064342Y-146261904D01*
X226064342Y-146261904D02*
X226159580Y-146309523D01*
X226159580Y-146309523D02*
X226207200Y-146357142D01*
X226207200Y-146357142D02*
X226254819Y-146452380D01*
X226254819Y-146452380D02*
X226254819Y-146547618D01*
X226254819Y-146547618D02*
X226207200Y-146642856D01*
X226207200Y-146642856D02*
X226159580Y-146690475D01*
X226159580Y-146690475D02*
X226064342Y-146738094D01*
X226064342Y-146738094D02*
X225873866Y-146785713D01*
X225873866Y-146785713D02*
X225635771Y-146785713D01*
X225635771Y-146785713D02*
X225445295Y-146738094D01*
X225445295Y-146738094D02*
X225350057Y-146690475D01*
X225350057Y-146690475D02*
X225302438Y-146642856D01*
X225302438Y-146642856D02*
X225254819Y-146547618D01*
X225254819Y-145357142D02*
X225254819Y-145547618D01*
X225254819Y-145547618D02*
X225302438Y-145642856D01*
X225302438Y-145642856D02*
X225350057Y-145690475D01*
X225350057Y-145690475D02*
X225492914Y-145785713D01*
X225492914Y-145785713D02*
X225683390Y-145833332D01*
X225683390Y-145833332D02*
X226064342Y-145833332D01*
X226064342Y-145833332D02*
X226159580Y-145785713D01*
X226159580Y-145785713D02*
X226207200Y-145738094D01*
X226207200Y-145738094D02*
X226254819Y-145642856D01*
X226254819Y-145642856D02*
X226254819Y-145452380D01*
X226254819Y-145452380D02*
X226207200Y-145357142D01*
X226207200Y-145357142D02*
X226159580Y-145309523D01*
X226159580Y-145309523D02*
X226064342Y-145261904D01*
X226064342Y-145261904D02*
X225826247Y-145261904D01*
X225826247Y-145261904D02*
X225731009Y-145309523D01*
X225731009Y-145309523D02*
X225683390Y-145357142D01*
X225683390Y-145357142D02*
X225635771Y-145452380D01*
X225635771Y-145452380D02*
X225635771Y-145642856D01*
X225635771Y-145642856D02*
X225683390Y-145738094D01*
X225683390Y-145738094D02*
X225731009Y-145785713D01*
X225731009Y-145785713D02*
X225826247Y-145833332D01*
X201804819Y-155965475D02*
X200804819Y-155965475D01*
X200804819Y-155965475D02*
X200804819Y-155727380D01*
X200804819Y-155727380D02*
X200852438Y-155584523D01*
X200852438Y-155584523D02*
X200947676Y-155489285D01*
X200947676Y-155489285D02*
X201042914Y-155441666D01*
X201042914Y-155441666D02*
X201233390Y-155394047D01*
X201233390Y-155394047D02*
X201376247Y-155394047D01*
X201376247Y-155394047D02*
X201566723Y-155441666D01*
X201566723Y-155441666D02*
X201661961Y-155489285D01*
X201661961Y-155489285D02*
X201757200Y-155584523D01*
X201757200Y-155584523D02*
X201804819Y-155727380D01*
X201804819Y-155727380D02*
X201804819Y-155965475D01*
X201804819Y-154441666D02*
X201804819Y-155013094D01*
X201804819Y-154727380D02*
X200804819Y-154727380D01*
X200804819Y-154727380D02*
X200947676Y-154822618D01*
X200947676Y-154822618D02*
X201042914Y-154917856D01*
X201042914Y-154917856D02*
X201090533Y-155013094D01*
X200804819Y-153822618D02*
X200804819Y-153727380D01*
X200804819Y-153727380D02*
X200852438Y-153632142D01*
X200852438Y-153632142D02*
X200900057Y-153584523D01*
X200900057Y-153584523D02*
X200995295Y-153536904D01*
X200995295Y-153536904D02*
X201185771Y-153489285D01*
X201185771Y-153489285D02*
X201423866Y-153489285D01*
X201423866Y-153489285D02*
X201614342Y-153536904D01*
X201614342Y-153536904D02*
X201709580Y-153584523D01*
X201709580Y-153584523D02*
X201757200Y-153632142D01*
X201757200Y-153632142D02*
X201804819Y-153727380D01*
X201804819Y-153727380D02*
X201804819Y-153822618D01*
X201804819Y-153822618D02*
X201757200Y-153917856D01*
X201757200Y-153917856D02*
X201709580Y-153965475D01*
X201709580Y-153965475D02*
X201614342Y-154013094D01*
X201614342Y-154013094D02*
X201423866Y-154060713D01*
X201423866Y-154060713D02*
X201185771Y-154060713D01*
X201185771Y-154060713D02*
X200995295Y-154013094D01*
X200995295Y-154013094D02*
X200900057Y-153965475D01*
X200900057Y-153965475D02*
X200852438Y-153917856D01*
X200852438Y-153917856D02*
X200804819Y-153822618D01*
X200900057Y-153108332D02*
X200852438Y-153060713D01*
X200852438Y-153060713D02*
X200804819Y-152965475D01*
X200804819Y-152965475D02*
X200804819Y-152727380D01*
X200804819Y-152727380D02*
X200852438Y-152632142D01*
X200852438Y-152632142D02*
X200900057Y-152584523D01*
X200900057Y-152584523D02*
X200995295Y-152536904D01*
X200995295Y-152536904D02*
X201090533Y-152536904D01*
X201090533Y-152536904D02*
X201233390Y-152584523D01*
X201233390Y-152584523D02*
X201804819Y-153155951D01*
X201804819Y-153155951D02*
X201804819Y-152536904D01*
X232810714Y-86094819D02*
X232810714Y-86904342D01*
X232810714Y-86904342D02*
X232858333Y-86999580D01*
X232858333Y-86999580D02*
X232905952Y-87047200D01*
X232905952Y-87047200D02*
X233001190Y-87094819D01*
X233001190Y-87094819D02*
X233191666Y-87094819D01*
X233191666Y-87094819D02*
X233286904Y-87047200D01*
X233286904Y-87047200D02*
X233334523Y-86999580D01*
X233334523Y-86999580D02*
X233382142Y-86904342D01*
X233382142Y-86904342D02*
X233382142Y-86094819D01*
X234382142Y-87094819D02*
X233810714Y-87094819D01*
X234096428Y-87094819D02*
X234096428Y-86094819D01*
X234096428Y-86094819D02*
X234001190Y-86237676D01*
X234001190Y-86237676D02*
X233905952Y-86332914D01*
X233905952Y-86332914D02*
X233810714Y-86380533D01*
X235001190Y-86094819D02*
X235096428Y-86094819D01*
X235096428Y-86094819D02*
X235191666Y-86142438D01*
X235191666Y-86142438D02*
X235239285Y-86190057D01*
X235239285Y-86190057D02*
X235286904Y-86285295D01*
X235286904Y-86285295D02*
X235334523Y-86475771D01*
X235334523Y-86475771D02*
X235334523Y-86713866D01*
X235334523Y-86713866D02*
X235286904Y-86904342D01*
X235286904Y-86904342D02*
X235239285Y-86999580D01*
X235239285Y-86999580D02*
X235191666Y-87047200D01*
X235191666Y-87047200D02*
X235096428Y-87094819D01*
X235096428Y-87094819D02*
X235001190Y-87094819D01*
X235001190Y-87094819D02*
X234905952Y-87047200D01*
X234905952Y-87047200D02*
X234858333Y-86999580D01*
X234858333Y-86999580D02*
X234810714Y-86904342D01*
X234810714Y-86904342D02*
X234763095Y-86713866D01*
X234763095Y-86713866D02*
X234763095Y-86475771D01*
X234763095Y-86475771D02*
X234810714Y-86285295D01*
X234810714Y-86285295D02*
X234858333Y-86190057D01*
X234858333Y-86190057D02*
X234905952Y-86142438D01*
X234905952Y-86142438D02*
X235001190Y-86094819D01*
X236286904Y-87094819D02*
X235715476Y-87094819D01*
X236001190Y-87094819D02*
X236001190Y-86094819D01*
X236001190Y-86094819D02*
X235905952Y-86237676D01*
X235905952Y-86237676D02*
X235810714Y-86332914D01*
X235810714Y-86332914D02*
X235715476Y-86380533D01*
X202189524Y-74734819D02*
X202189524Y-73734819D01*
X202189524Y-73734819D02*
X202427619Y-73734819D01*
X202427619Y-73734819D02*
X202570476Y-73782438D01*
X202570476Y-73782438D02*
X202665714Y-73877676D01*
X202665714Y-73877676D02*
X202713333Y-73972914D01*
X202713333Y-73972914D02*
X202760952Y-74163390D01*
X202760952Y-74163390D02*
X202760952Y-74306247D01*
X202760952Y-74306247D02*
X202713333Y-74496723D01*
X202713333Y-74496723D02*
X202665714Y-74591961D01*
X202665714Y-74591961D02*
X202570476Y-74687200D01*
X202570476Y-74687200D02*
X202427619Y-74734819D01*
X202427619Y-74734819D02*
X202189524Y-74734819D01*
X203713333Y-74734819D02*
X203141905Y-74734819D01*
X203427619Y-74734819D02*
X203427619Y-73734819D01*
X203427619Y-73734819D02*
X203332381Y-73877676D01*
X203332381Y-73877676D02*
X203237143Y-73972914D01*
X203237143Y-73972914D02*
X203141905Y-74020533D01*
X204332381Y-73734819D02*
X204427619Y-73734819D01*
X204427619Y-73734819D02*
X204522857Y-73782438D01*
X204522857Y-73782438D02*
X204570476Y-73830057D01*
X204570476Y-73830057D02*
X204618095Y-73925295D01*
X204618095Y-73925295D02*
X204665714Y-74115771D01*
X204665714Y-74115771D02*
X204665714Y-74353866D01*
X204665714Y-74353866D02*
X204618095Y-74544342D01*
X204618095Y-74544342D02*
X204570476Y-74639580D01*
X204570476Y-74639580D02*
X204522857Y-74687200D01*
X204522857Y-74687200D02*
X204427619Y-74734819D01*
X204427619Y-74734819D02*
X204332381Y-74734819D01*
X204332381Y-74734819D02*
X204237143Y-74687200D01*
X204237143Y-74687200D02*
X204189524Y-74639580D01*
X204189524Y-74639580D02*
X204141905Y-74544342D01*
X204141905Y-74544342D02*
X204094286Y-74353866D01*
X204094286Y-74353866D02*
X204094286Y-74115771D01*
X204094286Y-74115771D02*
X204141905Y-73925295D01*
X204141905Y-73925295D02*
X204189524Y-73830057D01*
X204189524Y-73830057D02*
X204237143Y-73782438D01*
X204237143Y-73782438D02*
X204332381Y-73734819D01*
X205618095Y-74734819D02*
X205046667Y-74734819D01*
X205332381Y-74734819D02*
X205332381Y-73734819D01*
X205332381Y-73734819D02*
X205237143Y-73877676D01*
X205237143Y-73877676D02*
X205141905Y-73972914D01*
X205141905Y-73972914D02*
X205046667Y-74020533D01*
X195998095Y-75854819D02*
X195998095Y-74854819D01*
X196569523Y-75854819D02*
X196140952Y-75283390D01*
X196569523Y-74854819D02*
X195998095Y-75426247D01*
X247130952Y-76484819D02*
X246797619Y-76008628D01*
X246559524Y-76484819D02*
X246559524Y-75484819D01*
X246559524Y-75484819D02*
X246940476Y-75484819D01*
X246940476Y-75484819D02*
X247035714Y-75532438D01*
X247035714Y-75532438D02*
X247083333Y-75580057D01*
X247083333Y-75580057D02*
X247130952Y-75675295D01*
X247130952Y-75675295D02*
X247130952Y-75818152D01*
X247130952Y-75818152D02*
X247083333Y-75913390D01*
X247083333Y-75913390D02*
X247035714Y-75961009D01*
X247035714Y-75961009D02*
X246940476Y-76008628D01*
X246940476Y-76008628D02*
X246559524Y-76008628D01*
X248083333Y-76484819D02*
X247511905Y-76484819D01*
X247797619Y-76484819D02*
X247797619Y-75484819D01*
X247797619Y-75484819D02*
X247702381Y-75627676D01*
X247702381Y-75627676D02*
X247607143Y-75722914D01*
X247607143Y-75722914D02*
X247511905Y-75770533D01*
X248702381Y-75484819D02*
X248797619Y-75484819D01*
X248797619Y-75484819D02*
X248892857Y-75532438D01*
X248892857Y-75532438D02*
X248940476Y-75580057D01*
X248940476Y-75580057D02*
X248988095Y-75675295D01*
X248988095Y-75675295D02*
X249035714Y-75865771D01*
X249035714Y-75865771D02*
X249035714Y-76103866D01*
X249035714Y-76103866D02*
X248988095Y-76294342D01*
X248988095Y-76294342D02*
X248940476Y-76389580D01*
X248940476Y-76389580D02*
X248892857Y-76437200D01*
X248892857Y-76437200D02*
X248797619Y-76484819D01*
X248797619Y-76484819D02*
X248702381Y-76484819D01*
X248702381Y-76484819D02*
X248607143Y-76437200D01*
X248607143Y-76437200D02*
X248559524Y-76389580D01*
X248559524Y-76389580D02*
X248511905Y-76294342D01*
X248511905Y-76294342D02*
X248464286Y-76103866D01*
X248464286Y-76103866D02*
X248464286Y-75865771D01*
X248464286Y-75865771D02*
X248511905Y-75675295D01*
X248511905Y-75675295D02*
X248559524Y-75580057D01*
X248559524Y-75580057D02*
X248607143Y-75532438D01*
X248607143Y-75532438D02*
X248702381Y-75484819D01*
X249892857Y-75818152D02*
X249892857Y-76484819D01*
X249654762Y-75437200D02*
X249416667Y-76151485D01*
X249416667Y-76151485D02*
X250035714Y-76151485D01*
X257524819Y-157885714D02*
X258239104Y-157885714D01*
X258239104Y-157885714D02*
X258381961Y-157933333D01*
X258381961Y-157933333D02*
X258477200Y-158028571D01*
X258477200Y-158028571D02*
X258524819Y-158171428D01*
X258524819Y-158171428D02*
X258524819Y-158266666D01*
X258524819Y-156885714D02*
X258524819Y-157457142D01*
X258524819Y-157171428D02*
X257524819Y-157171428D01*
X257524819Y-157171428D02*
X257667676Y-157266666D01*
X257667676Y-157266666D02*
X257762914Y-157361904D01*
X257762914Y-157361904D02*
X257810533Y-157457142D01*
X258524819Y-155933333D02*
X258524819Y-156504761D01*
X258524819Y-156219047D02*
X257524819Y-156219047D01*
X257524819Y-156219047D02*
X257667676Y-156314285D01*
X257667676Y-156314285D02*
X257762914Y-156409523D01*
X257762914Y-156409523D02*
X257810533Y-156504761D01*
X257620057Y-155552380D02*
X257572438Y-155504761D01*
X257572438Y-155504761D02*
X257524819Y-155409523D01*
X257524819Y-155409523D02*
X257524819Y-155171428D01*
X257524819Y-155171428D02*
X257572438Y-155076190D01*
X257572438Y-155076190D02*
X257620057Y-155028571D01*
X257620057Y-155028571D02*
X257715295Y-154980952D01*
X257715295Y-154980952D02*
X257810533Y-154980952D01*
X257810533Y-154980952D02*
X257953390Y-155028571D01*
X257953390Y-155028571D02*
X258524819Y-155599999D01*
X258524819Y-155599999D02*
X258524819Y-154980952D01*
X239614524Y-140344819D02*
X239614524Y-139344819D01*
X240185952Y-140344819D02*
X239757381Y-139773390D01*
X240185952Y-139344819D02*
X239614524Y-139916247D01*
X241138333Y-140344819D02*
X240566905Y-140344819D01*
X240852619Y-140344819D02*
X240852619Y-139344819D01*
X240852619Y-139344819D02*
X240757381Y-139487676D01*
X240757381Y-139487676D02*
X240662143Y-139582914D01*
X240662143Y-139582914D02*
X240566905Y-139630533D01*
X241757381Y-139344819D02*
X241852619Y-139344819D01*
X241852619Y-139344819D02*
X241947857Y-139392438D01*
X241947857Y-139392438D02*
X241995476Y-139440057D01*
X241995476Y-139440057D02*
X242043095Y-139535295D01*
X242043095Y-139535295D02*
X242090714Y-139725771D01*
X242090714Y-139725771D02*
X242090714Y-139963866D01*
X242090714Y-139963866D02*
X242043095Y-140154342D01*
X242043095Y-140154342D02*
X241995476Y-140249580D01*
X241995476Y-140249580D02*
X241947857Y-140297200D01*
X241947857Y-140297200D02*
X241852619Y-140344819D01*
X241852619Y-140344819D02*
X241757381Y-140344819D01*
X241757381Y-140344819D02*
X241662143Y-140297200D01*
X241662143Y-140297200D02*
X241614524Y-140249580D01*
X241614524Y-140249580D02*
X241566905Y-140154342D01*
X241566905Y-140154342D02*
X241519286Y-139963866D01*
X241519286Y-139963866D02*
X241519286Y-139725771D01*
X241519286Y-139725771D02*
X241566905Y-139535295D01*
X241566905Y-139535295D02*
X241614524Y-139440057D01*
X241614524Y-139440057D02*
X241662143Y-139392438D01*
X241662143Y-139392438D02*
X241757381Y-139344819D01*
X243043095Y-140344819D02*
X242471667Y-140344819D01*
X242757381Y-140344819D02*
X242757381Y-139344819D01*
X242757381Y-139344819D02*
X242662143Y-139487676D01*
X242662143Y-139487676D02*
X242566905Y-139582914D01*
X242566905Y-139582914D02*
X242471667Y-139630533D01*
X193304819Y-155965475D02*
X192304819Y-155965475D01*
X192304819Y-155965475D02*
X192304819Y-155727380D01*
X192304819Y-155727380D02*
X192352438Y-155584523D01*
X192352438Y-155584523D02*
X192447676Y-155489285D01*
X192447676Y-155489285D02*
X192542914Y-155441666D01*
X192542914Y-155441666D02*
X192733390Y-155394047D01*
X192733390Y-155394047D02*
X192876247Y-155394047D01*
X192876247Y-155394047D02*
X193066723Y-155441666D01*
X193066723Y-155441666D02*
X193161961Y-155489285D01*
X193161961Y-155489285D02*
X193257200Y-155584523D01*
X193257200Y-155584523D02*
X193304819Y-155727380D01*
X193304819Y-155727380D02*
X193304819Y-155965475D01*
X193304819Y-154441666D02*
X193304819Y-155013094D01*
X193304819Y-154727380D02*
X192304819Y-154727380D01*
X192304819Y-154727380D02*
X192447676Y-154822618D01*
X192447676Y-154822618D02*
X192542914Y-154917856D01*
X192542914Y-154917856D02*
X192590533Y-155013094D01*
X192304819Y-153822618D02*
X192304819Y-153727380D01*
X192304819Y-153727380D02*
X192352438Y-153632142D01*
X192352438Y-153632142D02*
X192400057Y-153584523D01*
X192400057Y-153584523D02*
X192495295Y-153536904D01*
X192495295Y-153536904D02*
X192685771Y-153489285D01*
X192685771Y-153489285D02*
X192923866Y-153489285D01*
X192923866Y-153489285D02*
X193114342Y-153536904D01*
X193114342Y-153536904D02*
X193209580Y-153584523D01*
X193209580Y-153584523D02*
X193257200Y-153632142D01*
X193257200Y-153632142D02*
X193304819Y-153727380D01*
X193304819Y-153727380D02*
X193304819Y-153822618D01*
X193304819Y-153822618D02*
X193257200Y-153917856D01*
X193257200Y-153917856D02*
X193209580Y-153965475D01*
X193209580Y-153965475D02*
X193114342Y-154013094D01*
X193114342Y-154013094D02*
X192923866Y-154060713D01*
X192923866Y-154060713D02*
X192685771Y-154060713D01*
X192685771Y-154060713D02*
X192495295Y-154013094D01*
X192495295Y-154013094D02*
X192400057Y-153965475D01*
X192400057Y-153965475D02*
X192352438Y-153917856D01*
X192352438Y-153917856D02*
X192304819Y-153822618D01*
X192638152Y-152632142D02*
X193304819Y-152632142D01*
X192257200Y-152870237D02*
X192971485Y-153108332D01*
X192971485Y-153108332D02*
X192971485Y-152489285D01*
X236454819Y-148690475D02*
X235454819Y-148690475D01*
X235454819Y-148690475D02*
X235454819Y-148452380D01*
X235454819Y-148452380D02*
X235502438Y-148309523D01*
X235502438Y-148309523D02*
X235597676Y-148214285D01*
X235597676Y-148214285D02*
X235692914Y-148166666D01*
X235692914Y-148166666D02*
X235883390Y-148119047D01*
X235883390Y-148119047D02*
X236026247Y-148119047D01*
X236026247Y-148119047D02*
X236216723Y-148166666D01*
X236216723Y-148166666D02*
X236311961Y-148214285D01*
X236311961Y-148214285D02*
X236407200Y-148309523D01*
X236407200Y-148309523D02*
X236454819Y-148452380D01*
X236454819Y-148452380D02*
X236454819Y-148690475D01*
X236454819Y-147166666D02*
X236454819Y-147738094D01*
X236454819Y-147452380D02*
X235454819Y-147452380D01*
X235454819Y-147452380D02*
X235597676Y-147547618D01*
X235597676Y-147547618D02*
X235692914Y-147642856D01*
X235692914Y-147642856D02*
X235740533Y-147738094D01*
X235454819Y-146547618D02*
X235454819Y-146452380D01*
X235454819Y-146452380D02*
X235502438Y-146357142D01*
X235502438Y-146357142D02*
X235550057Y-146309523D01*
X235550057Y-146309523D02*
X235645295Y-146261904D01*
X235645295Y-146261904D02*
X235835771Y-146214285D01*
X235835771Y-146214285D02*
X236073866Y-146214285D01*
X236073866Y-146214285D02*
X236264342Y-146261904D01*
X236264342Y-146261904D02*
X236359580Y-146309523D01*
X236359580Y-146309523D02*
X236407200Y-146357142D01*
X236407200Y-146357142D02*
X236454819Y-146452380D01*
X236454819Y-146452380D02*
X236454819Y-146547618D01*
X236454819Y-146547618D02*
X236407200Y-146642856D01*
X236407200Y-146642856D02*
X236359580Y-146690475D01*
X236359580Y-146690475D02*
X236264342Y-146738094D01*
X236264342Y-146738094D02*
X236073866Y-146785713D01*
X236073866Y-146785713D02*
X235835771Y-146785713D01*
X235835771Y-146785713D02*
X235645295Y-146738094D01*
X235645295Y-146738094D02*
X235550057Y-146690475D01*
X235550057Y-146690475D02*
X235502438Y-146642856D01*
X235502438Y-146642856D02*
X235454819Y-146547618D01*
X235454819Y-145309523D02*
X235454819Y-145785713D01*
X235454819Y-145785713D02*
X235931009Y-145833332D01*
X235931009Y-145833332D02*
X235883390Y-145785713D01*
X235883390Y-145785713D02*
X235835771Y-145690475D01*
X235835771Y-145690475D02*
X235835771Y-145452380D01*
X235835771Y-145452380D02*
X235883390Y-145357142D01*
X235883390Y-145357142D02*
X235931009Y-145309523D01*
X235931009Y-145309523D02*
X236026247Y-145261904D01*
X236026247Y-145261904D02*
X236264342Y-145261904D01*
X236264342Y-145261904D02*
X236359580Y-145309523D01*
X236359580Y-145309523D02*
X236407200Y-145357142D01*
X236407200Y-145357142D02*
X236454819Y-145452380D01*
X236454819Y-145452380D02*
X236454819Y-145690475D01*
X236454819Y-145690475D02*
X236407200Y-145785713D01*
X236407200Y-145785713D02*
X236359580Y-145833332D01*
X236134819Y-143451904D02*
X235134819Y-143451904D01*
X236134819Y-142880476D02*
X235563390Y-143309047D01*
X235134819Y-142880476D02*
X235706247Y-143451904D01*
X188958493Y-88035714D02*
X189672778Y-88035714D01*
X189672778Y-88035714D02*
X189815635Y-88083333D01*
X189815635Y-88083333D02*
X189910874Y-88178571D01*
X189910874Y-88178571D02*
X189958493Y-88321428D01*
X189958493Y-88321428D02*
X189958493Y-88416666D01*
X189958493Y-87035714D02*
X189958493Y-87607142D01*
X189958493Y-87321428D02*
X188958493Y-87321428D01*
X188958493Y-87321428D02*
X189101350Y-87416666D01*
X189101350Y-87416666D02*
X189196588Y-87511904D01*
X189196588Y-87511904D02*
X189244207Y-87607142D01*
X188958493Y-86416666D02*
X188958493Y-86321428D01*
X188958493Y-86321428D02*
X189006112Y-86226190D01*
X189006112Y-86226190D02*
X189053731Y-86178571D01*
X189053731Y-86178571D02*
X189148969Y-86130952D01*
X189148969Y-86130952D02*
X189339445Y-86083333D01*
X189339445Y-86083333D02*
X189577540Y-86083333D01*
X189577540Y-86083333D02*
X189768016Y-86130952D01*
X189768016Y-86130952D02*
X189863254Y-86178571D01*
X189863254Y-86178571D02*
X189910874Y-86226190D01*
X189910874Y-86226190D02*
X189958493Y-86321428D01*
X189958493Y-86321428D02*
X189958493Y-86416666D01*
X189958493Y-86416666D02*
X189910874Y-86511904D01*
X189910874Y-86511904D02*
X189863254Y-86559523D01*
X189863254Y-86559523D02*
X189768016Y-86607142D01*
X189768016Y-86607142D02*
X189577540Y-86654761D01*
X189577540Y-86654761D02*
X189339445Y-86654761D01*
X189339445Y-86654761D02*
X189148969Y-86607142D01*
X189148969Y-86607142D02*
X189053731Y-86559523D01*
X189053731Y-86559523D02*
X189006112Y-86511904D01*
X189006112Y-86511904D02*
X188958493Y-86416666D01*
X189958493Y-85130952D02*
X189958493Y-85702380D01*
X189958493Y-85416666D02*
X188958493Y-85416666D01*
X188958493Y-85416666D02*
X189101350Y-85511904D01*
X189101350Y-85511904D02*
X189196588Y-85607142D01*
X189196588Y-85607142D02*
X189244207Y-85702380D01*
X203383603Y-97609580D02*
X203335984Y-97657200D01*
X203335984Y-97657200D02*
X203193127Y-97704819D01*
X203193127Y-97704819D02*
X203097889Y-97704819D01*
X203097889Y-97704819D02*
X202955032Y-97657200D01*
X202955032Y-97657200D02*
X202859794Y-97561961D01*
X202859794Y-97561961D02*
X202812175Y-97466723D01*
X202812175Y-97466723D02*
X202764556Y-97276247D01*
X202764556Y-97276247D02*
X202764556Y-97133390D01*
X202764556Y-97133390D02*
X202812175Y-96942914D01*
X202812175Y-96942914D02*
X202859794Y-96847676D01*
X202859794Y-96847676D02*
X202955032Y-96752438D01*
X202955032Y-96752438D02*
X203097889Y-96704819D01*
X203097889Y-96704819D02*
X203193127Y-96704819D01*
X203193127Y-96704819D02*
X203335984Y-96752438D01*
X203335984Y-96752438D02*
X203383603Y-96800057D01*
X204335984Y-97704819D02*
X203764556Y-97704819D01*
X204050270Y-97704819D02*
X204050270Y-96704819D01*
X204050270Y-96704819D02*
X203955032Y-96847676D01*
X203955032Y-96847676D02*
X203859794Y-96942914D01*
X203859794Y-96942914D02*
X203764556Y-96990533D01*
X204955032Y-96704819D02*
X205050270Y-96704819D01*
X205050270Y-96704819D02*
X205145508Y-96752438D01*
X205145508Y-96752438D02*
X205193127Y-96800057D01*
X205193127Y-96800057D02*
X205240746Y-96895295D01*
X205240746Y-96895295D02*
X205288365Y-97085771D01*
X205288365Y-97085771D02*
X205288365Y-97323866D01*
X205288365Y-97323866D02*
X205240746Y-97514342D01*
X205240746Y-97514342D02*
X205193127Y-97609580D01*
X205193127Y-97609580D02*
X205145508Y-97657200D01*
X205145508Y-97657200D02*
X205050270Y-97704819D01*
X205050270Y-97704819D02*
X204955032Y-97704819D01*
X204955032Y-97704819D02*
X204859794Y-97657200D01*
X204859794Y-97657200D02*
X204812175Y-97609580D01*
X204812175Y-97609580D02*
X204764556Y-97514342D01*
X204764556Y-97514342D02*
X204716937Y-97323866D01*
X204716937Y-97323866D02*
X204716937Y-97085771D01*
X204716937Y-97085771D02*
X204764556Y-96895295D01*
X204764556Y-96895295D02*
X204812175Y-96800057D01*
X204812175Y-96800057D02*
X204859794Y-96752438D01*
X204859794Y-96752438D02*
X204955032Y-96704819D01*
X206240746Y-97704819D02*
X205669318Y-97704819D01*
X205955032Y-97704819D02*
X205955032Y-96704819D01*
X205955032Y-96704819D02*
X205859794Y-96847676D01*
X205859794Y-96847676D02*
X205764556Y-96942914D01*
X205764556Y-96942914D02*
X205669318Y-96990533D01*
X210254819Y-139010714D02*
X210969104Y-139010714D01*
X210969104Y-139010714D02*
X211111961Y-139058333D01*
X211111961Y-139058333D02*
X211207200Y-139153571D01*
X211207200Y-139153571D02*
X211254819Y-139296428D01*
X211254819Y-139296428D02*
X211254819Y-139391666D01*
X211254819Y-138010714D02*
X211254819Y-138582142D01*
X211254819Y-138296428D02*
X210254819Y-138296428D01*
X210254819Y-138296428D02*
X210397676Y-138391666D01*
X210397676Y-138391666D02*
X210492914Y-138486904D01*
X210492914Y-138486904D02*
X210540533Y-138582142D01*
X210254819Y-137391666D02*
X210254819Y-137296428D01*
X210254819Y-137296428D02*
X210302438Y-137201190D01*
X210302438Y-137201190D02*
X210350057Y-137153571D01*
X210350057Y-137153571D02*
X210445295Y-137105952D01*
X210445295Y-137105952D02*
X210635771Y-137058333D01*
X210635771Y-137058333D02*
X210873866Y-137058333D01*
X210873866Y-137058333D02*
X211064342Y-137105952D01*
X211064342Y-137105952D02*
X211159580Y-137153571D01*
X211159580Y-137153571D02*
X211207200Y-137201190D01*
X211207200Y-137201190D02*
X211254819Y-137296428D01*
X211254819Y-137296428D02*
X211254819Y-137391666D01*
X211254819Y-137391666D02*
X211207200Y-137486904D01*
X211207200Y-137486904D02*
X211159580Y-137534523D01*
X211159580Y-137534523D02*
X211064342Y-137582142D01*
X211064342Y-137582142D02*
X210873866Y-137629761D01*
X210873866Y-137629761D02*
X210635771Y-137629761D01*
X210635771Y-137629761D02*
X210445295Y-137582142D01*
X210445295Y-137582142D02*
X210350057Y-137534523D01*
X210350057Y-137534523D02*
X210302438Y-137486904D01*
X210302438Y-137486904D02*
X210254819Y-137391666D01*
X210254819Y-136724999D02*
X210254819Y-136105952D01*
X210254819Y-136105952D02*
X210635771Y-136439285D01*
X210635771Y-136439285D02*
X210635771Y-136296428D01*
X210635771Y-136296428D02*
X210683390Y-136201190D01*
X210683390Y-136201190D02*
X210731009Y-136153571D01*
X210731009Y-136153571D02*
X210826247Y-136105952D01*
X210826247Y-136105952D02*
X211064342Y-136105952D01*
X211064342Y-136105952D02*
X211159580Y-136153571D01*
X211159580Y-136153571D02*
X211207200Y-136201190D01*
X211207200Y-136201190D02*
X211254819Y-136296428D01*
X211254819Y-136296428D02*
X211254819Y-136582142D01*
X211254819Y-136582142D02*
X211207200Y-136677380D01*
X211207200Y-136677380D02*
X211159580Y-136724999D01*
D12*
%TO.C,J107*%
X228650000Y-78195000D02*
X229980000Y-78195000D01*
X228650000Y-79525000D02*
X228650000Y-78195000D01*
X231250000Y-78195000D02*
X238930000Y-78195000D01*
X231250000Y-80855000D02*
X231250000Y-78195000D01*
X231250000Y-80855000D02*
X238930000Y-80855000D01*
X238930000Y-80855000D02*
X238930000Y-78195000D01*
%TO.C,J108*%
X193770000Y-141235000D02*
X193770000Y-141355000D01*
X193770000Y-141355000D02*
X196430000Y-141355000D01*
X195100000Y-138695000D02*
X196430000Y-138695000D01*
X196430000Y-138695000D02*
X196430000Y-140025000D01*
X196430000Y-141235000D02*
X196430000Y-141355000D01*
%TO.C,R102*%
X210880000Y-143930000D02*
X210880000Y-144880000D01*
X210880000Y-149670000D02*
X210880000Y-148720000D01*
X209960000Y-148720000D02*
X211800000Y-148720000D01*
X211800000Y-144880000D01*
X209960000Y-144880000D01*
X209960000Y-148720000D01*
%TO.C,J104*%
X215870000Y-118450000D02*
X215870000Y-136290000D01*
X215870000Y-118450000D02*
X218530000Y-118450000D01*
X215870000Y-136290000D02*
X218530000Y-136290000D01*
X217200000Y-115850000D02*
X218530000Y-115850000D01*
X218530000Y-115850000D02*
X218530000Y-117180000D01*
X218530000Y-118450000D02*
X218530000Y-136290000D01*
%TO.C,D107*%
X219590000Y-153764000D02*
X219590000Y-153920000D01*
X219590000Y-156080000D02*
X219590000Y-156236000D01*
X219590000Y-153764484D02*
G75*
G02*
X222821437Y-153920000I1560000J-1235516D01*
G01*
X220109039Y-153920000D02*
G75*
G02*
X222190961Y-153920000I1040961J-1080000D01*
G01*
X222190961Y-156080000D02*
G75*
G02*
X220109039Y-156080000I-1040961J1080000D01*
G01*
X222821437Y-156080000D02*
G75*
G02*
X219590000Y-156235516I-1671437J1080000D01*
G01*
%TO.C,D106*%
X229170000Y-153920000D02*
X229170000Y-153764000D01*
X229170000Y-156236000D02*
X229170000Y-156080000D01*
X225938563Y-153920000D02*
G75*
G02*
X229170000Y-153764484I1671437J-1080000D01*
G01*
X226569039Y-153920000D02*
G75*
G02*
X228650961Y-153920000I1040961J-1080000D01*
G01*
X228650961Y-156080000D02*
G75*
G02*
X226569039Y-156080000I-1040961J1080000D01*
G01*
X229170000Y-156235516D02*
G75*
G02*
X225938563Y-156080000I-1560000J1235516D01*
G01*
%TO.C,R103*%
X195880000Y-144130000D02*
X195880000Y-145080000D01*
X195880000Y-149870000D02*
X195880000Y-148920000D01*
X194960000Y-148920000D02*
X196800000Y-148920000D01*
X196800000Y-145080000D01*
X194960000Y-145080000D01*
X194960000Y-148920000D01*
%TO.C,TP101*%
X218380000Y-107565000D02*
X218380000Y-99465000D01*
X218380000Y-107565000D02*
X221380000Y-107565000D01*
X221380000Y-99465000D02*
X218380000Y-99465000D01*
X221380000Y-99465000D02*
X221380000Y-107565000D01*
%TO.C,R105*%
X228880000Y-144130000D02*
X228880000Y-145080000D01*
X228880000Y-149870000D02*
X228880000Y-148920000D01*
X229800000Y-145080000D02*
X227960000Y-145080000D01*
X227960000Y-148920000D01*
X229800000Y-148920000D01*
X229800000Y-145080000D01*
%TO.C,D103*%
X210640000Y-153289000D02*
X210640000Y-153445000D01*
X210640000Y-155605000D02*
X210640000Y-155761000D01*
X210640000Y-153289484D02*
G75*
G02*
X213871437Y-153445000I1560000J-1235516D01*
G01*
X211159039Y-153445000D02*
G75*
G02*
X213240961Y-153445000I1040961J-1080000D01*
G01*
X213240961Y-155605000D02*
G75*
G02*
X211159039Y-155605000I-1040961J1080000D01*
G01*
X213871437Y-155605000D02*
G75*
G02*
X210640000Y-155760516I-1671437J1080000D01*
G01*
%TO.C,Q101*%
X259000000Y-141620000D02*
X259000000Y-145470000D01*
X259000000Y-141620000D02*
G75*
G02*
X259577955Y-141237369I1700000J-1940000D01*
G01*
X259587736Y-145862383D02*
G75*
G02*
X259000000Y-145470000I1112264J2302383D01*
G01*
X261794786Y-141212226D02*
G75*
G02*
X263050000Y-142470000I-1094786J-2347774D01*
G01*
X263050000Y-144620000D02*
G75*
G02*
X261789513Y-145896463I-2350000J1060000D01*
G01*
X259680000Y-140770000D02*
X259210000Y-141110000D01*
X259210000Y-140430000D01*
X259680000Y-140770000D01*
G36*
X259680000Y-140770000D02*
G01*
X259210000Y-141110000D01*
X259210000Y-140430000D01*
X259680000Y-140770000D01*
G37*
%TO.C,SW102*%
X255890000Y-74415000D02*
X255890000Y-76925000D01*
X255890000Y-74415000D02*
X268110000Y-74415000D01*
X255890000Y-79225000D02*
X255890000Y-81825000D01*
X255890000Y-84125000D02*
X255890000Y-86635000D01*
X268110000Y-74415000D02*
X268110000Y-76925000D01*
X268110000Y-79225000D02*
X268110000Y-81825000D01*
X268110000Y-84125000D02*
X268110000Y-86635000D01*
X268110000Y-86635000D02*
X255890000Y-86635000D01*
X265550000Y-80525000D02*
G75*
G02*
X258450000Y-80525000I-3550000J0D01*
G01*
X258450000Y-80525000D02*
G75*
G02*
X265550000Y-80525000I3550000J0D01*
G01*
%TO.C,J105*%
X262670000Y-112470000D02*
X262670000Y-120150000D01*
X262670000Y-112470000D02*
X265330000Y-112470000D01*
X262670000Y-120150000D02*
X265330000Y-120150000D01*
X264000000Y-109870000D02*
X265330000Y-109870000D01*
X265330000Y-109870000D02*
X265330000Y-111200000D01*
X265330000Y-112470000D02*
X265330000Y-120150000D01*
%TO.C,J106*%
X193770000Y-101235000D02*
X193770000Y-101355000D01*
X193770000Y-101355000D02*
X196430000Y-101355000D01*
X195100000Y-98695000D02*
X196430000Y-98695000D01*
X196430000Y-98695000D02*
X196430000Y-100025000D01*
X196430000Y-101235000D02*
X196430000Y-101355000D01*
%TO.C,R107*%
X261600000Y-128655000D02*
X261600000Y-129605000D01*
X261600000Y-134395000D02*
X261600000Y-133445000D01*
X262520000Y-129605000D02*
X260680000Y-129605000D01*
X260680000Y-133445000D01*
X262520000Y-133445000D01*
X262520000Y-129605000D01*
%TO.C,R101*%
X202880000Y-144130000D02*
X202880000Y-145080000D01*
X202880000Y-149870000D02*
X202880000Y-148920000D01*
X201960000Y-148920000D02*
X203800000Y-148920000D01*
X203800000Y-145080000D01*
X201960000Y-145080000D01*
X201960000Y-148920000D01*
%TO.C,J102*%
X211770000Y-101235000D02*
X211770000Y-101355000D01*
X211770000Y-101355000D02*
X214430000Y-101355000D01*
X213100000Y-98695000D02*
X214430000Y-98695000D01*
X214430000Y-98695000D02*
X214430000Y-100025000D01*
X214430000Y-101235000D02*
X214430000Y-101355000D01*
%TO.C,R106*%
X223880000Y-144130000D02*
X223880000Y-145080000D01*
X223880000Y-149870000D02*
X223880000Y-148920000D01*
X224800000Y-145080000D02*
X222960000Y-145080000D01*
X222960000Y-148920000D01*
X224800000Y-148920000D01*
X224800000Y-145080000D01*
%TO.C,D102*%
X203240000Y-153489000D02*
X203240000Y-153645000D01*
X203240000Y-155805000D02*
X203240000Y-155961000D01*
X203240000Y-153489484D02*
G75*
G02*
X206471437Y-153645000I1560000J-1235516D01*
G01*
X203759039Y-153645000D02*
G75*
G02*
X205840961Y-153645000I1040961J-1080000D01*
G01*
X205840961Y-155805000D02*
G75*
G02*
X203759039Y-155805000I-1040961J1080000D01*
G01*
X206471437Y-155805000D02*
G75*
G02*
X203240000Y-155960516I-1671437J1080000D01*
G01*
D13*
%TO.C,U101*%
X231600000Y-88525000D02*
X242669000Y-88525000D01*
X231600000Y-88525000D02*
X260110000Y-88525000D01*
X231600000Y-139475000D02*
X231600000Y-88525000D01*
X231600000Y-139475000D02*
X231600000Y-88525000D01*
X231600000Y-139475000D02*
X236970000Y-139475000D01*
X236970000Y-139475000D02*
X254660000Y-139475000D01*
X242669000Y-88525000D02*
X249380000Y-88525000D01*
X249380000Y-88525000D02*
X260110000Y-88525000D01*
X254660000Y-139475000D02*
X260110000Y-139475000D01*
X260110000Y-88525000D02*
X260110000Y-139475000D01*
X260110000Y-88525000D02*
X260110000Y-139475000D01*
X260110000Y-139475000D02*
X231600000Y-139475000D01*
D14*
X231130000Y-98485000D02*
G75*
G02*
X230930000Y-98485000I-100000J0D01*
G01*
X230930000Y-98485000D02*
G75*
G02*
X231130000Y-98485000I100000J0D01*
G01*
D12*
%TO.C,D101*%
X198100000Y-78000000D02*
X199010000Y-78000000D01*
X200435000Y-75280000D02*
X200435000Y-80720000D01*
X200555000Y-75280000D02*
X200555000Y-80720000D01*
X200675000Y-75280000D02*
X200675000Y-80720000D01*
X209660000Y-78000000D02*
X208750000Y-78000000D01*
X199010000Y-75280000D02*
X208750000Y-75280000D01*
X208750000Y-80720000D01*
X199010000Y-80720000D01*
X199010000Y-75280000D01*
%TO.C,R104*%
X245380000Y-77950000D02*
X246330000Y-77950000D01*
X251120000Y-77950000D02*
X250170000Y-77950000D01*
X246330000Y-77030000D02*
X250170000Y-77030000D01*
X250170000Y-78870000D01*
X246330000Y-78870000D01*
X246330000Y-77030000D01*
%TO.C,J112*%
X259070000Y-159885000D02*
X259070000Y-156600000D01*
X261720000Y-159885000D02*
X259070000Y-159885000D01*
X264260000Y-153315000D02*
X274530000Y-153315000D01*
X264260000Y-159885000D02*
X264260000Y-153315000D01*
X264260000Y-159885000D02*
X274530000Y-159885000D01*
X274530000Y-159885000D02*
X274530000Y-153315000D01*
D13*
%TO.C,K101*%
X238180000Y-141725000D02*
X238180000Y-157325000D01*
X238180000Y-157325000D02*
X257380000Y-157325000D01*
X257380000Y-141725000D02*
X238180000Y-141725000D01*
X257380000Y-157325000D02*
X257380000Y-141725000D01*
D14*
X237380000Y-143525000D02*
G75*
G02*
X237180000Y-143525000I-100000J0D01*
G01*
X237180000Y-143525000D02*
G75*
G02*
X237380000Y-143525000I100000J0D01*
G01*
D12*
%TO.C,D104*%
X194840000Y-153489000D02*
X194840000Y-153645000D01*
X194840000Y-155805000D02*
X194840000Y-155961000D01*
X194840000Y-153489484D02*
G75*
G02*
X198071437Y-153645000I1560000J-1235516D01*
G01*
X195359039Y-153645000D02*
G75*
G02*
X197440961Y-153645000I1040961J-1080000D01*
G01*
X197440961Y-155805000D02*
G75*
G02*
X195359039Y-155805000I-1040961J1080000D01*
G01*
X198071437Y-155805000D02*
G75*
G02*
X194840000Y-155960516I-1671437J1080000D01*
G01*
%TO.C,D105*%
X233880000Y-144230000D02*
X233880000Y-144880000D01*
X233880000Y-149770000D02*
X233880000Y-149120000D01*
X235000000Y-145480000D02*
X232760000Y-145480000D01*
X235000000Y-145600000D02*
X232760000Y-145600000D01*
X235000000Y-145720000D02*
X232760000Y-145720000D01*
X235000000Y-144880000D02*
X232760000Y-144880000D01*
X232760000Y-149120000D01*
X235000000Y-149120000D01*
X235000000Y-144880000D01*
%TO.C,J101*%
X190303674Y-89600000D02*
X190303674Y-90850000D01*
X190303674Y-90850000D02*
X191553674Y-90850000D01*
X190593674Y-82940000D02*
X190593674Y-90560000D01*
X190593674Y-90560000D02*
X196563674Y-90560000D01*
X190603674Y-82950000D02*
X190603674Y-84750000D01*
X190603674Y-84750000D02*
X191353674Y-84750000D01*
X190603674Y-86250000D02*
X190603674Y-87250000D01*
X190603674Y-87250000D02*
X191353674Y-87250000D01*
X190603674Y-88750000D02*
X190603674Y-90550000D01*
X190603674Y-90550000D02*
X191353674Y-90550000D01*
X191353674Y-82950000D02*
X190603674Y-82950000D01*
X191353674Y-84750000D02*
X191353674Y-82950000D01*
X191353674Y-86250000D02*
X190603674Y-86250000D01*
X191353674Y-87250000D02*
X191353674Y-86250000D01*
X191353674Y-88750000D02*
X190603674Y-88750000D01*
X191353674Y-90550000D02*
X191353674Y-88750000D01*
X192853674Y-82950000D02*
X192853674Y-83700000D01*
X192853674Y-83700000D02*
X195803674Y-83700000D01*
X192853674Y-89800000D02*
X194193674Y-89800000D01*
X192853674Y-90550000D02*
X192853674Y-89800000D01*
X195803674Y-83700000D02*
X195803674Y-86750000D01*
X195803674Y-86750000D02*
X195803674Y-88740000D01*
X196563674Y-82940000D02*
X190593674Y-82940000D01*
X196563674Y-90560000D02*
X196563674Y-82940000D01*
%TO.C,C101*%
X197422651Y-89714000D02*
X197422651Y-88286000D01*
X197462651Y-90024000D02*
X197462651Y-87976000D01*
X197502651Y-90262000D02*
X197502651Y-87738000D01*
X197542651Y-90461000D02*
X197542651Y-87539000D01*
X197582651Y-90636000D02*
X197582651Y-87364000D01*
X197622651Y-90793000D02*
X197622651Y-87207000D01*
X197662651Y-90937000D02*
X197662651Y-87063000D01*
X197702651Y-91071000D02*
X197702651Y-86929000D01*
X197742651Y-91195000D02*
X197742651Y-86805000D01*
X197782651Y-91313000D02*
X197782651Y-86687000D01*
X197822651Y-91424000D02*
X197822651Y-86576000D01*
X197862651Y-91530000D02*
X197862651Y-86470000D01*
X197902651Y-91631000D02*
X197902651Y-86369000D01*
X197942651Y-91728000D02*
X197942651Y-86272000D01*
X197982651Y-91821000D02*
X197982651Y-86179000D01*
X198022651Y-91910000D02*
X198022651Y-86090000D01*
X198062651Y-91997000D02*
X198062651Y-86003000D01*
X198102651Y-92080000D02*
X198102651Y-85920000D01*
X198142651Y-92161000D02*
X198142651Y-85839000D01*
X198182651Y-92239000D02*
X198182651Y-85761000D01*
X198222651Y-92315000D02*
X198222651Y-85685000D01*
X198262651Y-92389000D02*
X198262651Y-85611000D01*
X198302651Y-92461000D02*
X198302651Y-85539000D01*
X198342651Y-92531000D02*
X198342651Y-85469000D01*
X198382651Y-92599000D02*
X198382651Y-85401000D01*
X198422651Y-92665000D02*
X198422651Y-85335000D01*
X198462651Y-92730000D02*
X198462651Y-85270000D01*
X198502651Y-92793000D02*
X198502651Y-85207000D01*
X198542651Y-92855000D02*
X198542651Y-85145000D01*
X198582651Y-92916000D02*
X198582651Y-85084000D01*
X198622651Y-92975000D02*
X198622651Y-85025000D01*
X198662651Y-93033000D02*
X198662651Y-84967000D01*
X198702651Y-93090000D02*
X198702651Y-84910000D01*
X198742651Y-93145000D02*
X198742651Y-84855000D01*
X198782651Y-93200000D02*
X198782651Y-84800000D01*
X198822651Y-93253000D02*
X198822651Y-84747000D01*
X198862651Y-93306000D02*
X198862651Y-84694000D01*
X198902651Y-93357000D02*
X198902651Y-84643000D01*
X198942651Y-93408000D02*
X198942651Y-84592000D01*
X198982651Y-93457000D02*
X198982651Y-84543000D01*
X199022651Y-93506000D02*
X199022651Y-84494000D01*
X199062651Y-93554000D02*
X199062651Y-84446000D01*
X199102651Y-93601000D02*
X199102651Y-84399000D01*
X199142651Y-93647000D02*
X199142651Y-84353000D01*
X199182651Y-93692000D02*
X199182651Y-84308000D01*
X199222651Y-93737000D02*
X199222651Y-84263000D01*
X199262651Y-93780000D02*
X199262651Y-84220000D01*
X199302651Y-93824000D02*
X199302651Y-84176000D01*
X199342651Y-87560000D02*
X199342651Y-84134000D01*
X199342651Y-93866000D02*
X199342651Y-90440000D01*
X199382651Y-87560000D02*
X199382651Y-84092000D01*
X199382651Y-93908000D02*
X199382651Y-90440000D01*
X199422651Y-87560000D02*
X199422651Y-84051000D01*
X199422651Y-93949000D02*
X199422651Y-90440000D01*
X199462651Y-87560000D02*
X199462651Y-84011000D01*
X199462651Y-93989000D02*
X199462651Y-90440000D01*
X199502651Y-87560000D02*
X199502651Y-83971000D01*
X199502651Y-94029000D02*
X199502651Y-90440000D01*
X199542651Y-87560000D02*
X199542651Y-83932000D01*
X199542651Y-94068000D02*
X199542651Y-90440000D01*
X199582651Y-87560000D02*
X199582651Y-83893000D01*
X199582651Y-94107000D02*
X199582651Y-90440000D01*
X199622651Y-87560000D02*
X199622651Y-83855000D01*
X199622651Y-94145000D02*
X199622651Y-90440000D01*
X199662651Y-87560000D02*
X199662651Y-83818000D01*
X199662651Y-94182000D02*
X199662651Y-90440000D01*
X199702651Y-87560000D02*
X199702651Y-83781000D01*
X199702651Y-94219000D02*
X199702651Y-90440000D01*
X199742651Y-87560000D02*
X199742651Y-83745000D01*
X199742651Y-94255000D02*
X199742651Y-90440000D01*
X199782651Y-87560000D02*
X199782651Y-83709000D01*
X199782651Y-94291000D02*
X199782651Y-90440000D01*
X199822651Y-87560000D02*
X199822651Y-83674000D01*
X199822651Y-94326000D02*
X199822651Y-90440000D01*
X199862651Y-87560000D02*
X199862651Y-83640000D01*
X199862651Y-94360000D02*
X199862651Y-90440000D01*
X199902651Y-87560000D02*
X199902651Y-83605000D01*
X199902651Y-94395000D02*
X199902651Y-90440000D01*
X199942651Y-87560000D02*
X199942651Y-83572000D01*
X199942651Y-94428000D02*
X199942651Y-90440000D01*
X199982651Y-87560000D02*
X199982651Y-83539000D01*
X199982651Y-94461000D02*
X199982651Y-90440000D01*
X200022651Y-87560000D02*
X200022651Y-83506000D01*
X200022651Y-94494000D02*
X200022651Y-90440000D01*
X200062651Y-87560000D02*
X200062651Y-83474000D01*
X200062651Y-94526000D02*
X200062651Y-90440000D01*
X200102651Y-87560000D02*
X200102651Y-83442000D01*
X200102651Y-94558000D02*
X200102651Y-90440000D01*
X200142651Y-87560000D02*
X200142651Y-83411000D01*
X200142651Y-94589000D02*
X200142651Y-90440000D01*
X200182651Y-87560000D02*
X200182651Y-83380000D01*
X200182651Y-94620000D02*
X200182651Y-90440000D01*
X200222651Y-87560000D02*
X200222651Y-83350000D01*
X200222651Y-94650000D02*
X200222651Y-90440000D01*
X200262651Y-87560000D02*
X200262651Y-83320000D01*
X200262651Y-94680000D02*
X200262651Y-90440000D01*
X200302651Y-87560000D02*
X200302651Y-83291000D01*
X200302651Y-94709000D02*
X200302651Y-90440000D01*
X200342651Y-87560000D02*
X200342651Y-83262000D01*
X200342651Y-94738000D02*
X200342651Y-90440000D01*
X200382651Y-87560000D02*
X200382651Y-83233000D01*
X200382651Y-94767000D02*
X200382651Y-90440000D01*
X200422651Y-87560000D02*
X200422651Y-83205000D01*
X200422651Y-94795000D02*
X200422651Y-90440000D01*
X200462651Y-87560000D02*
X200462651Y-83177000D01*
X200462651Y-94823000D02*
X200462651Y-90440000D01*
X200502651Y-87560000D02*
X200502651Y-83150000D01*
X200502651Y-94850000D02*
X200502651Y-90440000D01*
X200542651Y-87560000D02*
X200542651Y-83123000D01*
X200542651Y-94877000D02*
X200542651Y-90440000D01*
X200582651Y-87560000D02*
X200582651Y-83096000D01*
X200582651Y-94904000D02*
X200582651Y-90440000D01*
X200622651Y-87560000D02*
X200622651Y-83070000D01*
X200622651Y-94930000D02*
X200622651Y-90440000D01*
X200662651Y-87560000D02*
X200662651Y-83044000D01*
X200662651Y-94956000D02*
X200662651Y-90440000D01*
X200702651Y-87560000D02*
X200702651Y-83019000D01*
X200702651Y-94981000D02*
X200702651Y-90440000D01*
X200742651Y-87560000D02*
X200742651Y-82994000D01*
X200742651Y-95006000D02*
X200742651Y-90440000D01*
X200782651Y-87560000D02*
X200782651Y-82969000D01*
X200782651Y-95031000D02*
X200782651Y-90440000D01*
X200822651Y-87560000D02*
X200822651Y-82945000D01*
X200822651Y-95055000D02*
X200822651Y-90440000D01*
X200862651Y-87560000D02*
X200862651Y-82921000D01*
X200862651Y-95079000D02*
X200862651Y-90440000D01*
X200902651Y-87560000D02*
X200902651Y-82897000D01*
X200902651Y-95103000D02*
X200902651Y-90440000D01*
X200942651Y-87560000D02*
X200942651Y-82874000D01*
X200942651Y-95126000D02*
X200942651Y-90440000D01*
X200982651Y-87560000D02*
X200982651Y-82851000D01*
X200982651Y-95149000D02*
X200982651Y-90440000D01*
X201022651Y-87560000D02*
X201022651Y-82828000D01*
X201022651Y-95172000D02*
X201022651Y-90440000D01*
X201062651Y-87560000D02*
X201062651Y-82806000D01*
X201062651Y-95194000D02*
X201062651Y-90440000D01*
X201102651Y-87560000D02*
X201102651Y-82784000D01*
X201102651Y-95216000D02*
X201102651Y-90440000D01*
X201142651Y-87560000D02*
X201142651Y-82763000D01*
X201142651Y-95237000D02*
X201142651Y-90440000D01*
X201182651Y-87560000D02*
X201182651Y-82741000D01*
X201182651Y-95259000D02*
X201182651Y-90440000D01*
X201222651Y-87560000D02*
X201222651Y-82721000D01*
X201222651Y-95279000D02*
X201222651Y-90440000D01*
X201262651Y-87560000D02*
X201262651Y-82700000D01*
X201262651Y-95300000D02*
X201262651Y-90440000D01*
X201302651Y-87560000D02*
X201302651Y-82680000D01*
X201302651Y-95320000D02*
X201302651Y-90440000D01*
X201342651Y-87560000D02*
X201342651Y-82660000D01*
X201342651Y-95340000D02*
X201342651Y-90440000D01*
X201382651Y-87560000D02*
X201382651Y-82640000D01*
X201382651Y-95360000D02*
X201382651Y-90440000D01*
X201422651Y-87560000D02*
X201422651Y-82621000D01*
X201422651Y-95379000D02*
X201422651Y-90440000D01*
X201462651Y-87560000D02*
X201462651Y-82602000D01*
X201462651Y-95398000D02*
X201462651Y-90440000D01*
X201502651Y-87560000D02*
X201502651Y-82583000D01*
X201502651Y-95417000D02*
X201502651Y-90440000D01*
X201542651Y-87560000D02*
X201542651Y-82564000D01*
X201542651Y-95436000D02*
X201542651Y-90440000D01*
X201582651Y-87560000D02*
X201582651Y-82546000D01*
X201582651Y-95454000D02*
X201582651Y-90440000D01*
X201622651Y-87560000D02*
X201622651Y-82528000D01*
X201622651Y-95472000D02*
X201622651Y-90440000D01*
X201662651Y-87560000D02*
X201662651Y-82511000D01*
X201662651Y-95489000D02*
X201662651Y-90440000D01*
X201702651Y-87560000D02*
X201702651Y-82494000D01*
X201702651Y-95506000D02*
X201702651Y-90440000D01*
X201742651Y-87560000D02*
X201742651Y-82477000D01*
X201742651Y-95523000D02*
X201742651Y-90440000D01*
X201782651Y-87560000D02*
X201782651Y-82460000D01*
X201782651Y-95540000D02*
X201782651Y-90440000D01*
X201822651Y-87560000D02*
X201822651Y-82444000D01*
X201822651Y-95556000D02*
X201822651Y-90440000D01*
X201862651Y-87560000D02*
X201862651Y-82428000D01*
X201862651Y-95572000D02*
X201862651Y-90440000D01*
X201902651Y-87560000D02*
X201902651Y-82412000D01*
X201902651Y-95588000D02*
X201902651Y-90440000D01*
X201942651Y-87560000D02*
X201942651Y-82396000D01*
X201942651Y-95604000D02*
X201942651Y-90440000D01*
X201982651Y-87560000D02*
X201982651Y-82381000D01*
X201982651Y-95619000D02*
X201982651Y-90440000D01*
X202022651Y-87560000D02*
X202022651Y-82366000D01*
X202022651Y-95634000D02*
X202022651Y-90440000D01*
X202062651Y-87560000D02*
X202062651Y-82351000D01*
X202062651Y-95649000D02*
X202062651Y-90440000D01*
X202102651Y-87560000D02*
X202102651Y-82337000D01*
X202102651Y-95663000D02*
X202102651Y-90440000D01*
X202142651Y-87560000D02*
X202142651Y-82323000D01*
X202142651Y-95677000D02*
X202142651Y-90440000D01*
X202182651Y-87560000D02*
X202182651Y-82309000D01*
X202182651Y-95691000D02*
X202182651Y-90440000D01*
X202222651Y-95705000D02*
X202222651Y-82295000D01*
X202262651Y-95718000D02*
X202262651Y-82282000D01*
X202302651Y-95732000D02*
X202302651Y-82268000D01*
X202342651Y-95744000D02*
X202342651Y-82256000D01*
X202382651Y-95757000D02*
X202382651Y-82243000D01*
X202422651Y-95769000D02*
X202422651Y-82231000D01*
X202462651Y-95781000D02*
X202462651Y-82219000D01*
X202502651Y-95793000D02*
X202502651Y-82207000D01*
X202542651Y-95805000D02*
X202542651Y-82195000D01*
X202582651Y-95816000D02*
X202582651Y-82184000D01*
X202622651Y-95827000D02*
X202622651Y-82173000D01*
X202662651Y-95838000D02*
X202662651Y-82162000D01*
X202702651Y-95849000D02*
X202702651Y-82151000D01*
X202742651Y-95859000D02*
X202742651Y-82141000D01*
X202782651Y-95869000D02*
X202782651Y-82131000D01*
X202822651Y-95879000D02*
X202822651Y-82121000D01*
X202862651Y-95889000D02*
X202862651Y-82111000D01*
X202902651Y-95898000D02*
X202902651Y-82102000D01*
X202942651Y-95907000D02*
X202942651Y-82093000D01*
X202982651Y-95916000D02*
X202982651Y-82084000D01*
X203022651Y-95924000D02*
X203022651Y-82076000D01*
X203062651Y-95933000D02*
X203062651Y-82067000D01*
X203102651Y-95941000D02*
X203102651Y-82059000D01*
X203142651Y-95949000D02*
X203142651Y-82051000D01*
X203182651Y-95957000D02*
X203182651Y-82043000D01*
X203222651Y-95964000D02*
X203222651Y-82036000D01*
X203262651Y-95971000D02*
X203262651Y-82029000D01*
X203302651Y-95978000D02*
X203302651Y-82022000D01*
X203342651Y-95985000D02*
X203342651Y-82015000D01*
X203382651Y-95991000D02*
X203382651Y-82009000D01*
X203422651Y-95998000D02*
X203422651Y-82002000D01*
X203462651Y-96004000D02*
X203462651Y-81996000D01*
X203502651Y-96009000D02*
X203502651Y-81991000D01*
X203542651Y-96015000D02*
X203542651Y-81985000D01*
X203582651Y-96020000D02*
X203582651Y-81980000D01*
X203622651Y-96025000D02*
X203622651Y-81975000D01*
X203662651Y-96030000D02*
X203662651Y-81970000D01*
X203702651Y-96035000D02*
X203702651Y-81965000D01*
X203742651Y-96039000D02*
X203742651Y-81961000D01*
X203782651Y-96044000D02*
X203782651Y-81956000D01*
X203822651Y-96047000D02*
X203822651Y-81953000D01*
X203862651Y-96051000D02*
X203862651Y-81949000D01*
X203902651Y-96055000D02*
X203902651Y-81945000D01*
X203942651Y-96058000D02*
X203942651Y-81942000D01*
X203982651Y-96061000D02*
X203982651Y-81939000D01*
X204022651Y-96064000D02*
X204022651Y-81936000D01*
X204062651Y-96066000D02*
X204062651Y-81934000D01*
X204102651Y-96069000D02*
X204102651Y-81931000D01*
X204142651Y-96071000D02*
X204142651Y-81929000D01*
X204182651Y-96073000D02*
X204182651Y-81927000D01*
X204222651Y-96074000D02*
X204222651Y-81926000D01*
X204262651Y-96076000D02*
X204262651Y-81924000D01*
X204302651Y-96077000D02*
X204302651Y-81923000D01*
X204342651Y-96078000D02*
X204342651Y-81922000D01*
X204382651Y-96079000D02*
X204382651Y-81921000D01*
X204422651Y-96080000D02*
X204422651Y-81920000D01*
X204462651Y-96080000D02*
X204462651Y-81920000D01*
X204502651Y-96080000D02*
X204502651Y-81920000D01*
X211422194Y-93695000D02*
X211422194Y-92295000D01*
X212122194Y-92995000D02*
X210722194Y-92995000D01*
X211622651Y-89000000D02*
G75*
G02*
X197382651Y-89000000I-7120000J0D01*
G01*
X197382651Y-89000000D02*
G75*
G02*
X211622651Y-89000000I7120000J0D01*
G01*
%TO.C,J103*%
X211770000Y-141235000D02*
X211770000Y-141355000D01*
X211770000Y-141355000D02*
X214430000Y-141355000D01*
X213100000Y-138695000D02*
X214430000Y-138695000D01*
X214430000Y-138695000D02*
X214430000Y-140025000D01*
X214430000Y-141235000D02*
X214430000Y-141355000D01*
%TD*%
M02*
