%TF.GenerationSoftware,KiCad,Pcbnew,9.0.4*%
%TF.CreationDate,2025-11-05T17:17:29+05:30*%
%TF.ProjectId,BikeSSv3,42696b65-5353-4763-932e-6b696361645f,rev?*%
%TF.SameCoordinates,Original*%
%TF.FileFunction,Plated,1,2,PTH,Drill*%
%TF.FilePolarity,Positive*%
%FSLAX46Y46*%
G04 Gerber Fmt 4.6, Leading zero omitted, Abs format (unit mm)*
G04 Created by KiCad (PCBNEW 9.0.4) date 2025-11-05 17:17:29*
%MOMM*%
%LPD*%
G01*
G04 APERTURE LIST*
%TA.AperFunction,ViaDrill*%
%ADD10C,0.300000*%
%TD*%
%TA.AperFunction,ComponentDrill*%
%ADD11C,0.700000*%
%TD*%
%TA.AperFunction,ComponentDrill*%
%ADD12C,0.800000*%
%TD*%
%TA.AperFunction,ComponentDrill*%
%ADD13C,0.840000*%
%TD*%
%TA.AperFunction,ComponentDrill*%
%ADD14C,0.900000*%
%TD*%
%TA.AperFunction,ComponentDrill*%
%ADD15C,1.000000*%
%TD*%
%TA.AperFunction,ComponentDrill*%
%ADD16C,1.020000*%
%TD*%
%TA.AperFunction,ComponentDrill*%
%ADD17C,1.200000*%
%TD*%
%TA.AperFunction,ComponentDrill*%
%ADD18C,1.300000*%
%TD*%
%TA.AperFunction,ComponentDrill*%
%ADD19C,1.600000*%
%TD*%
%TA.AperFunction,ComponentDrill*%
%ADD20C,1.750000*%
%TD*%
G04 APERTURE END LIST*
D10*
X190000000Y-53000000D03*
X266880000Y-126000000D03*
D11*
%TO.C,R103*%
X195880000Y-143190000D03*
X195880000Y-150810000D03*
%TO.C,R101*%
X202880000Y-143190000D03*
X202880000Y-150810000D03*
%TO.C,R102*%
X210880000Y-142990000D03*
X210880000Y-150610000D03*
%TO.C,R106*%
X223880000Y-143190000D03*
X223880000Y-150810000D03*
%TO.C,R105*%
X228880000Y-143190000D03*
X228880000Y-150810000D03*
%TO.C,R104*%
X244590000Y-77925000D03*
X252210000Y-77925000D03*
%TO.C,R107*%
X261600000Y-127715000D03*
X261600000Y-135335000D03*
D12*
%TO.C,D105*%
X233880000Y-143190000D03*
X233880000Y-150810000D03*
%TO.C,K101*%
X241780000Y-143525000D03*
X241780000Y-155525000D03*
%TO.C,Q101*%
X261060000Y-141985000D03*
X261060000Y-147065000D03*
X263600000Y-144525000D03*
D13*
%TO.C,U102*%
X192750000Y-41250000D03*
X192750000Y-43790000D03*
X192750000Y-46330000D03*
X192750000Y-48870000D03*
X192750000Y-51410000D03*
X192750000Y-53950000D03*
X192750000Y-56490000D03*
X192750000Y-59030000D03*
X207990000Y-41250000D03*
X207990000Y-43790000D03*
X207990000Y-46330000D03*
X207990000Y-48870000D03*
X207990000Y-51410000D03*
X207990000Y-53950000D03*
X207990000Y-56490000D03*
X207990000Y-59030000D03*
D14*
%TO.C,D104*%
X195130000Y-154725000D03*
X197670000Y-154725000D03*
%TO.C,D102*%
X203530000Y-154725000D03*
X206070000Y-154725000D03*
%TO.C,D103*%
X210930000Y-154525000D03*
X213470000Y-154525000D03*
%TO.C,D107*%
X219880000Y-155000000D03*
X222420000Y-155000000D03*
%TO.C,D106*%
X226340000Y-155000000D03*
X228880000Y-155000000D03*
D15*
%TO.C,J109*%
X183500000Y-52960000D03*
X183500000Y-55500000D03*
X183500000Y-58040000D03*
X183500000Y-60580000D03*
%TO.C,J110*%
X183725000Y-40945000D03*
X183725000Y-43485000D03*
X183725000Y-46025000D03*
%TO.C,J101*%
X193053674Y-85500000D03*
X193053674Y-88000000D03*
%TO.C,J106*%
X195100000Y-100025000D03*
%TO.C,J108*%
X195100000Y-140025000D03*
%TO.C,J102*%
X213100000Y-100025000D03*
%TO.C,J103*%
X213100000Y-140025000D03*
%TO.C,J104*%
X219880000Y-116840000D03*
X219880000Y-119380000D03*
X219880000Y-121920000D03*
X219880000Y-124460000D03*
X219880000Y-127000000D03*
X219880000Y-129540000D03*
X219880000Y-132080000D03*
X219880000Y-134620000D03*
%TO.C,J107*%
X229980000Y-79525000D03*
X232520000Y-79525000D03*
X235060000Y-79525000D03*
X237600000Y-79525000D03*
%TO.C,J105*%
X266880000Y-109460000D03*
X266880000Y-112000000D03*
X266880000Y-114540000D03*
X266880000Y-117080000D03*
%TO.C,J111*%
X274850000Y-50250000D03*
X274850000Y-52750000D03*
D16*
%TO.C,U101*%
X233180000Y-98485000D03*
X233180000Y-101025000D03*
X233180000Y-103565000D03*
X233180000Y-106105000D03*
X233180000Y-108645000D03*
X233180000Y-111185000D03*
X233180000Y-113725000D03*
X233180000Y-116265000D03*
X233180000Y-118805000D03*
X233180000Y-121345000D03*
X233180000Y-123885000D03*
X233180000Y-126425000D03*
X233180000Y-128965000D03*
X233180000Y-131505000D03*
X233180000Y-134045000D03*
X258580000Y-98485000D03*
X258580000Y-101025000D03*
X258580000Y-103565000D03*
X258580000Y-106105000D03*
X258580000Y-108645000D03*
X258580000Y-111185000D03*
X258580000Y-113725000D03*
X258580000Y-116265000D03*
X258580000Y-118805000D03*
X258580000Y-121345000D03*
X258580000Y-123885000D03*
X258580000Y-126425000D03*
X258580000Y-128965000D03*
X258580000Y-131505000D03*
X258580000Y-134045000D03*
D17*
%TO.C,C101*%
X200752651Y-89000000D03*
X208252651Y-89000000D03*
%TO.C,K101*%
X253980000Y-143525000D03*
X253980000Y-155525000D03*
D18*
%TO.C,TP105*%
X219000000Y-47500000D03*
X219000000Y-54500000D03*
%TO.C,TP101*%
X219880000Y-100985000D03*
X219880000Y-106065000D03*
%TO.C,K101*%
X239780000Y-149645000D03*
%TO.C,TP104*%
X249000000Y-47500000D03*
X249000000Y-54500000D03*
%TO.C,SW102*%
X255750000Y-78025000D03*
X255750000Y-83025000D03*
%TO.C,TP102*%
X257500000Y-48000000D03*
X257500000Y-55000000D03*
%TO.C,SW102*%
X268250000Y-78025000D03*
X268250000Y-83025000D03*
D19*
%TO.C,D101*%
X196260000Y-78000000D03*
X211500000Y-78000000D03*
D20*
%TO.C,J112*%
X261720000Y-156600000D03*
X266800000Y-156600000D03*
X271880000Y-156600000D03*
M02*
