%TF.GenerationSoftware,KiCad,Pcbnew,9.0.4*%
%TF.CreationDate,2025-11-05T16:33:01+05:30*%
%TF.ProjectId,BikeSSv3,42696b65-5353-4763-932e-6b696361645f,rev?*%
%TF.SameCoordinates,Original*%
%TF.FileFunction,Legend,Top*%
%TF.FilePolarity,Positive*%
%FSLAX46Y46*%
G04 Gerber Fmt 4.6, Leading zero omitted, Abs format (unit mm)*
G04 Created by KiCad (PCBNEW 9.0.4) date 2025-11-05 16:33:01*
%MOMM*%
%LPD*%
G01*
G04 APERTURE LIST*
%ADD10C,0.100000*%
%ADD11C,0.150000*%
%ADD12C,0.120000*%
%ADD13C,0.127000*%
%ADD14C,0.200000*%
G04 APERTURE END LIST*
D10*
X60000000Y-25000000D02*
X96000000Y-25000000D01*
X96000000Y-42000000D01*
X60000000Y-42000000D01*
X60000000Y-25000000D01*
X181220000Y-73025000D02*
X199220000Y-73025000D01*
X199220000Y-113025000D01*
X181220000Y-113025000D01*
X181220000Y-73025000D01*
D11*
X189503603Y-70609580D02*
X189455984Y-70657200D01*
X189455984Y-70657200D02*
X189313127Y-70704819D01*
X189313127Y-70704819D02*
X189217889Y-70704819D01*
X189217889Y-70704819D02*
X189075032Y-70657200D01*
X189075032Y-70657200D02*
X188979794Y-70561961D01*
X188979794Y-70561961D02*
X188932175Y-70466723D01*
X188932175Y-70466723D02*
X188884556Y-70276247D01*
X188884556Y-70276247D02*
X188884556Y-70133390D01*
X188884556Y-70133390D02*
X188932175Y-69942914D01*
X188932175Y-69942914D02*
X188979794Y-69847676D01*
X188979794Y-69847676D02*
X189075032Y-69752438D01*
X189075032Y-69752438D02*
X189217889Y-69704819D01*
X189217889Y-69704819D02*
X189313127Y-69704819D01*
X189313127Y-69704819D02*
X189455984Y-69752438D01*
X189455984Y-69752438D02*
X189503603Y-69800057D01*
X190455984Y-70704819D02*
X189884556Y-70704819D01*
X190170270Y-70704819D02*
X190170270Y-69704819D01*
X190170270Y-69704819D02*
X190075032Y-69847676D01*
X190075032Y-69847676D02*
X189979794Y-69942914D01*
X189979794Y-69942914D02*
X189884556Y-69990533D01*
X191075032Y-69704819D02*
X191170270Y-69704819D01*
X191170270Y-69704819D02*
X191265508Y-69752438D01*
X191265508Y-69752438D02*
X191313127Y-69800057D01*
X191313127Y-69800057D02*
X191360746Y-69895295D01*
X191360746Y-69895295D02*
X191408365Y-70085771D01*
X191408365Y-70085771D02*
X191408365Y-70323866D01*
X191408365Y-70323866D02*
X191360746Y-70514342D01*
X191360746Y-70514342D02*
X191313127Y-70609580D01*
X191313127Y-70609580D02*
X191265508Y-70657200D01*
X191265508Y-70657200D02*
X191170270Y-70704819D01*
X191170270Y-70704819D02*
X191075032Y-70704819D01*
X191075032Y-70704819D02*
X190979794Y-70657200D01*
X190979794Y-70657200D02*
X190932175Y-70609580D01*
X190932175Y-70609580D02*
X190884556Y-70514342D01*
X190884556Y-70514342D02*
X190836937Y-70323866D01*
X190836937Y-70323866D02*
X190836937Y-70085771D01*
X190836937Y-70085771D02*
X190884556Y-69895295D01*
X190884556Y-69895295D02*
X190932175Y-69800057D01*
X190932175Y-69800057D02*
X190979794Y-69752438D01*
X190979794Y-69752438D02*
X191075032Y-69704819D01*
X192360746Y-70704819D02*
X191789318Y-70704819D01*
X192075032Y-70704819D02*
X192075032Y-69704819D01*
X192075032Y-69704819D02*
X191979794Y-69847676D01*
X191979794Y-69847676D02*
X191884556Y-69942914D01*
X191884556Y-69942914D02*
X191789318Y-69990533D01*
X22084285Y-32644819D02*
X22084285Y-33359104D01*
X22084285Y-33359104D02*
X22036666Y-33501961D01*
X22036666Y-33501961D02*
X21941428Y-33597200D01*
X21941428Y-33597200D02*
X21798571Y-33644819D01*
X21798571Y-33644819D02*
X21703333Y-33644819D01*
X23084285Y-33644819D02*
X22512857Y-33644819D01*
X22798571Y-33644819D02*
X22798571Y-32644819D01*
X22798571Y-32644819D02*
X22703333Y-32787676D01*
X22703333Y-32787676D02*
X22608095Y-32882914D01*
X22608095Y-32882914D02*
X22512857Y-32930533D01*
X23703333Y-32644819D02*
X23798571Y-32644819D01*
X23798571Y-32644819D02*
X23893809Y-32692438D01*
X23893809Y-32692438D02*
X23941428Y-32740057D01*
X23941428Y-32740057D02*
X23989047Y-32835295D01*
X23989047Y-32835295D02*
X24036666Y-33025771D01*
X24036666Y-33025771D02*
X24036666Y-33263866D01*
X24036666Y-33263866D02*
X23989047Y-33454342D01*
X23989047Y-33454342D02*
X23941428Y-33549580D01*
X23941428Y-33549580D02*
X23893809Y-33597200D01*
X23893809Y-33597200D02*
X23798571Y-33644819D01*
X23798571Y-33644819D02*
X23703333Y-33644819D01*
X23703333Y-33644819D02*
X23608095Y-33597200D01*
X23608095Y-33597200D02*
X23560476Y-33549580D01*
X23560476Y-33549580D02*
X23512857Y-33454342D01*
X23512857Y-33454342D02*
X23465238Y-33263866D01*
X23465238Y-33263866D02*
X23465238Y-33025771D01*
X23465238Y-33025771D02*
X23512857Y-32835295D01*
X23512857Y-32835295D02*
X23560476Y-32740057D01*
X23560476Y-32740057D02*
X23608095Y-32692438D01*
X23608095Y-32692438D02*
X23703333Y-32644819D01*
X24512857Y-33644819D02*
X24703333Y-33644819D01*
X24703333Y-33644819D02*
X24798571Y-33597200D01*
X24798571Y-33597200D02*
X24846190Y-33549580D01*
X24846190Y-33549580D02*
X24941428Y-33406723D01*
X24941428Y-33406723D02*
X24989047Y-33216247D01*
X24989047Y-33216247D02*
X24989047Y-32835295D01*
X24989047Y-32835295D02*
X24941428Y-32740057D01*
X24941428Y-32740057D02*
X24893809Y-32692438D01*
X24893809Y-32692438D02*
X24798571Y-32644819D01*
X24798571Y-32644819D02*
X24608095Y-32644819D01*
X24608095Y-32644819D02*
X24512857Y-32692438D01*
X24512857Y-32692438D02*
X24465238Y-32740057D01*
X24465238Y-32740057D02*
X24417619Y-32835295D01*
X24417619Y-32835295D02*
X24417619Y-33073390D01*
X24417619Y-33073390D02*
X24465238Y-33168628D01*
X24465238Y-33168628D02*
X24512857Y-33216247D01*
X24512857Y-33216247D02*
X24608095Y-33263866D01*
X24608095Y-33263866D02*
X24798571Y-33263866D01*
X24798571Y-33263866D02*
X24893809Y-33216247D01*
X24893809Y-33216247D02*
X24941428Y-33168628D01*
X24941428Y-33168628D02*
X24989047Y-33073390D01*
X98454819Y-37174285D02*
X98454819Y-36602857D01*
X99454819Y-36888571D02*
X98454819Y-36888571D01*
X99454819Y-36269523D02*
X98454819Y-36269523D01*
X98454819Y-36269523D02*
X98454819Y-35888571D01*
X98454819Y-35888571D02*
X98502438Y-35793333D01*
X98502438Y-35793333D02*
X98550057Y-35745714D01*
X98550057Y-35745714D02*
X98645295Y-35698095D01*
X98645295Y-35698095D02*
X98788152Y-35698095D01*
X98788152Y-35698095D02*
X98883390Y-35745714D01*
X98883390Y-35745714D02*
X98931009Y-35793333D01*
X98931009Y-35793333D02*
X98978628Y-35888571D01*
X98978628Y-35888571D02*
X98978628Y-36269523D01*
X99454819Y-34745714D02*
X99454819Y-35317142D01*
X99454819Y-35031428D02*
X98454819Y-35031428D01*
X98454819Y-35031428D02*
X98597676Y-35126666D01*
X98597676Y-35126666D02*
X98692914Y-35221904D01*
X98692914Y-35221904D02*
X98740533Y-35317142D01*
X98454819Y-34126666D02*
X98454819Y-34031428D01*
X98454819Y-34031428D02*
X98502438Y-33936190D01*
X98502438Y-33936190D02*
X98550057Y-33888571D01*
X98550057Y-33888571D02*
X98645295Y-33840952D01*
X98645295Y-33840952D02*
X98835771Y-33793333D01*
X98835771Y-33793333D02*
X99073866Y-33793333D01*
X99073866Y-33793333D02*
X99264342Y-33840952D01*
X99264342Y-33840952D02*
X99359580Y-33888571D01*
X99359580Y-33888571D02*
X99407200Y-33936190D01*
X99407200Y-33936190D02*
X99454819Y-34031428D01*
X99454819Y-34031428D02*
X99454819Y-34126666D01*
X99454819Y-34126666D02*
X99407200Y-34221904D01*
X99407200Y-34221904D02*
X99359580Y-34269523D01*
X99359580Y-34269523D02*
X99264342Y-34317142D01*
X99264342Y-34317142D02*
X99073866Y-34364761D01*
X99073866Y-34364761D02*
X98835771Y-34364761D01*
X98835771Y-34364761D02*
X98645295Y-34317142D01*
X98645295Y-34317142D02*
X98550057Y-34269523D01*
X98550057Y-34269523D02*
X98502438Y-34221904D01*
X98502438Y-34221904D02*
X98454819Y-34126666D01*
X98550057Y-33412380D02*
X98502438Y-33364761D01*
X98502438Y-33364761D02*
X98454819Y-33269523D01*
X98454819Y-33269523D02*
X98454819Y-33031428D01*
X98454819Y-33031428D02*
X98502438Y-32936190D01*
X98502438Y-32936190D02*
X98550057Y-32888571D01*
X98550057Y-32888571D02*
X98645295Y-32840952D01*
X98645295Y-32840952D02*
X98740533Y-32840952D01*
X98740533Y-32840952D02*
X98883390Y-32888571D01*
X98883390Y-32888571D02*
X99454819Y-33459999D01*
X99454819Y-33459999D02*
X99454819Y-32840952D01*
X26439285Y-30749819D02*
X26439285Y-31464104D01*
X26439285Y-31464104D02*
X26391666Y-31606961D01*
X26391666Y-31606961D02*
X26296428Y-31702200D01*
X26296428Y-31702200D02*
X26153571Y-31749819D01*
X26153571Y-31749819D02*
X26058333Y-31749819D01*
X27439285Y-31749819D02*
X26867857Y-31749819D01*
X27153571Y-31749819D02*
X27153571Y-30749819D01*
X27153571Y-30749819D02*
X27058333Y-30892676D01*
X27058333Y-30892676D02*
X26963095Y-30987914D01*
X26963095Y-30987914D02*
X26867857Y-31035533D01*
X28391666Y-31749819D02*
X27820238Y-31749819D01*
X28105952Y-31749819D02*
X28105952Y-30749819D01*
X28105952Y-30749819D02*
X28010714Y-30892676D01*
X28010714Y-30892676D02*
X27915476Y-30987914D01*
X27915476Y-30987914D02*
X27820238Y-31035533D01*
X29010714Y-30749819D02*
X29105952Y-30749819D01*
X29105952Y-30749819D02*
X29201190Y-30797438D01*
X29201190Y-30797438D02*
X29248809Y-30845057D01*
X29248809Y-30845057D02*
X29296428Y-30940295D01*
X29296428Y-30940295D02*
X29344047Y-31130771D01*
X29344047Y-31130771D02*
X29344047Y-31368866D01*
X29344047Y-31368866D02*
X29296428Y-31559342D01*
X29296428Y-31559342D02*
X29248809Y-31654580D01*
X29248809Y-31654580D02*
X29201190Y-31702200D01*
X29201190Y-31702200D02*
X29105952Y-31749819D01*
X29105952Y-31749819D02*
X29010714Y-31749819D01*
X29010714Y-31749819D02*
X28915476Y-31702200D01*
X28915476Y-31702200D02*
X28867857Y-31654580D01*
X28867857Y-31654580D02*
X28820238Y-31559342D01*
X28820238Y-31559342D02*
X28772619Y-31368866D01*
X28772619Y-31368866D02*
X28772619Y-31130771D01*
X28772619Y-31130771D02*
X28820238Y-30940295D01*
X28820238Y-30940295D02*
X28867857Y-30845057D01*
X28867857Y-30845057D02*
X28915476Y-30797438D01*
X28915476Y-30797438D02*
X29010714Y-30749819D01*
X94954819Y-34754285D02*
X94954819Y-34182857D01*
X95954819Y-34468571D02*
X94954819Y-34468571D01*
X95954819Y-33849523D02*
X94954819Y-33849523D01*
X94954819Y-33849523D02*
X94954819Y-33468571D01*
X94954819Y-33468571D02*
X95002438Y-33373333D01*
X95002438Y-33373333D02*
X95050057Y-33325714D01*
X95050057Y-33325714D02*
X95145295Y-33278095D01*
X95145295Y-33278095D02*
X95288152Y-33278095D01*
X95288152Y-33278095D02*
X95383390Y-33325714D01*
X95383390Y-33325714D02*
X95431009Y-33373333D01*
X95431009Y-33373333D02*
X95478628Y-33468571D01*
X95478628Y-33468571D02*
X95478628Y-33849523D01*
X95954819Y-32325714D02*
X95954819Y-32897142D01*
X95954819Y-32611428D02*
X94954819Y-32611428D01*
X94954819Y-32611428D02*
X95097676Y-32706666D01*
X95097676Y-32706666D02*
X95192914Y-32801904D01*
X95192914Y-32801904D02*
X95240533Y-32897142D01*
X94954819Y-31706666D02*
X94954819Y-31611428D01*
X94954819Y-31611428D02*
X95002438Y-31516190D01*
X95002438Y-31516190D02*
X95050057Y-31468571D01*
X95050057Y-31468571D02*
X95145295Y-31420952D01*
X95145295Y-31420952D02*
X95335771Y-31373333D01*
X95335771Y-31373333D02*
X95573866Y-31373333D01*
X95573866Y-31373333D02*
X95764342Y-31420952D01*
X95764342Y-31420952D02*
X95859580Y-31468571D01*
X95859580Y-31468571D02*
X95907200Y-31516190D01*
X95907200Y-31516190D02*
X95954819Y-31611428D01*
X95954819Y-31611428D02*
X95954819Y-31706666D01*
X95954819Y-31706666D02*
X95907200Y-31801904D01*
X95907200Y-31801904D02*
X95859580Y-31849523D01*
X95859580Y-31849523D02*
X95764342Y-31897142D01*
X95764342Y-31897142D02*
X95573866Y-31944761D01*
X95573866Y-31944761D02*
X95335771Y-31944761D01*
X95335771Y-31944761D02*
X95145295Y-31897142D01*
X95145295Y-31897142D02*
X95050057Y-31849523D01*
X95050057Y-31849523D02*
X95002438Y-31801904D01*
X95002438Y-31801904D02*
X94954819Y-31706666D01*
X95288152Y-30516190D02*
X95954819Y-30516190D01*
X94907200Y-30754285D02*
X95621485Y-30992380D01*
X95621485Y-30992380D02*
X95621485Y-30373333D01*
X64954819Y-34754285D02*
X64954819Y-34182857D01*
X65954819Y-34468571D02*
X64954819Y-34468571D01*
X65954819Y-33849523D02*
X64954819Y-33849523D01*
X64954819Y-33849523D02*
X64954819Y-33468571D01*
X64954819Y-33468571D02*
X65002438Y-33373333D01*
X65002438Y-33373333D02*
X65050057Y-33325714D01*
X65050057Y-33325714D02*
X65145295Y-33278095D01*
X65145295Y-33278095D02*
X65288152Y-33278095D01*
X65288152Y-33278095D02*
X65383390Y-33325714D01*
X65383390Y-33325714D02*
X65431009Y-33373333D01*
X65431009Y-33373333D02*
X65478628Y-33468571D01*
X65478628Y-33468571D02*
X65478628Y-33849523D01*
X65954819Y-32325714D02*
X65954819Y-32897142D01*
X65954819Y-32611428D02*
X64954819Y-32611428D01*
X64954819Y-32611428D02*
X65097676Y-32706666D01*
X65097676Y-32706666D02*
X65192914Y-32801904D01*
X65192914Y-32801904D02*
X65240533Y-32897142D01*
X64954819Y-31706666D02*
X64954819Y-31611428D01*
X64954819Y-31611428D02*
X65002438Y-31516190D01*
X65002438Y-31516190D02*
X65050057Y-31468571D01*
X65050057Y-31468571D02*
X65145295Y-31420952D01*
X65145295Y-31420952D02*
X65335771Y-31373333D01*
X65335771Y-31373333D02*
X65573866Y-31373333D01*
X65573866Y-31373333D02*
X65764342Y-31420952D01*
X65764342Y-31420952D02*
X65859580Y-31468571D01*
X65859580Y-31468571D02*
X65907200Y-31516190D01*
X65907200Y-31516190D02*
X65954819Y-31611428D01*
X65954819Y-31611428D02*
X65954819Y-31706666D01*
X65954819Y-31706666D02*
X65907200Y-31801904D01*
X65907200Y-31801904D02*
X65859580Y-31849523D01*
X65859580Y-31849523D02*
X65764342Y-31897142D01*
X65764342Y-31897142D02*
X65573866Y-31944761D01*
X65573866Y-31944761D02*
X65335771Y-31944761D01*
X65335771Y-31944761D02*
X65145295Y-31897142D01*
X65145295Y-31897142D02*
X65050057Y-31849523D01*
X65050057Y-31849523D02*
X65002438Y-31801904D01*
X65002438Y-31801904D02*
X64954819Y-31706666D01*
X64954819Y-30468571D02*
X64954819Y-30944761D01*
X64954819Y-30944761D02*
X65431009Y-30992380D01*
X65431009Y-30992380D02*
X65383390Y-30944761D01*
X65383390Y-30944761D02*
X65335771Y-30849523D01*
X65335771Y-30849523D02*
X65335771Y-30611428D01*
X65335771Y-30611428D02*
X65383390Y-30516190D01*
X65383390Y-30516190D02*
X65431009Y-30468571D01*
X65431009Y-30468571D02*
X65526247Y-30420952D01*
X65526247Y-30420952D02*
X65764342Y-30420952D01*
X65764342Y-30420952D02*
X65859580Y-30468571D01*
X65859580Y-30468571D02*
X65907200Y-30516190D01*
X65907200Y-30516190D02*
X65954819Y-30611428D01*
X65954819Y-30611428D02*
X65954819Y-30849523D01*
X65954819Y-30849523D02*
X65907200Y-30944761D01*
X65907200Y-30944761D02*
X65859580Y-30992380D01*
X36940714Y-19452319D02*
X36940714Y-20261842D01*
X36940714Y-20261842D02*
X36988333Y-20357080D01*
X36988333Y-20357080D02*
X37035952Y-20404700D01*
X37035952Y-20404700D02*
X37131190Y-20452319D01*
X37131190Y-20452319D02*
X37321666Y-20452319D01*
X37321666Y-20452319D02*
X37416904Y-20404700D01*
X37416904Y-20404700D02*
X37464523Y-20357080D01*
X37464523Y-20357080D02*
X37512142Y-20261842D01*
X37512142Y-20261842D02*
X37512142Y-19452319D01*
X38512142Y-20452319D02*
X37940714Y-20452319D01*
X38226428Y-20452319D02*
X38226428Y-19452319D01*
X38226428Y-19452319D02*
X38131190Y-19595176D01*
X38131190Y-19595176D02*
X38035952Y-19690414D01*
X38035952Y-19690414D02*
X37940714Y-19738033D01*
X39131190Y-19452319D02*
X39226428Y-19452319D01*
X39226428Y-19452319D02*
X39321666Y-19499938D01*
X39321666Y-19499938D02*
X39369285Y-19547557D01*
X39369285Y-19547557D02*
X39416904Y-19642795D01*
X39416904Y-19642795D02*
X39464523Y-19833271D01*
X39464523Y-19833271D02*
X39464523Y-20071366D01*
X39464523Y-20071366D02*
X39416904Y-20261842D01*
X39416904Y-20261842D02*
X39369285Y-20357080D01*
X39369285Y-20357080D02*
X39321666Y-20404700D01*
X39321666Y-20404700D02*
X39226428Y-20452319D01*
X39226428Y-20452319D02*
X39131190Y-20452319D01*
X39131190Y-20452319D02*
X39035952Y-20404700D01*
X39035952Y-20404700D02*
X38988333Y-20357080D01*
X38988333Y-20357080D02*
X38940714Y-20261842D01*
X38940714Y-20261842D02*
X38893095Y-20071366D01*
X38893095Y-20071366D02*
X38893095Y-19833271D01*
X38893095Y-19833271D02*
X38940714Y-19642795D01*
X38940714Y-19642795D02*
X38988333Y-19547557D01*
X38988333Y-19547557D02*
X39035952Y-19499938D01*
X39035952Y-19499938D02*
X39131190Y-19452319D01*
X39845476Y-19547557D02*
X39893095Y-19499938D01*
X39893095Y-19499938D02*
X39988333Y-19452319D01*
X39988333Y-19452319D02*
X40226428Y-19452319D01*
X40226428Y-19452319D02*
X40321666Y-19499938D01*
X40321666Y-19499938D02*
X40369285Y-19547557D01*
X40369285Y-19547557D02*
X40416904Y-19642795D01*
X40416904Y-19642795D02*
X40416904Y-19738033D01*
X40416904Y-19738033D02*
X40369285Y-19880890D01*
X40369285Y-19880890D02*
X39797857Y-20452319D01*
X39797857Y-20452319D02*
X40416904Y-20452319D01*
X218434285Y-49379819D02*
X218434285Y-50094104D01*
X218434285Y-50094104D02*
X218386666Y-50236961D01*
X218386666Y-50236961D02*
X218291428Y-50332200D01*
X218291428Y-50332200D02*
X218148571Y-50379819D01*
X218148571Y-50379819D02*
X218053333Y-50379819D01*
X219434285Y-50379819D02*
X218862857Y-50379819D01*
X219148571Y-50379819D02*
X219148571Y-49379819D01*
X219148571Y-49379819D02*
X219053333Y-49522676D01*
X219053333Y-49522676D02*
X218958095Y-49617914D01*
X218958095Y-49617914D02*
X218862857Y-49665533D01*
X220053333Y-49379819D02*
X220148571Y-49379819D01*
X220148571Y-49379819D02*
X220243809Y-49427438D01*
X220243809Y-49427438D02*
X220291428Y-49475057D01*
X220291428Y-49475057D02*
X220339047Y-49570295D01*
X220339047Y-49570295D02*
X220386666Y-49760771D01*
X220386666Y-49760771D02*
X220386666Y-49998866D01*
X220386666Y-49998866D02*
X220339047Y-50189342D01*
X220339047Y-50189342D02*
X220291428Y-50284580D01*
X220291428Y-50284580D02*
X220243809Y-50332200D01*
X220243809Y-50332200D02*
X220148571Y-50379819D01*
X220148571Y-50379819D02*
X220053333Y-50379819D01*
X220053333Y-50379819D02*
X219958095Y-50332200D01*
X219958095Y-50332200D02*
X219910476Y-50284580D01*
X219910476Y-50284580D02*
X219862857Y-50189342D01*
X219862857Y-50189342D02*
X219815238Y-49998866D01*
X219815238Y-49998866D02*
X219815238Y-49760771D01*
X219815238Y-49760771D02*
X219862857Y-49570295D01*
X219862857Y-49570295D02*
X219910476Y-49475057D01*
X219910476Y-49475057D02*
X219958095Y-49427438D01*
X219958095Y-49427438D02*
X220053333Y-49379819D01*
X220720000Y-49379819D02*
X221386666Y-49379819D01*
X221386666Y-49379819D02*
X220958095Y-50379819D01*
X180534819Y-121119047D02*
X180058628Y-121452380D01*
X180534819Y-121690475D02*
X179534819Y-121690475D01*
X179534819Y-121690475D02*
X179534819Y-121309523D01*
X179534819Y-121309523D02*
X179582438Y-121214285D01*
X179582438Y-121214285D02*
X179630057Y-121166666D01*
X179630057Y-121166666D02*
X179725295Y-121119047D01*
X179725295Y-121119047D02*
X179868152Y-121119047D01*
X179868152Y-121119047D02*
X179963390Y-121166666D01*
X179963390Y-121166666D02*
X180011009Y-121214285D01*
X180011009Y-121214285D02*
X180058628Y-121309523D01*
X180058628Y-121309523D02*
X180058628Y-121690475D01*
X180534819Y-120166666D02*
X180534819Y-120738094D01*
X180534819Y-120452380D02*
X179534819Y-120452380D01*
X179534819Y-120452380D02*
X179677676Y-120547618D01*
X179677676Y-120547618D02*
X179772914Y-120642856D01*
X179772914Y-120642856D02*
X179820533Y-120738094D01*
X179534819Y-119547618D02*
X179534819Y-119452380D01*
X179534819Y-119452380D02*
X179582438Y-119357142D01*
X179582438Y-119357142D02*
X179630057Y-119309523D01*
X179630057Y-119309523D02*
X179725295Y-119261904D01*
X179725295Y-119261904D02*
X179915771Y-119214285D01*
X179915771Y-119214285D02*
X180153866Y-119214285D01*
X180153866Y-119214285D02*
X180344342Y-119261904D01*
X180344342Y-119261904D02*
X180439580Y-119309523D01*
X180439580Y-119309523D02*
X180487200Y-119357142D01*
X180487200Y-119357142D02*
X180534819Y-119452380D01*
X180534819Y-119452380D02*
X180534819Y-119547618D01*
X180534819Y-119547618D02*
X180487200Y-119642856D01*
X180487200Y-119642856D02*
X180439580Y-119690475D01*
X180439580Y-119690475D02*
X180344342Y-119738094D01*
X180344342Y-119738094D02*
X180153866Y-119785713D01*
X180153866Y-119785713D02*
X179915771Y-119785713D01*
X179915771Y-119785713D02*
X179725295Y-119738094D01*
X179725295Y-119738094D02*
X179630057Y-119690475D01*
X179630057Y-119690475D02*
X179582438Y-119642856D01*
X179582438Y-119642856D02*
X179534819Y-119547618D01*
X179534819Y-118880951D02*
X179534819Y-118261904D01*
X179534819Y-118261904D02*
X179915771Y-118595237D01*
X179915771Y-118595237D02*
X179915771Y-118452380D01*
X179915771Y-118452380D02*
X179963390Y-118357142D01*
X179963390Y-118357142D02*
X180011009Y-118309523D01*
X180011009Y-118309523D02*
X180106247Y-118261904D01*
X180106247Y-118261904D02*
X180344342Y-118261904D01*
X180344342Y-118261904D02*
X180439580Y-118309523D01*
X180439580Y-118309523D02*
X180487200Y-118357142D01*
X180487200Y-118357142D02*
X180534819Y-118452380D01*
X180534819Y-118452380D02*
X180534819Y-118738094D01*
X180534819Y-118738094D02*
X180487200Y-118833332D01*
X180487200Y-118833332D02*
X180439580Y-118880951D01*
X217374819Y-121119047D02*
X216898628Y-121452380D01*
X217374819Y-121690475D02*
X216374819Y-121690475D01*
X216374819Y-121690475D02*
X216374819Y-121309523D01*
X216374819Y-121309523D02*
X216422438Y-121214285D01*
X216422438Y-121214285D02*
X216470057Y-121166666D01*
X216470057Y-121166666D02*
X216565295Y-121119047D01*
X216565295Y-121119047D02*
X216708152Y-121119047D01*
X216708152Y-121119047D02*
X216803390Y-121166666D01*
X216803390Y-121166666D02*
X216851009Y-121214285D01*
X216851009Y-121214285D02*
X216898628Y-121309523D01*
X216898628Y-121309523D02*
X216898628Y-121690475D01*
X217374819Y-120166666D02*
X217374819Y-120738094D01*
X217374819Y-120452380D02*
X216374819Y-120452380D01*
X216374819Y-120452380D02*
X216517676Y-120547618D01*
X216517676Y-120547618D02*
X216612914Y-120642856D01*
X216612914Y-120642856D02*
X216660533Y-120738094D01*
X216374819Y-119547618D02*
X216374819Y-119452380D01*
X216374819Y-119452380D02*
X216422438Y-119357142D01*
X216422438Y-119357142D02*
X216470057Y-119309523D01*
X216470057Y-119309523D02*
X216565295Y-119261904D01*
X216565295Y-119261904D02*
X216755771Y-119214285D01*
X216755771Y-119214285D02*
X216993866Y-119214285D01*
X216993866Y-119214285D02*
X217184342Y-119261904D01*
X217184342Y-119261904D02*
X217279580Y-119309523D01*
X217279580Y-119309523D02*
X217327200Y-119357142D01*
X217327200Y-119357142D02*
X217374819Y-119452380D01*
X217374819Y-119452380D02*
X217374819Y-119547618D01*
X217374819Y-119547618D02*
X217327200Y-119642856D01*
X217327200Y-119642856D02*
X217279580Y-119690475D01*
X217279580Y-119690475D02*
X217184342Y-119738094D01*
X217184342Y-119738094D02*
X216993866Y-119785713D01*
X216993866Y-119785713D02*
X216755771Y-119785713D01*
X216755771Y-119785713D02*
X216565295Y-119738094D01*
X216565295Y-119738094D02*
X216470057Y-119690475D01*
X216470057Y-119690475D02*
X216422438Y-119642856D01*
X216422438Y-119642856D02*
X216374819Y-119547618D01*
X216374819Y-118309523D02*
X216374819Y-118785713D01*
X216374819Y-118785713D02*
X216851009Y-118833332D01*
X216851009Y-118833332D02*
X216803390Y-118785713D01*
X216803390Y-118785713D02*
X216755771Y-118690475D01*
X216755771Y-118690475D02*
X216755771Y-118452380D01*
X216755771Y-118452380D02*
X216803390Y-118357142D01*
X216803390Y-118357142D02*
X216851009Y-118309523D01*
X216851009Y-118309523D02*
X216946247Y-118261904D01*
X216946247Y-118261904D02*
X217184342Y-118261904D01*
X217184342Y-118261904D02*
X217279580Y-118309523D01*
X217279580Y-118309523D02*
X217327200Y-118357142D01*
X217327200Y-118357142D02*
X217374819Y-118452380D01*
X217374819Y-118452380D02*
X217374819Y-118690475D01*
X217374819Y-118690475D02*
X217327200Y-118785713D01*
X217327200Y-118785713D02*
X217279580Y-118833332D01*
X195534819Y-120919047D02*
X195058628Y-121252380D01*
X195534819Y-121490475D02*
X194534819Y-121490475D01*
X194534819Y-121490475D02*
X194534819Y-121109523D01*
X194534819Y-121109523D02*
X194582438Y-121014285D01*
X194582438Y-121014285D02*
X194630057Y-120966666D01*
X194630057Y-120966666D02*
X194725295Y-120919047D01*
X194725295Y-120919047D02*
X194868152Y-120919047D01*
X194868152Y-120919047D02*
X194963390Y-120966666D01*
X194963390Y-120966666D02*
X195011009Y-121014285D01*
X195011009Y-121014285D02*
X195058628Y-121109523D01*
X195058628Y-121109523D02*
X195058628Y-121490475D01*
X195534819Y-119966666D02*
X195534819Y-120538094D01*
X195534819Y-120252380D02*
X194534819Y-120252380D01*
X194534819Y-120252380D02*
X194677676Y-120347618D01*
X194677676Y-120347618D02*
X194772914Y-120442856D01*
X194772914Y-120442856D02*
X194820533Y-120538094D01*
X194534819Y-119347618D02*
X194534819Y-119252380D01*
X194534819Y-119252380D02*
X194582438Y-119157142D01*
X194582438Y-119157142D02*
X194630057Y-119109523D01*
X194630057Y-119109523D02*
X194725295Y-119061904D01*
X194725295Y-119061904D02*
X194915771Y-119014285D01*
X194915771Y-119014285D02*
X195153866Y-119014285D01*
X195153866Y-119014285D02*
X195344342Y-119061904D01*
X195344342Y-119061904D02*
X195439580Y-119109523D01*
X195439580Y-119109523D02*
X195487200Y-119157142D01*
X195487200Y-119157142D02*
X195534819Y-119252380D01*
X195534819Y-119252380D02*
X195534819Y-119347618D01*
X195534819Y-119347618D02*
X195487200Y-119442856D01*
X195487200Y-119442856D02*
X195439580Y-119490475D01*
X195439580Y-119490475D02*
X195344342Y-119538094D01*
X195344342Y-119538094D02*
X195153866Y-119585713D01*
X195153866Y-119585713D02*
X194915771Y-119585713D01*
X194915771Y-119585713D02*
X194725295Y-119538094D01*
X194725295Y-119538094D02*
X194630057Y-119490475D01*
X194630057Y-119490475D02*
X194582438Y-119442856D01*
X194582438Y-119442856D02*
X194534819Y-119347618D01*
X194630057Y-118633332D02*
X194582438Y-118585713D01*
X194582438Y-118585713D02*
X194534819Y-118490475D01*
X194534819Y-118490475D02*
X194534819Y-118252380D01*
X194534819Y-118252380D02*
X194582438Y-118157142D01*
X194582438Y-118157142D02*
X194630057Y-118109523D01*
X194630057Y-118109523D02*
X194725295Y-118061904D01*
X194725295Y-118061904D02*
X194820533Y-118061904D01*
X194820533Y-118061904D02*
X194963390Y-118109523D01*
X194963390Y-118109523D02*
X195534819Y-118680951D01*
X195534819Y-118680951D02*
X195534819Y-118061904D01*
X195424819Y-128715475D02*
X194424819Y-128715475D01*
X194424819Y-128715475D02*
X194424819Y-128477380D01*
X194424819Y-128477380D02*
X194472438Y-128334523D01*
X194472438Y-128334523D02*
X194567676Y-128239285D01*
X194567676Y-128239285D02*
X194662914Y-128191666D01*
X194662914Y-128191666D02*
X194853390Y-128144047D01*
X194853390Y-128144047D02*
X194996247Y-128144047D01*
X194996247Y-128144047D02*
X195186723Y-128191666D01*
X195186723Y-128191666D02*
X195281961Y-128239285D01*
X195281961Y-128239285D02*
X195377200Y-128334523D01*
X195377200Y-128334523D02*
X195424819Y-128477380D01*
X195424819Y-128477380D02*
X195424819Y-128715475D01*
X195424819Y-127191666D02*
X195424819Y-127763094D01*
X195424819Y-127477380D02*
X194424819Y-127477380D01*
X194424819Y-127477380D02*
X194567676Y-127572618D01*
X194567676Y-127572618D02*
X194662914Y-127667856D01*
X194662914Y-127667856D02*
X194710533Y-127763094D01*
X194424819Y-126572618D02*
X194424819Y-126477380D01*
X194424819Y-126477380D02*
X194472438Y-126382142D01*
X194472438Y-126382142D02*
X194520057Y-126334523D01*
X194520057Y-126334523D02*
X194615295Y-126286904D01*
X194615295Y-126286904D02*
X194805771Y-126239285D01*
X194805771Y-126239285D02*
X195043866Y-126239285D01*
X195043866Y-126239285D02*
X195234342Y-126286904D01*
X195234342Y-126286904D02*
X195329580Y-126334523D01*
X195329580Y-126334523D02*
X195377200Y-126382142D01*
X195377200Y-126382142D02*
X195424819Y-126477380D01*
X195424819Y-126477380D02*
X195424819Y-126572618D01*
X195424819Y-126572618D02*
X195377200Y-126667856D01*
X195377200Y-126667856D02*
X195329580Y-126715475D01*
X195329580Y-126715475D02*
X195234342Y-126763094D01*
X195234342Y-126763094D02*
X195043866Y-126810713D01*
X195043866Y-126810713D02*
X194805771Y-126810713D01*
X194805771Y-126810713D02*
X194615295Y-126763094D01*
X194615295Y-126763094D02*
X194520057Y-126715475D01*
X194520057Y-126715475D02*
X194472438Y-126667856D01*
X194472438Y-126667856D02*
X194424819Y-126572618D01*
X194424819Y-125905951D02*
X194424819Y-125286904D01*
X194424819Y-125286904D02*
X194805771Y-125620237D01*
X194805771Y-125620237D02*
X194805771Y-125477380D01*
X194805771Y-125477380D02*
X194853390Y-125382142D01*
X194853390Y-125382142D02*
X194901009Y-125334523D01*
X194901009Y-125334523D02*
X194996247Y-125286904D01*
X194996247Y-125286904D02*
X195234342Y-125286904D01*
X195234342Y-125286904D02*
X195329580Y-125334523D01*
X195329580Y-125334523D02*
X195377200Y-125382142D01*
X195377200Y-125382142D02*
X195424819Y-125477380D01*
X195424819Y-125477380D02*
X195424819Y-125763094D01*
X195424819Y-125763094D02*
X195377200Y-125858332D01*
X195377200Y-125858332D02*
X195329580Y-125905951D01*
X251880057Y-118582619D02*
X251832438Y-118677857D01*
X251832438Y-118677857D02*
X251737200Y-118773095D01*
X251737200Y-118773095D02*
X251594342Y-118915952D01*
X251594342Y-118915952D02*
X251546723Y-119011190D01*
X251546723Y-119011190D02*
X251546723Y-119106428D01*
X251784819Y-119058809D02*
X251737200Y-119154047D01*
X251737200Y-119154047D02*
X251641961Y-119249285D01*
X251641961Y-119249285D02*
X251451485Y-119296904D01*
X251451485Y-119296904D02*
X251118152Y-119296904D01*
X251118152Y-119296904D02*
X250927676Y-119249285D01*
X250927676Y-119249285D02*
X250832438Y-119154047D01*
X250832438Y-119154047D02*
X250784819Y-119058809D01*
X250784819Y-119058809D02*
X250784819Y-118868333D01*
X250784819Y-118868333D02*
X250832438Y-118773095D01*
X250832438Y-118773095D02*
X250927676Y-118677857D01*
X250927676Y-118677857D02*
X251118152Y-118630238D01*
X251118152Y-118630238D02*
X251451485Y-118630238D01*
X251451485Y-118630238D02*
X251641961Y-118677857D01*
X251641961Y-118677857D02*
X251737200Y-118773095D01*
X251737200Y-118773095D02*
X251784819Y-118868333D01*
X251784819Y-118868333D02*
X251784819Y-119058809D01*
X251784819Y-117677857D02*
X251784819Y-118249285D01*
X251784819Y-117963571D02*
X250784819Y-117963571D01*
X250784819Y-117963571D02*
X250927676Y-118058809D01*
X250927676Y-118058809D02*
X251022914Y-118154047D01*
X251022914Y-118154047D02*
X251070533Y-118249285D01*
X250784819Y-117058809D02*
X250784819Y-116963571D01*
X250784819Y-116963571D02*
X250832438Y-116868333D01*
X250832438Y-116868333D02*
X250880057Y-116820714D01*
X250880057Y-116820714D02*
X250975295Y-116773095D01*
X250975295Y-116773095D02*
X251165771Y-116725476D01*
X251165771Y-116725476D02*
X251403866Y-116725476D01*
X251403866Y-116725476D02*
X251594342Y-116773095D01*
X251594342Y-116773095D02*
X251689580Y-116820714D01*
X251689580Y-116820714D02*
X251737200Y-116868333D01*
X251737200Y-116868333D02*
X251784819Y-116963571D01*
X251784819Y-116963571D02*
X251784819Y-117058809D01*
X251784819Y-117058809D02*
X251737200Y-117154047D01*
X251737200Y-117154047D02*
X251689580Y-117201666D01*
X251689580Y-117201666D02*
X251594342Y-117249285D01*
X251594342Y-117249285D02*
X251403866Y-117296904D01*
X251403866Y-117296904D02*
X251165771Y-117296904D01*
X251165771Y-117296904D02*
X250975295Y-117249285D01*
X250975295Y-117249285D02*
X250880057Y-117201666D01*
X250880057Y-117201666D02*
X250832438Y-117154047D01*
X250832438Y-117154047D02*
X250784819Y-117058809D01*
X251784819Y-115773095D02*
X251784819Y-116344523D01*
X251784819Y-116058809D02*
X250784819Y-116058809D01*
X250784819Y-116058809D02*
X250927676Y-116154047D01*
X250927676Y-116154047D02*
X251022914Y-116249285D01*
X251022914Y-116249285D02*
X251070533Y-116344523D01*
X204714285Y-86524819D02*
X204714285Y-87239104D01*
X204714285Y-87239104D02*
X204666666Y-87381961D01*
X204666666Y-87381961D02*
X204571428Y-87477200D01*
X204571428Y-87477200D02*
X204428571Y-87524819D01*
X204428571Y-87524819D02*
X204333333Y-87524819D01*
X205714285Y-87524819D02*
X205142857Y-87524819D01*
X205428571Y-87524819D02*
X205428571Y-86524819D01*
X205428571Y-86524819D02*
X205333333Y-86667676D01*
X205333333Y-86667676D02*
X205238095Y-86762914D01*
X205238095Y-86762914D02*
X205142857Y-86810533D01*
X206333333Y-86524819D02*
X206428571Y-86524819D01*
X206428571Y-86524819D02*
X206523809Y-86572438D01*
X206523809Y-86572438D02*
X206571428Y-86620057D01*
X206571428Y-86620057D02*
X206619047Y-86715295D01*
X206619047Y-86715295D02*
X206666666Y-86905771D01*
X206666666Y-86905771D02*
X206666666Y-87143866D01*
X206666666Y-87143866D02*
X206619047Y-87334342D01*
X206619047Y-87334342D02*
X206571428Y-87429580D01*
X206571428Y-87429580D02*
X206523809Y-87477200D01*
X206523809Y-87477200D02*
X206428571Y-87524819D01*
X206428571Y-87524819D02*
X206333333Y-87524819D01*
X206333333Y-87524819D02*
X206238095Y-87477200D01*
X206238095Y-87477200D02*
X206190476Y-87429580D01*
X206190476Y-87429580D02*
X206142857Y-87334342D01*
X206142857Y-87334342D02*
X206095238Y-87143866D01*
X206095238Y-87143866D02*
X206095238Y-86905771D01*
X206095238Y-86905771D02*
X206142857Y-86715295D01*
X206142857Y-86715295D02*
X206190476Y-86620057D01*
X206190476Y-86620057D02*
X206238095Y-86572438D01*
X206238095Y-86572438D02*
X206333333Y-86524819D01*
X207523809Y-86858152D02*
X207523809Y-87524819D01*
X207285714Y-86477200D02*
X207047619Y-87191485D01*
X207047619Y-87191485D02*
X207666666Y-87191485D01*
X179834285Y-109379819D02*
X179834285Y-110094104D01*
X179834285Y-110094104D02*
X179786666Y-110236961D01*
X179786666Y-110236961D02*
X179691428Y-110332200D01*
X179691428Y-110332200D02*
X179548571Y-110379819D01*
X179548571Y-110379819D02*
X179453333Y-110379819D01*
X180834285Y-110379819D02*
X180262857Y-110379819D01*
X180548571Y-110379819D02*
X180548571Y-109379819D01*
X180548571Y-109379819D02*
X180453333Y-109522676D01*
X180453333Y-109522676D02*
X180358095Y-109617914D01*
X180358095Y-109617914D02*
X180262857Y-109665533D01*
X181453333Y-109379819D02*
X181548571Y-109379819D01*
X181548571Y-109379819D02*
X181643809Y-109427438D01*
X181643809Y-109427438D02*
X181691428Y-109475057D01*
X181691428Y-109475057D02*
X181739047Y-109570295D01*
X181739047Y-109570295D02*
X181786666Y-109760771D01*
X181786666Y-109760771D02*
X181786666Y-109998866D01*
X181786666Y-109998866D02*
X181739047Y-110189342D01*
X181739047Y-110189342D02*
X181691428Y-110284580D01*
X181691428Y-110284580D02*
X181643809Y-110332200D01*
X181643809Y-110332200D02*
X181548571Y-110379819D01*
X181548571Y-110379819D02*
X181453333Y-110379819D01*
X181453333Y-110379819D02*
X181358095Y-110332200D01*
X181358095Y-110332200D02*
X181310476Y-110284580D01*
X181310476Y-110284580D02*
X181262857Y-110189342D01*
X181262857Y-110189342D02*
X181215238Y-109998866D01*
X181215238Y-109998866D02*
X181215238Y-109760771D01*
X181215238Y-109760771D02*
X181262857Y-109570295D01*
X181262857Y-109570295D02*
X181310476Y-109475057D01*
X181310476Y-109475057D02*
X181358095Y-109427438D01*
X181358095Y-109427438D02*
X181453333Y-109379819D01*
X182358095Y-109808390D02*
X182262857Y-109760771D01*
X182262857Y-109760771D02*
X182215238Y-109713152D01*
X182215238Y-109713152D02*
X182167619Y-109617914D01*
X182167619Y-109617914D02*
X182167619Y-109570295D01*
X182167619Y-109570295D02*
X182215238Y-109475057D01*
X182215238Y-109475057D02*
X182262857Y-109427438D01*
X182262857Y-109427438D02*
X182358095Y-109379819D01*
X182358095Y-109379819D02*
X182548571Y-109379819D01*
X182548571Y-109379819D02*
X182643809Y-109427438D01*
X182643809Y-109427438D02*
X182691428Y-109475057D01*
X182691428Y-109475057D02*
X182739047Y-109570295D01*
X182739047Y-109570295D02*
X182739047Y-109617914D01*
X182739047Y-109617914D02*
X182691428Y-109713152D01*
X182691428Y-109713152D02*
X182643809Y-109760771D01*
X182643809Y-109760771D02*
X182548571Y-109808390D01*
X182548571Y-109808390D02*
X182358095Y-109808390D01*
X182358095Y-109808390D02*
X182262857Y-109856009D01*
X182262857Y-109856009D02*
X182215238Y-109903628D01*
X182215238Y-109903628D02*
X182167619Y-109998866D01*
X182167619Y-109998866D02*
X182167619Y-110189342D01*
X182167619Y-110189342D02*
X182215238Y-110284580D01*
X182215238Y-110284580D02*
X182262857Y-110332200D01*
X182262857Y-110332200D02*
X182358095Y-110379819D01*
X182358095Y-110379819D02*
X182548571Y-110379819D01*
X182548571Y-110379819D02*
X182643809Y-110332200D01*
X182643809Y-110332200D02*
X182691428Y-110284580D01*
X182691428Y-110284580D02*
X182739047Y-110189342D01*
X182739047Y-110189342D02*
X182739047Y-109998866D01*
X182739047Y-109998866D02*
X182691428Y-109903628D01*
X182691428Y-109903628D02*
X182643809Y-109856009D01*
X182643809Y-109856009D02*
X182548571Y-109808390D01*
X212039524Y-131414819D02*
X212039524Y-130414819D01*
X212039524Y-130414819D02*
X212277619Y-130414819D01*
X212277619Y-130414819D02*
X212420476Y-130462438D01*
X212420476Y-130462438D02*
X212515714Y-130557676D01*
X212515714Y-130557676D02*
X212563333Y-130652914D01*
X212563333Y-130652914D02*
X212610952Y-130843390D01*
X212610952Y-130843390D02*
X212610952Y-130986247D01*
X212610952Y-130986247D02*
X212563333Y-131176723D01*
X212563333Y-131176723D02*
X212515714Y-131271961D01*
X212515714Y-131271961D02*
X212420476Y-131367200D01*
X212420476Y-131367200D02*
X212277619Y-131414819D01*
X212277619Y-131414819D02*
X212039524Y-131414819D01*
X213563333Y-131414819D02*
X212991905Y-131414819D01*
X213277619Y-131414819D02*
X213277619Y-130414819D01*
X213277619Y-130414819D02*
X213182381Y-130557676D01*
X213182381Y-130557676D02*
X213087143Y-130652914D01*
X213087143Y-130652914D02*
X212991905Y-130700533D01*
X214182381Y-130414819D02*
X214277619Y-130414819D01*
X214277619Y-130414819D02*
X214372857Y-130462438D01*
X214372857Y-130462438D02*
X214420476Y-130510057D01*
X214420476Y-130510057D02*
X214468095Y-130605295D01*
X214468095Y-130605295D02*
X214515714Y-130795771D01*
X214515714Y-130795771D02*
X214515714Y-131033866D01*
X214515714Y-131033866D02*
X214468095Y-131224342D01*
X214468095Y-131224342D02*
X214420476Y-131319580D01*
X214420476Y-131319580D02*
X214372857Y-131367200D01*
X214372857Y-131367200D02*
X214277619Y-131414819D01*
X214277619Y-131414819D02*
X214182381Y-131414819D01*
X214182381Y-131414819D02*
X214087143Y-131367200D01*
X214087143Y-131367200D02*
X214039524Y-131319580D01*
X214039524Y-131319580D02*
X213991905Y-131224342D01*
X213991905Y-131224342D02*
X213944286Y-131033866D01*
X213944286Y-131033866D02*
X213944286Y-130795771D01*
X213944286Y-130795771D02*
X213991905Y-130605295D01*
X213991905Y-130605295D02*
X214039524Y-130510057D01*
X214039524Y-130510057D02*
X214087143Y-130462438D01*
X214087143Y-130462438D02*
X214182381Y-130414819D01*
X215372857Y-130414819D02*
X215182381Y-130414819D01*
X215182381Y-130414819D02*
X215087143Y-130462438D01*
X215087143Y-130462438D02*
X215039524Y-130510057D01*
X215039524Y-130510057D02*
X214944286Y-130652914D01*
X214944286Y-130652914D02*
X214896667Y-130843390D01*
X214896667Y-130843390D02*
X214896667Y-131224342D01*
X214896667Y-131224342D02*
X214944286Y-131319580D01*
X214944286Y-131319580D02*
X214991905Y-131367200D01*
X214991905Y-131367200D02*
X215087143Y-131414819D01*
X215087143Y-131414819D02*
X215277619Y-131414819D01*
X215277619Y-131414819D02*
X215372857Y-131367200D01*
X215372857Y-131367200D02*
X215420476Y-131319580D01*
X215420476Y-131319580D02*
X215468095Y-131224342D01*
X215468095Y-131224342D02*
X215468095Y-130986247D01*
X215468095Y-130986247D02*
X215420476Y-130891009D01*
X215420476Y-130891009D02*
X215372857Y-130843390D01*
X215372857Y-130843390D02*
X215277619Y-130795771D01*
X215277619Y-130795771D02*
X215087143Y-130795771D01*
X215087143Y-130795771D02*
X214991905Y-130843390D01*
X214991905Y-130843390D02*
X214944286Y-130891009D01*
X214944286Y-130891009D02*
X214896667Y-130986247D01*
X208354819Y-78739285D02*
X208354819Y-78167857D01*
X209354819Y-78453571D02*
X208354819Y-78453571D01*
X209354819Y-77834523D02*
X208354819Y-77834523D01*
X208354819Y-77834523D02*
X208354819Y-77453571D01*
X208354819Y-77453571D02*
X208402438Y-77358333D01*
X208402438Y-77358333D02*
X208450057Y-77310714D01*
X208450057Y-77310714D02*
X208545295Y-77263095D01*
X208545295Y-77263095D02*
X208688152Y-77263095D01*
X208688152Y-77263095D02*
X208783390Y-77310714D01*
X208783390Y-77310714D02*
X208831009Y-77358333D01*
X208831009Y-77358333D02*
X208878628Y-77453571D01*
X208878628Y-77453571D02*
X208878628Y-77834523D01*
X209354819Y-76310714D02*
X209354819Y-76882142D01*
X209354819Y-76596428D02*
X208354819Y-76596428D01*
X208354819Y-76596428D02*
X208497676Y-76691666D01*
X208497676Y-76691666D02*
X208592914Y-76786904D01*
X208592914Y-76786904D02*
X208640533Y-76882142D01*
X208354819Y-75691666D02*
X208354819Y-75596428D01*
X208354819Y-75596428D02*
X208402438Y-75501190D01*
X208402438Y-75501190D02*
X208450057Y-75453571D01*
X208450057Y-75453571D02*
X208545295Y-75405952D01*
X208545295Y-75405952D02*
X208735771Y-75358333D01*
X208735771Y-75358333D02*
X208973866Y-75358333D01*
X208973866Y-75358333D02*
X209164342Y-75405952D01*
X209164342Y-75405952D02*
X209259580Y-75453571D01*
X209259580Y-75453571D02*
X209307200Y-75501190D01*
X209307200Y-75501190D02*
X209354819Y-75596428D01*
X209354819Y-75596428D02*
X209354819Y-75691666D01*
X209354819Y-75691666D02*
X209307200Y-75786904D01*
X209307200Y-75786904D02*
X209259580Y-75834523D01*
X209259580Y-75834523D02*
X209164342Y-75882142D01*
X209164342Y-75882142D02*
X208973866Y-75929761D01*
X208973866Y-75929761D02*
X208735771Y-75929761D01*
X208735771Y-75929761D02*
X208545295Y-75882142D01*
X208545295Y-75882142D02*
X208450057Y-75834523D01*
X208450057Y-75834523D02*
X208402438Y-75786904D01*
X208402438Y-75786904D02*
X208354819Y-75691666D01*
X209354819Y-74405952D02*
X209354819Y-74977380D01*
X209354819Y-74691666D02*
X208354819Y-74691666D01*
X208354819Y-74691666D02*
X208497676Y-74786904D01*
X208497676Y-74786904D02*
X208592914Y-74882142D01*
X208592914Y-74882142D02*
X208640533Y-74977380D01*
X205579524Y-125494819D02*
X205579524Y-124494819D01*
X205579524Y-124494819D02*
X205817619Y-124494819D01*
X205817619Y-124494819D02*
X205960476Y-124542438D01*
X205960476Y-124542438D02*
X206055714Y-124637676D01*
X206055714Y-124637676D02*
X206103333Y-124732914D01*
X206103333Y-124732914D02*
X206150952Y-124923390D01*
X206150952Y-124923390D02*
X206150952Y-125066247D01*
X206150952Y-125066247D02*
X206103333Y-125256723D01*
X206103333Y-125256723D02*
X206055714Y-125351961D01*
X206055714Y-125351961D02*
X205960476Y-125447200D01*
X205960476Y-125447200D02*
X205817619Y-125494819D01*
X205817619Y-125494819D02*
X205579524Y-125494819D01*
X207103333Y-125494819D02*
X206531905Y-125494819D01*
X206817619Y-125494819D02*
X206817619Y-124494819D01*
X206817619Y-124494819D02*
X206722381Y-124637676D01*
X206722381Y-124637676D02*
X206627143Y-124732914D01*
X206627143Y-124732914D02*
X206531905Y-124780533D01*
X207722381Y-124494819D02*
X207817619Y-124494819D01*
X207817619Y-124494819D02*
X207912857Y-124542438D01*
X207912857Y-124542438D02*
X207960476Y-124590057D01*
X207960476Y-124590057D02*
X208008095Y-124685295D01*
X208008095Y-124685295D02*
X208055714Y-124875771D01*
X208055714Y-124875771D02*
X208055714Y-125113866D01*
X208055714Y-125113866D02*
X208008095Y-125304342D01*
X208008095Y-125304342D02*
X207960476Y-125399580D01*
X207960476Y-125399580D02*
X207912857Y-125447200D01*
X207912857Y-125447200D02*
X207817619Y-125494819D01*
X207817619Y-125494819D02*
X207722381Y-125494819D01*
X207722381Y-125494819D02*
X207627143Y-125447200D01*
X207627143Y-125447200D02*
X207579524Y-125399580D01*
X207579524Y-125399580D02*
X207531905Y-125304342D01*
X207531905Y-125304342D02*
X207484286Y-125113866D01*
X207484286Y-125113866D02*
X207484286Y-124875771D01*
X207484286Y-124875771D02*
X207531905Y-124685295D01*
X207531905Y-124685295D02*
X207579524Y-124590057D01*
X207579524Y-124590057D02*
X207627143Y-124542438D01*
X207627143Y-124542438D02*
X207722381Y-124494819D01*
X208389048Y-124494819D02*
X209055714Y-124494819D01*
X209055714Y-124494819D02*
X208627143Y-125494819D01*
X245414286Y-46022200D02*
X245557143Y-46069819D01*
X245557143Y-46069819D02*
X245795238Y-46069819D01*
X245795238Y-46069819D02*
X245890476Y-46022200D01*
X245890476Y-46022200D02*
X245938095Y-45974580D01*
X245938095Y-45974580D02*
X245985714Y-45879342D01*
X245985714Y-45879342D02*
X245985714Y-45784104D01*
X245985714Y-45784104D02*
X245938095Y-45688866D01*
X245938095Y-45688866D02*
X245890476Y-45641247D01*
X245890476Y-45641247D02*
X245795238Y-45593628D01*
X245795238Y-45593628D02*
X245604762Y-45546009D01*
X245604762Y-45546009D02*
X245509524Y-45498390D01*
X245509524Y-45498390D02*
X245461905Y-45450771D01*
X245461905Y-45450771D02*
X245414286Y-45355533D01*
X245414286Y-45355533D02*
X245414286Y-45260295D01*
X245414286Y-45260295D02*
X245461905Y-45165057D01*
X245461905Y-45165057D02*
X245509524Y-45117438D01*
X245509524Y-45117438D02*
X245604762Y-45069819D01*
X245604762Y-45069819D02*
X245842857Y-45069819D01*
X245842857Y-45069819D02*
X245985714Y-45117438D01*
X246319048Y-45069819D02*
X246557143Y-46069819D01*
X246557143Y-46069819D02*
X246747619Y-45355533D01*
X246747619Y-45355533D02*
X246938095Y-46069819D01*
X246938095Y-46069819D02*
X247176191Y-45069819D01*
X248080952Y-46069819D02*
X247509524Y-46069819D01*
X247795238Y-46069819D02*
X247795238Y-45069819D01*
X247795238Y-45069819D02*
X247700000Y-45212676D01*
X247700000Y-45212676D02*
X247604762Y-45307914D01*
X247604762Y-45307914D02*
X247509524Y-45355533D01*
X248700000Y-45069819D02*
X248795238Y-45069819D01*
X248795238Y-45069819D02*
X248890476Y-45117438D01*
X248890476Y-45117438D02*
X248938095Y-45165057D01*
X248938095Y-45165057D02*
X248985714Y-45260295D01*
X248985714Y-45260295D02*
X249033333Y-45450771D01*
X249033333Y-45450771D02*
X249033333Y-45688866D01*
X249033333Y-45688866D02*
X248985714Y-45879342D01*
X248985714Y-45879342D02*
X248938095Y-45974580D01*
X248938095Y-45974580D02*
X248890476Y-46022200D01*
X248890476Y-46022200D02*
X248795238Y-46069819D01*
X248795238Y-46069819D02*
X248700000Y-46069819D01*
X248700000Y-46069819D02*
X248604762Y-46022200D01*
X248604762Y-46022200D02*
X248557143Y-45974580D01*
X248557143Y-45974580D02*
X248509524Y-45879342D01*
X248509524Y-45879342D02*
X248461905Y-45688866D01*
X248461905Y-45688866D02*
X248461905Y-45450771D01*
X248461905Y-45450771D02*
X248509524Y-45260295D01*
X248509524Y-45260295D02*
X248557143Y-45165057D01*
X248557143Y-45165057D02*
X248604762Y-45117438D01*
X248604762Y-45117438D02*
X248700000Y-45069819D01*
X249414286Y-45165057D02*
X249461905Y-45117438D01*
X249461905Y-45117438D02*
X249557143Y-45069819D01*
X249557143Y-45069819D02*
X249795238Y-45069819D01*
X249795238Y-45069819D02*
X249890476Y-45117438D01*
X249890476Y-45117438D02*
X249938095Y-45165057D01*
X249938095Y-45165057D02*
X249985714Y-45260295D01*
X249985714Y-45260295D02*
X249985714Y-45355533D01*
X249985714Y-45355533D02*
X249938095Y-45498390D01*
X249938095Y-45498390D02*
X249366667Y-46069819D01*
X249366667Y-46069819D02*
X249985714Y-46069819D01*
X251714285Y-79144819D02*
X251714285Y-79859104D01*
X251714285Y-79859104D02*
X251666666Y-80001961D01*
X251666666Y-80001961D02*
X251571428Y-80097200D01*
X251571428Y-80097200D02*
X251428571Y-80144819D01*
X251428571Y-80144819D02*
X251333333Y-80144819D01*
X252714285Y-80144819D02*
X252142857Y-80144819D01*
X252428571Y-80144819D02*
X252428571Y-79144819D01*
X252428571Y-79144819D02*
X252333333Y-79287676D01*
X252333333Y-79287676D02*
X252238095Y-79382914D01*
X252238095Y-79382914D02*
X252142857Y-79430533D01*
X253333333Y-79144819D02*
X253428571Y-79144819D01*
X253428571Y-79144819D02*
X253523809Y-79192438D01*
X253523809Y-79192438D02*
X253571428Y-79240057D01*
X253571428Y-79240057D02*
X253619047Y-79335295D01*
X253619047Y-79335295D02*
X253666666Y-79525771D01*
X253666666Y-79525771D02*
X253666666Y-79763866D01*
X253666666Y-79763866D02*
X253619047Y-79954342D01*
X253619047Y-79954342D02*
X253571428Y-80049580D01*
X253571428Y-80049580D02*
X253523809Y-80097200D01*
X253523809Y-80097200D02*
X253428571Y-80144819D01*
X253428571Y-80144819D02*
X253333333Y-80144819D01*
X253333333Y-80144819D02*
X253238095Y-80097200D01*
X253238095Y-80097200D02*
X253190476Y-80049580D01*
X253190476Y-80049580D02*
X253142857Y-79954342D01*
X253142857Y-79954342D02*
X253095238Y-79763866D01*
X253095238Y-79763866D02*
X253095238Y-79525771D01*
X253095238Y-79525771D02*
X253142857Y-79335295D01*
X253142857Y-79335295D02*
X253190476Y-79240057D01*
X253190476Y-79240057D02*
X253238095Y-79192438D01*
X253238095Y-79192438D02*
X253333333Y-79144819D01*
X254571428Y-79144819D02*
X254095238Y-79144819D01*
X254095238Y-79144819D02*
X254047619Y-79621009D01*
X254047619Y-79621009D02*
X254095238Y-79573390D01*
X254095238Y-79573390D02*
X254190476Y-79525771D01*
X254190476Y-79525771D02*
X254428571Y-79525771D01*
X254428571Y-79525771D02*
X254523809Y-79573390D01*
X254523809Y-79573390D02*
X254571428Y-79621009D01*
X254571428Y-79621009D02*
X254619047Y-79716247D01*
X254619047Y-79716247D02*
X254619047Y-79954342D01*
X254619047Y-79954342D02*
X254571428Y-80049580D01*
X254571428Y-80049580D02*
X254523809Y-80097200D01*
X254523809Y-80097200D02*
X254428571Y-80144819D01*
X254428571Y-80144819D02*
X254190476Y-80144819D01*
X254190476Y-80144819D02*
X254095238Y-80097200D01*
X254095238Y-80097200D02*
X254047619Y-80049580D01*
X179574819Y-77610714D02*
X180289104Y-77610714D01*
X180289104Y-77610714D02*
X180431961Y-77658333D01*
X180431961Y-77658333D02*
X180527200Y-77753571D01*
X180527200Y-77753571D02*
X180574819Y-77896428D01*
X180574819Y-77896428D02*
X180574819Y-77991666D01*
X180574819Y-76610714D02*
X180574819Y-77182142D01*
X180574819Y-76896428D02*
X179574819Y-76896428D01*
X179574819Y-76896428D02*
X179717676Y-76991666D01*
X179717676Y-76991666D02*
X179812914Y-77086904D01*
X179812914Y-77086904D02*
X179860533Y-77182142D01*
X179574819Y-75991666D02*
X179574819Y-75896428D01*
X179574819Y-75896428D02*
X179622438Y-75801190D01*
X179622438Y-75801190D02*
X179670057Y-75753571D01*
X179670057Y-75753571D02*
X179765295Y-75705952D01*
X179765295Y-75705952D02*
X179955771Y-75658333D01*
X179955771Y-75658333D02*
X180193866Y-75658333D01*
X180193866Y-75658333D02*
X180384342Y-75705952D01*
X180384342Y-75705952D02*
X180479580Y-75753571D01*
X180479580Y-75753571D02*
X180527200Y-75801190D01*
X180527200Y-75801190D02*
X180574819Y-75896428D01*
X180574819Y-75896428D02*
X180574819Y-75991666D01*
X180574819Y-75991666D02*
X180527200Y-76086904D01*
X180527200Y-76086904D02*
X180479580Y-76134523D01*
X180479580Y-76134523D02*
X180384342Y-76182142D01*
X180384342Y-76182142D02*
X180193866Y-76229761D01*
X180193866Y-76229761D02*
X179955771Y-76229761D01*
X179955771Y-76229761D02*
X179765295Y-76182142D01*
X179765295Y-76182142D02*
X179670057Y-76134523D01*
X179670057Y-76134523D02*
X179622438Y-76086904D01*
X179622438Y-76086904D02*
X179574819Y-75991666D01*
X179574819Y-74801190D02*
X179574819Y-74991666D01*
X179574819Y-74991666D02*
X179622438Y-75086904D01*
X179622438Y-75086904D02*
X179670057Y-75134523D01*
X179670057Y-75134523D02*
X179812914Y-75229761D01*
X179812914Y-75229761D02*
X180003390Y-75277380D01*
X180003390Y-75277380D02*
X180384342Y-75277380D01*
X180384342Y-75277380D02*
X180479580Y-75229761D01*
X180479580Y-75229761D02*
X180527200Y-75182142D01*
X180527200Y-75182142D02*
X180574819Y-75086904D01*
X180574819Y-75086904D02*
X180574819Y-74896428D01*
X180574819Y-74896428D02*
X180527200Y-74801190D01*
X180527200Y-74801190D02*
X180479580Y-74753571D01*
X180479580Y-74753571D02*
X180384342Y-74705952D01*
X180384342Y-74705952D02*
X180146247Y-74705952D01*
X180146247Y-74705952D02*
X180051009Y-74753571D01*
X180051009Y-74753571D02*
X180003390Y-74801190D01*
X180003390Y-74801190D02*
X179955771Y-74896428D01*
X179955771Y-74896428D02*
X179955771Y-75086904D01*
X179955771Y-75086904D02*
X180003390Y-75182142D01*
X180003390Y-75182142D02*
X180051009Y-75229761D01*
X180051009Y-75229761D02*
X180146247Y-75277380D01*
X250094819Y-105644047D02*
X249618628Y-105977380D01*
X250094819Y-106215475D02*
X249094819Y-106215475D01*
X249094819Y-106215475D02*
X249094819Y-105834523D01*
X249094819Y-105834523D02*
X249142438Y-105739285D01*
X249142438Y-105739285D02*
X249190057Y-105691666D01*
X249190057Y-105691666D02*
X249285295Y-105644047D01*
X249285295Y-105644047D02*
X249428152Y-105644047D01*
X249428152Y-105644047D02*
X249523390Y-105691666D01*
X249523390Y-105691666D02*
X249571009Y-105739285D01*
X249571009Y-105739285D02*
X249618628Y-105834523D01*
X249618628Y-105834523D02*
X249618628Y-106215475D01*
X250094819Y-104691666D02*
X250094819Y-105263094D01*
X250094819Y-104977380D02*
X249094819Y-104977380D01*
X249094819Y-104977380D02*
X249237676Y-105072618D01*
X249237676Y-105072618D02*
X249332914Y-105167856D01*
X249332914Y-105167856D02*
X249380533Y-105263094D01*
X249094819Y-104072618D02*
X249094819Y-103977380D01*
X249094819Y-103977380D02*
X249142438Y-103882142D01*
X249142438Y-103882142D02*
X249190057Y-103834523D01*
X249190057Y-103834523D02*
X249285295Y-103786904D01*
X249285295Y-103786904D02*
X249475771Y-103739285D01*
X249475771Y-103739285D02*
X249713866Y-103739285D01*
X249713866Y-103739285D02*
X249904342Y-103786904D01*
X249904342Y-103786904D02*
X249999580Y-103834523D01*
X249999580Y-103834523D02*
X250047200Y-103882142D01*
X250047200Y-103882142D02*
X250094819Y-103977380D01*
X250094819Y-103977380D02*
X250094819Y-104072618D01*
X250094819Y-104072618D02*
X250047200Y-104167856D01*
X250047200Y-104167856D02*
X249999580Y-104215475D01*
X249999580Y-104215475D02*
X249904342Y-104263094D01*
X249904342Y-104263094D02*
X249713866Y-104310713D01*
X249713866Y-104310713D02*
X249475771Y-104310713D01*
X249475771Y-104310713D02*
X249285295Y-104263094D01*
X249285295Y-104263094D02*
X249190057Y-104215475D01*
X249190057Y-104215475D02*
X249142438Y-104167856D01*
X249142438Y-104167856D02*
X249094819Y-104072618D01*
X249094819Y-103405951D02*
X249094819Y-102739285D01*
X249094819Y-102739285D02*
X250094819Y-103167856D01*
X245444819Y-130885714D02*
X246159104Y-130885714D01*
X246159104Y-130885714D02*
X246301961Y-130933333D01*
X246301961Y-130933333D02*
X246397200Y-131028571D01*
X246397200Y-131028571D02*
X246444819Y-131171428D01*
X246444819Y-131171428D02*
X246444819Y-131266666D01*
X246444819Y-129885714D02*
X246444819Y-130457142D01*
X246444819Y-130171428D02*
X245444819Y-130171428D01*
X245444819Y-130171428D02*
X245587676Y-130266666D01*
X245587676Y-130266666D02*
X245682914Y-130361904D01*
X245682914Y-130361904D02*
X245730533Y-130457142D01*
X246444819Y-128933333D02*
X246444819Y-129504761D01*
X246444819Y-129219047D02*
X245444819Y-129219047D01*
X245444819Y-129219047D02*
X245587676Y-129314285D01*
X245587676Y-129314285D02*
X245682914Y-129409523D01*
X245682914Y-129409523D02*
X245730533Y-129504761D01*
X245540057Y-128552380D02*
X245492438Y-128504761D01*
X245492438Y-128504761D02*
X245444819Y-128409523D01*
X245444819Y-128409523D02*
X245444819Y-128171428D01*
X245444819Y-128171428D02*
X245492438Y-128076190D01*
X245492438Y-128076190D02*
X245540057Y-128028571D01*
X245540057Y-128028571D02*
X245635295Y-127980952D01*
X245635295Y-127980952D02*
X245730533Y-127980952D01*
X245730533Y-127980952D02*
X245873390Y-128028571D01*
X245873390Y-128028571D02*
X246444819Y-128599999D01*
X246444819Y-128599999D02*
X246444819Y-127980952D01*
X175078493Y-61035714D02*
X175792778Y-61035714D01*
X175792778Y-61035714D02*
X175935635Y-61083333D01*
X175935635Y-61083333D02*
X176030874Y-61178571D01*
X176030874Y-61178571D02*
X176078493Y-61321428D01*
X176078493Y-61321428D02*
X176078493Y-61416666D01*
X176078493Y-60035714D02*
X176078493Y-60607142D01*
X176078493Y-60321428D02*
X175078493Y-60321428D01*
X175078493Y-60321428D02*
X175221350Y-60416666D01*
X175221350Y-60416666D02*
X175316588Y-60511904D01*
X175316588Y-60511904D02*
X175364207Y-60607142D01*
X175078493Y-59416666D02*
X175078493Y-59321428D01*
X175078493Y-59321428D02*
X175126112Y-59226190D01*
X175126112Y-59226190D02*
X175173731Y-59178571D01*
X175173731Y-59178571D02*
X175268969Y-59130952D01*
X175268969Y-59130952D02*
X175459445Y-59083333D01*
X175459445Y-59083333D02*
X175697540Y-59083333D01*
X175697540Y-59083333D02*
X175888016Y-59130952D01*
X175888016Y-59130952D02*
X175983254Y-59178571D01*
X175983254Y-59178571D02*
X176030874Y-59226190D01*
X176030874Y-59226190D02*
X176078493Y-59321428D01*
X176078493Y-59321428D02*
X176078493Y-59416666D01*
X176078493Y-59416666D02*
X176030874Y-59511904D01*
X176030874Y-59511904D02*
X175983254Y-59559523D01*
X175983254Y-59559523D02*
X175888016Y-59607142D01*
X175888016Y-59607142D02*
X175697540Y-59654761D01*
X175697540Y-59654761D02*
X175459445Y-59654761D01*
X175459445Y-59654761D02*
X175268969Y-59607142D01*
X175268969Y-59607142D02*
X175173731Y-59559523D01*
X175173731Y-59559523D02*
X175126112Y-59511904D01*
X175126112Y-59511904D02*
X175078493Y-59416666D01*
X176078493Y-58130952D02*
X176078493Y-58702380D01*
X176078493Y-58416666D02*
X175078493Y-58416666D01*
X175078493Y-58416666D02*
X175221350Y-58511904D01*
X175221350Y-58511904D02*
X175316588Y-58607142D01*
X175316588Y-58607142D02*
X175364207Y-58702380D01*
X188309524Y-47734819D02*
X188309524Y-46734819D01*
X188309524Y-46734819D02*
X188547619Y-46734819D01*
X188547619Y-46734819D02*
X188690476Y-46782438D01*
X188690476Y-46782438D02*
X188785714Y-46877676D01*
X188785714Y-46877676D02*
X188833333Y-46972914D01*
X188833333Y-46972914D02*
X188880952Y-47163390D01*
X188880952Y-47163390D02*
X188880952Y-47306247D01*
X188880952Y-47306247D02*
X188833333Y-47496723D01*
X188833333Y-47496723D02*
X188785714Y-47591961D01*
X188785714Y-47591961D02*
X188690476Y-47687200D01*
X188690476Y-47687200D02*
X188547619Y-47734819D01*
X188547619Y-47734819D02*
X188309524Y-47734819D01*
X189833333Y-47734819D02*
X189261905Y-47734819D01*
X189547619Y-47734819D02*
X189547619Y-46734819D01*
X189547619Y-46734819D02*
X189452381Y-46877676D01*
X189452381Y-46877676D02*
X189357143Y-46972914D01*
X189357143Y-46972914D02*
X189261905Y-47020533D01*
X190452381Y-46734819D02*
X190547619Y-46734819D01*
X190547619Y-46734819D02*
X190642857Y-46782438D01*
X190642857Y-46782438D02*
X190690476Y-46830057D01*
X190690476Y-46830057D02*
X190738095Y-46925295D01*
X190738095Y-46925295D02*
X190785714Y-47115771D01*
X190785714Y-47115771D02*
X190785714Y-47353866D01*
X190785714Y-47353866D02*
X190738095Y-47544342D01*
X190738095Y-47544342D02*
X190690476Y-47639580D01*
X190690476Y-47639580D02*
X190642857Y-47687200D01*
X190642857Y-47687200D02*
X190547619Y-47734819D01*
X190547619Y-47734819D02*
X190452381Y-47734819D01*
X190452381Y-47734819D02*
X190357143Y-47687200D01*
X190357143Y-47687200D02*
X190309524Y-47639580D01*
X190309524Y-47639580D02*
X190261905Y-47544342D01*
X190261905Y-47544342D02*
X190214286Y-47353866D01*
X190214286Y-47353866D02*
X190214286Y-47115771D01*
X190214286Y-47115771D02*
X190261905Y-46925295D01*
X190261905Y-46925295D02*
X190309524Y-46830057D01*
X190309524Y-46830057D02*
X190357143Y-46782438D01*
X190357143Y-46782438D02*
X190452381Y-46734819D01*
X191738095Y-47734819D02*
X191166667Y-47734819D01*
X191452381Y-47734819D02*
X191452381Y-46734819D01*
X191452381Y-46734819D02*
X191357143Y-46877676D01*
X191357143Y-46877676D02*
X191261905Y-46972914D01*
X191261905Y-46972914D02*
X191166667Y-47020533D01*
X182118095Y-48854819D02*
X182118095Y-47854819D01*
X182689523Y-48854819D02*
X182260952Y-48283390D01*
X182689523Y-47854819D02*
X182118095Y-48426247D01*
X233400952Y-49459819D02*
X233067619Y-48983628D01*
X232829524Y-49459819D02*
X232829524Y-48459819D01*
X232829524Y-48459819D02*
X233210476Y-48459819D01*
X233210476Y-48459819D02*
X233305714Y-48507438D01*
X233305714Y-48507438D02*
X233353333Y-48555057D01*
X233353333Y-48555057D02*
X233400952Y-48650295D01*
X233400952Y-48650295D02*
X233400952Y-48793152D01*
X233400952Y-48793152D02*
X233353333Y-48888390D01*
X233353333Y-48888390D02*
X233305714Y-48936009D01*
X233305714Y-48936009D02*
X233210476Y-48983628D01*
X233210476Y-48983628D02*
X232829524Y-48983628D01*
X234353333Y-49459819D02*
X233781905Y-49459819D01*
X234067619Y-49459819D02*
X234067619Y-48459819D01*
X234067619Y-48459819D02*
X233972381Y-48602676D01*
X233972381Y-48602676D02*
X233877143Y-48697914D01*
X233877143Y-48697914D02*
X233781905Y-48745533D01*
X234972381Y-48459819D02*
X235067619Y-48459819D01*
X235067619Y-48459819D02*
X235162857Y-48507438D01*
X235162857Y-48507438D02*
X235210476Y-48555057D01*
X235210476Y-48555057D02*
X235258095Y-48650295D01*
X235258095Y-48650295D02*
X235305714Y-48840771D01*
X235305714Y-48840771D02*
X235305714Y-49078866D01*
X235305714Y-49078866D02*
X235258095Y-49269342D01*
X235258095Y-49269342D02*
X235210476Y-49364580D01*
X235210476Y-49364580D02*
X235162857Y-49412200D01*
X235162857Y-49412200D02*
X235067619Y-49459819D01*
X235067619Y-49459819D02*
X234972381Y-49459819D01*
X234972381Y-49459819D02*
X234877143Y-49412200D01*
X234877143Y-49412200D02*
X234829524Y-49364580D01*
X234829524Y-49364580D02*
X234781905Y-49269342D01*
X234781905Y-49269342D02*
X234734286Y-49078866D01*
X234734286Y-49078866D02*
X234734286Y-48840771D01*
X234734286Y-48840771D02*
X234781905Y-48650295D01*
X234781905Y-48650295D02*
X234829524Y-48555057D01*
X234829524Y-48555057D02*
X234877143Y-48507438D01*
X234877143Y-48507438D02*
X234972381Y-48459819D01*
X236162857Y-48793152D02*
X236162857Y-49459819D01*
X235924762Y-48412200D02*
X235686667Y-49126485D01*
X235686667Y-49126485D02*
X236305714Y-49126485D01*
X225734524Y-113344819D02*
X225734524Y-112344819D01*
X226305952Y-113344819D02*
X225877381Y-112773390D01*
X226305952Y-112344819D02*
X225734524Y-112916247D01*
X227258333Y-113344819D02*
X226686905Y-113344819D01*
X226972619Y-113344819D02*
X226972619Y-112344819D01*
X226972619Y-112344819D02*
X226877381Y-112487676D01*
X226877381Y-112487676D02*
X226782143Y-112582914D01*
X226782143Y-112582914D02*
X226686905Y-112630533D01*
X227877381Y-112344819D02*
X227972619Y-112344819D01*
X227972619Y-112344819D02*
X228067857Y-112392438D01*
X228067857Y-112392438D02*
X228115476Y-112440057D01*
X228115476Y-112440057D02*
X228163095Y-112535295D01*
X228163095Y-112535295D02*
X228210714Y-112725771D01*
X228210714Y-112725771D02*
X228210714Y-112963866D01*
X228210714Y-112963866D02*
X228163095Y-113154342D01*
X228163095Y-113154342D02*
X228115476Y-113249580D01*
X228115476Y-113249580D02*
X228067857Y-113297200D01*
X228067857Y-113297200D02*
X227972619Y-113344819D01*
X227972619Y-113344819D02*
X227877381Y-113344819D01*
X227877381Y-113344819D02*
X227782143Y-113297200D01*
X227782143Y-113297200D02*
X227734524Y-113249580D01*
X227734524Y-113249580D02*
X227686905Y-113154342D01*
X227686905Y-113154342D02*
X227639286Y-112963866D01*
X227639286Y-112963866D02*
X227639286Y-112725771D01*
X227639286Y-112725771D02*
X227686905Y-112535295D01*
X227686905Y-112535295D02*
X227734524Y-112440057D01*
X227734524Y-112440057D02*
X227782143Y-112392438D01*
X227782143Y-112392438D02*
X227877381Y-112344819D01*
X229163095Y-113344819D02*
X228591667Y-113344819D01*
X228877381Y-113344819D02*
X228877381Y-112344819D01*
X228877381Y-112344819D02*
X228782143Y-112487676D01*
X228782143Y-112487676D02*
X228686905Y-112582914D01*
X228686905Y-112582914D02*
X228591667Y-112630533D01*
X196374819Y-112010714D02*
X197089104Y-112010714D01*
X197089104Y-112010714D02*
X197231961Y-112058333D01*
X197231961Y-112058333D02*
X197327200Y-112153571D01*
X197327200Y-112153571D02*
X197374819Y-112296428D01*
X197374819Y-112296428D02*
X197374819Y-112391666D01*
X197374819Y-111010714D02*
X197374819Y-111582142D01*
X197374819Y-111296428D02*
X196374819Y-111296428D01*
X196374819Y-111296428D02*
X196517676Y-111391666D01*
X196517676Y-111391666D02*
X196612914Y-111486904D01*
X196612914Y-111486904D02*
X196660533Y-111582142D01*
X196374819Y-110391666D02*
X196374819Y-110296428D01*
X196374819Y-110296428D02*
X196422438Y-110201190D01*
X196422438Y-110201190D02*
X196470057Y-110153571D01*
X196470057Y-110153571D02*
X196565295Y-110105952D01*
X196565295Y-110105952D02*
X196755771Y-110058333D01*
X196755771Y-110058333D02*
X196993866Y-110058333D01*
X196993866Y-110058333D02*
X197184342Y-110105952D01*
X197184342Y-110105952D02*
X197279580Y-110153571D01*
X197279580Y-110153571D02*
X197327200Y-110201190D01*
X197327200Y-110201190D02*
X197374819Y-110296428D01*
X197374819Y-110296428D02*
X197374819Y-110391666D01*
X197374819Y-110391666D02*
X197327200Y-110486904D01*
X197327200Y-110486904D02*
X197279580Y-110534523D01*
X197279580Y-110534523D02*
X197184342Y-110582142D01*
X197184342Y-110582142D02*
X196993866Y-110629761D01*
X196993866Y-110629761D02*
X196755771Y-110629761D01*
X196755771Y-110629761D02*
X196565295Y-110582142D01*
X196565295Y-110582142D02*
X196470057Y-110534523D01*
X196470057Y-110534523D02*
X196422438Y-110486904D01*
X196422438Y-110486904D02*
X196374819Y-110391666D01*
X196374819Y-109724999D02*
X196374819Y-109105952D01*
X196374819Y-109105952D02*
X196755771Y-109439285D01*
X196755771Y-109439285D02*
X196755771Y-109296428D01*
X196755771Y-109296428D02*
X196803390Y-109201190D01*
X196803390Y-109201190D02*
X196851009Y-109153571D01*
X196851009Y-109153571D02*
X196946247Y-109105952D01*
X196946247Y-109105952D02*
X197184342Y-109105952D01*
X197184342Y-109105952D02*
X197279580Y-109153571D01*
X197279580Y-109153571D02*
X197327200Y-109201190D01*
X197327200Y-109201190D02*
X197374819Y-109296428D01*
X197374819Y-109296428D02*
X197374819Y-109582142D01*
X197374819Y-109582142D02*
X197327200Y-109677380D01*
X197327200Y-109677380D02*
X197279580Y-109724999D01*
X222574819Y-121690475D02*
X221574819Y-121690475D01*
X221574819Y-121690475D02*
X221574819Y-121452380D01*
X221574819Y-121452380D02*
X221622438Y-121309523D01*
X221622438Y-121309523D02*
X221717676Y-121214285D01*
X221717676Y-121214285D02*
X221812914Y-121166666D01*
X221812914Y-121166666D02*
X222003390Y-121119047D01*
X222003390Y-121119047D02*
X222146247Y-121119047D01*
X222146247Y-121119047D02*
X222336723Y-121166666D01*
X222336723Y-121166666D02*
X222431961Y-121214285D01*
X222431961Y-121214285D02*
X222527200Y-121309523D01*
X222527200Y-121309523D02*
X222574819Y-121452380D01*
X222574819Y-121452380D02*
X222574819Y-121690475D01*
X222574819Y-120166666D02*
X222574819Y-120738094D01*
X222574819Y-120452380D02*
X221574819Y-120452380D01*
X221574819Y-120452380D02*
X221717676Y-120547618D01*
X221717676Y-120547618D02*
X221812914Y-120642856D01*
X221812914Y-120642856D02*
X221860533Y-120738094D01*
X221574819Y-119547618D02*
X221574819Y-119452380D01*
X221574819Y-119452380D02*
X221622438Y-119357142D01*
X221622438Y-119357142D02*
X221670057Y-119309523D01*
X221670057Y-119309523D02*
X221765295Y-119261904D01*
X221765295Y-119261904D02*
X221955771Y-119214285D01*
X221955771Y-119214285D02*
X222193866Y-119214285D01*
X222193866Y-119214285D02*
X222384342Y-119261904D01*
X222384342Y-119261904D02*
X222479580Y-119309523D01*
X222479580Y-119309523D02*
X222527200Y-119357142D01*
X222527200Y-119357142D02*
X222574819Y-119452380D01*
X222574819Y-119452380D02*
X222574819Y-119547618D01*
X222574819Y-119547618D02*
X222527200Y-119642856D01*
X222527200Y-119642856D02*
X222479580Y-119690475D01*
X222479580Y-119690475D02*
X222384342Y-119738094D01*
X222384342Y-119738094D02*
X222193866Y-119785713D01*
X222193866Y-119785713D02*
X221955771Y-119785713D01*
X221955771Y-119785713D02*
X221765295Y-119738094D01*
X221765295Y-119738094D02*
X221670057Y-119690475D01*
X221670057Y-119690475D02*
X221622438Y-119642856D01*
X221622438Y-119642856D02*
X221574819Y-119547618D01*
X221574819Y-118309523D02*
X221574819Y-118785713D01*
X221574819Y-118785713D02*
X222051009Y-118833332D01*
X222051009Y-118833332D02*
X222003390Y-118785713D01*
X222003390Y-118785713D02*
X221955771Y-118690475D01*
X221955771Y-118690475D02*
X221955771Y-118452380D01*
X221955771Y-118452380D02*
X222003390Y-118357142D01*
X222003390Y-118357142D02*
X222051009Y-118309523D01*
X222051009Y-118309523D02*
X222146247Y-118261904D01*
X222146247Y-118261904D02*
X222384342Y-118261904D01*
X222384342Y-118261904D02*
X222479580Y-118309523D01*
X222479580Y-118309523D02*
X222527200Y-118357142D01*
X222527200Y-118357142D02*
X222574819Y-118452380D01*
X222574819Y-118452380D02*
X222574819Y-118690475D01*
X222574819Y-118690475D02*
X222527200Y-118785713D01*
X222527200Y-118785713D02*
X222479580Y-118833332D01*
X222254819Y-116451904D02*
X221254819Y-116451904D01*
X222254819Y-115880476D02*
X221683390Y-116309047D01*
X221254819Y-115880476D02*
X221826247Y-116451904D01*
X179424819Y-128965475D02*
X178424819Y-128965475D01*
X178424819Y-128965475D02*
X178424819Y-128727380D01*
X178424819Y-128727380D02*
X178472438Y-128584523D01*
X178472438Y-128584523D02*
X178567676Y-128489285D01*
X178567676Y-128489285D02*
X178662914Y-128441666D01*
X178662914Y-128441666D02*
X178853390Y-128394047D01*
X178853390Y-128394047D02*
X178996247Y-128394047D01*
X178996247Y-128394047D02*
X179186723Y-128441666D01*
X179186723Y-128441666D02*
X179281961Y-128489285D01*
X179281961Y-128489285D02*
X179377200Y-128584523D01*
X179377200Y-128584523D02*
X179424819Y-128727380D01*
X179424819Y-128727380D02*
X179424819Y-128965475D01*
X179424819Y-127441666D02*
X179424819Y-128013094D01*
X179424819Y-127727380D02*
X178424819Y-127727380D01*
X178424819Y-127727380D02*
X178567676Y-127822618D01*
X178567676Y-127822618D02*
X178662914Y-127917856D01*
X178662914Y-127917856D02*
X178710533Y-128013094D01*
X178424819Y-126822618D02*
X178424819Y-126727380D01*
X178424819Y-126727380D02*
X178472438Y-126632142D01*
X178472438Y-126632142D02*
X178520057Y-126584523D01*
X178520057Y-126584523D02*
X178615295Y-126536904D01*
X178615295Y-126536904D02*
X178805771Y-126489285D01*
X178805771Y-126489285D02*
X179043866Y-126489285D01*
X179043866Y-126489285D02*
X179234342Y-126536904D01*
X179234342Y-126536904D02*
X179329580Y-126584523D01*
X179329580Y-126584523D02*
X179377200Y-126632142D01*
X179377200Y-126632142D02*
X179424819Y-126727380D01*
X179424819Y-126727380D02*
X179424819Y-126822618D01*
X179424819Y-126822618D02*
X179377200Y-126917856D01*
X179377200Y-126917856D02*
X179329580Y-126965475D01*
X179329580Y-126965475D02*
X179234342Y-127013094D01*
X179234342Y-127013094D02*
X179043866Y-127060713D01*
X179043866Y-127060713D02*
X178805771Y-127060713D01*
X178805771Y-127060713D02*
X178615295Y-127013094D01*
X178615295Y-127013094D02*
X178520057Y-126965475D01*
X178520057Y-126965475D02*
X178472438Y-126917856D01*
X178472438Y-126917856D02*
X178424819Y-126822618D01*
X178758152Y-125632142D02*
X179424819Y-125632142D01*
X178377200Y-125870237D02*
X179091485Y-126108332D01*
X179091485Y-126108332D02*
X179091485Y-125489285D01*
X187924819Y-128965475D02*
X186924819Y-128965475D01*
X186924819Y-128965475D02*
X186924819Y-128727380D01*
X186924819Y-128727380D02*
X186972438Y-128584523D01*
X186972438Y-128584523D02*
X187067676Y-128489285D01*
X187067676Y-128489285D02*
X187162914Y-128441666D01*
X187162914Y-128441666D02*
X187353390Y-128394047D01*
X187353390Y-128394047D02*
X187496247Y-128394047D01*
X187496247Y-128394047D02*
X187686723Y-128441666D01*
X187686723Y-128441666D02*
X187781961Y-128489285D01*
X187781961Y-128489285D02*
X187877200Y-128584523D01*
X187877200Y-128584523D02*
X187924819Y-128727380D01*
X187924819Y-128727380D02*
X187924819Y-128965475D01*
X187924819Y-127441666D02*
X187924819Y-128013094D01*
X187924819Y-127727380D02*
X186924819Y-127727380D01*
X186924819Y-127727380D02*
X187067676Y-127822618D01*
X187067676Y-127822618D02*
X187162914Y-127917856D01*
X187162914Y-127917856D02*
X187210533Y-128013094D01*
X186924819Y-126822618D02*
X186924819Y-126727380D01*
X186924819Y-126727380D02*
X186972438Y-126632142D01*
X186972438Y-126632142D02*
X187020057Y-126584523D01*
X187020057Y-126584523D02*
X187115295Y-126536904D01*
X187115295Y-126536904D02*
X187305771Y-126489285D01*
X187305771Y-126489285D02*
X187543866Y-126489285D01*
X187543866Y-126489285D02*
X187734342Y-126536904D01*
X187734342Y-126536904D02*
X187829580Y-126584523D01*
X187829580Y-126584523D02*
X187877200Y-126632142D01*
X187877200Y-126632142D02*
X187924819Y-126727380D01*
X187924819Y-126727380D02*
X187924819Y-126822618D01*
X187924819Y-126822618D02*
X187877200Y-126917856D01*
X187877200Y-126917856D02*
X187829580Y-126965475D01*
X187829580Y-126965475D02*
X187734342Y-127013094D01*
X187734342Y-127013094D02*
X187543866Y-127060713D01*
X187543866Y-127060713D02*
X187305771Y-127060713D01*
X187305771Y-127060713D02*
X187115295Y-127013094D01*
X187115295Y-127013094D02*
X187020057Y-126965475D01*
X187020057Y-126965475D02*
X186972438Y-126917856D01*
X186972438Y-126917856D02*
X186924819Y-126822618D01*
X187020057Y-126108332D02*
X186972438Y-126060713D01*
X186972438Y-126060713D02*
X186924819Y-125965475D01*
X186924819Y-125965475D02*
X186924819Y-125727380D01*
X186924819Y-125727380D02*
X186972438Y-125632142D01*
X186972438Y-125632142D02*
X187020057Y-125584523D01*
X187020057Y-125584523D02*
X187115295Y-125536904D01*
X187115295Y-125536904D02*
X187210533Y-125536904D01*
X187210533Y-125536904D02*
X187353390Y-125584523D01*
X187353390Y-125584523D02*
X187924819Y-126155951D01*
X187924819Y-126155951D02*
X187924819Y-125536904D01*
X212374819Y-121119047D02*
X211898628Y-121452380D01*
X212374819Y-121690475D02*
X211374819Y-121690475D01*
X211374819Y-121690475D02*
X211374819Y-121309523D01*
X211374819Y-121309523D02*
X211422438Y-121214285D01*
X211422438Y-121214285D02*
X211470057Y-121166666D01*
X211470057Y-121166666D02*
X211565295Y-121119047D01*
X211565295Y-121119047D02*
X211708152Y-121119047D01*
X211708152Y-121119047D02*
X211803390Y-121166666D01*
X211803390Y-121166666D02*
X211851009Y-121214285D01*
X211851009Y-121214285D02*
X211898628Y-121309523D01*
X211898628Y-121309523D02*
X211898628Y-121690475D01*
X212374819Y-120166666D02*
X212374819Y-120738094D01*
X212374819Y-120452380D02*
X211374819Y-120452380D01*
X211374819Y-120452380D02*
X211517676Y-120547618D01*
X211517676Y-120547618D02*
X211612914Y-120642856D01*
X211612914Y-120642856D02*
X211660533Y-120738094D01*
X211374819Y-119547618D02*
X211374819Y-119452380D01*
X211374819Y-119452380D02*
X211422438Y-119357142D01*
X211422438Y-119357142D02*
X211470057Y-119309523D01*
X211470057Y-119309523D02*
X211565295Y-119261904D01*
X211565295Y-119261904D02*
X211755771Y-119214285D01*
X211755771Y-119214285D02*
X211993866Y-119214285D01*
X211993866Y-119214285D02*
X212184342Y-119261904D01*
X212184342Y-119261904D02*
X212279580Y-119309523D01*
X212279580Y-119309523D02*
X212327200Y-119357142D01*
X212327200Y-119357142D02*
X212374819Y-119452380D01*
X212374819Y-119452380D02*
X212374819Y-119547618D01*
X212374819Y-119547618D02*
X212327200Y-119642856D01*
X212327200Y-119642856D02*
X212279580Y-119690475D01*
X212279580Y-119690475D02*
X212184342Y-119738094D01*
X212184342Y-119738094D02*
X211993866Y-119785713D01*
X211993866Y-119785713D02*
X211755771Y-119785713D01*
X211755771Y-119785713D02*
X211565295Y-119738094D01*
X211565295Y-119738094D02*
X211470057Y-119690475D01*
X211470057Y-119690475D02*
X211422438Y-119642856D01*
X211422438Y-119642856D02*
X211374819Y-119547618D01*
X211374819Y-118357142D02*
X211374819Y-118547618D01*
X211374819Y-118547618D02*
X211422438Y-118642856D01*
X211422438Y-118642856D02*
X211470057Y-118690475D01*
X211470057Y-118690475D02*
X211612914Y-118785713D01*
X211612914Y-118785713D02*
X211803390Y-118833332D01*
X211803390Y-118833332D02*
X212184342Y-118833332D01*
X212184342Y-118833332D02*
X212279580Y-118785713D01*
X212279580Y-118785713D02*
X212327200Y-118738094D01*
X212327200Y-118738094D02*
X212374819Y-118642856D01*
X212374819Y-118642856D02*
X212374819Y-118452380D01*
X212374819Y-118452380D02*
X212327200Y-118357142D01*
X212327200Y-118357142D02*
X212279580Y-118309523D01*
X212279580Y-118309523D02*
X212184342Y-118261904D01*
X212184342Y-118261904D02*
X211946247Y-118261904D01*
X211946247Y-118261904D02*
X211851009Y-118309523D01*
X211851009Y-118309523D02*
X211803390Y-118357142D01*
X211803390Y-118357142D02*
X211755771Y-118452380D01*
X211755771Y-118452380D02*
X211755771Y-118642856D01*
X211755771Y-118642856D02*
X211803390Y-118738094D01*
X211803390Y-118738094D02*
X211851009Y-118785713D01*
X211851009Y-118785713D02*
X211946247Y-118833332D01*
X187534819Y-121119047D02*
X187058628Y-121452380D01*
X187534819Y-121690475D02*
X186534819Y-121690475D01*
X186534819Y-121690475D02*
X186534819Y-121309523D01*
X186534819Y-121309523D02*
X186582438Y-121214285D01*
X186582438Y-121214285D02*
X186630057Y-121166666D01*
X186630057Y-121166666D02*
X186725295Y-121119047D01*
X186725295Y-121119047D02*
X186868152Y-121119047D01*
X186868152Y-121119047D02*
X186963390Y-121166666D01*
X186963390Y-121166666D02*
X187011009Y-121214285D01*
X187011009Y-121214285D02*
X187058628Y-121309523D01*
X187058628Y-121309523D02*
X187058628Y-121690475D01*
X187534819Y-120166666D02*
X187534819Y-120738094D01*
X187534819Y-120452380D02*
X186534819Y-120452380D01*
X186534819Y-120452380D02*
X186677676Y-120547618D01*
X186677676Y-120547618D02*
X186772914Y-120642856D01*
X186772914Y-120642856D02*
X186820533Y-120738094D01*
X186534819Y-119547618D02*
X186534819Y-119452380D01*
X186534819Y-119452380D02*
X186582438Y-119357142D01*
X186582438Y-119357142D02*
X186630057Y-119309523D01*
X186630057Y-119309523D02*
X186725295Y-119261904D01*
X186725295Y-119261904D02*
X186915771Y-119214285D01*
X186915771Y-119214285D02*
X187153866Y-119214285D01*
X187153866Y-119214285D02*
X187344342Y-119261904D01*
X187344342Y-119261904D02*
X187439580Y-119309523D01*
X187439580Y-119309523D02*
X187487200Y-119357142D01*
X187487200Y-119357142D02*
X187534819Y-119452380D01*
X187534819Y-119452380D02*
X187534819Y-119547618D01*
X187534819Y-119547618D02*
X187487200Y-119642856D01*
X187487200Y-119642856D02*
X187439580Y-119690475D01*
X187439580Y-119690475D02*
X187344342Y-119738094D01*
X187344342Y-119738094D02*
X187153866Y-119785713D01*
X187153866Y-119785713D02*
X186915771Y-119785713D01*
X186915771Y-119785713D02*
X186725295Y-119738094D01*
X186725295Y-119738094D02*
X186630057Y-119690475D01*
X186630057Y-119690475D02*
X186582438Y-119642856D01*
X186582438Y-119642856D02*
X186534819Y-119547618D01*
X187534819Y-118261904D02*
X187534819Y-118833332D01*
X187534819Y-118547618D02*
X186534819Y-118547618D01*
X186534819Y-118547618D02*
X186677676Y-118642856D01*
X186677676Y-118642856D02*
X186772914Y-118738094D01*
X186772914Y-118738094D02*
X186820533Y-118833332D01*
X218930714Y-59094819D02*
X218930714Y-59904342D01*
X218930714Y-59904342D02*
X218978333Y-59999580D01*
X218978333Y-59999580D02*
X219025952Y-60047200D01*
X219025952Y-60047200D02*
X219121190Y-60094819D01*
X219121190Y-60094819D02*
X219311666Y-60094819D01*
X219311666Y-60094819D02*
X219406904Y-60047200D01*
X219406904Y-60047200D02*
X219454523Y-59999580D01*
X219454523Y-59999580D02*
X219502142Y-59904342D01*
X219502142Y-59904342D02*
X219502142Y-59094819D01*
X220502142Y-60094819D02*
X219930714Y-60094819D01*
X220216428Y-60094819D02*
X220216428Y-59094819D01*
X220216428Y-59094819D02*
X220121190Y-59237676D01*
X220121190Y-59237676D02*
X220025952Y-59332914D01*
X220025952Y-59332914D02*
X219930714Y-59380533D01*
X221121190Y-59094819D02*
X221216428Y-59094819D01*
X221216428Y-59094819D02*
X221311666Y-59142438D01*
X221311666Y-59142438D02*
X221359285Y-59190057D01*
X221359285Y-59190057D02*
X221406904Y-59285295D01*
X221406904Y-59285295D02*
X221454523Y-59475771D01*
X221454523Y-59475771D02*
X221454523Y-59713866D01*
X221454523Y-59713866D02*
X221406904Y-59904342D01*
X221406904Y-59904342D02*
X221359285Y-59999580D01*
X221359285Y-59999580D02*
X221311666Y-60047200D01*
X221311666Y-60047200D02*
X221216428Y-60094819D01*
X221216428Y-60094819D02*
X221121190Y-60094819D01*
X221121190Y-60094819D02*
X221025952Y-60047200D01*
X221025952Y-60047200D02*
X220978333Y-59999580D01*
X220978333Y-59999580D02*
X220930714Y-59904342D01*
X220930714Y-59904342D02*
X220883095Y-59713866D01*
X220883095Y-59713866D02*
X220883095Y-59475771D01*
X220883095Y-59475771D02*
X220930714Y-59285295D01*
X220930714Y-59285295D02*
X220978333Y-59190057D01*
X220978333Y-59190057D02*
X221025952Y-59142438D01*
X221025952Y-59142438D02*
X221121190Y-59094819D01*
X222406904Y-60094819D02*
X221835476Y-60094819D01*
X222121190Y-60094819D02*
X222121190Y-59094819D01*
X222121190Y-59094819D02*
X222025952Y-59237676D01*
X222025952Y-59237676D02*
X221930714Y-59332914D01*
X221930714Y-59332914D02*
X221835476Y-59380533D01*
X199774819Y-77810714D02*
X200489104Y-77810714D01*
X200489104Y-77810714D02*
X200631961Y-77858333D01*
X200631961Y-77858333D02*
X200727200Y-77953571D01*
X200727200Y-77953571D02*
X200774819Y-78096428D01*
X200774819Y-78096428D02*
X200774819Y-78191666D01*
X200774819Y-76810714D02*
X200774819Y-77382142D01*
X200774819Y-77096428D02*
X199774819Y-77096428D01*
X199774819Y-77096428D02*
X199917676Y-77191666D01*
X199917676Y-77191666D02*
X200012914Y-77286904D01*
X200012914Y-77286904D02*
X200060533Y-77382142D01*
X199774819Y-76191666D02*
X199774819Y-76096428D01*
X199774819Y-76096428D02*
X199822438Y-76001190D01*
X199822438Y-76001190D02*
X199870057Y-75953571D01*
X199870057Y-75953571D02*
X199965295Y-75905952D01*
X199965295Y-75905952D02*
X200155771Y-75858333D01*
X200155771Y-75858333D02*
X200393866Y-75858333D01*
X200393866Y-75858333D02*
X200584342Y-75905952D01*
X200584342Y-75905952D02*
X200679580Y-75953571D01*
X200679580Y-75953571D02*
X200727200Y-76001190D01*
X200727200Y-76001190D02*
X200774819Y-76096428D01*
X200774819Y-76096428D02*
X200774819Y-76191666D01*
X200774819Y-76191666D02*
X200727200Y-76286904D01*
X200727200Y-76286904D02*
X200679580Y-76334523D01*
X200679580Y-76334523D02*
X200584342Y-76382142D01*
X200584342Y-76382142D02*
X200393866Y-76429761D01*
X200393866Y-76429761D02*
X200155771Y-76429761D01*
X200155771Y-76429761D02*
X199965295Y-76382142D01*
X199965295Y-76382142D02*
X199870057Y-76334523D01*
X199870057Y-76334523D02*
X199822438Y-76286904D01*
X199822438Y-76286904D02*
X199774819Y-76191666D01*
X199870057Y-75477380D02*
X199822438Y-75429761D01*
X199822438Y-75429761D02*
X199774819Y-75334523D01*
X199774819Y-75334523D02*
X199774819Y-75096428D01*
X199774819Y-75096428D02*
X199822438Y-75001190D01*
X199822438Y-75001190D02*
X199870057Y-74953571D01*
X199870057Y-74953571D02*
X199965295Y-74905952D01*
X199965295Y-74905952D02*
X200060533Y-74905952D01*
X200060533Y-74905952D02*
X200203390Y-74953571D01*
X200203390Y-74953571D02*
X200774819Y-75524999D01*
X200774819Y-75524999D02*
X200774819Y-74905952D01*
D12*
%TO.C,C101*%
X198242194Y-65995000D02*
X196842194Y-65995000D01*
X197542194Y-66695000D02*
X197542194Y-65295000D01*
X190622651Y-69080000D02*
X190622651Y-54920000D01*
X190582651Y-69080000D02*
X190582651Y-54920000D01*
X190542651Y-69080000D02*
X190542651Y-54920000D01*
X190502651Y-69079000D02*
X190502651Y-54921000D01*
X190462651Y-69078000D02*
X190462651Y-54922000D01*
X190422651Y-69077000D02*
X190422651Y-54923000D01*
X190382651Y-69076000D02*
X190382651Y-54924000D01*
X190342651Y-69074000D02*
X190342651Y-54926000D01*
X190302651Y-69073000D02*
X190302651Y-54927000D01*
X190262651Y-69071000D02*
X190262651Y-54929000D01*
X190222651Y-69069000D02*
X190222651Y-54931000D01*
X190182651Y-69066000D02*
X190182651Y-54934000D01*
X190142651Y-69064000D02*
X190142651Y-54936000D01*
X190102651Y-69061000D02*
X190102651Y-54939000D01*
X190062651Y-69058000D02*
X190062651Y-54942000D01*
X190022651Y-69055000D02*
X190022651Y-54945000D01*
X189982651Y-69051000D02*
X189982651Y-54949000D01*
X189942651Y-69047000D02*
X189942651Y-54953000D01*
X189902651Y-69044000D02*
X189902651Y-54956000D01*
X189862651Y-69039000D02*
X189862651Y-54961000D01*
X189822651Y-69035000D02*
X189822651Y-54965000D01*
X189782651Y-69030000D02*
X189782651Y-54970000D01*
X189742651Y-69025000D02*
X189742651Y-54975000D01*
X189702651Y-69020000D02*
X189702651Y-54980000D01*
X189662651Y-69015000D02*
X189662651Y-54985000D01*
X189622651Y-69009000D02*
X189622651Y-54991000D01*
X189582651Y-69004000D02*
X189582651Y-54996000D01*
X189542651Y-68998000D02*
X189542651Y-55002000D01*
X189502651Y-68991000D02*
X189502651Y-55009000D01*
X189462651Y-68985000D02*
X189462651Y-55015000D01*
X189422651Y-68978000D02*
X189422651Y-55022000D01*
X189382651Y-68971000D02*
X189382651Y-55029000D01*
X189342651Y-68964000D02*
X189342651Y-55036000D01*
X189302651Y-68957000D02*
X189302651Y-55043000D01*
X189262651Y-68949000D02*
X189262651Y-55051000D01*
X189222651Y-68941000D02*
X189222651Y-55059000D01*
X189182651Y-68933000D02*
X189182651Y-55067000D01*
X189142651Y-68924000D02*
X189142651Y-55076000D01*
X189102651Y-68916000D02*
X189102651Y-55084000D01*
X189062651Y-68907000D02*
X189062651Y-55093000D01*
X189022651Y-68898000D02*
X189022651Y-55102000D01*
X188982651Y-68889000D02*
X188982651Y-55111000D01*
X188942651Y-68879000D02*
X188942651Y-55121000D01*
X188902651Y-68869000D02*
X188902651Y-55131000D01*
X188862651Y-68859000D02*
X188862651Y-55141000D01*
X188822651Y-68849000D02*
X188822651Y-55151000D01*
X188782651Y-68838000D02*
X188782651Y-55162000D01*
X188742651Y-68827000D02*
X188742651Y-55173000D01*
X188702651Y-68816000D02*
X188702651Y-55184000D01*
X188662651Y-68805000D02*
X188662651Y-55195000D01*
X188622651Y-68793000D02*
X188622651Y-55207000D01*
X188582651Y-68781000D02*
X188582651Y-55219000D01*
X188542651Y-68769000D02*
X188542651Y-55231000D01*
X188502651Y-68757000D02*
X188502651Y-55243000D01*
X188462651Y-68744000D02*
X188462651Y-55256000D01*
X188422651Y-68732000D02*
X188422651Y-55268000D01*
X188382651Y-68718000D02*
X188382651Y-55282000D01*
X188342651Y-68705000D02*
X188342651Y-55295000D01*
X188302651Y-68691000D02*
X188302651Y-63440000D01*
X188302651Y-60560000D02*
X188302651Y-55309000D01*
X188262651Y-68677000D02*
X188262651Y-63440000D01*
X188262651Y-60560000D02*
X188262651Y-55323000D01*
X188222651Y-68663000D02*
X188222651Y-63440000D01*
X188222651Y-60560000D02*
X188222651Y-55337000D01*
X188182651Y-68649000D02*
X188182651Y-63440000D01*
X188182651Y-60560000D02*
X188182651Y-55351000D01*
X188142651Y-68634000D02*
X188142651Y-63440000D01*
X188142651Y-60560000D02*
X188142651Y-55366000D01*
X188102651Y-68619000D02*
X188102651Y-63440000D01*
X188102651Y-60560000D02*
X188102651Y-55381000D01*
X188062651Y-68604000D02*
X188062651Y-63440000D01*
X188062651Y-60560000D02*
X188062651Y-55396000D01*
X188022651Y-68588000D02*
X188022651Y-63440000D01*
X188022651Y-60560000D02*
X188022651Y-55412000D01*
X187982651Y-68572000D02*
X187982651Y-63440000D01*
X187982651Y-60560000D02*
X187982651Y-55428000D01*
X187942651Y-68556000D02*
X187942651Y-63440000D01*
X187942651Y-60560000D02*
X187942651Y-55444000D01*
X187902651Y-68540000D02*
X187902651Y-63440000D01*
X187902651Y-60560000D02*
X187902651Y-55460000D01*
X187862651Y-68523000D02*
X187862651Y-63440000D01*
X187862651Y-60560000D02*
X187862651Y-55477000D01*
X187822651Y-68506000D02*
X187822651Y-63440000D01*
X187822651Y-60560000D02*
X187822651Y-55494000D01*
X187782651Y-68489000D02*
X187782651Y-63440000D01*
X187782651Y-60560000D02*
X187782651Y-55511000D01*
X187742651Y-68472000D02*
X187742651Y-63440000D01*
X187742651Y-60560000D02*
X187742651Y-55528000D01*
X187702651Y-68454000D02*
X187702651Y-63440000D01*
X187702651Y-60560000D02*
X187702651Y-55546000D01*
X187662651Y-68436000D02*
X187662651Y-63440000D01*
X187662651Y-60560000D02*
X187662651Y-55564000D01*
X187622651Y-68417000D02*
X187622651Y-63440000D01*
X187622651Y-60560000D02*
X187622651Y-55583000D01*
X187582651Y-68398000D02*
X187582651Y-63440000D01*
X187582651Y-60560000D02*
X187582651Y-55602000D01*
X187542651Y-68379000D02*
X187542651Y-63440000D01*
X187542651Y-60560000D02*
X187542651Y-55621000D01*
X187502651Y-68360000D02*
X187502651Y-63440000D01*
X187502651Y-60560000D02*
X187502651Y-55640000D01*
X187462651Y-68340000D02*
X187462651Y-63440000D01*
X187462651Y-60560000D02*
X187462651Y-55660000D01*
X187422651Y-68320000D02*
X187422651Y-63440000D01*
X187422651Y-60560000D02*
X187422651Y-55680000D01*
X187382651Y-68300000D02*
X187382651Y-63440000D01*
X187382651Y-60560000D02*
X187382651Y-55700000D01*
X187342651Y-68279000D02*
X187342651Y-63440000D01*
X187342651Y-60560000D02*
X187342651Y-55721000D01*
X187302651Y-68259000D02*
X187302651Y-63440000D01*
X187302651Y-60560000D02*
X187302651Y-55741000D01*
X187262651Y-68237000D02*
X187262651Y-63440000D01*
X187262651Y-60560000D02*
X187262651Y-55763000D01*
X187222651Y-68216000D02*
X187222651Y-63440000D01*
X187222651Y-60560000D02*
X187222651Y-55784000D01*
X187182651Y-68194000D02*
X187182651Y-63440000D01*
X187182651Y-60560000D02*
X187182651Y-55806000D01*
X187142651Y-68172000D02*
X187142651Y-63440000D01*
X187142651Y-60560000D02*
X187142651Y-55828000D01*
X187102651Y-68149000D02*
X187102651Y-63440000D01*
X187102651Y-60560000D02*
X187102651Y-55851000D01*
X187062651Y-68126000D02*
X187062651Y-63440000D01*
X187062651Y-60560000D02*
X187062651Y-55874000D01*
X187022651Y-68103000D02*
X187022651Y-63440000D01*
X187022651Y-60560000D02*
X187022651Y-55897000D01*
X186982651Y-68079000D02*
X186982651Y-63440000D01*
X186982651Y-60560000D02*
X186982651Y-55921000D01*
X186942651Y-68055000D02*
X186942651Y-63440000D01*
X186942651Y-60560000D02*
X186942651Y-55945000D01*
X186902651Y-68031000D02*
X186902651Y-63440000D01*
X186902651Y-60560000D02*
X186902651Y-55969000D01*
X186862651Y-68006000D02*
X186862651Y-63440000D01*
X186862651Y-60560000D02*
X186862651Y-55994000D01*
X186822651Y-67981000D02*
X186822651Y-63440000D01*
X186822651Y-60560000D02*
X186822651Y-56019000D01*
X186782651Y-67956000D02*
X186782651Y-63440000D01*
X186782651Y-60560000D02*
X186782651Y-56044000D01*
X186742651Y-67930000D02*
X186742651Y-63440000D01*
X186742651Y-60560000D02*
X186742651Y-56070000D01*
X186702651Y-67904000D02*
X186702651Y-63440000D01*
X186702651Y-60560000D02*
X186702651Y-56096000D01*
X186662651Y-67877000D02*
X186662651Y-63440000D01*
X186662651Y-60560000D02*
X186662651Y-56123000D01*
X186622651Y-67850000D02*
X186622651Y-63440000D01*
X186622651Y-60560000D02*
X186622651Y-56150000D01*
X186582651Y-67823000D02*
X186582651Y-63440000D01*
X186582651Y-60560000D02*
X186582651Y-56177000D01*
X186542651Y-67795000D02*
X186542651Y-63440000D01*
X186542651Y-60560000D02*
X186542651Y-56205000D01*
X186502651Y-67767000D02*
X186502651Y-63440000D01*
X186502651Y-60560000D02*
X186502651Y-56233000D01*
X186462651Y-67738000D02*
X186462651Y-63440000D01*
X186462651Y-60560000D02*
X186462651Y-56262000D01*
X186422651Y-67709000D02*
X186422651Y-63440000D01*
X186422651Y-60560000D02*
X186422651Y-56291000D01*
X186382651Y-67680000D02*
X186382651Y-63440000D01*
X186382651Y-60560000D02*
X186382651Y-56320000D01*
X186342651Y-67650000D02*
X186342651Y-63440000D01*
X186342651Y-60560000D02*
X186342651Y-56350000D01*
X186302651Y-67620000D02*
X186302651Y-63440000D01*
X186302651Y-60560000D02*
X186302651Y-56380000D01*
X186262651Y-67589000D02*
X186262651Y-63440000D01*
X186262651Y-60560000D02*
X186262651Y-56411000D01*
X186222651Y-67558000D02*
X186222651Y-63440000D01*
X186222651Y-60560000D02*
X186222651Y-56442000D01*
X186182651Y-67526000D02*
X186182651Y-63440000D01*
X186182651Y-60560000D02*
X186182651Y-56474000D01*
X186142651Y-67494000D02*
X186142651Y-63440000D01*
X186142651Y-60560000D02*
X186142651Y-56506000D01*
X186102651Y-67461000D02*
X186102651Y-63440000D01*
X186102651Y-60560000D02*
X186102651Y-56539000D01*
X186062651Y-67428000D02*
X186062651Y-63440000D01*
X186062651Y-60560000D02*
X186062651Y-56572000D01*
X186022651Y-67395000D02*
X186022651Y-63440000D01*
X186022651Y-60560000D02*
X186022651Y-56605000D01*
X185982651Y-67360000D02*
X185982651Y-63440000D01*
X185982651Y-60560000D02*
X185982651Y-56640000D01*
X185942651Y-67326000D02*
X185942651Y-63440000D01*
X185942651Y-60560000D02*
X185942651Y-56674000D01*
X185902651Y-67291000D02*
X185902651Y-63440000D01*
X185902651Y-60560000D02*
X185902651Y-56709000D01*
X185862651Y-67255000D02*
X185862651Y-63440000D01*
X185862651Y-60560000D02*
X185862651Y-56745000D01*
X185822651Y-67219000D02*
X185822651Y-63440000D01*
X185822651Y-60560000D02*
X185822651Y-56781000D01*
X185782651Y-67182000D02*
X185782651Y-63440000D01*
X185782651Y-60560000D02*
X185782651Y-56818000D01*
X185742651Y-67145000D02*
X185742651Y-63440000D01*
X185742651Y-60560000D02*
X185742651Y-56855000D01*
X185702651Y-67107000D02*
X185702651Y-63440000D01*
X185702651Y-60560000D02*
X185702651Y-56893000D01*
X185662651Y-67068000D02*
X185662651Y-63440000D01*
X185662651Y-60560000D02*
X185662651Y-56932000D01*
X185622651Y-67029000D02*
X185622651Y-63440000D01*
X185622651Y-60560000D02*
X185622651Y-56971000D01*
X185582651Y-66989000D02*
X185582651Y-63440000D01*
X185582651Y-60560000D02*
X185582651Y-57011000D01*
X185542651Y-66949000D02*
X185542651Y-63440000D01*
X185542651Y-60560000D02*
X185542651Y-57051000D01*
X185502651Y-66908000D02*
X185502651Y-63440000D01*
X185502651Y-60560000D02*
X185502651Y-57092000D01*
X185462651Y-66866000D02*
X185462651Y-63440000D01*
X185462651Y-60560000D02*
X185462651Y-57134000D01*
X185422651Y-66824000D02*
X185422651Y-57176000D01*
X185382651Y-66780000D02*
X185382651Y-57220000D01*
X185342651Y-66737000D02*
X185342651Y-57263000D01*
X185302651Y-66692000D02*
X185302651Y-57308000D01*
X185262651Y-66647000D02*
X185262651Y-57353000D01*
X185222651Y-66601000D02*
X185222651Y-57399000D01*
X185182651Y-66554000D02*
X185182651Y-57446000D01*
X185142651Y-66506000D02*
X185142651Y-57494000D01*
X185102651Y-66457000D02*
X185102651Y-57543000D01*
X185062651Y-66408000D02*
X185062651Y-57592000D01*
X185022651Y-66357000D02*
X185022651Y-57643000D01*
X184982651Y-66306000D02*
X184982651Y-57694000D01*
X184942651Y-66253000D02*
X184942651Y-57747000D01*
X184902651Y-66200000D02*
X184902651Y-57800000D01*
X184862651Y-66145000D02*
X184862651Y-57855000D01*
X184822651Y-66090000D02*
X184822651Y-57910000D01*
X184782651Y-66033000D02*
X184782651Y-57967000D01*
X184742651Y-65975000D02*
X184742651Y-58025000D01*
X184702651Y-65916000D02*
X184702651Y-58084000D01*
X184662651Y-65855000D02*
X184662651Y-58145000D01*
X184622651Y-65793000D02*
X184622651Y-58207000D01*
X184582651Y-65730000D02*
X184582651Y-58270000D01*
X184542651Y-65665000D02*
X184542651Y-58335000D01*
X184502651Y-65599000D02*
X184502651Y-58401000D01*
X184462651Y-65531000D02*
X184462651Y-58469000D01*
X184422651Y-65461000D02*
X184422651Y-58539000D01*
X184382651Y-65389000D02*
X184382651Y-58611000D01*
X184342651Y-65315000D02*
X184342651Y-58685000D01*
X184302651Y-65239000D02*
X184302651Y-58761000D01*
X184262651Y-65161000D02*
X184262651Y-58839000D01*
X184222651Y-65080000D02*
X184222651Y-58920000D01*
X184182651Y-64997000D02*
X184182651Y-59003000D01*
X184142651Y-64910000D02*
X184142651Y-59090000D01*
X184102651Y-64821000D02*
X184102651Y-59179000D01*
X184062651Y-64728000D02*
X184062651Y-59272000D01*
X184022651Y-64631000D02*
X184022651Y-59369000D01*
X183982651Y-64530000D02*
X183982651Y-59470000D01*
X183942651Y-64424000D02*
X183942651Y-59576000D01*
X183902651Y-64313000D02*
X183902651Y-59687000D01*
X183862651Y-64195000D02*
X183862651Y-59805000D01*
X183822651Y-64071000D02*
X183822651Y-59929000D01*
X183782651Y-63937000D02*
X183782651Y-60063000D01*
X183742651Y-63793000D02*
X183742651Y-60207000D01*
X183702651Y-63636000D02*
X183702651Y-60364000D01*
X183662651Y-63461000D02*
X183662651Y-60539000D01*
X183622651Y-63262000D02*
X183622651Y-60738000D01*
X183582651Y-63024000D02*
X183582651Y-60976000D01*
X183542651Y-62714000D02*
X183542651Y-61286000D01*
X197742651Y-62000000D02*
G75*
G02*
X183502651Y-62000000I-7120000J0D01*
G01*
X183502651Y-62000000D02*
G75*
G02*
X197742651Y-62000000I7120000J0D01*
G01*
%TO.C,J109*%
X28860000Y-34630000D02*
X28860000Y-35960000D01*
X27750000Y-34630000D02*
X28860000Y-34630000D01*
X26290000Y-34630000D02*
X26290000Y-44910000D01*
X17660000Y-34630000D02*
X26290000Y-34630000D01*
X17660000Y-34630000D02*
X17660000Y-44910000D01*
X17660000Y-34750000D02*
X26290000Y-34750000D01*
X17660000Y-34868095D02*
X26290000Y-34868095D01*
X17660000Y-34986190D02*
X26290000Y-34986190D01*
X17660000Y-35104285D02*
X26290000Y-35104285D01*
X17660000Y-35222380D02*
X26290000Y-35222380D01*
X17660000Y-35340475D02*
X26290000Y-35340475D01*
X17660000Y-35458570D02*
X26290000Y-35458570D01*
X17660000Y-35576665D02*
X26290000Y-35576665D01*
X26290000Y-35600000D02*
X26640000Y-35600000D01*
X17660000Y-35694760D02*
X26290000Y-35694760D01*
X17660000Y-35812855D02*
X26290000Y-35812855D01*
X17660000Y-35930950D02*
X26290000Y-35930950D01*
X17660000Y-36049045D02*
X26290000Y-36049045D01*
X17660000Y-36167140D02*
X26290000Y-36167140D01*
X17660000Y-36285235D02*
X26290000Y-36285235D01*
X26290000Y-36320000D02*
X26640000Y-36320000D01*
X17660000Y-36403330D02*
X26290000Y-36403330D01*
X17660000Y-36521425D02*
X26290000Y-36521425D01*
X17660000Y-36639520D02*
X26290000Y-36639520D01*
X17660000Y-36757615D02*
X26290000Y-36757615D01*
X17660000Y-36875710D02*
X26290000Y-36875710D01*
X17660000Y-36993805D02*
X26290000Y-36993805D01*
X17660000Y-37111900D02*
X26290000Y-37111900D01*
X17660000Y-37230000D02*
X26290000Y-37230000D01*
X26290000Y-38140000D02*
X26700000Y-38140000D01*
X26290000Y-38860000D02*
X26700000Y-38860000D01*
X17660000Y-39770000D02*
X26290000Y-39770000D01*
X26290000Y-40680000D02*
X26700000Y-40680000D01*
X26290000Y-41400000D02*
X26700000Y-41400000D01*
X17660000Y-42310000D02*
X26290000Y-42310000D01*
X26290000Y-43220000D02*
X26700000Y-43220000D01*
X26290000Y-43940000D02*
X26700000Y-43940000D01*
X17660000Y-44910000D02*
X26290000Y-44910000D01*
%TO.C,TP102*%
D10*
X97500000Y-42500000D02*
X126500000Y-42500000D01*
X126500000Y-25500000D01*
X97500000Y-25500000D01*
X97500000Y-42500000D01*
D12*
X103000000Y-28500000D02*
X100000000Y-28500000D01*
X103000000Y-28500000D02*
X103000000Y-39000000D01*
X100000000Y-39000000D02*
X100000000Y-28500000D01*
X100000000Y-39000000D02*
X103000000Y-39000000D01*
%TO.C,J110*%
X29055000Y-22115000D02*
X26395000Y-22115000D01*
X29055000Y-27255000D02*
X29055000Y-22115000D01*
X29055000Y-27255000D02*
X26395000Y-27255000D01*
X26395000Y-27255000D02*
X26395000Y-22115000D01*
X27725000Y-29855000D02*
X26395000Y-29855000D01*
X26395000Y-29855000D02*
X26395000Y-28525000D01*
%TO.C,TP104*%
X94500000Y-28500000D02*
X91500000Y-28500000D01*
X94500000Y-28500000D02*
X94500000Y-39000000D01*
X91500000Y-39000000D02*
X91500000Y-28500000D01*
X91500000Y-39000000D02*
X94500000Y-39000000D01*
%TO.C,TP105*%
X64500000Y-28500000D02*
X61500000Y-28500000D01*
X64500000Y-28500000D02*
X64500000Y-39000000D01*
X61500000Y-39000000D02*
X61500000Y-28500000D01*
X61500000Y-39000000D02*
X64500000Y-39000000D01*
D13*
%TO.C,U102*%
X48870000Y-21000000D02*
X39870000Y-21000000D01*
X48870000Y-21000000D02*
X48870000Y-22300000D01*
X39870000Y-21000000D02*
X39870000Y-22300000D01*
X53370000Y-22300000D02*
X48870000Y-22300000D01*
X39870000Y-22300000D02*
X35370000Y-22300000D01*
X53370000Y-45000000D02*
X53370000Y-22300000D01*
X53370000Y-45000000D02*
X35370000Y-45000000D01*
X35370000Y-45000000D02*
X35370000Y-22300000D01*
D12*
%TO.C,J107*%
X225050000Y-53855000D02*
X225050000Y-51195000D01*
X217370000Y-53855000D02*
X225050000Y-53855000D01*
X217370000Y-53855000D02*
X217370000Y-51195000D01*
X217370000Y-51195000D02*
X225050000Y-51195000D01*
X214770000Y-52525000D02*
X214770000Y-51195000D01*
X214770000Y-51195000D02*
X216100000Y-51195000D01*
%TO.C,R103*%
X181080000Y-121920000D02*
X182920000Y-121920000D01*
X182920000Y-118080000D01*
X181080000Y-118080000D01*
X181080000Y-121920000D01*
X182000000Y-122870000D02*
X182000000Y-121920000D01*
X182000000Y-117130000D02*
X182000000Y-118080000D01*
%TO.C,R105*%
X215920000Y-118080000D02*
X214080000Y-118080000D01*
X214080000Y-121920000D01*
X215920000Y-121920000D01*
X215920000Y-118080000D01*
X215000000Y-122870000D02*
X215000000Y-121920000D01*
X215000000Y-117130000D02*
X215000000Y-118080000D01*
%TO.C,R102*%
X196080000Y-121720000D02*
X197920000Y-121720000D01*
X197920000Y-117880000D01*
X196080000Y-117880000D01*
X196080000Y-121720000D01*
X197000000Y-122670000D02*
X197000000Y-121720000D01*
X197000000Y-116930000D02*
X197000000Y-117880000D01*
%TO.C,D103*%
X199991437Y-128605000D02*
G75*
G02*
X196760000Y-128760516I-1671437J1080000D01*
G01*
X199360961Y-128605000D02*
G75*
G02*
X197279039Y-128605000I-1040961J1080000D01*
G01*
X197279039Y-126445000D02*
G75*
G02*
X199360961Y-126445000I1040961J-1080000D01*
G01*
X196760000Y-126289484D02*
G75*
G02*
X199991437Y-126445000I1560000J-1235516D01*
G01*
X196760000Y-128605000D02*
X196760000Y-128761000D01*
X196760000Y-126289000D02*
X196760000Y-126445000D01*
%TO.C,Q101*%
X246160000Y-114735000D02*
X245690000Y-115075000D01*
X245690000Y-114395000D01*
X246160000Y-114735000D01*
G36*
X246160000Y-114735000D02*
G01*
X245690000Y-115075000D01*
X245690000Y-114395000D01*
X246160000Y-114735000D01*
G37*
X249530000Y-118585000D02*
G75*
G02*
X248269513Y-119861463I-2350000J1060000D01*
G01*
X248274786Y-115177226D02*
G75*
G02*
X249530000Y-116435000I-1094786J-2347774D01*
G01*
X246067736Y-119827383D02*
G75*
G02*
X245480000Y-119435000I1112264J2302383D01*
G01*
X245480000Y-115585000D02*
G75*
G02*
X246057955Y-115202369I1700000J-1940000D01*
G01*
X245480000Y-115585000D02*
X245480000Y-119435000D01*
%TO.C,J104*%
X207330000Y-91110000D02*
X207330000Y-108950000D01*
X207330000Y-88510000D02*
X207330000Y-89840000D01*
X206000000Y-88510000D02*
X207330000Y-88510000D01*
X204670000Y-108950000D02*
X207330000Y-108950000D01*
X204670000Y-91110000D02*
X207330000Y-91110000D01*
X204670000Y-91110000D02*
X204670000Y-108950000D01*
%TO.C,J108*%
X182550000Y-114235000D02*
X182550000Y-114355000D01*
X182550000Y-111695000D02*
X182550000Y-113025000D01*
X181220000Y-111695000D02*
X182550000Y-111695000D01*
X179890000Y-114355000D02*
X182550000Y-114355000D01*
X179890000Y-114235000D02*
X179890000Y-114355000D01*
%TO.C,D106*%
X212689039Y-126920000D02*
G75*
G02*
X214770961Y-126920000I1040961J-1080000D01*
G01*
X212058563Y-126920000D02*
G75*
G02*
X215290000Y-126764484I1671437J-1080000D01*
G01*
X214770961Y-129080000D02*
G75*
G02*
X212689039Y-129080000I-1040961J1080000D01*
G01*
X215290000Y-129235516D02*
G75*
G02*
X212058563Y-129080000I-1560000J1235516D01*
G01*
X215290000Y-126920000D02*
X215290000Y-126764000D01*
X215290000Y-129236000D02*
X215290000Y-129080000D01*
%TO.C,TP101*%
X207500000Y-72465000D02*
X207500000Y-80565000D01*
X207500000Y-72465000D02*
X204500000Y-72465000D01*
X204500000Y-80565000D02*
X207500000Y-80565000D01*
X204500000Y-80565000D02*
X204500000Y-72465000D01*
%TO.C,D107*%
X208310961Y-129080000D02*
G75*
G02*
X206229039Y-129080000I-1040961J1080000D01*
G01*
X208941437Y-129080000D02*
G75*
G02*
X205710000Y-129235516I-1671437J1080000D01*
G01*
X206229039Y-126920000D02*
G75*
G02*
X208310961Y-126920000I1040961J-1080000D01*
G01*
X205710000Y-126764484D02*
G75*
G02*
X208941437Y-126920000I1560000J-1235516D01*
G01*
X205710000Y-129080000D02*
X205710000Y-129236000D01*
X205710000Y-126764000D02*
X205710000Y-126920000D01*
%TO.C,SW102*%
X251670000Y-53525000D02*
G75*
G02*
X244570000Y-53525000I-3550000J0D01*
G01*
X244570000Y-53525000D02*
G75*
G02*
X251670000Y-53525000I3550000J0D01*
G01*
X254230000Y-59635000D02*
X242010000Y-59635000D01*
X254230000Y-57125000D02*
X254230000Y-59635000D01*
X254230000Y-52225000D02*
X254230000Y-54825000D01*
X254230000Y-47415000D02*
X254230000Y-49925000D01*
X242010000Y-57125000D02*
X242010000Y-59635000D01*
X242010000Y-52225000D02*
X242010000Y-54825000D01*
X242010000Y-47415000D02*
X254230000Y-47415000D01*
X242010000Y-47415000D02*
X242010000Y-49925000D01*
%TO.C,J105*%
X254330000Y-83730000D02*
X254330000Y-91410000D01*
X254330000Y-81130000D02*
X254330000Y-82460000D01*
X253000000Y-81130000D02*
X254330000Y-81130000D01*
X251670000Y-91410000D02*
X254330000Y-91410000D01*
X251670000Y-83730000D02*
X254330000Y-83730000D01*
X251670000Y-83730000D02*
X251670000Y-91410000D01*
%TO.C,J106*%
X182550000Y-74235000D02*
X182550000Y-74355000D01*
X182550000Y-71695000D02*
X182550000Y-73025000D01*
X181220000Y-71695000D02*
X182550000Y-71695000D01*
X179890000Y-74355000D02*
X182550000Y-74355000D01*
X179890000Y-74235000D02*
X179890000Y-74355000D01*
%TO.C,R107*%
X248640000Y-102605000D02*
X246800000Y-102605000D01*
X246800000Y-106445000D01*
X248640000Y-106445000D01*
X248640000Y-102605000D01*
X247720000Y-107395000D02*
X247720000Y-106445000D01*
X247720000Y-101655000D02*
X247720000Y-102605000D01*
%TO.C,J112*%
X262450000Y-132885000D02*
X262450000Y-126315000D01*
X252180000Y-132885000D02*
X262450000Y-132885000D01*
X252180000Y-132885000D02*
X252180000Y-126315000D01*
X252180000Y-126315000D02*
X262450000Y-126315000D01*
X249640000Y-132885000D02*
X246990000Y-132885000D01*
X246990000Y-132885000D02*
X246990000Y-129600000D01*
%TO.C,J101*%
X182683674Y-63560000D02*
X182683674Y-55940000D01*
X182683674Y-55940000D02*
X176713674Y-55940000D01*
X181923674Y-59750000D02*
X181923674Y-61740000D01*
X181923674Y-56700000D02*
X181923674Y-59750000D01*
X178973674Y-63550000D02*
X178973674Y-62800000D01*
X178973674Y-62800000D02*
X180313674Y-62800000D01*
X178973674Y-56700000D02*
X181923674Y-56700000D01*
X178973674Y-55950000D02*
X178973674Y-56700000D01*
X177473674Y-63550000D02*
X177473674Y-61750000D01*
X177473674Y-61750000D02*
X176723674Y-61750000D01*
X177473674Y-60250000D02*
X177473674Y-59250000D01*
X177473674Y-59250000D02*
X176723674Y-59250000D01*
X177473674Y-57750000D02*
X177473674Y-55950000D01*
X177473674Y-55950000D02*
X176723674Y-55950000D01*
X176723674Y-63550000D02*
X177473674Y-63550000D01*
X176723674Y-61750000D02*
X176723674Y-63550000D01*
X176723674Y-60250000D02*
X177473674Y-60250000D01*
X176723674Y-59250000D02*
X176723674Y-60250000D01*
X176723674Y-57750000D02*
X177473674Y-57750000D01*
X176723674Y-55950000D02*
X176723674Y-57750000D01*
X176713674Y-63560000D02*
X182683674Y-63560000D01*
X176713674Y-55940000D02*
X176713674Y-63560000D01*
X176423674Y-63850000D02*
X177673674Y-63850000D01*
X176423674Y-62600000D02*
X176423674Y-63850000D01*
%TO.C,D101*%
X185130000Y-48280000D02*
X194870000Y-48280000D01*
X194870000Y-53720000D01*
X185130000Y-53720000D01*
X185130000Y-48280000D01*
X195780000Y-51000000D02*
X194870000Y-51000000D01*
X186795000Y-48280000D02*
X186795000Y-53720000D01*
X186675000Y-48280000D02*
X186675000Y-53720000D01*
X186555000Y-48280000D02*
X186555000Y-53720000D01*
X184220000Y-51000000D02*
X185130000Y-51000000D01*
%TO.C,R104*%
X232600000Y-50005000D02*
X236440000Y-50005000D01*
X236440000Y-51845000D01*
X232600000Y-51845000D01*
X232600000Y-50005000D01*
X237390000Y-50925000D02*
X236440000Y-50925000D01*
X231650000Y-50925000D02*
X232600000Y-50925000D01*
D14*
%TO.C,K101*%
X223500000Y-116525000D02*
G75*
G02*
X223300000Y-116525000I-100000J0D01*
G01*
X223300000Y-116525000D02*
G75*
G02*
X223500000Y-116525000I100000J0D01*
G01*
D13*
X243500000Y-130325000D02*
X243500000Y-114725000D01*
X243500000Y-114725000D02*
X224300000Y-114725000D01*
X224300000Y-130325000D02*
X243500000Y-130325000D01*
X224300000Y-114725000D02*
X224300000Y-130325000D01*
D12*
%TO.C,J103*%
X200550000Y-114235000D02*
X200550000Y-114355000D01*
X200550000Y-111695000D02*
X200550000Y-113025000D01*
X199220000Y-111695000D02*
X200550000Y-111695000D01*
X197890000Y-114355000D02*
X200550000Y-114355000D01*
X197890000Y-114235000D02*
X197890000Y-114355000D01*
%TO.C,D105*%
X221120000Y-117880000D02*
X218880000Y-117880000D01*
X218880000Y-122120000D01*
X221120000Y-122120000D01*
X221120000Y-117880000D01*
X221120000Y-118720000D02*
X218880000Y-118720000D01*
X221120000Y-118600000D02*
X218880000Y-118600000D01*
X221120000Y-118480000D02*
X218880000Y-118480000D01*
X220000000Y-122770000D02*
X220000000Y-122120000D01*
X220000000Y-117230000D02*
X220000000Y-117880000D01*
%TO.C,D104*%
X184191437Y-128805000D02*
G75*
G02*
X180960000Y-128960516I-1671437J1080000D01*
G01*
X183560961Y-128805000D02*
G75*
G02*
X181479039Y-128805000I-1040961J1080000D01*
G01*
X181479039Y-126645000D02*
G75*
G02*
X183560961Y-126645000I1040961J-1080000D01*
G01*
X180960000Y-126489484D02*
G75*
G02*
X184191437Y-126645000I1560000J-1235516D01*
G01*
X180960000Y-128805000D02*
X180960000Y-128961000D01*
X180960000Y-126489000D02*
X180960000Y-126645000D01*
%TO.C,D102*%
X192591437Y-128805000D02*
G75*
G02*
X189360000Y-128960516I-1671437J1080000D01*
G01*
X191960961Y-128805000D02*
G75*
G02*
X189879039Y-128805000I-1040961J1080000D01*
G01*
X189879039Y-126645000D02*
G75*
G02*
X191960961Y-126645000I1040961J-1080000D01*
G01*
X189360000Y-126489484D02*
G75*
G02*
X192591437Y-126645000I1560000J-1235516D01*
G01*
X189360000Y-128805000D02*
X189360000Y-128961000D01*
X189360000Y-126489000D02*
X189360000Y-126645000D01*
%TO.C,R106*%
X210920000Y-118080000D02*
X209080000Y-118080000D01*
X209080000Y-121920000D01*
X210920000Y-121920000D01*
X210920000Y-118080000D01*
X210000000Y-122870000D02*
X210000000Y-121920000D01*
X210000000Y-117130000D02*
X210000000Y-118080000D01*
%TO.C,R101*%
X188080000Y-121920000D02*
X189920000Y-121920000D01*
X189920000Y-118080000D01*
X188080000Y-118080000D01*
X188080000Y-121920000D01*
X189000000Y-122870000D02*
X189000000Y-121920000D01*
X189000000Y-117130000D02*
X189000000Y-118080000D01*
D14*
%TO.C,U101*%
X217250000Y-71485000D02*
G75*
G02*
X217050000Y-71485000I-100000J0D01*
G01*
X217050000Y-71485000D02*
G75*
G02*
X217250000Y-71485000I100000J0D01*
G01*
D13*
X246230000Y-112475000D02*
X217720000Y-112475000D01*
X246230000Y-61525000D02*
X246230000Y-112475000D01*
X246230000Y-61525000D02*
X246230000Y-112475000D01*
X240780000Y-112475000D02*
X246230000Y-112475000D01*
X235500000Y-61525000D02*
X246230000Y-61525000D01*
X228789000Y-61525000D02*
X235500000Y-61525000D01*
X223090000Y-112475000D02*
X240780000Y-112475000D01*
X217720000Y-112475000D02*
X223090000Y-112475000D01*
X217720000Y-112475000D02*
X217720000Y-61525000D01*
X217720000Y-112475000D02*
X217720000Y-61525000D01*
X217720000Y-61525000D02*
X246230000Y-61525000D01*
X217720000Y-61525000D02*
X228789000Y-61525000D01*
D12*
%TO.C,J102*%
X200550000Y-74235000D02*
X200550000Y-74355000D01*
X200550000Y-71695000D02*
X200550000Y-73025000D01*
X199220000Y-71695000D02*
X200550000Y-71695000D01*
X197890000Y-74355000D02*
X200550000Y-74355000D01*
X197890000Y-74235000D02*
X197890000Y-74355000D01*
%TD*%
M02*
