%TF.GenerationSoftware,KiCad,Pcbnew,9.0.4*%
%TF.CreationDate,2025-11-05T16:33:01+05:30*%
%TF.ProjectId,BikeSSv3,42696b65-5353-4763-932e-6b696361645f,rev?*%
%TF.SameCoordinates,Original*%
%TF.FileFunction,Soldermask,Bot*%
%TF.FilePolarity,Negative*%
%FSLAX46Y46*%
G04 Gerber Fmt 4.6, Leading zero omitted, Abs format (unit mm)*
G04 Created by KiCad (PCBNEW 9.0.4) date 2025-11-05 16:33:01*
%MOMM*%
%LPD*%
G01*
G04 APERTURE LIST*
G04 Aperture macros list*
%AMRoundRect*
0 Rectangle with rounded corners*
0 $1 Rounding radius*
0 $2 $3 $4 $5 $6 $7 $8 $9 X,Y pos of 4 corners*
0 Add a 4 corners polygon primitive as box body*
4,1,4,$2,$3,$4,$5,$6,$7,$8,$9,$2,$3,0*
0 Add four circle primitives for the rounded corners*
1,1,$1+$1,$2,$3*
1,1,$1+$1,$4,$5*
1,1,$1+$1,$6,$7*
1,1,$1+$1,$8,$9*
0 Add four rect primitives between the rounded corners*
20,1,$1+$1,$2,$3,$4,$5,0*
20,1,$1+$1,$4,$5,$6,$7,0*
20,1,$1+$1,$6,$7,$8,$9,0*
20,1,$1+$1,$8,$9,$2,$3,0*%
G04 Aperture macros list end*
%ADD10RoundRect,0.250001X0.949999X0.949999X-0.949999X0.949999X-0.949999X-0.949999X0.949999X-0.949999X0*%
%ADD11C,2.400000*%
%ADD12C,1.700000*%
%ADD13R,1.700000X1.700000*%
%ADD14C,2.600000*%
%ADD15RoundRect,0.650000X0.650000X-0.650000X0.650000X0.650000X-0.650000X0.650000X-0.650000X-0.650000X0*%
%ADD16RoundRect,0.650000X-0.650000X0.650000X-0.650000X-0.650000X0.650000X-0.650000X0.650000X0.650000X0*%
%ADD17O,2.000000X1.700000*%
%ADD18RoundRect,0.250000X0.750000X-0.600000X0.750000X0.600000X-0.750000X0.600000X-0.750000X-0.600000X0*%
%ADD19C,1.552000*%
%ADD20C,1.400000*%
%ADD21C,1.800000*%
%ADD22R,1.800000X1.800000*%
%ADD23C,1.500000*%
%ADD24RoundRect,0.250000X-0.500000X0.500000X-0.500000X-0.500000X0.500000X-0.500000X0.500000X0.500000X0*%
%ADD25O,3.200000X1.900000*%
%ADD26C,2.800000*%
%ADD27R,2.800000X2.800000*%
%ADD28C,1.200000*%
%ADD29C,3.200000*%
%ADD30RoundRect,0.250000X-1.350000X-1.350000X1.350000X-1.350000X1.350000X1.350000X-1.350000X1.350000X0*%
%ADD31C,2.004000*%
%ADD32C,2.154000*%
%ADD33C,1.512000*%
%ADD34C,1.600000*%
%ADD35RoundRect,0.250000X-0.550000X0.550000X-0.550000X-0.550000X0.550000X-0.550000X0.550000X0.550000X0*%
%ADD36C,2.204000*%
%ADD37RoundRect,0.102000X-1.000000X-1.000000X1.000000X-1.000000X1.000000X1.000000X-1.000000X1.000000X0*%
%ADD38C,3.000000*%
G04 APERTURE END LIST*
D10*
%TO.C,C101*%
X194372651Y-62000000D03*
D11*
X186872651Y-62000000D03*
%TD*%
D12*
%TO.C,J109*%
X27750000Y-43580000D03*
X27750000Y-41040000D03*
X27750000Y-38500000D03*
D13*
X27750000Y-35960000D03*
%TD*%
D14*
%TO.C,TP102*%
X101500000Y-30500000D03*
D15*
X101500000Y-37500000D03*
%TD*%
D12*
%TO.C,J110*%
X27725000Y-23445000D03*
X27725000Y-25985000D03*
D13*
X27725000Y-28525000D03*
%TD*%
D14*
%TO.C,TP104*%
X93000000Y-37000000D03*
D16*
X93000000Y-30000000D03*
%TD*%
D14*
%TO.C,TP105*%
X63000000Y-37000000D03*
D16*
X63000000Y-30000000D03*
%TD*%
D17*
%TO.C,J111*%
X118850000Y-32750000D03*
D18*
X118850000Y-35250000D03*
%TD*%
D19*
%TO.C,U102*%
X51990000Y-26290000D03*
X36750000Y-41530000D03*
X36750000Y-38990000D03*
X36750000Y-36450000D03*
X36750000Y-33910000D03*
X36750000Y-31370000D03*
X36750000Y-28830000D03*
X36750000Y-26290000D03*
X51990000Y-23750000D03*
X36750000Y-23750000D03*
X51990000Y-31370000D03*
X51990000Y-28830000D03*
X51990000Y-33910000D03*
X51990000Y-36450000D03*
X51990000Y-38990000D03*
X51990000Y-41530000D03*
%TD*%
D12*
%TO.C,J107*%
X223720000Y-52525000D03*
X221180000Y-52525000D03*
X218640000Y-52525000D03*
D13*
X216100000Y-52525000D03*
%TD*%
D20*
%TO.C,R103*%
X182000000Y-116190000D03*
X182000000Y-123810000D03*
%TD*%
%TO.C,R105*%
X215000000Y-123810000D03*
X215000000Y-116190000D03*
%TD*%
%TO.C,R102*%
X197000000Y-115990000D03*
X197000000Y-123610000D03*
%TD*%
D21*
%TO.C,D103*%
X199590000Y-127525000D03*
D22*
X197050000Y-127525000D03*
%TD*%
D23*
%TO.C,Q101*%
X247180000Y-120065000D03*
X249720000Y-117525000D03*
D24*
X247180000Y-114985000D03*
%TD*%
D12*
%TO.C,J104*%
X206000000Y-107620000D03*
X206000000Y-105080000D03*
X206000000Y-102540000D03*
X206000000Y-100000000D03*
X206000000Y-97460000D03*
X206000000Y-94920000D03*
X206000000Y-92380000D03*
D13*
X206000000Y-89840000D03*
%TD*%
%TO.C,J108*%
X181220000Y-113025000D03*
%TD*%
D21*
%TO.C,D106*%
X212460000Y-128000000D03*
D22*
X215000000Y-128000000D03*
%TD*%
D14*
%TO.C,TP101*%
X206000000Y-73985000D03*
D15*
X206000000Y-79065000D03*
%TD*%
D21*
%TO.C,D107*%
X208540000Y-128000000D03*
D22*
X206000000Y-128000000D03*
%TD*%
D25*
%TO.C,SW102*%
X254370000Y-56025000D03*
X241870000Y-56025000D03*
X254370000Y-51025000D03*
X241870000Y-51025000D03*
%TD*%
D12*
%TO.C,J105*%
X253000000Y-90080000D03*
X253000000Y-87540000D03*
X253000000Y-85000000D03*
D13*
X253000000Y-82460000D03*
%TD*%
%TO.C,J106*%
X181220000Y-73025000D03*
%TD*%
D20*
%TO.C,R107*%
X247720000Y-108335000D03*
X247720000Y-100715000D03*
%TD*%
D26*
%TO.C,J112*%
X259800000Y-129600000D03*
X254720000Y-129600000D03*
D27*
X249640000Y-129600000D03*
%TD*%
D17*
%TO.C,J101*%
X179173674Y-58500000D03*
D18*
X179173674Y-61000000D03*
D28*
X181173674Y-62600000D03*
%TD*%
D29*
%TO.C,D101*%
X197620000Y-51000000D03*
D30*
X182380000Y-51000000D03*
%TD*%
D20*
%TO.C,R104*%
X238330000Y-50925000D03*
X230710000Y-50925000D03*
%TD*%
D31*
%TO.C,K101*%
X240100000Y-128525000D03*
X240100000Y-116525000D03*
D32*
X225900000Y-122645000D03*
D33*
X227900000Y-128525000D03*
X227900000Y-116525000D03*
%TD*%
D13*
%TO.C,J103*%
X199220000Y-113025000D03*
%TD*%
D34*
%TO.C,D105*%
X220000000Y-123810000D03*
D35*
X220000000Y-116190000D03*
%TD*%
D21*
%TO.C,D104*%
X183790000Y-127725000D03*
D22*
X181250000Y-127725000D03*
%TD*%
D21*
%TO.C,D102*%
X192190000Y-127725000D03*
D22*
X189650000Y-127725000D03*
%TD*%
D20*
%TO.C,R106*%
X210000000Y-123810000D03*
X210000000Y-116190000D03*
%TD*%
%TO.C,R101*%
X189000000Y-116190000D03*
X189000000Y-123810000D03*
%TD*%
D36*
%TO.C,U101*%
X244700000Y-71485000D03*
X244700000Y-74025000D03*
X244700000Y-76565000D03*
X244700000Y-79105000D03*
X244700000Y-81645000D03*
X244700000Y-84185000D03*
X244700000Y-86725000D03*
X244700000Y-89265000D03*
X244700000Y-91805000D03*
X244700000Y-94345000D03*
X244700000Y-96885000D03*
X244700000Y-99425000D03*
X244700000Y-101965000D03*
X244700000Y-104505000D03*
X244700000Y-107045000D03*
X219300000Y-107045000D03*
X219300000Y-104505000D03*
X219300000Y-101965000D03*
X219300000Y-99425000D03*
X219300000Y-96885000D03*
X219300000Y-94345000D03*
X219300000Y-91805000D03*
X219300000Y-89265000D03*
X219300000Y-86725000D03*
X219300000Y-84185000D03*
X219300000Y-81645000D03*
X219300000Y-79105000D03*
X219300000Y-76565000D03*
X219300000Y-74025000D03*
D37*
X219300000Y-71485000D03*
D38*
X244230000Y-110475000D03*
X244230000Y-63525000D03*
X219720000Y-110475000D03*
X219720000Y-63525000D03*
%TD*%
D13*
%TO.C,J102*%
X199220000Y-73025000D03*
%TD*%
M02*
