%TF.GenerationSoftware,KiCad,Pcbnew,9.0.4*%
%TF.CreationDate,2025-11-05T16:33:08+05:30*%
%TF.ProjectId,BikeSSv3,42696b65-5353-4763-932e-6b696361645f,rev?*%
%TF.SameCoordinates,Original*%
%TF.FileFunction,Plated,1,2,PTH,Drill*%
%TF.FilePolarity,Positive*%
%FSLAX46Y46*%
G04 Gerber Fmt 4.6, Leading zero omitted, Abs format (unit mm)*
G04 Created by KiCad (PCBNEW 9.0.4) date 2025-11-05 16:33:08*
%MOMM*%
%LPD*%
G01*
G04 APERTURE LIST*
%TA.AperFunction,ViaDrill*%
%ADD10C,0.300000*%
%TD*%
%TA.AperFunction,ComponentDrill*%
%ADD11C,0.700000*%
%TD*%
%TA.AperFunction,ComponentDrill*%
%ADD12C,0.800000*%
%TD*%
%TA.AperFunction,ComponentDrill*%
%ADD13C,0.840000*%
%TD*%
%TA.AperFunction,ComponentDrill*%
%ADD14C,0.900000*%
%TD*%
%TA.AperFunction,ComponentDrill*%
%ADD15C,1.000000*%
%TD*%
%TA.AperFunction,ComponentDrill*%
%ADD16C,1.020000*%
%TD*%
%TA.AperFunction,ComponentDrill*%
%ADD17C,1.200000*%
%TD*%
%TA.AperFunction,ComponentDrill*%
%ADD18C,1.300000*%
%TD*%
%TA.AperFunction,ComponentDrill*%
%ADD19C,1.600000*%
%TD*%
%TA.AperFunction,ComponentDrill*%
%ADD20C,1.750000*%
%TD*%
G04 APERTURE END LIST*
D10*
X34000000Y-35500000D03*
X253000000Y-99000000D03*
D11*
%TO.C,R103*%
X182000000Y-116190000D03*
X182000000Y-123810000D03*
%TO.C,R101*%
X189000000Y-116190000D03*
X189000000Y-123810000D03*
%TO.C,R102*%
X197000000Y-115990000D03*
X197000000Y-123610000D03*
%TO.C,R106*%
X210000000Y-116190000D03*
X210000000Y-123810000D03*
%TO.C,R105*%
X215000000Y-116190000D03*
X215000000Y-123810000D03*
%TO.C,R104*%
X230710000Y-50925000D03*
X238330000Y-50925000D03*
%TO.C,R107*%
X247720000Y-100715000D03*
X247720000Y-108335000D03*
D12*
%TO.C,D105*%
X220000000Y-116190000D03*
X220000000Y-123810000D03*
%TO.C,K101*%
X227900000Y-116525000D03*
X227900000Y-128525000D03*
%TO.C,Q101*%
X247180000Y-114985000D03*
X247180000Y-120065000D03*
X249720000Y-117525000D03*
D13*
%TO.C,U102*%
X36750000Y-23750000D03*
X36750000Y-26290000D03*
X36750000Y-28830000D03*
X36750000Y-31370000D03*
X36750000Y-33910000D03*
X36750000Y-36450000D03*
X36750000Y-38990000D03*
X36750000Y-41530000D03*
X51990000Y-23750000D03*
X51990000Y-26290000D03*
X51990000Y-28830000D03*
X51990000Y-31370000D03*
X51990000Y-33910000D03*
X51990000Y-36450000D03*
X51990000Y-38990000D03*
X51990000Y-41530000D03*
D14*
%TO.C,D104*%
X181250000Y-127725000D03*
X183790000Y-127725000D03*
%TO.C,D102*%
X189650000Y-127725000D03*
X192190000Y-127725000D03*
%TO.C,D103*%
X197050000Y-127525000D03*
X199590000Y-127525000D03*
%TO.C,D107*%
X206000000Y-128000000D03*
X208540000Y-128000000D03*
%TO.C,D106*%
X212460000Y-128000000D03*
X215000000Y-128000000D03*
D15*
%TO.C,J110*%
X27725000Y-23445000D03*
X27725000Y-25985000D03*
X27725000Y-28525000D03*
%TO.C,J109*%
X27750000Y-35960000D03*
X27750000Y-38500000D03*
X27750000Y-41040000D03*
X27750000Y-43580000D03*
%TO.C,J111*%
X118850000Y-32750000D03*
X118850000Y-35250000D03*
%TO.C,J101*%
X179173674Y-58500000D03*
X179173674Y-61000000D03*
%TO.C,J106*%
X181220000Y-73025000D03*
%TO.C,J108*%
X181220000Y-113025000D03*
%TO.C,J102*%
X199220000Y-73025000D03*
%TO.C,J103*%
X199220000Y-113025000D03*
%TO.C,J104*%
X206000000Y-89840000D03*
X206000000Y-92380000D03*
X206000000Y-94920000D03*
X206000000Y-97460000D03*
X206000000Y-100000000D03*
X206000000Y-102540000D03*
X206000000Y-105080000D03*
X206000000Y-107620000D03*
%TO.C,J107*%
X216100000Y-52525000D03*
X218640000Y-52525000D03*
X221180000Y-52525000D03*
X223720000Y-52525000D03*
%TO.C,J105*%
X253000000Y-82460000D03*
X253000000Y-85000000D03*
X253000000Y-87540000D03*
X253000000Y-90080000D03*
D16*
%TO.C,U101*%
X219300000Y-71485000D03*
X219300000Y-74025000D03*
X219300000Y-76565000D03*
X219300000Y-79105000D03*
X219300000Y-81645000D03*
X219300000Y-84185000D03*
X219300000Y-86725000D03*
X219300000Y-89265000D03*
X219300000Y-91805000D03*
X219300000Y-94345000D03*
X219300000Y-96885000D03*
X219300000Y-99425000D03*
X219300000Y-101965000D03*
X219300000Y-104505000D03*
X219300000Y-107045000D03*
X244700000Y-71485000D03*
X244700000Y-74025000D03*
X244700000Y-76565000D03*
X244700000Y-79105000D03*
X244700000Y-81645000D03*
X244700000Y-84185000D03*
X244700000Y-86725000D03*
X244700000Y-89265000D03*
X244700000Y-91805000D03*
X244700000Y-94345000D03*
X244700000Y-96885000D03*
X244700000Y-99425000D03*
X244700000Y-101965000D03*
X244700000Y-104505000D03*
X244700000Y-107045000D03*
D17*
%TO.C,C101*%
X186872651Y-62000000D03*
X194372651Y-62000000D03*
%TO.C,K101*%
X240100000Y-116525000D03*
X240100000Y-128525000D03*
D18*
%TO.C,TP105*%
X63000000Y-30000000D03*
X63000000Y-37000000D03*
%TO.C,TP104*%
X93000000Y-30000000D03*
X93000000Y-37000000D03*
%TO.C,TP102*%
X101500000Y-30500000D03*
X101500000Y-37500000D03*
%TO.C,TP101*%
X206000000Y-73985000D03*
X206000000Y-79065000D03*
%TO.C,K101*%
X225900000Y-122645000D03*
%TO.C,SW102*%
X241870000Y-51025000D03*
X241870000Y-56025000D03*
X254370000Y-51025000D03*
X254370000Y-56025000D03*
D19*
%TO.C,D101*%
X182380000Y-51000000D03*
X197620000Y-51000000D03*
D20*
%TO.C,J112*%
X249640000Y-129600000D03*
X254720000Y-129600000D03*
X259800000Y-129600000D03*
M02*
