%TF.GenerationSoftware,KiCad,Pcbnew,9.0.4*%
%TF.CreationDate,2025-11-05T16:33:01+05:30*%
%TF.ProjectId,BikeSSv3,42696b65-5353-4763-932e-6b696361645f,rev?*%
%TF.SameCoordinates,Original*%
%TF.FileFunction,Copper,L2,Bot*%
%TF.FilePolarity,Positive*%
%FSLAX46Y46*%
G04 Gerber Fmt 4.6, Leading zero omitted, Abs format (unit mm)*
G04 Created by KiCad (PCBNEW 9.0.4) date 2025-11-05 16:33:01*
%MOMM*%
%LPD*%
G01*
G04 APERTURE LIST*
G04 Aperture macros list*
%AMRoundRect*
0 Rectangle with rounded corners*
0 $1 Rounding radius*
0 $2 $3 $4 $5 $6 $7 $8 $9 X,Y pos of 4 corners*
0 Add a 4 corners polygon primitive as box body*
4,1,4,$2,$3,$4,$5,$6,$7,$8,$9,$2,$3,0*
0 Add four circle primitives for the rounded corners*
1,1,$1+$1,$2,$3*
1,1,$1+$1,$4,$5*
1,1,$1+$1,$6,$7*
1,1,$1+$1,$8,$9*
0 Add four rect primitives between the rounded corners*
20,1,$1+$1,$2,$3,$4,$5,0*
20,1,$1+$1,$4,$5,$6,$7,0*
20,1,$1+$1,$6,$7,$8,$9,0*
20,1,$1+$1,$8,$9,$2,$3,0*%
G04 Aperture macros list end*
%TA.AperFunction,ComponentPad*%
%ADD10RoundRect,0.250001X0.949999X0.949999X-0.949999X0.949999X-0.949999X-0.949999X0.949999X-0.949999X0*%
%TD*%
%TA.AperFunction,ComponentPad*%
%ADD11C,2.400000*%
%TD*%
%TA.AperFunction,ComponentPad*%
%ADD12C,1.700000*%
%TD*%
%TA.AperFunction,ComponentPad*%
%ADD13R,1.700000X1.700000*%
%TD*%
%TA.AperFunction,ComponentPad*%
%ADD14C,2.600000*%
%TD*%
%TA.AperFunction,ComponentPad*%
%ADD15RoundRect,0.650000X0.650000X-0.650000X0.650000X0.650000X-0.650000X0.650000X-0.650000X-0.650000X0*%
%TD*%
%TA.AperFunction,ComponentPad*%
%ADD16RoundRect,0.650000X-0.650000X0.650000X-0.650000X-0.650000X0.650000X-0.650000X0.650000X0.650000X0*%
%TD*%
%TA.AperFunction,ComponentPad*%
%ADD17O,2.000000X1.700000*%
%TD*%
%TA.AperFunction,ComponentPad*%
%ADD18RoundRect,0.250000X0.750000X-0.600000X0.750000X0.600000X-0.750000X0.600000X-0.750000X-0.600000X0*%
%TD*%
%TA.AperFunction,ComponentPad*%
%ADD19C,1.348000*%
%TD*%
%TA.AperFunction,ComponentPad*%
%ADD20C,1.400000*%
%TD*%
%TA.AperFunction,ComponentPad*%
%ADD21C,1.800000*%
%TD*%
%TA.AperFunction,ComponentPad*%
%ADD22R,1.800000X1.800000*%
%TD*%
%TA.AperFunction,ComponentPad*%
%ADD23C,1.500000*%
%TD*%
%TA.AperFunction,ComponentPad*%
%ADD24RoundRect,0.250000X-0.500000X0.500000X-0.500000X-0.500000X0.500000X-0.500000X0.500000X0.500000X0*%
%TD*%
%TA.AperFunction,ComponentPad*%
%ADD25O,3.200000X1.900000*%
%TD*%
%TA.AperFunction,ComponentPad*%
%ADD26C,2.800000*%
%TD*%
%TA.AperFunction,ComponentPad*%
%ADD27R,2.800000X2.800000*%
%TD*%
%TA.AperFunction,ComponentPad*%
%ADD28C,3.200000*%
%TD*%
%TA.AperFunction,ComponentPad*%
%ADD29RoundRect,0.250000X-1.350000X-1.350000X1.350000X-1.350000X1.350000X1.350000X-1.350000X1.350000X0*%
%TD*%
%TA.AperFunction,ComponentPad*%
%ADD30C,1.950000*%
%TD*%
%TA.AperFunction,ComponentPad*%
%ADD31C,1.308000*%
%TD*%
%TA.AperFunction,ComponentPad*%
%ADD32C,1.600000*%
%TD*%
%TA.AperFunction,ComponentPad*%
%ADD33RoundRect,0.250000X-0.550000X0.550000X-0.550000X-0.550000X0.550000X-0.550000X0.550000X0.550000X0*%
%TD*%
%TA.AperFunction,ComponentPad*%
%ADD34C,2.000000*%
%TD*%
%TA.AperFunction,ComponentPad*%
%ADD35R,2.000000X2.000000*%
%TD*%
%TA.AperFunction,ViaPad*%
%ADD36C,0.600000*%
%TD*%
%TA.AperFunction,Conductor*%
%ADD37C,0.200000*%
%TD*%
%TA.AperFunction,Conductor*%
%ADD38C,0.250000*%
%TD*%
G04 APERTURE END LIST*
D10*
%TO.P,C101,1*%
%TO.N,/12V+ DO*%
X194372651Y-62000000D03*
D11*
%TO.P,C101,2*%
%TO.N,/12V-*%
X186872651Y-62000000D03*
%TD*%
D12*
%TO.P,J109,4,Pin_4*%
%TO.N,/5*%
X27750000Y-43580000D03*
%TO.P,J109,3,Pin_3*%
%TO.N,unconnected-(J109-Pin_3-Pad3)*%
X27750000Y-41040000D03*
%TO.P,J109,2,Pin_2*%
%TO.N,/GNDs*%
X27750000Y-38500000D03*
D13*
%TO.P,J109,1,Pin_1*%
%TO.N,/VCCb*%
X27750000Y-35960000D03*
%TD*%
D14*
%TO.P,TP102,2,2*%
%TO.N,/GNDs*%
X101500000Y-30500000D03*
D15*
%TO.P,TP102,1,1*%
%TO.N,/VCCs*%
X101500000Y-37500000D03*
%TD*%
D12*
%TO.P,J110,3,Pin_3*%
%TO.N,/4*%
X27725000Y-23445000D03*
%TO.P,J110,2,Pin_2*%
%TO.N,/3.3V*%
X27725000Y-25985000D03*
D13*
%TO.P,J110,1,Pin_1*%
%TO.N,/GNDs*%
X27725000Y-28525000D03*
%TD*%
D14*
%TO.P,TP104,2,2*%
%TO.N,/GNDs*%
X93000000Y-37000000D03*
D16*
%TO.P,TP104,1,1*%
%TO.N,/VCCs*%
X93000000Y-30000000D03*
%TD*%
D14*
%TO.P,TP105,2,2*%
%TO.N,/GNDs*%
X63000000Y-37000000D03*
D16*
%TO.P,TP105,1,1*%
%TO.N,/VCCb*%
X63000000Y-30000000D03*
%TD*%
D17*
%TO.P,J111,2,Pin_2*%
%TO.N,/GNDs*%
X118850000Y-32750000D03*
D18*
%TO.P,J111,1,Pin_1*%
%TO.N,/VCCs*%
X118850000Y-35250000D03*
%TD*%
D19*
%TO.P,U102,G,GND*%
%TO.N,/GNDs*%
X51990000Y-26290000D03*
%TO.P,U102,21,GPIO21*%
%TO.N,unconnected-(U102-GPIO21-Pad21)*%
X36750000Y-41530000D03*
%TO.P,U102,20,GPIO20*%
%TO.N,unconnected-(U102-GPIO20-Pad20)*%
X36750000Y-38990000D03*
%TO.P,U102,10,GPIO10*%
%TO.N,unconnected-(U102-GPIO10-Pad10)*%
X36750000Y-36450000D03*
%TO.P,U102,9,GPIO9*%
%TO.N,unconnected-(U102-GPIO9-Pad9)*%
X36750000Y-33910000D03*
%TO.P,U102,8,GPIO8*%
%TO.N,unconnected-(U102-GPIO8-Pad8)*%
X36750000Y-31370000D03*
%TO.P,U102,7,GPIO7*%
%TO.N,unconnected-(U102-GPIO7-Pad7)*%
X36750000Y-28830000D03*
%TO.P,U102,6,GPIO6*%
%TO.N,unconnected-(U102-GPIO6-Pad6)*%
X36750000Y-26290000D03*
%TO.P,U102,5V,5V*%
%TO.N,/VCCb*%
X51990000Y-23750000D03*
%TO.P,U102,5,GPIO5*%
%TO.N,/5*%
X36750000Y-23750000D03*
%TO.P,U102,4,GPIO4*%
%TO.N,/4*%
X51990000Y-31370000D03*
%TO.P,U102,3.3,3V3*%
%TO.N,/3.3V*%
X51990000Y-28830000D03*
%TO.P,U102,3,GPIO3*%
%TO.N,unconnected-(U102-GPIO3-Pad3)*%
X51990000Y-33910000D03*
%TO.P,U102,2,GPIO2*%
%TO.N,unconnected-(U102-GPIO2-Pad2)*%
X51990000Y-36450000D03*
%TO.P,U102,1,GPIO1*%
%TO.N,unconnected-(U102-GPIO1-Pad1)*%
X51990000Y-38990000D03*
%TO.P,U102,0,GPIO0*%
%TO.N,unconnected-(U102-GPIO0-Pad0)*%
X51990000Y-41530000D03*
%TD*%
D12*
%TO.P,J107,4,Pin_4*%
%TO.N,D17*%
X223720000Y-52525000D03*
%TO.P,J107,3,Pin_3*%
%TO.N,D16*%
X221180000Y-52525000D03*
%TO.P,J107,2,Pin_2*%
%TO.N,GND*%
X218640000Y-52525000D03*
D13*
%TO.P,J107,1,Pin_1*%
%TO.N,VCC*%
X216100000Y-52525000D03*
%TD*%
D20*
%TO.P,R103,2*%
%TO.N,GND*%
X182000000Y-116190000D03*
%TO.P,R103,1*%
%TO.N,Net-(D104-K)*%
X182000000Y-123810000D03*
%TD*%
%TO.P,R105,2*%
%TO.N,Net-(D106-A)*%
X215000000Y-123810000D03*
%TO.P,R105,1*%
%TO.N,VCC*%
X215000000Y-116190000D03*
%TD*%
%TO.P,R102,2*%
%TO.N,GND*%
X197000000Y-115990000D03*
%TO.P,R102,1*%
%TO.N,Net-(D103-K)*%
X197000000Y-123610000D03*
%TD*%
D21*
%TO.P,D103,2,A*%
%TO.N,/D33*%
X199590000Y-127525000D03*
D22*
%TO.P,D103,1,K*%
%TO.N,Net-(D103-K)*%
X197050000Y-127525000D03*
%TD*%
D23*
%TO.P,Q101,3,E*%
%TO.N,GND*%
X247180000Y-120065000D03*
%TO.P,Q101,2,B*%
%TO.N,Net-(Q101-B)*%
X249720000Y-117525000D03*
D24*
%TO.P,Q101,1,C*%
%TO.N,Net-(D105-A)*%
X247180000Y-114985000D03*
%TD*%
D12*
%TO.P,J104,8,Pin_8*%
%TO.N,unconnected-(J104-Pin_8-Pad8)*%
X206000000Y-107620000D03*
%TO.P,J104,7,Pin_7*%
%TO.N,GND*%
X206000000Y-105080000D03*
%TO.P,J104,6,Pin_6*%
%TO.N,unconnected-(J104-Pin_6-Pad6)*%
X206000000Y-102540000D03*
%TO.P,J104,5,Pin_5*%
%TO.N,unconnected-(J104-Pin_5-Pad5)*%
X206000000Y-100000000D03*
%TO.P,J104,4,Pin_4*%
%TO.N,D21*%
X206000000Y-97460000D03*
%TO.P,J104,3,Pin_3*%
%TO.N,D22*%
X206000000Y-94920000D03*
%TO.P,J104,2,Pin_2*%
%TO.N,GND*%
X206000000Y-92380000D03*
D13*
%TO.P,J104,1,Pin_1*%
%TO.N,VCC*%
X206000000Y-89840000D03*
%TD*%
%TO.P,J108,1,Pin_1*%
%TO.N,GND*%
X181220000Y-113025000D03*
%TD*%
D21*
%TO.P,D106,2,A*%
%TO.N,Net-(D106-A)*%
X212460000Y-128000000D03*
D22*
%TO.P,D106,1,K*%
%TO.N,Net-(D105-A)*%
X215000000Y-128000000D03*
%TD*%
D14*
%TO.P,TP101,2,2*%
%TO.N,GND*%
X206000000Y-73985000D03*
D15*
%TO.P,TP101,1,1*%
%TO.N,VCC*%
X206000000Y-79065000D03*
%TD*%
D21*
%TO.P,D107,2,A*%
%TO.N,Net-(D107-A)*%
X208540000Y-128000000D03*
D22*
%TO.P,D107,1,K*%
%TO.N,GND*%
X206000000Y-128000000D03*
%TD*%
D25*
%TO.P,SW102,2,2*%
%TO.N,/D12*%
X254370000Y-56025000D03*
X241870000Y-56025000D03*
%TO.P,SW102,1,1*%
%TO.N,Net-(R104-Pad2)*%
X254370000Y-51025000D03*
X241870000Y-51025000D03*
%TD*%
D12*
%TO.P,J105,4,Pin_4*%
%TO.N,VCC*%
X253000000Y-90080000D03*
%TO.P,J105,3,Pin_3*%
%TO.N,D25*%
X253000000Y-87540000D03*
%TO.P,J105,2,Pin_2*%
%TO.N,D26*%
X253000000Y-85000000D03*
D13*
%TO.P,J105,1,Pin_1*%
%TO.N,GND*%
X253000000Y-82460000D03*
%TD*%
%TO.P,J106,1,Pin_1*%
%TO.N,/12V-*%
X181220000Y-73025000D03*
%TD*%
D20*
%TO.P,R107,2*%
%TO.N,Net-(Q101-B)*%
X247720000Y-108335000D03*
%TO.P,R107,1*%
%TO.N,D14*%
X247720000Y-100715000D03*
%TD*%
D26*
%TO.P,J112,3,Pin_3*%
%TO.N,/NC*%
X259800000Y-129600000D03*
%TO.P,J112,2,Pin_2*%
%TO.N,/COM*%
X254720000Y-129600000D03*
D27*
%TO.P,J112,1,Pin_1*%
%TO.N,/NO*%
X249640000Y-129600000D03*
%TD*%
D17*
%TO.P,J101,2,Pin_2*%
%TO.N,/12V+DI*%
X179173674Y-58500000D03*
D18*
%TO.P,J101,1,Pin_1*%
%TO.N,/12V-*%
X179173674Y-61000000D03*
%TD*%
D28*
%TO.P,D101,2,A*%
%TO.N,/12V+ DO*%
X197620000Y-51000000D03*
D29*
%TO.P,D101,1,K*%
%TO.N,/12V+DI*%
X182380000Y-51000000D03*
%TD*%
D20*
%TO.P,R104,2*%
%TO.N,Net-(R104-Pad2)*%
X238330000Y-50925000D03*
%TO.P,R104,1*%
%TO.N,GND*%
X230710000Y-50925000D03*
%TD*%
D21*
%TO.P,K101,NO*%
%TO.N,/NO*%
X240100000Y-128525000D03*
%TO.P,K101,NC*%
%TO.N,/NC*%
X240100000Y-116525000D03*
D30*
%TO.P,K101,COM*%
%TO.N,/COM*%
X225900000Y-122645000D03*
D31*
%TO.P,K101,COIL2*%
%TO.N,Net-(D105-A)*%
X227900000Y-128525000D03*
%TO.P,K101,COIL1*%
%TO.N,VCC*%
X227900000Y-116525000D03*
%TD*%
D13*
%TO.P,J103,1,Pin_1*%
%TO.N,VCC*%
X199220000Y-113025000D03*
%TD*%
D32*
%TO.P,D105,2,A*%
%TO.N,Net-(D105-A)*%
X220000000Y-123810000D03*
D33*
%TO.P,D105,1,K*%
%TO.N,VCC*%
X220000000Y-116190000D03*
%TD*%
D21*
%TO.P,D104,2,A*%
%TO.N,/D13*%
X183790000Y-127725000D03*
D22*
%TO.P,D104,1,K*%
%TO.N,Net-(D104-K)*%
X181250000Y-127725000D03*
%TD*%
D21*
%TO.P,D102,2,A*%
%TO.N,/D27*%
X192190000Y-127725000D03*
D22*
%TO.P,D102,1,K*%
%TO.N,Net-(D102-K)*%
X189650000Y-127725000D03*
%TD*%
D20*
%TO.P,R106,2*%
%TO.N,Net-(D107-A)*%
X210000000Y-123810000D03*
%TO.P,R106,1*%
%TO.N,VCC*%
X210000000Y-116190000D03*
%TD*%
%TO.P,R101,2*%
%TO.N,GND*%
X189000000Y-116190000D03*
%TO.P,R101,1*%
%TO.N,Net-(D102-K)*%
X189000000Y-123810000D03*
%TD*%
D34*
%TO.P,U101,30,VIN*%
%TO.N,VCC*%
X244700000Y-71485000D03*
%TO.P,U101,29,GND*%
%TO.N,GND*%
X244700000Y-74025000D03*
%TO.P,U101,28,D13*%
%TO.N,/D13*%
X244700000Y-76565000D03*
%TO.P,U101,27,D12*%
%TO.N,/D12*%
X244700000Y-79105000D03*
%TO.P,U101,26,D14*%
%TO.N,D14*%
X244700000Y-81645000D03*
%TO.P,U101,25,D27*%
%TO.N,/D27*%
X244700000Y-84185000D03*
%TO.P,U101,24,D26*%
%TO.N,D26*%
X244700000Y-86725000D03*
%TO.P,U101,23,D25*%
%TO.N,D25*%
X244700000Y-89265000D03*
%TO.P,U101,22,D33*%
%TO.N,/D33*%
X244700000Y-91805000D03*
%TO.P,U101,21,D32*%
%TO.N,unconnected-(U101-D32-Pad21)*%
X244700000Y-94345000D03*
%TO.P,U101,20,D35*%
%TO.N,unconnected-(U101-D35-Pad20)*%
X244700000Y-96885000D03*
%TO.P,U101,19,D34*%
%TO.N,unconnected-(U101-D34-Pad19)*%
X244700000Y-99425000D03*
%TO.P,U101,18,VN*%
%TO.N,unconnected-(U101-VN-Pad18)*%
X244700000Y-101965000D03*
%TO.P,U101,17,VP*%
%TO.N,unconnected-(U101-VP-Pad17)*%
X244700000Y-104505000D03*
%TO.P,U101,16,EN*%
%TO.N,unconnected-(U101-EN-Pad16)*%
X244700000Y-107045000D03*
%TO.P,U101,15,D23*%
%TO.N,D21*%
X219300000Y-107045000D03*
%TO.P,U101,14,D22*%
%TO.N,D22*%
X219300000Y-104505000D03*
%TO.P,U101,13,TX0*%
%TO.N,unconnected-(U101-TX0-Pad13)*%
X219300000Y-101965000D03*
%TO.P,U101,12,RX0*%
%TO.N,unconnected-(U101-RX0-Pad12)*%
X219300000Y-99425000D03*
%TO.P,U101,11,D21*%
%TO.N,unconnected-(U101-D21-Pad11)*%
X219300000Y-96885000D03*
%TO.P,U101,10,D19*%
%TO.N,unconnected-(U101-D19-Pad10)*%
X219300000Y-94345000D03*
%TO.P,U101,9,D18*%
%TO.N,unconnected-(U101-D18-Pad9)*%
X219300000Y-91805000D03*
%TO.P,U101,8,D5*%
%TO.N,unconnected-(U101-D5-Pad8)*%
X219300000Y-89265000D03*
%TO.P,U101,7,TX2*%
%TO.N,D17*%
X219300000Y-86725000D03*
%TO.P,U101,6,RX2*%
%TO.N,D16*%
X219300000Y-84185000D03*
%TO.P,U101,5,D4*%
%TO.N,unconnected-(U101-D4-Pad5)*%
X219300000Y-81645000D03*
%TO.P,U101,4,D2*%
%TO.N,unconnected-(U101-D2-Pad4)*%
X219300000Y-79105000D03*
%TO.P,U101,3,D15*%
%TO.N,unconnected-(U101-D15-Pad3)*%
X219300000Y-76565000D03*
%TO.P,U101,2,GND*%
%TO.N,GND*%
X219300000Y-74025000D03*
D35*
%TO.P,U101,1,3V3*%
%TO.N,unconnected-(U101-3V3-Pad1)*%
X219300000Y-71485000D03*
%TD*%
D13*
%TO.P,J102,1,Pin_1*%
%TO.N,/12V+ DO*%
X199220000Y-73025000D03*
%TD*%
D36*
%TO.N,/D13*%
X253000000Y-99000000D03*
%TO.N,/4*%
X34000000Y-35500000D03*
%TD*%
D37*
%TO.N,/D13*%
X249000000Y-80865000D02*
X244700000Y-76565000D01*
X249000000Y-95000000D02*
X249000000Y-80865000D01*
X253000000Y-99000000D02*
X249000000Y-95000000D01*
%TO.N,/D27*%
X242000000Y-84000000D02*
X242185000Y-84185000D01*
X222000000Y-104000000D02*
X242000000Y-84000000D01*
X222000000Y-114000000D02*
X222000000Y-104000000D01*
X192190000Y-126452208D02*
X204642208Y-114000000D01*
X204642208Y-114000000D02*
X222000000Y-114000000D01*
X192190000Y-127725000D02*
X192190000Y-126452208D01*
X242185000Y-84185000D02*
X244700000Y-84185000D01*
%TO.N,/D33*%
X238000000Y-114000000D02*
X242000000Y-114000000D01*
X242000000Y-94505000D02*
X244700000Y-91805000D01*
X232000000Y-120000000D02*
X238000000Y-114000000D01*
X207000000Y-120000000D02*
X232000000Y-120000000D01*
X242000000Y-114000000D02*
X242000000Y-94505000D01*
X207000000Y-120115000D02*
X207000000Y-120000000D01*
X199590000Y-127525000D02*
X207000000Y-120115000D01*
%TO.N,/NO*%
X249165000Y-128525000D02*
X249640000Y-129000000D01*
X240100000Y-128525000D02*
X249165000Y-128525000D01*
%TO.N,/COM*%
X247000000Y-126000000D02*
X251720000Y-126000000D01*
X251720000Y-126000000D02*
X254720000Y-129000000D01*
X243645000Y-122645000D02*
X247000000Y-126000000D01*
X225900000Y-122645000D02*
X243645000Y-122645000D01*
%TO.N,/NC*%
X259800000Y-125800000D02*
X259800000Y-129000000D01*
X248575000Y-125000000D02*
X259000000Y-125000000D01*
X240100000Y-116525000D02*
X248575000Y-125000000D01*
X259000000Y-125000000D02*
X259800000Y-125800000D01*
%TO.N,/VCCs*%
X118500000Y-35000000D02*
X116000000Y-37500000D01*
X116000000Y-37500000D02*
X101500000Y-37500000D01*
%TO.N,/4*%
X34000000Y-35500000D02*
X34000000Y-23500000D01*
X33445000Y-23445000D02*
X27725000Y-23445000D01*
%TO.N,/VCCs*%
X118750000Y-35250000D02*
X118500000Y-35000000D01*
X118850000Y-35250000D02*
X118750000Y-35250000D01*
%TO.N,/4*%
X34000000Y-23500000D02*
X33500000Y-23500000D01*
%TO.N,/VCCb*%
X45500000Y-43500000D02*
X35290000Y-43500000D01*
X45500000Y-30240000D02*
X45500000Y-43500000D01*
X35290000Y-43500000D02*
X27750000Y-35960000D01*
%TO.N,/4*%
X33500000Y-23500000D02*
X33445000Y-23445000D01*
%TO.N,/VCCb*%
X51990000Y-23750000D02*
X45500000Y-30240000D01*
D38*
%TO.N,Net-(R104-Pad2)*%
X241770000Y-50925000D02*
X241870000Y-51025000D01*
%TD*%
%TA.AperFunction,Conductor*%
%TO.N,VCC*%
G36*
X263442539Y-43725185D02*
G01*
X263488294Y-43777989D01*
X263499500Y-43829500D01*
X263499500Y-132375500D01*
X263479815Y-132442539D01*
X263427011Y-132488294D01*
X263375500Y-132499500D01*
X176724500Y-132499500D01*
X176657461Y-132479815D01*
X176611706Y-132427011D01*
X176600500Y-132375500D01*
X176600500Y-126777135D01*
X179849500Y-126777135D01*
X179849500Y-128672870D01*
X179849501Y-128672876D01*
X179855908Y-128732483D01*
X179906202Y-128867328D01*
X179906206Y-128867335D01*
X179992452Y-128982544D01*
X179992455Y-128982547D01*
X180107664Y-129068793D01*
X180107671Y-129068797D01*
X180242517Y-129119091D01*
X180242516Y-129119091D01*
X180249444Y-129119835D01*
X180302127Y-129125500D01*
X182197872Y-129125499D01*
X182257483Y-129119091D01*
X182392331Y-129068796D01*
X182507546Y-128982546D01*
X182593796Y-128867331D01*
X182599159Y-128852952D01*
X182623601Y-128787420D01*
X182665471Y-128731486D01*
X182730936Y-128707068D01*
X182799209Y-128721919D01*
X182827464Y-128743071D01*
X182877636Y-128793243D01*
X182877641Y-128793247D01*
X182981628Y-128868797D01*
X183055978Y-128922815D01*
X183177209Y-128984586D01*
X183252393Y-129022895D01*
X183252396Y-129022896D01*
X183357221Y-129056955D01*
X183462049Y-129091015D01*
X183679778Y-129125500D01*
X183679779Y-129125500D01*
X183900221Y-129125500D01*
X183900222Y-129125500D01*
X184117951Y-129091015D01*
X184327606Y-129022895D01*
X184524022Y-128922815D01*
X184702365Y-128793242D01*
X184858242Y-128637365D01*
X184987815Y-128459022D01*
X185087895Y-128262606D01*
X185089060Y-128259022D01*
X185118612Y-128168066D01*
X185156015Y-128052951D01*
X185190500Y-127835222D01*
X185190500Y-127614778D01*
X185156015Y-127397049D01*
X185100798Y-127227105D01*
X185087896Y-127187396D01*
X185087895Y-127187393D01*
X185049266Y-127111581D01*
X184987815Y-126990978D01*
X184949020Y-126937581D01*
X184882986Y-126846691D01*
X184858247Y-126812641D01*
X184858243Y-126812636D01*
X184822742Y-126777135D01*
X188249500Y-126777135D01*
X188249500Y-128672870D01*
X188249501Y-128672876D01*
X188255908Y-128732483D01*
X188306202Y-128867328D01*
X188306206Y-128867335D01*
X188392452Y-128982544D01*
X188392455Y-128982547D01*
X188507664Y-129068793D01*
X188507671Y-129068797D01*
X188642517Y-129119091D01*
X188642516Y-129119091D01*
X188649444Y-129119835D01*
X188702127Y-129125500D01*
X190597872Y-129125499D01*
X190657483Y-129119091D01*
X190792331Y-129068796D01*
X190907546Y-128982546D01*
X190993796Y-128867331D01*
X190999159Y-128852952D01*
X191023601Y-128787420D01*
X191065471Y-128731486D01*
X191130936Y-128707068D01*
X191199209Y-128721919D01*
X191227464Y-128743071D01*
X191277636Y-128793243D01*
X191277641Y-128793247D01*
X191381628Y-128868797D01*
X191455978Y-128922815D01*
X191577209Y-128984586D01*
X191652393Y-129022895D01*
X191652396Y-129022896D01*
X191757221Y-129056955D01*
X191862049Y-129091015D01*
X192079778Y-129125500D01*
X192079779Y-129125500D01*
X192300221Y-129125500D01*
X192300222Y-129125500D01*
X192517951Y-129091015D01*
X192727606Y-129022895D01*
X192924022Y-128922815D01*
X193102365Y-128793242D01*
X193258242Y-128637365D01*
X193387815Y-128459022D01*
X193487895Y-128262606D01*
X193489060Y-128259022D01*
X193518612Y-128168066D01*
X193556015Y-128052951D01*
X193590500Y-127835222D01*
X193590500Y-127614778D01*
X193556015Y-127397049D01*
X193500798Y-127227105D01*
X193487896Y-127187396D01*
X193487895Y-127187393D01*
X193449266Y-127111581D01*
X193387815Y-126990978D01*
X193349019Y-126937580D01*
X193258247Y-126812641D01*
X193258243Y-126812636D01*
X193102361Y-126656754D01*
X193064784Y-126629454D01*
X193022118Y-126574125D01*
X193016137Y-126504512D01*
X193048742Y-126442716D01*
X193049911Y-126441530D01*
X195629884Y-123861558D01*
X195691205Y-123828075D01*
X195760897Y-123833059D01*
X195816830Y-123874931D01*
X195835494Y-123910922D01*
X195887454Y-124070836D01*
X195973240Y-124239199D01*
X196084310Y-124392073D01*
X196217927Y-124525690D01*
X196370801Y-124636760D01*
X196450347Y-124677290D01*
X196539163Y-124722545D01*
X196539165Y-124722545D01*
X196539168Y-124722547D01*
X196635497Y-124753846D01*
X196718881Y-124780940D01*
X196905514Y-124810500D01*
X196905519Y-124810500D01*
X197094486Y-124810500D01*
X197281118Y-124780940D01*
X197460832Y-124722547D01*
X197629199Y-124636760D01*
X197782073Y-124525690D01*
X197915690Y-124392073D01*
X198026760Y-124239199D01*
X198112547Y-124070832D01*
X198170940Y-123891118D01*
X198173504Y-123874931D01*
X198200500Y-123704486D01*
X198200500Y-123515513D01*
X198170940Y-123328881D01*
X198143846Y-123245497D01*
X198112547Y-123149168D01*
X198112545Y-123149165D01*
X198112545Y-123149163D01*
X198026759Y-122980800D01*
X198013671Y-122962786D01*
X197915690Y-122827927D01*
X197782073Y-122694310D01*
X197629199Y-122583240D01*
X197460836Y-122497454D01*
X197300922Y-122445494D01*
X197243247Y-122406056D01*
X197216049Y-122341697D01*
X197227964Y-122272851D01*
X197251557Y-122239885D01*
X202293561Y-117197882D01*
X209345669Y-117197882D01*
X209345670Y-117197883D01*
X209371059Y-117216329D01*
X209539362Y-117302085D01*
X209718997Y-117360451D01*
X209905553Y-117390000D01*
X210094447Y-117390000D01*
X210281002Y-117360451D01*
X210460637Y-117302085D01*
X210628937Y-117216331D01*
X210654328Y-117197883D01*
X210654328Y-117197882D01*
X214345669Y-117197882D01*
X214345670Y-117197883D01*
X214371059Y-117216329D01*
X214539362Y-117302085D01*
X214718997Y-117360451D01*
X214905553Y-117390000D01*
X215094447Y-117390000D01*
X215281002Y-117360451D01*
X215460637Y-117302085D01*
X215628937Y-117216331D01*
X215654328Y-117197883D01*
X215654328Y-117197882D01*
X215000001Y-116543554D01*
X215000000Y-116543554D01*
X214345669Y-117197882D01*
X210654328Y-117197882D01*
X210000001Y-116543554D01*
X210000000Y-116543554D01*
X209345669Y-117197882D01*
X202293561Y-117197882D01*
X203395891Y-116095552D01*
X208800000Y-116095552D01*
X208800000Y-116284447D01*
X208829548Y-116471002D01*
X208887914Y-116650637D01*
X208973666Y-116818933D01*
X208992116Y-116844328D01*
X209646446Y-116190000D01*
X209646446Y-116189999D01*
X209600369Y-116143922D01*
X209650000Y-116143922D01*
X209650000Y-116236078D01*
X209673852Y-116325095D01*
X209719930Y-116404905D01*
X209785095Y-116470070D01*
X209864905Y-116516148D01*
X209953922Y-116540000D01*
X210046078Y-116540000D01*
X210135095Y-116516148D01*
X210214905Y-116470070D01*
X210280070Y-116404905D01*
X210326148Y-116325095D01*
X210350000Y-116236078D01*
X210350000Y-116189999D01*
X210353554Y-116189999D01*
X210353554Y-116190000D01*
X211007882Y-116844328D01*
X211007883Y-116844328D01*
X211026331Y-116818937D01*
X211112085Y-116650637D01*
X211170451Y-116471002D01*
X211200000Y-116284447D01*
X211200000Y-116095552D01*
X213800000Y-116095552D01*
X213800000Y-116284447D01*
X213829548Y-116471002D01*
X213887914Y-116650637D01*
X213973666Y-116818933D01*
X213992116Y-116844328D01*
X214646446Y-116190000D01*
X214646446Y-116189999D01*
X214600369Y-116143922D01*
X214650000Y-116143922D01*
X214650000Y-116236078D01*
X214673852Y-116325095D01*
X214719930Y-116404905D01*
X214785095Y-116470070D01*
X214864905Y-116516148D01*
X214953922Y-116540000D01*
X215046078Y-116540000D01*
X215135095Y-116516148D01*
X215214905Y-116470070D01*
X215280070Y-116404905D01*
X215326148Y-116325095D01*
X215350000Y-116236078D01*
X215350000Y-116189999D01*
X215353554Y-116189999D01*
X215353554Y-116190000D01*
X216007882Y-116844328D01*
X216007883Y-116844328D01*
X216026331Y-116818937D01*
X216112085Y-116650637D01*
X216170452Y-116471002D01*
X216186570Y-116369240D01*
X216200000Y-116284447D01*
X216200000Y-116095552D01*
X216170451Y-115908997D01*
X216112085Y-115729362D01*
X216068162Y-115643159D01*
X216041082Y-115590013D01*
X218700000Y-115590013D01*
X218700000Y-115940000D01*
X219684314Y-115940000D01*
X219679920Y-115944394D01*
X219627259Y-116035606D01*
X219600000Y-116137339D01*
X219600000Y-116242661D01*
X219627259Y-116344394D01*
X219679920Y-116435606D01*
X219684314Y-116440000D01*
X218700001Y-116440000D01*
X218700001Y-116789986D01*
X218710494Y-116892697D01*
X218765641Y-117059119D01*
X218765643Y-117059124D01*
X218857684Y-117208345D01*
X218981654Y-117332315D01*
X219130875Y-117424356D01*
X219130880Y-117424358D01*
X219297302Y-117479505D01*
X219297309Y-117479506D01*
X219400019Y-117489999D01*
X219749999Y-117489999D01*
X219750000Y-117489998D01*
X219750000Y-116505686D01*
X219754394Y-116510080D01*
X219845606Y-116562741D01*
X219947339Y-116590000D01*
X220052661Y-116590000D01*
X220154394Y-116562741D01*
X220245606Y-116510080D01*
X220250000Y-116505686D01*
X220250000Y-117489999D01*
X220599972Y-117489999D01*
X220599986Y-117489998D01*
X220702697Y-117479505D01*
X220869119Y-117424358D01*
X220869124Y-117424356D01*
X220994295Y-117347150D01*
X221018345Y-117332315D01*
X221142315Y-117208345D01*
X221234356Y-117059124D01*
X221234358Y-117059119D01*
X221289505Y-116892697D01*
X221289506Y-116892690D01*
X221299999Y-116789986D01*
X221300000Y-116789973D01*
X221300000Y-116440000D01*
X220315686Y-116440000D01*
X220320080Y-116435606D01*
X220320904Y-116434178D01*
X226746000Y-116434178D01*
X226746000Y-116615821D01*
X226774415Y-116795225D01*
X226830548Y-116967984D01*
X226913012Y-117129830D01*
X226913014Y-117129834D01*
X226925048Y-117146395D01*
X226925049Y-117146396D01*
X227500000Y-116571445D01*
X227500000Y-116577661D01*
X227527259Y-116679394D01*
X227579920Y-116770606D01*
X227654394Y-116845080D01*
X227745606Y-116897741D01*
X227847339Y-116925000D01*
X227853554Y-116925000D01*
X227278602Y-117499949D01*
X227278603Y-117499950D01*
X227295165Y-117511985D01*
X227295179Y-117511993D01*
X227457012Y-117594450D01*
X227629774Y-117650584D01*
X227809179Y-117679000D01*
X227990821Y-117679000D01*
X228170225Y-117650584D01*
X228342984Y-117594451D01*
X228504831Y-117511986D01*
X228521396Y-117499949D01*
X227946447Y-116925000D01*
X227952661Y-116925000D01*
X228054394Y-116897741D01*
X228145606Y-116845080D01*
X228220080Y-116770606D01*
X228272741Y-116679394D01*
X228300000Y-116577661D01*
X228300000Y-116571446D01*
X228874949Y-117146395D01*
X228886986Y-117129831D01*
X228969451Y-116967984D01*
X229025584Y-116795225D01*
X229054000Y-116615821D01*
X229054000Y-116434178D01*
X229025584Y-116254774D01*
X228969450Y-116082012D01*
X228886993Y-115920179D01*
X228886985Y-115920165D01*
X228874950Y-115903603D01*
X228874949Y-115903602D01*
X228300000Y-116478552D01*
X228300000Y-116472339D01*
X228272741Y-116370606D01*
X228220080Y-116279394D01*
X228145606Y-116204920D01*
X228054394Y-116152259D01*
X227952661Y-116125000D01*
X227946447Y-116125000D01*
X228521396Y-115550049D01*
X228521395Y-115550048D01*
X228504834Y-115538014D01*
X228504830Y-115538012D01*
X228342984Y-115455548D01*
X228170225Y-115399415D01*
X227990821Y-115371000D01*
X227809179Y-115371000D01*
X227629774Y-115399415D01*
X227457015Y-115455548D01*
X227295170Y-115538012D01*
X227295161Y-115538018D01*
X227278603Y-115550048D01*
X227278602Y-115550049D01*
X227853554Y-116125000D01*
X227847339Y-116125000D01*
X227745606Y-116152259D01*
X227654394Y-116204920D01*
X227579920Y-116279394D01*
X227527259Y-116370606D01*
X227500000Y-116472339D01*
X227500000Y-116478553D01*
X226925049Y-115903602D01*
X226925048Y-115903603D01*
X226913018Y-115920161D01*
X226913012Y-115920170D01*
X226830548Y-116082015D01*
X226774415Y-116254774D01*
X226746000Y-116434178D01*
X220320904Y-116434178D01*
X220372741Y-116344394D01*
X220400000Y-116242661D01*
X220400000Y-116137339D01*
X220372741Y-116035606D01*
X220320080Y-115944394D01*
X220315686Y-115940000D01*
X221299999Y-115940000D01*
X221299999Y-115590028D01*
X221299998Y-115590013D01*
X221289505Y-115487302D01*
X221234358Y-115320880D01*
X221234356Y-115320875D01*
X221142315Y-115171654D01*
X221018345Y-115047684D01*
X220869124Y-114955643D01*
X220869119Y-114955641D01*
X220702697Y-114900494D01*
X220702690Y-114900493D01*
X220599986Y-114890000D01*
X220250000Y-114890000D01*
X220250000Y-115874314D01*
X220245606Y-115869920D01*
X220154394Y-115817259D01*
X220052661Y-115790000D01*
X219947339Y-115790000D01*
X219845606Y-115817259D01*
X219754394Y-115869920D01*
X219750000Y-115874314D01*
X219750000Y-114890000D01*
X219400028Y-114890000D01*
X219400012Y-114890001D01*
X219297302Y-114900494D01*
X219130880Y-114955641D01*
X219130875Y-114955643D01*
X218981654Y-115047684D01*
X218857684Y-115171654D01*
X218765643Y-115320875D01*
X218765641Y-115320880D01*
X218710494Y-115487302D01*
X218710493Y-115487309D01*
X218700000Y-115590013D01*
X216041082Y-115590013D01*
X216026329Y-115561059D01*
X216007883Y-115535670D01*
X216007882Y-115535669D01*
X215353554Y-116189999D01*
X215350000Y-116189999D01*
X215350000Y-116143922D01*
X215326148Y-116054905D01*
X215280070Y-115975095D01*
X215214905Y-115909930D01*
X215135095Y-115863852D01*
X215046078Y-115840000D01*
X214953922Y-115840000D01*
X214864905Y-115863852D01*
X214785095Y-115909930D01*
X214719930Y-115975095D01*
X214673852Y-116054905D01*
X214650000Y-116143922D01*
X214600369Y-116143922D01*
X213992116Y-115535669D01*
X213992116Y-115535670D01*
X213973669Y-115561060D01*
X213887914Y-115729362D01*
X213829548Y-115908997D01*
X213800000Y-116095552D01*
X211200000Y-116095552D01*
X211170451Y-115908997D01*
X211112085Y-115729362D01*
X211026329Y-115561059D01*
X211007883Y-115535670D01*
X211007882Y-115535669D01*
X210353554Y-116189999D01*
X210350000Y-116189999D01*
X210350000Y-116143922D01*
X210326148Y-116054905D01*
X210280070Y-115975095D01*
X210214905Y-115909930D01*
X210135095Y-115863852D01*
X210046078Y-115840000D01*
X209953922Y-115840000D01*
X209864905Y-115863852D01*
X209785095Y-115909930D01*
X209719930Y-115975095D01*
X209673852Y-116054905D01*
X209650000Y-116143922D01*
X209600369Y-116143922D01*
X208992116Y-115535669D01*
X208992116Y-115535670D01*
X208973669Y-115561060D01*
X208887914Y-115729362D01*
X208829548Y-115908997D01*
X208800000Y-116095552D01*
X203395891Y-116095552D01*
X204309327Y-115182116D01*
X209345669Y-115182116D01*
X210000000Y-115836446D01*
X210000001Y-115836446D01*
X210654328Y-115182116D01*
X214345669Y-115182116D01*
X215000000Y-115836446D01*
X215000001Y-115836446D01*
X215654328Y-115182116D01*
X215628933Y-115163666D01*
X215460637Y-115077914D01*
X215281002Y-115019548D01*
X215094447Y-114990000D01*
X214905553Y-114990000D01*
X214718997Y-115019548D01*
X214539362Y-115077914D01*
X214371060Y-115163669D01*
X214345670Y-115182116D01*
X214345669Y-115182116D01*
X210654328Y-115182116D01*
X210628933Y-115163666D01*
X210460637Y-115077914D01*
X210281002Y-115019548D01*
X210094447Y-114990000D01*
X209905553Y-114990000D01*
X209718997Y-115019548D01*
X209539362Y-115077914D01*
X209371060Y-115163669D01*
X209345670Y-115182116D01*
X209345669Y-115182116D01*
X204309327Y-115182116D01*
X204854624Y-114636819D01*
X204915947Y-114603334D01*
X204942305Y-114600500D01*
X222079055Y-114600500D01*
X222079057Y-114600500D01*
X222231784Y-114559577D01*
X222368716Y-114480520D01*
X222480520Y-114368716D01*
X222559577Y-114231784D01*
X222600500Y-114079057D01*
X222600500Y-112475000D01*
X223090000Y-112475000D01*
X240780000Y-112475000D01*
X240780000Y-105985000D01*
X223090000Y-105985000D01*
X223090000Y-112475000D01*
X222600500Y-112475000D01*
X222600500Y-104300096D01*
X222620185Y-104233057D01*
X222636814Y-104212420D01*
X242027414Y-84821819D01*
X242088737Y-84788335D01*
X242115095Y-84785501D01*
X242271654Y-84785501D01*
X242271670Y-84785500D01*
X243245932Y-84785500D01*
X243312971Y-84805185D01*
X243356416Y-84853203D01*
X243416657Y-84971433D01*
X243555483Y-85162510D01*
X243722490Y-85329517D01*
X243757127Y-85354683D01*
X243799792Y-85410013D01*
X243805771Y-85479626D01*
X243773165Y-85541421D01*
X243757130Y-85555315D01*
X243739365Y-85568222D01*
X243722488Y-85580484D01*
X243555485Y-85747487D01*
X243555485Y-85747488D01*
X243555483Y-85747490D01*
X243495862Y-85829550D01*
X243416657Y-85938566D01*
X243309433Y-86149003D01*
X243236446Y-86373631D01*
X243199500Y-86606902D01*
X243199500Y-86843097D01*
X243236446Y-87076368D01*
X243309433Y-87300996D01*
X243416657Y-87511433D01*
X243555483Y-87702510D01*
X243722490Y-87869517D01*
X243757127Y-87894683D01*
X243799792Y-87950013D01*
X243805771Y-88019626D01*
X243773165Y-88081421D01*
X243757130Y-88095315D01*
X243739365Y-88108222D01*
X243722488Y-88120484D01*
X243555485Y-88287487D01*
X243555485Y-88287488D01*
X243555483Y-88287490D01*
X243495862Y-88369550D01*
X243416657Y-88478566D01*
X243309433Y-88689003D01*
X243236446Y-88913631D01*
X243199500Y-89146902D01*
X243199500Y-89383097D01*
X243236446Y-89616368D01*
X243309433Y-89840996D01*
X243407261Y-90032993D01*
X243416657Y-90051433D01*
X243555483Y-90242510D01*
X243722490Y-90409517D01*
X243757127Y-90434683D01*
X243799792Y-90490013D01*
X243805771Y-90559626D01*
X243773165Y-90621421D01*
X243757130Y-90635315D01*
X243739365Y-90648222D01*
X243722488Y-90660484D01*
X243555485Y-90827487D01*
X243555485Y-90827488D01*
X243555483Y-90827490D01*
X243495862Y-90909550D01*
X243416657Y-91018566D01*
X243309433Y-91229003D01*
X243236446Y-91453631D01*
X243199500Y-91686902D01*
X243199500Y-91923097D01*
X243236447Y-92156369D01*
X243236447Y-92156372D01*
X243277450Y-92282564D01*
X243279445Y-92352405D01*
X243247200Y-92408563D01*
X241631286Y-94024478D01*
X241519481Y-94136282D01*
X241519479Y-94136285D01*
X241475661Y-94212182D01*
X241475660Y-94212183D01*
X241440423Y-94273215D01*
X241399499Y-94425943D01*
X241399499Y-94425945D01*
X241399499Y-94594046D01*
X241399500Y-94594059D01*
X241399500Y-113275500D01*
X241379815Y-113342539D01*
X241327011Y-113388294D01*
X241275500Y-113399500D01*
X237920940Y-113399500D01*
X237880019Y-113410464D01*
X237880019Y-113410465D01*
X237842751Y-113420451D01*
X237768214Y-113440423D01*
X237768209Y-113440426D01*
X237631290Y-113519475D01*
X237631282Y-113519481D01*
X237519480Y-113631284D01*
X237519478Y-113631286D01*
X234640685Y-116510080D01*
X231787584Y-119363181D01*
X231726261Y-119396666D01*
X231699903Y-119399500D01*
X206920943Y-119399500D01*
X206768216Y-119440423D01*
X206768209Y-119440426D01*
X206631290Y-119519475D01*
X206631282Y-119519481D01*
X206519481Y-119631282D01*
X206519475Y-119631290D01*
X206440426Y-119768209D01*
X206440421Y-119768220D01*
X206428111Y-119814160D01*
X206396018Y-119869745D01*
X200114202Y-126151561D01*
X200052879Y-126185046D01*
X199988203Y-126181811D01*
X199947901Y-126168716D01*
X199917952Y-126158985D01*
X199809086Y-126141742D01*
X199700222Y-126124500D01*
X199479778Y-126124500D01*
X199407201Y-126135995D01*
X199262047Y-126158985D01*
X199052396Y-126227103D01*
X199052393Y-126227104D01*
X198855974Y-126327187D01*
X198677641Y-126456752D01*
X198677636Y-126456756D01*
X198627463Y-126506929D01*
X198566140Y-126540413D01*
X198496448Y-126535428D01*
X198440515Y-126493557D01*
X198423601Y-126462580D01*
X198393797Y-126382671D01*
X198393793Y-126382664D01*
X198307547Y-126267455D01*
X198307544Y-126267452D01*
X198192335Y-126181206D01*
X198192328Y-126181202D01*
X198057482Y-126130908D01*
X198057483Y-126130908D01*
X197997883Y-126124501D01*
X197997881Y-126124500D01*
X197997873Y-126124500D01*
X197997864Y-126124500D01*
X196102129Y-126124500D01*
X196102123Y-126124501D01*
X196042516Y-126130908D01*
X195907671Y-126181202D01*
X195907664Y-126181206D01*
X195792455Y-126267452D01*
X195792452Y-126267455D01*
X195706206Y-126382664D01*
X195706202Y-126382671D01*
X195655908Y-126517517D01*
X195649501Y-126577116D01*
X195649500Y-126577135D01*
X195649500Y-128472870D01*
X195649501Y-128472876D01*
X195655908Y-128532483D01*
X195706202Y-128667328D01*
X195706206Y-128667335D01*
X195792452Y-128782544D01*
X195792455Y-128782547D01*
X195907664Y-128868793D01*
X195907671Y-128868797D01*
X196042517Y-128919091D01*
X196042516Y-128919091D01*
X196049444Y-128919835D01*
X196102127Y-128925500D01*
X197997872Y-128925499D01*
X198057483Y-128919091D01*
X198192331Y-128868796D01*
X198307546Y-128782546D01*
X198393796Y-128667331D01*
X198412993Y-128615861D01*
X198423601Y-128587420D01*
X198465471Y-128531486D01*
X198530936Y-128507068D01*
X198599209Y-128521919D01*
X198627464Y-128543071D01*
X198677636Y-128593243D01*
X198677641Y-128593247D01*
X198738365Y-128637365D01*
X198855978Y-128722815D01*
X198982771Y-128787420D01*
X199052393Y-128822895D01*
X199052396Y-128822896D01*
X199144898Y-128852951D01*
X199262049Y-128891015D01*
X199479778Y-128925500D01*
X199479779Y-128925500D01*
X199700221Y-128925500D01*
X199700222Y-128925500D01*
X199917951Y-128891015D01*
X200127606Y-128822895D01*
X200324022Y-128722815D01*
X200502365Y-128593242D01*
X200658242Y-128437365D01*
X200787815Y-128259022D01*
X200887895Y-128062606D01*
X200956015Y-127852951D01*
X200990500Y-127635222D01*
X200990500Y-127414778D01*
X200956015Y-127197049D01*
X200933188Y-127126794D01*
X200932753Y-127111581D01*
X200927435Y-127097322D01*
X200931776Y-127077366D01*
X200931193Y-127056953D01*
X200933959Y-127052135D01*
X204599500Y-127052135D01*
X204599500Y-128947870D01*
X204599501Y-128947876D01*
X204605908Y-129007483D01*
X204656202Y-129142328D01*
X204656206Y-129142335D01*
X204742452Y-129257544D01*
X204742455Y-129257547D01*
X204857664Y-129343793D01*
X204857671Y-129343797D01*
X204992517Y-129394091D01*
X204992516Y-129394091D01*
X204999444Y-129394835D01*
X205052127Y-129400500D01*
X206947872Y-129400499D01*
X207007483Y-129394091D01*
X207142331Y-129343796D01*
X207257546Y-129257546D01*
X207343796Y-129142331D01*
X207362936Y-129091014D01*
X207373601Y-129062420D01*
X207415471Y-129006486D01*
X207480936Y-128982068D01*
X207549209Y-128996919D01*
X207577464Y-129018071D01*
X207627636Y-129068243D01*
X207627641Y-129068247D01*
X207783192Y-129181260D01*
X207805978Y-129197815D01*
X207926102Y-129259022D01*
X208002393Y-129297895D01*
X208002396Y-129297896D01*
X208107221Y-129331955D01*
X208212049Y-129366015D01*
X208429778Y-129400500D01*
X208429779Y-129400500D01*
X208650221Y-129400500D01*
X208650222Y-129400500D01*
X208867951Y-129366015D01*
X209077606Y-129297895D01*
X209274022Y-129197815D01*
X209452365Y-129068242D01*
X209608242Y-128912365D01*
X209737815Y-128734022D01*
X209837895Y-128537606D01*
X209906015Y-128327951D01*
X209940500Y-128110222D01*
X209940500Y-127889778D01*
X211059500Y-127889778D01*
X211059500Y-128110222D01*
X211068661Y-128168060D01*
X211093985Y-128327952D01*
X211162103Y-128537603D01*
X211162104Y-128537606D01*
X211212934Y-128637363D01*
X211256473Y-128722812D01*
X211262187Y-128734025D01*
X211391752Y-128912358D01*
X211391756Y-128912363D01*
X211547636Y-129068243D01*
X211547641Y-129068247D01*
X211703192Y-129181260D01*
X211725978Y-129197815D01*
X211846102Y-129259022D01*
X211922393Y-129297895D01*
X211922396Y-129297896D01*
X212027221Y-129331955D01*
X212132049Y-129366015D01*
X212349778Y-129400500D01*
X212349779Y-129400500D01*
X212570221Y-129400500D01*
X212570222Y-129400500D01*
X212787951Y-129366015D01*
X212997606Y-129297895D01*
X213194022Y-129197815D01*
X213372365Y-129068242D01*
X213422536Y-129018070D01*
X213483857Y-128984586D01*
X213553548Y-128989570D01*
X213609482Y-129031441D01*
X213626398Y-129062419D01*
X213656202Y-129142328D01*
X213656206Y-129142335D01*
X213742452Y-129257544D01*
X213742455Y-129257547D01*
X213857664Y-129343793D01*
X213857671Y-129343797D01*
X213992517Y-129394091D01*
X213992516Y-129394091D01*
X213999444Y-129394835D01*
X214052127Y-129400500D01*
X215947872Y-129400499D01*
X216007483Y-129394091D01*
X216142331Y-129343796D01*
X216257546Y-129257546D01*
X216343796Y-129142331D01*
X216394091Y-129007483D01*
X216400500Y-128947873D01*
X216400499Y-128434139D01*
X226745500Y-128434139D01*
X226745500Y-128615861D01*
X226754530Y-128672872D01*
X226773928Y-128795347D01*
X226773928Y-128795350D01*
X226830081Y-128968171D01*
X226830083Y-128968174D01*
X226912583Y-129130090D01*
X227019397Y-129277106D01*
X227147894Y-129405603D01*
X227294910Y-129512417D01*
X227456826Y-129594917D01*
X227456828Y-129594918D01*
X227618029Y-129647294D01*
X227629654Y-129651072D01*
X227809139Y-129679500D01*
X227809140Y-129679500D01*
X227990860Y-129679500D01*
X227990861Y-129679500D01*
X228170346Y-129651072D01*
X228170349Y-129651071D01*
X228170350Y-129651071D01*
X228343171Y-129594918D01*
X228343171Y-129594917D01*
X228343174Y-129594917D01*
X228505090Y-129512417D01*
X228652106Y-129405603D01*
X228780603Y-129277106D01*
X228887417Y-129130090D01*
X228969917Y-128968174D01*
X228976513Y-128947873D01*
X229026071Y-128795350D01*
X229026071Y-128795349D01*
X229026072Y-128795346D01*
X229054500Y-128615861D01*
X229054500Y-128434139D01*
X229051433Y-128414778D01*
X238699500Y-128414778D01*
X238699500Y-128635222D01*
X238704585Y-128667326D01*
X238733985Y-128852952D01*
X238802103Y-129062603D01*
X238802104Y-129062606D01*
X238868649Y-129193204D01*
X238901433Y-129257547D01*
X238902187Y-129259025D01*
X239031752Y-129437358D01*
X239031756Y-129437363D01*
X239187636Y-129593243D01*
X239187641Y-129593247D01*
X239343192Y-129706260D01*
X239365978Y-129722815D01*
X239494375Y-129788237D01*
X239562393Y-129822895D01*
X239562396Y-129822896D01*
X239667221Y-129856955D01*
X239772049Y-129891015D01*
X239989778Y-129925500D01*
X239989779Y-129925500D01*
X240210221Y-129925500D01*
X240210222Y-129925500D01*
X240427951Y-129891015D01*
X240637606Y-129822895D01*
X240834022Y-129722815D01*
X241012365Y-129593242D01*
X241168242Y-129437365D01*
X241297815Y-129259022D01*
X241314581Y-129226117D01*
X241331352Y-129193204D01*
X241379326Y-129142409D01*
X241441836Y-129125500D01*
X247615500Y-129125500D01*
X247682539Y-129145185D01*
X247728294Y-129197989D01*
X247739500Y-129249500D01*
X247739500Y-131047870D01*
X247739501Y-131047876D01*
X247745908Y-131107483D01*
X247796202Y-131242328D01*
X247796206Y-131242335D01*
X247882452Y-131357544D01*
X247882455Y-131357547D01*
X247997664Y-131443793D01*
X247997671Y-131443797D01*
X248132517Y-131494091D01*
X248132516Y-131494091D01*
X248139444Y-131494835D01*
X248192127Y-131500500D01*
X251087872Y-131500499D01*
X251147483Y-131494091D01*
X251282331Y-131443796D01*
X251397546Y-131357546D01*
X251483796Y-131242331D01*
X251534091Y-131107483D01*
X251540500Y-131047873D01*
X251540499Y-128152128D01*
X251534091Y-128092517D01*
X251530104Y-128081828D01*
X251483797Y-127957671D01*
X251483793Y-127957664D01*
X251397547Y-127842455D01*
X251397544Y-127842452D01*
X251282335Y-127756206D01*
X251282328Y-127756202D01*
X251147482Y-127705908D01*
X251147483Y-127705908D01*
X251087883Y-127699501D01*
X251087881Y-127699500D01*
X251087873Y-127699500D01*
X251087864Y-127699500D01*
X248192129Y-127699500D01*
X248192123Y-127699501D01*
X248132516Y-127705908D01*
X247997671Y-127756202D01*
X247997664Y-127756206D01*
X247882457Y-127842451D01*
X247882449Y-127842458D01*
X247858232Y-127874810D01*
X247802299Y-127916682D01*
X247758965Y-127924500D01*
X241441836Y-127924500D01*
X241374797Y-127904815D01*
X241331352Y-127856796D01*
X241297814Y-127790976D01*
X241168247Y-127612641D01*
X241168243Y-127612636D01*
X241012363Y-127456756D01*
X241012358Y-127456752D01*
X240834025Y-127327187D01*
X240834024Y-127327186D01*
X240834022Y-127327185D01*
X240771096Y-127295122D01*
X240637606Y-127227104D01*
X240637603Y-127227103D01*
X240427952Y-127158985D01*
X240319086Y-127141742D01*
X240210222Y-127124500D01*
X239989778Y-127124500D01*
X239917201Y-127135995D01*
X239772047Y-127158985D01*
X239562396Y-127227103D01*
X239562393Y-127227104D01*
X239365974Y-127327187D01*
X239187641Y-127456752D01*
X239187636Y-127456756D01*
X239031756Y-127612636D01*
X239031752Y-127612641D01*
X238902187Y-127790974D01*
X238802104Y-127987393D01*
X238802103Y-127987396D01*
X238733985Y-128197047D01*
X238706592Y-128369999D01*
X238699500Y-128414778D01*
X229051433Y-128414778D01*
X229026072Y-128254654D01*
X229026071Y-128254650D01*
X229026071Y-128254649D01*
X228969918Y-128081828D01*
X228969916Y-128081825D01*
X228960124Y-128062606D01*
X228887417Y-127919910D01*
X228780603Y-127772894D01*
X228652106Y-127644397D01*
X228505090Y-127537583D01*
X228343174Y-127455083D01*
X228343171Y-127455081D01*
X228170348Y-127398928D01*
X228050689Y-127379976D01*
X227990861Y-127370500D01*
X227809139Y-127370500D01*
X227749310Y-127379976D01*
X227629652Y-127398928D01*
X227629649Y-127398928D01*
X227456828Y-127455081D01*
X227456825Y-127455083D01*
X227294909Y-127537583D01*
X227211030Y-127598525D01*
X227147894Y-127644397D01*
X227147892Y-127644399D01*
X227147891Y-127644399D01*
X227019399Y-127772891D01*
X227019399Y-127772892D01*
X227019397Y-127772894D01*
X227004527Y-127793361D01*
X226912583Y-127919909D01*
X226830083Y-128081825D01*
X226830081Y-128081828D01*
X226773928Y-128254649D01*
X226773928Y-128254652D01*
X226746272Y-128429267D01*
X226745500Y-128434139D01*
X216400499Y-128434139D01*
X216400499Y-127987396D01*
X216400499Y-127052129D01*
X216400498Y-127052123D01*
X216400497Y-127052116D01*
X216394091Y-126992517D01*
X216393515Y-126990974D01*
X216343797Y-126857671D01*
X216343793Y-126857664D01*
X216257547Y-126742455D01*
X216257544Y-126742452D01*
X216142335Y-126656206D01*
X216142328Y-126656202D01*
X216007482Y-126605908D01*
X216007483Y-126605908D01*
X215947883Y-126599501D01*
X215947881Y-126599500D01*
X215947873Y-126599500D01*
X215947864Y-126599500D01*
X214052129Y-126599500D01*
X214052123Y-126599501D01*
X213992516Y-126605908D01*
X213857671Y-126656202D01*
X213857664Y-126656206D01*
X213742455Y-126742452D01*
X213742452Y-126742455D01*
X213656206Y-126857664D01*
X213656203Y-126857669D01*
X213626398Y-126937581D01*
X213584526Y-126993514D01*
X213519062Y-127017931D01*
X213450789Y-127003079D01*
X213422535Y-126981928D01*
X213372363Y-126931756D01*
X213372358Y-126931752D01*
X213194025Y-126802187D01*
X213194024Y-126802186D01*
X213194022Y-126802185D01*
X213076791Y-126742452D01*
X212997606Y-126702104D01*
X212997603Y-126702103D01*
X212787952Y-126633985D01*
X212653153Y-126612635D01*
X212570222Y-126599500D01*
X212349778Y-126599500D01*
X212277201Y-126610995D01*
X212132047Y-126633985D01*
X211922396Y-126702103D01*
X211922393Y-126702104D01*
X211725974Y-126802187D01*
X211547641Y-126931752D01*
X211547636Y-126931756D01*
X211391756Y-127087636D01*
X211391752Y-127087641D01*
X211262187Y-127265974D01*
X211162104Y-127462393D01*
X211162103Y-127462396D01*
X211093985Y-127672047D01*
X211077547Y-127775833D01*
X211059500Y-127889778D01*
X209940500Y-127889778D01*
X209906015Y-127672049D01*
X209837895Y-127462394D01*
X209837895Y-127462393D01*
X209791072Y-127370500D01*
X209737815Y-127265978D01*
X209709571Y-127227103D01*
X209608247Y-127087641D01*
X209608243Y-127087636D01*
X209452363Y-126931756D01*
X209452358Y-126931752D01*
X209274025Y-126802187D01*
X209274024Y-126802186D01*
X209274022Y-126802185D01*
X209156791Y-126742452D01*
X209077606Y-126702104D01*
X209077603Y-126702103D01*
X208867952Y-126633985D01*
X208733153Y-126612635D01*
X208650222Y-126599500D01*
X208429778Y-126599500D01*
X208357201Y-126610995D01*
X208212047Y-126633985D01*
X208002396Y-126702103D01*
X208002393Y-126702104D01*
X207805974Y-126802187D01*
X207627641Y-126931752D01*
X207627636Y-126931756D01*
X207577463Y-126981929D01*
X207516140Y-127015413D01*
X207446448Y-127010428D01*
X207390515Y-126968557D01*
X207373601Y-126937580D01*
X207343797Y-126857671D01*
X207343793Y-126857664D01*
X207257547Y-126742455D01*
X207257544Y-126742452D01*
X207142335Y-126656206D01*
X207142328Y-126656202D01*
X207007482Y-126605908D01*
X207007483Y-126605908D01*
X206947883Y-126599501D01*
X206947881Y-126599500D01*
X206947873Y-126599500D01*
X206947864Y-126599500D01*
X205052129Y-126599500D01*
X205052123Y-126599501D01*
X204992516Y-126605908D01*
X204857671Y-126656202D01*
X204857664Y-126656206D01*
X204742455Y-126742452D01*
X204742452Y-126742455D01*
X204656206Y-126857664D01*
X204656202Y-126857671D01*
X204605908Y-126992517D01*
X204599501Y-127052116D01*
X204599501Y-127052123D01*
X204599500Y-127052135D01*
X200933959Y-127052135D01*
X200939281Y-127042866D01*
X200942287Y-127029049D01*
X200963434Y-127000799D01*
X204248721Y-123715513D01*
X208799500Y-123715513D01*
X208799500Y-123904486D01*
X208829059Y-124091118D01*
X208887454Y-124270836D01*
X208949229Y-124392075D01*
X208973240Y-124439199D01*
X209084310Y-124592073D01*
X209217927Y-124725690D01*
X209370801Y-124836760D01*
X209450347Y-124877290D01*
X209539163Y-124922545D01*
X209539165Y-124922545D01*
X209539168Y-124922547D01*
X209635497Y-124953846D01*
X209718881Y-124980940D01*
X209905514Y-125010500D01*
X209905519Y-125010500D01*
X210094486Y-125010500D01*
X210281118Y-124980940D01*
X210460832Y-124922547D01*
X210629199Y-124836760D01*
X210782073Y-124725690D01*
X210915690Y-124592073D01*
X211026760Y-124439199D01*
X211112547Y-124270832D01*
X211170940Y-124091118D01*
X211183408Y-124012398D01*
X211200500Y-123904486D01*
X211200500Y-123715513D01*
X213799500Y-123715513D01*
X213799500Y-123904486D01*
X213829059Y-124091118D01*
X213887454Y-124270836D01*
X213949229Y-124392075D01*
X213973240Y-124439199D01*
X214084310Y-124592073D01*
X214217927Y-124725690D01*
X214370801Y-124836760D01*
X214450347Y-124877290D01*
X214539163Y-124922545D01*
X214539165Y-124922545D01*
X214539168Y-124922547D01*
X214635497Y-124953846D01*
X214718881Y-124980940D01*
X214905514Y-125010500D01*
X214905519Y-125010500D01*
X215094486Y-125010500D01*
X215281118Y-124980940D01*
X215460832Y-124922547D01*
X215629199Y-124836760D01*
X215782073Y-124725690D01*
X215915690Y-124592073D01*
X216026760Y-124439199D01*
X216112547Y-124270832D01*
X216170940Y-124091118D01*
X216183408Y-124012398D01*
X216200500Y-123904486D01*
X216200500Y-123715513D01*
X216199254Y-123707648D01*
X218699500Y-123707648D01*
X218699500Y-123912351D01*
X218731522Y-124114534D01*
X218794781Y-124309223D01*
X218887715Y-124491613D01*
X219008028Y-124657213D01*
X219152786Y-124801971D01*
X219307749Y-124914556D01*
X219318390Y-124922287D01*
X219433503Y-124980940D01*
X219500776Y-125015218D01*
X219500778Y-125015218D01*
X219500781Y-125015220D01*
X219605137Y-125049127D01*
X219695465Y-125078477D01*
X219796557Y-125094488D01*
X219897648Y-125110500D01*
X219897649Y-125110500D01*
X220102351Y-125110500D01*
X220102352Y-125110500D01*
X220304534Y-125078477D01*
X220499219Y-125015220D01*
X220681610Y-124922287D01*
X220799330Y-124836759D01*
X220847213Y-124801971D01*
X220847215Y-124801968D01*
X220847219Y-124801966D01*
X220991966Y-124657219D01*
X220991968Y-124657215D01*
X220991971Y-124657213D01*
X221044732Y-124584590D01*
X221112287Y-124491610D01*
X221205220Y-124309219D01*
X221268477Y-124114534D01*
X221300500Y-123912352D01*
X221300500Y-123707648D01*
X221298013Y-123691943D01*
X221268477Y-123505465D01*
X221239127Y-123415137D01*
X221205220Y-123310781D01*
X221205218Y-123310778D01*
X221205218Y-123310776D01*
X221171503Y-123244607D01*
X221112287Y-123128390D01*
X221104556Y-123117749D01*
X220991971Y-122962786D01*
X220847213Y-122818028D01*
X220681614Y-122697715D01*
X220557526Y-122634489D01*
X220499223Y-122604781D01*
X220304534Y-122541522D01*
X220224652Y-122528870D01*
X224424500Y-122528870D01*
X224424500Y-122761129D01*
X224460831Y-122990514D01*
X224532601Y-123211400D01*
X224638039Y-123418331D01*
X224774551Y-123606224D01*
X224938776Y-123770449D01*
X225126669Y-123906961D01*
X225224436Y-123956776D01*
X225333599Y-124012398D01*
X225333601Y-124012398D01*
X225333604Y-124012400D01*
X225554486Y-124084169D01*
X225672668Y-124102886D01*
X225783871Y-124120500D01*
X225783876Y-124120500D01*
X226016129Y-124120500D01*
X226117502Y-124104443D01*
X226245514Y-124084169D01*
X226466396Y-124012400D01*
X226673331Y-123906961D01*
X226861224Y-123770449D01*
X227025449Y-123606224D01*
X227161961Y-123418331D01*
X227215526Y-123313203D01*
X227263499Y-123262409D01*
X227326010Y-123245500D01*
X243344903Y-123245500D01*
X243411942Y-123265185D01*
X243432583Y-123281818D01*
X246631284Y-126480520D01*
X246631286Y-126480521D01*
X246631290Y-126480524D01*
X246768209Y-126559573D01*
X246768216Y-126559577D01*
X246920943Y-126600501D01*
X246920945Y-126600501D01*
X247086654Y-126600501D01*
X247086670Y-126600500D01*
X251419903Y-126600500D01*
X251486942Y-126620185D01*
X251507584Y-126636819D01*
X253179440Y-128308676D01*
X253212925Y-128369999D01*
X253207941Y-128439691D01*
X253190136Y-128471842D01*
X253136399Y-128541874D01*
X253011837Y-128757623D01*
X253011830Y-128757638D01*
X252916498Y-128987792D01*
X252852017Y-129228438D01*
X252819501Y-129475424D01*
X252819500Y-129475441D01*
X252819500Y-129724558D01*
X252819501Y-129724575D01*
X252852017Y-129971561D01*
X252916498Y-130212207D01*
X253011830Y-130442361D01*
X253011837Y-130442376D01*
X253136400Y-130658126D01*
X253288060Y-130855774D01*
X253288066Y-130855781D01*
X253464218Y-131031933D01*
X253464225Y-131031939D01*
X253661873Y-131183599D01*
X253877623Y-131308162D01*
X253877638Y-131308169D01*
X253976825Y-131349253D01*
X254107793Y-131403502D01*
X254348435Y-131467982D01*
X254595435Y-131500500D01*
X254595442Y-131500500D01*
X254844558Y-131500500D01*
X254844565Y-131500500D01*
X255091565Y-131467982D01*
X255332207Y-131403502D01*
X255562373Y-131308164D01*
X255778127Y-131183599D01*
X255975776Y-131031938D01*
X256151938Y-130855776D01*
X256303599Y-130658127D01*
X256428164Y-130442373D01*
X256523502Y-130212207D01*
X256587982Y-129971565D01*
X256620500Y-129724565D01*
X256620500Y-129475435D01*
X256587982Y-129228435D01*
X256523502Y-128987793D01*
X256451632Y-128814284D01*
X256428169Y-128757638D01*
X256428162Y-128757623D01*
X256303599Y-128541873D01*
X256151939Y-128344225D01*
X256151933Y-128344218D01*
X255975781Y-128168066D01*
X255975774Y-128168060D01*
X255778126Y-128016400D01*
X255562376Y-127891837D01*
X255562361Y-127891830D01*
X255332207Y-127796498D01*
X255244105Y-127772891D01*
X255091565Y-127732018D01*
X255091564Y-127732017D01*
X255091561Y-127732017D01*
X254844575Y-127699501D01*
X254844570Y-127699500D01*
X254844565Y-127699500D01*
X254595435Y-127699500D01*
X254595429Y-127699500D01*
X254595424Y-127699501D01*
X254367369Y-127729525D01*
X254298334Y-127718759D01*
X254263503Y-127694267D01*
X253346352Y-126777116D01*
X252381415Y-125812180D01*
X252347931Y-125750858D01*
X252352915Y-125681166D01*
X252394787Y-125625233D01*
X252460251Y-125600816D01*
X252469097Y-125600500D01*
X258699903Y-125600500D01*
X258766942Y-125620185D01*
X258787584Y-125636819D01*
X259163181Y-126012416D01*
X259196666Y-126073739D01*
X259199500Y-126100097D01*
X259199500Y-127708794D01*
X259179815Y-127775833D01*
X259127011Y-127821588D01*
X259122953Y-127823355D01*
X258957633Y-127891832D01*
X258957623Y-127891837D01*
X258741873Y-128016400D01*
X258544225Y-128168060D01*
X258544218Y-128168066D01*
X258368066Y-128344218D01*
X258368060Y-128344225D01*
X258216400Y-128541873D01*
X258091837Y-128757623D01*
X258091830Y-128757638D01*
X257996498Y-128987792D01*
X257932017Y-129228438D01*
X257899501Y-129475424D01*
X257899500Y-129475441D01*
X257899500Y-129724558D01*
X257899501Y-129724575D01*
X257932017Y-129971561D01*
X257996498Y-130212207D01*
X258091830Y-130442361D01*
X258091837Y-130442376D01*
X258216400Y-130658126D01*
X258368060Y-130855774D01*
X258368066Y-130855781D01*
X258544218Y-131031933D01*
X258544225Y-131031939D01*
X258741873Y-131183599D01*
X258957623Y-131308162D01*
X258957638Y-131308169D01*
X259056825Y-131349253D01*
X259187793Y-131403502D01*
X259428435Y-131467982D01*
X259675435Y-131500500D01*
X259675442Y-131500500D01*
X259924558Y-131500500D01*
X259924565Y-131500500D01*
X260171565Y-131467982D01*
X260412207Y-131403502D01*
X260642373Y-131308164D01*
X260858127Y-131183599D01*
X261055776Y-131031938D01*
X261231938Y-130855776D01*
X261383599Y-130658127D01*
X261508164Y-130442373D01*
X261603502Y-130212207D01*
X261667982Y-129971565D01*
X261700500Y-129724565D01*
X261700500Y-129475435D01*
X261667982Y-129228435D01*
X261603502Y-128987793D01*
X261531632Y-128814284D01*
X261508169Y-128757638D01*
X261508162Y-128757623D01*
X261383599Y-128541873D01*
X261231939Y-128344225D01*
X261231933Y-128344218D01*
X261055781Y-128168066D01*
X261055774Y-128168060D01*
X260858126Y-128016400D01*
X260642376Y-127891837D01*
X260642366Y-127891832D01*
X260477047Y-127823355D01*
X260422644Y-127779514D01*
X260400579Y-127713220D01*
X260400500Y-127708794D01*
X260400500Y-125889059D01*
X260400501Y-125889046D01*
X260400501Y-125720945D01*
X260400501Y-125720943D01*
X260359577Y-125568215D01*
X260308946Y-125480520D01*
X260280520Y-125431284D01*
X260168716Y-125319480D01*
X260168715Y-125319479D01*
X260164385Y-125315149D01*
X260164374Y-125315139D01*
X259487590Y-124638355D01*
X259487588Y-124638352D01*
X259368717Y-124519481D01*
X259368709Y-124519475D01*
X259266560Y-124460500D01*
X259231788Y-124440424D01*
X259231787Y-124440423D01*
X259170693Y-124424053D01*
X259079057Y-124399499D01*
X258920943Y-124399499D01*
X258913347Y-124399499D01*
X258913331Y-124399500D01*
X248875097Y-124399500D01*
X248808058Y-124379815D01*
X248787416Y-124363181D01*
X244390812Y-119966577D01*
X245929500Y-119966577D01*
X245929500Y-120163422D01*
X245960290Y-120357826D01*
X246021117Y-120545029D01*
X246067887Y-120636819D01*
X246110476Y-120720405D01*
X246226172Y-120879646D01*
X246365354Y-121018828D01*
X246524595Y-121134524D01*
X246593240Y-121169500D01*
X246699970Y-121223882D01*
X246699972Y-121223882D01*
X246699975Y-121223884D01*
X246800317Y-121256487D01*
X246887173Y-121284709D01*
X247081578Y-121315500D01*
X247081583Y-121315500D01*
X247278422Y-121315500D01*
X247472826Y-121284709D01*
X247494705Y-121277600D01*
X247660025Y-121223884D01*
X247835405Y-121134524D01*
X247994646Y-121018828D01*
X248133828Y-120879646D01*
X248249524Y-120720405D01*
X248338884Y-120545025D01*
X248399709Y-120357826D01*
X248430500Y-120163422D01*
X248430500Y-119966577D01*
X248399709Y-119772173D01*
X248338882Y-119584970D01*
X248265233Y-119440426D01*
X248249524Y-119409595D01*
X248133828Y-119250354D01*
X247994646Y-119111172D01*
X247835405Y-118995476D01*
X247660029Y-118906117D01*
X247472826Y-118845290D01*
X247278422Y-118814500D01*
X247278417Y-118814500D01*
X247081583Y-118814500D01*
X247081578Y-118814500D01*
X246887173Y-118845290D01*
X246699970Y-118906117D01*
X246524594Y-118995476D01*
X246433741Y-119061485D01*
X246365354Y-119111172D01*
X246365352Y-119111174D01*
X246365351Y-119111174D01*
X246226174Y-119250351D01*
X246226174Y-119250352D01*
X246226172Y-119250354D01*
X246176485Y-119318741D01*
X246110476Y-119409594D01*
X246021117Y-119584970D01*
X245960290Y-119772173D01*
X245929500Y-119966577D01*
X244390812Y-119966577D01*
X241850812Y-117426577D01*
X248469500Y-117426577D01*
X248469500Y-117623422D01*
X248500290Y-117817826D01*
X248561117Y-118005029D01*
X248650476Y-118180405D01*
X248766172Y-118339646D01*
X248905354Y-118478828D01*
X249064595Y-118594524D01*
X249147455Y-118636743D01*
X249239970Y-118683882D01*
X249239972Y-118683882D01*
X249239975Y-118683884D01*
X249340317Y-118716487D01*
X249427173Y-118744709D01*
X249621578Y-118775500D01*
X249621583Y-118775500D01*
X249818422Y-118775500D01*
X250012826Y-118744709D01*
X250200025Y-118683884D01*
X250375405Y-118594524D01*
X250534646Y-118478828D01*
X250673828Y-118339646D01*
X250789524Y-118180405D01*
X250878884Y-118005025D01*
X250939709Y-117817826D01*
X250961697Y-117679000D01*
X250970500Y-117623422D01*
X250970500Y-117426577D01*
X250939709Y-117232173D01*
X250911487Y-117145317D01*
X250878884Y-117044975D01*
X250878882Y-117044972D01*
X250878882Y-117044970D01*
X250807915Y-116905690D01*
X250789524Y-116869595D01*
X250673828Y-116710354D01*
X250534646Y-116571172D01*
X250375405Y-116455476D01*
X250200029Y-116366117D01*
X250012826Y-116305290D01*
X249818422Y-116274500D01*
X249818417Y-116274500D01*
X249621583Y-116274500D01*
X249621578Y-116274500D01*
X249427173Y-116305290D01*
X249239970Y-116366117D01*
X249064594Y-116455476D01*
X248989439Y-116510080D01*
X248905354Y-116571172D01*
X248905352Y-116571174D01*
X248905351Y-116571174D01*
X248766174Y-116710351D01*
X248766174Y-116710352D01*
X248766172Y-116710354D01*
X248722396Y-116770606D01*
X248650476Y-116869594D01*
X248561117Y-117044970D01*
X248500290Y-117232173D01*
X248469500Y-117426577D01*
X241850812Y-117426577D01*
X241473438Y-117049203D01*
X241439953Y-116987880D01*
X241443187Y-116923205D01*
X241466015Y-116852951D01*
X241500500Y-116635222D01*
X241500500Y-116414778D01*
X241466015Y-116197049D01*
X241397895Y-115987394D01*
X241397895Y-115987393D01*
X241338038Y-115869920D01*
X241297815Y-115790978D01*
X241238169Y-115708882D01*
X241168247Y-115612641D01*
X241168243Y-115612636D01*
X241012363Y-115456756D01*
X241012358Y-115456752D01*
X240834025Y-115327187D01*
X240834024Y-115327186D01*
X240834022Y-115327185D01*
X240771096Y-115295122D01*
X240637606Y-115227104D01*
X240637603Y-115227103D01*
X240427952Y-115158985D01*
X240319086Y-115141742D01*
X240210222Y-115124500D01*
X239989778Y-115124500D01*
X239917201Y-115135995D01*
X239772047Y-115158985D01*
X239562396Y-115227103D01*
X239562393Y-115227104D01*
X239365974Y-115327187D01*
X239187641Y-115456752D01*
X239187636Y-115456756D01*
X239031756Y-115612636D01*
X239031752Y-115612641D01*
X238902187Y-115790974D01*
X238802104Y-115987393D01*
X238802103Y-115987396D01*
X238733985Y-116197047D01*
X238706496Y-116370606D01*
X238699500Y-116414778D01*
X238699500Y-116635222D01*
X238711400Y-116710354D01*
X238733985Y-116852952D01*
X238802103Y-117062603D01*
X238802104Y-117062606D01*
X238902187Y-117259025D01*
X239031752Y-117437358D01*
X239031756Y-117437363D01*
X239187636Y-117593243D01*
X239187641Y-117593247D01*
X239229174Y-117623422D01*
X239365978Y-117722815D01*
X239494375Y-117788237D01*
X239562393Y-117822895D01*
X239562396Y-117822896D01*
X239629525Y-117844707D01*
X239772049Y-117891015D01*
X239989778Y-117925500D01*
X239989779Y-117925500D01*
X240210221Y-117925500D01*
X240210222Y-117925500D01*
X240427951Y-117891015D01*
X240498205Y-117868187D01*
X240568044Y-117866192D01*
X240624203Y-117898438D01*
X247913584Y-125187819D01*
X247947069Y-125249142D01*
X247942085Y-125318834D01*
X247900213Y-125374767D01*
X247834749Y-125399184D01*
X247825903Y-125399500D01*
X247300098Y-125399500D01*
X247233059Y-125379815D01*
X247212417Y-125363181D01*
X244132590Y-122283355D01*
X244132588Y-122283352D01*
X244013717Y-122164481D01*
X244013716Y-122164480D01*
X243926904Y-122114360D01*
X243926904Y-122114359D01*
X243926900Y-122114358D01*
X243876785Y-122085423D01*
X243724057Y-122044499D01*
X243565943Y-122044499D01*
X243558347Y-122044499D01*
X243558331Y-122044500D01*
X227326010Y-122044500D01*
X227258971Y-122024815D01*
X227215525Y-121976795D01*
X227161960Y-121871668D01*
X227025449Y-121683776D01*
X226861224Y-121519551D01*
X226673331Y-121383039D01*
X226466400Y-121277601D01*
X226245514Y-121205831D01*
X226016129Y-121169500D01*
X226016124Y-121169500D01*
X225783876Y-121169500D01*
X225783871Y-121169500D01*
X225554485Y-121205831D01*
X225333599Y-121277601D01*
X225126668Y-121383039D01*
X224938773Y-121519553D01*
X224774553Y-121683773D01*
X224638039Y-121871668D01*
X224532601Y-122078599D01*
X224460831Y-122299485D01*
X224424500Y-122528870D01*
X220224652Y-122528870D01*
X220129995Y-122513878D01*
X220102352Y-122509500D01*
X219897648Y-122509500D01*
X219873329Y-122513351D01*
X219695465Y-122541522D01*
X219500776Y-122604781D01*
X219318386Y-122697715D01*
X219152786Y-122818028D01*
X219008028Y-122962786D01*
X218887715Y-123128386D01*
X218794781Y-123310776D01*
X218731522Y-123505465D01*
X218699500Y-123707648D01*
X216199254Y-123707648D01*
X216170940Y-123528881D01*
X216143846Y-123445497D01*
X216112547Y-123349168D01*
X216112545Y-123349165D01*
X216112545Y-123349163D01*
X216026759Y-123180800D01*
X216003777Y-123149168D01*
X215915690Y-123027927D01*
X215782073Y-122894310D01*
X215629199Y-122783240D01*
X215585794Y-122761124D01*
X215460836Y-122697454D01*
X215281118Y-122639059D01*
X215094486Y-122609500D01*
X215094481Y-122609500D01*
X214905519Y-122609500D01*
X214905514Y-122609500D01*
X214718881Y-122639059D01*
X214539163Y-122697454D01*
X214370800Y-122783240D01*
X214309295Y-122827927D01*
X214217927Y-122894310D01*
X214217925Y-122894312D01*
X214217924Y-122894312D01*
X214084312Y-123027924D01*
X214084312Y-123027925D01*
X214084310Y-123027927D01*
X214036610Y-123093579D01*
X213973240Y-123180800D01*
X213887454Y-123349163D01*
X213829059Y-123528881D01*
X213799500Y-123715513D01*
X211200500Y-123715513D01*
X211170940Y-123528881D01*
X211143846Y-123445497D01*
X211112547Y-123349168D01*
X211112545Y-123349165D01*
X211112545Y-123349163D01*
X211026759Y-123180800D01*
X211003777Y-123149168D01*
X210915690Y-123027927D01*
X210782073Y-122894310D01*
X210629199Y-122783240D01*
X210585794Y-122761124D01*
X210460836Y-122697454D01*
X210281118Y-122639059D01*
X210094486Y-122609500D01*
X210094481Y-122609500D01*
X209905519Y-122609500D01*
X209905514Y-122609500D01*
X209718881Y-122639059D01*
X209539163Y-122697454D01*
X209370800Y-122783240D01*
X209309295Y-122827927D01*
X209217927Y-122894310D01*
X209217925Y-122894312D01*
X209217924Y-122894312D01*
X209084312Y-123027924D01*
X209084312Y-123027925D01*
X209084310Y-123027927D01*
X209036610Y-123093579D01*
X208973240Y-123180800D01*
X208887454Y-123349163D01*
X208829059Y-123528881D01*
X208799500Y-123715513D01*
X204248721Y-123715513D01*
X207327416Y-120636819D01*
X207388739Y-120603334D01*
X207415097Y-120600500D01*
X231913331Y-120600500D01*
X231913347Y-120600501D01*
X231920943Y-120600501D01*
X232079054Y-120600501D01*
X232079057Y-120600501D01*
X232231785Y-120559577D01*
X232281904Y-120530639D01*
X232368716Y-120480520D01*
X232480520Y-120368716D01*
X232480520Y-120368714D01*
X232490728Y-120358507D01*
X232490729Y-120358504D01*
X238212416Y-114636819D01*
X238273739Y-114603334D01*
X238300097Y-114600500D01*
X242079055Y-114600500D01*
X242079057Y-114600500D01*
X242231784Y-114559577D01*
X242368716Y-114480520D01*
X242414253Y-114434983D01*
X245929500Y-114434983D01*
X245929500Y-115535001D01*
X245929501Y-115535019D01*
X245940000Y-115637796D01*
X245940001Y-115637799D01*
X245990436Y-115790000D01*
X245995186Y-115804334D01*
X246087288Y-115953656D01*
X246211344Y-116077712D01*
X246360666Y-116169814D01*
X246527203Y-116224999D01*
X246629991Y-116235500D01*
X247730008Y-116235499D01*
X247730016Y-116235498D01*
X247730019Y-116235498D01*
X247786302Y-116229748D01*
X247832797Y-116224999D01*
X247999334Y-116169814D01*
X248148656Y-116077712D01*
X248272712Y-115953656D01*
X248364814Y-115804334D01*
X248419999Y-115637797D01*
X248430500Y-115535009D01*
X248430499Y-114434992D01*
X248419999Y-114332203D01*
X248364814Y-114165666D01*
X248272712Y-114016344D01*
X248148656Y-113892288D01*
X247999334Y-113800186D01*
X247832797Y-113745001D01*
X247832795Y-113745000D01*
X247730010Y-113734500D01*
X246629998Y-113734500D01*
X246629980Y-113734501D01*
X246527203Y-113745000D01*
X246527200Y-113745001D01*
X246360668Y-113800185D01*
X246360663Y-113800187D01*
X246211342Y-113892289D01*
X246087289Y-114016342D01*
X245995187Y-114165663D01*
X245995186Y-114165666D01*
X245940001Y-114332203D01*
X245940001Y-114332204D01*
X245940000Y-114332204D01*
X245929500Y-114434983D01*
X242414253Y-114434983D01*
X242480520Y-114368716D01*
X242559577Y-114231784D01*
X242600500Y-114079057D01*
X242600500Y-111592196D01*
X242620185Y-111525157D01*
X242672989Y-111479402D01*
X242742147Y-111469458D01*
X242805703Y-111498483D01*
X242822868Y-111516701D01*
X242911081Y-111631661D01*
X242911085Y-111631665D01*
X242911089Y-111631670D01*
X243073330Y-111793911D01*
X243073338Y-111793918D01*
X243255382Y-111933607D01*
X243255385Y-111933608D01*
X243255388Y-111933611D01*
X243454112Y-112048344D01*
X243454117Y-112048346D01*
X243454123Y-112048349D01*
X243500648Y-112067620D01*
X243666113Y-112136158D01*
X243887762Y-112195548D01*
X244115266Y-112225500D01*
X244115273Y-112225500D01*
X244344727Y-112225500D01*
X244344734Y-112225500D01*
X244572238Y-112195548D01*
X244793887Y-112136158D01*
X245005888Y-112048344D01*
X245204612Y-111933611D01*
X245386661Y-111793919D01*
X245386665Y-111793914D01*
X245386670Y-111793911D01*
X245548911Y-111631670D01*
X245548914Y-111631665D01*
X245548919Y-111631661D01*
X245688611Y-111449612D01*
X245803344Y-111250888D01*
X245891158Y-111038887D01*
X245950548Y-110817238D01*
X245980500Y-110589734D01*
X245980500Y-110360266D01*
X245950548Y-110132762D01*
X245891158Y-109911113D01*
X245803344Y-109699112D01*
X245688611Y-109500388D01*
X245688608Y-109500385D01*
X245688607Y-109500382D01*
X245548918Y-109318338D01*
X245548911Y-109318330D01*
X245386670Y-109156089D01*
X245386661Y-109156081D01*
X245204617Y-109016392D01*
X245005890Y-108901657D01*
X245005876Y-108901650D01*
X244793887Y-108813842D01*
X244702197Y-108789274D01*
X244642538Y-108752910D01*
X244612009Y-108690063D01*
X244620304Y-108620688D01*
X244664789Y-108566810D01*
X244731341Y-108545535D01*
X244734292Y-108545500D01*
X244818097Y-108545500D01*
X245051368Y-108508553D01*
X245131338Y-108482569D01*
X245275992Y-108435568D01*
X245486433Y-108328343D01*
X245607320Y-108240513D01*
X246519500Y-108240513D01*
X246519500Y-108429486D01*
X246549059Y-108616118D01*
X246607454Y-108795836D01*
X246661373Y-108901657D01*
X246693240Y-108964199D01*
X246804310Y-109117073D01*
X246937927Y-109250690D01*
X247090801Y-109361760D01*
X247131932Y-109382717D01*
X247259163Y-109447545D01*
X247259165Y-109447545D01*
X247259168Y-109447547D01*
X247342096Y-109474492D01*
X247438881Y-109505940D01*
X247625514Y-109535500D01*
X247625519Y-109535500D01*
X247814486Y-109535500D01*
X248001118Y-109505940D01*
X248018205Y-109500388D01*
X248180832Y-109447547D01*
X248349199Y-109361760D01*
X248502073Y-109250690D01*
X248635690Y-109117073D01*
X248746760Y-108964199D01*
X248832547Y-108795832D01*
X248890940Y-108616118D01*
X248906275Y-108519297D01*
X248920500Y-108429486D01*
X248920500Y-108240513D01*
X248890940Y-108053881D01*
X248863846Y-107970497D01*
X248832547Y-107874168D01*
X248832545Y-107874165D01*
X248832545Y-107874163D01*
X248757198Y-107726287D01*
X248746760Y-107705801D01*
X248635690Y-107552927D01*
X248502073Y-107419310D01*
X248349199Y-107308240D01*
X248180836Y-107222454D01*
X248001118Y-107164059D01*
X247814486Y-107134500D01*
X247814481Y-107134500D01*
X247625519Y-107134500D01*
X247625514Y-107134500D01*
X247438881Y-107164059D01*
X247259163Y-107222454D01*
X247090800Y-107308240D01*
X247003579Y-107371610D01*
X246937927Y-107419310D01*
X246937925Y-107419312D01*
X246937924Y-107419312D01*
X246804312Y-107552924D01*
X246804312Y-107552925D01*
X246804310Y-107552927D01*
X246756610Y-107618579D01*
X246693240Y-107705800D01*
X246607454Y-107874163D01*
X246549059Y-108053881D01*
X246519500Y-108240513D01*
X245607320Y-108240513D01*
X245677510Y-108189517D01*
X245844517Y-108022510D01*
X245983343Y-107831433D01*
X246090568Y-107620992D01*
X246163553Y-107396368D01*
X246178221Y-107303757D01*
X246200500Y-107163097D01*
X246200500Y-106926902D01*
X246163553Y-106693631D01*
X246090566Y-106469003D01*
X246020533Y-106331557D01*
X245983343Y-106258567D01*
X245844517Y-106067490D01*
X245677510Y-105900483D01*
X245642872Y-105875317D01*
X245600207Y-105819989D01*
X245594228Y-105750375D01*
X245626833Y-105688580D01*
X245642873Y-105674682D01*
X245677510Y-105649517D01*
X245844517Y-105482510D01*
X245983343Y-105291433D01*
X246090568Y-105080992D01*
X246163553Y-104856368D01*
X246178221Y-104763757D01*
X246200500Y-104623097D01*
X246200500Y-104386902D01*
X246163553Y-104153631D01*
X246090566Y-103929003D01*
X246008637Y-103768209D01*
X245983343Y-103718567D01*
X245844517Y-103527490D01*
X245677510Y-103360483D01*
X245642872Y-103335317D01*
X245600207Y-103279989D01*
X245594228Y-103210375D01*
X245626833Y-103148580D01*
X245642873Y-103134682D01*
X245677510Y-103109517D01*
X245844517Y-102942510D01*
X245983343Y-102751433D01*
X246090568Y-102540992D01*
X246163553Y-102316368D01*
X246178221Y-102223757D01*
X246200500Y-102083097D01*
X246200500Y-101846902D01*
X246163553Y-101613631D01*
X246090566Y-101389003D01*
X246020533Y-101251557D01*
X245983343Y-101178567D01*
X245844517Y-100987490D01*
X245677510Y-100820483D01*
X245642872Y-100795317D01*
X245628945Y-100777256D01*
X245611659Y-100762375D01*
X245608016Y-100750116D01*
X245600207Y-100739989D01*
X245598255Y-100717263D01*
X245591759Y-100695400D01*
X245595322Y-100683117D01*
X245594228Y-100670375D01*
X245604871Y-100650202D01*
X245611227Y-100628297D01*
X245618554Y-100620513D01*
X246519500Y-100620513D01*
X246519500Y-100809486D01*
X246549059Y-100996118D01*
X246607454Y-101175836D01*
X246658140Y-101275312D01*
X246693240Y-101344199D01*
X246804310Y-101497073D01*
X246937927Y-101630690D01*
X247090801Y-101741760D01*
X247170347Y-101782290D01*
X247259163Y-101827545D01*
X247259165Y-101827545D01*
X247259168Y-101827547D01*
X247318755Y-101846908D01*
X247438881Y-101885940D01*
X247625514Y-101915500D01*
X247625519Y-101915500D01*
X247814486Y-101915500D01*
X248001118Y-101885940D01*
X248180832Y-101827547D01*
X248349199Y-101741760D01*
X248502073Y-101630690D01*
X248635690Y-101497073D01*
X248746760Y-101344199D01*
X248832547Y-101175832D01*
X248890940Y-100996118D01*
X248909365Y-100879786D01*
X248920500Y-100809486D01*
X248920500Y-100620513D01*
X248890940Y-100433881D01*
X248863846Y-100350497D01*
X248832547Y-100254168D01*
X248832545Y-100254165D01*
X248832545Y-100254163D01*
X248757198Y-100106287D01*
X248746760Y-100085801D01*
X248635690Y-99932927D01*
X248502073Y-99799310D01*
X248349199Y-99688240D01*
X248180836Y-99602454D01*
X248001118Y-99544059D01*
X247814486Y-99514500D01*
X247814481Y-99514500D01*
X247625519Y-99514500D01*
X247625514Y-99514500D01*
X247438881Y-99544059D01*
X247259163Y-99602454D01*
X247090800Y-99688240D01*
X247003579Y-99751610D01*
X246937927Y-99799310D01*
X246937925Y-99799312D01*
X246937924Y-99799312D01*
X246804312Y-99932924D01*
X246804312Y-99932925D01*
X246804310Y-99932927D01*
X246756610Y-99998579D01*
X246693240Y-100085800D01*
X246607454Y-100254163D01*
X246549059Y-100433881D01*
X246519500Y-100620513D01*
X245618554Y-100620513D01*
X245623063Y-100615723D01*
X245626833Y-100608580D01*
X245634254Y-100601549D01*
X245638405Y-100597928D01*
X245677510Y-100569517D01*
X245844517Y-100402510D01*
X245983343Y-100211433D01*
X246090568Y-100000992D01*
X246163553Y-99776368D01*
X246188036Y-99621789D01*
X246200500Y-99543097D01*
X246200500Y-99306902D01*
X246163553Y-99073631D01*
X246090566Y-98849003D01*
X246020533Y-98711557D01*
X245983343Y-98638567D01*
X245844517Y-98447490D01*
X245677510Y-98280483D01*
X245642872Y-98255317D01*
X245600207Y-98199989D01*
X245594228Y-98130375D01*
X245626833Y-98068580D01*
X245642873Y-98054682D01*
X245677510Y-98029517D01*
X245844517Y-97862510D01*
X245983343Y-97671433D01*
X246090568Y-97460992D01*
X246163553Y-97236368D01*
X246178221Y-97143757D01*
X246200500Y-97003097D01*
X246200500Y-96766902D01*
X246163553Y-96533631D01*
X246090566Y-96309003D01*
X246020533Y-96171557D01*
X245983343Y-96098567D01*
X245844517Y-95907490D01*
X245677510Y-95740483D01*
X245642872Y-95715317D01*
X245600207Y-95659989D01*
X245594228Y-95590375D01*
X245626833Y-95528580D01*
X245642873Y-95514682D01*
X245677510Y-95489517D01*
X245844517Y-95322510D01*
X245983343Y-95131433D01*
X246090568Y-94920992D01*
X246163553Y-94696368D01*
X246181341Y-94584060D01*
X246200500Y-94463097D01*
X246200500Y-94226902D01*
X246163553Y-93993631D01*
X246090566Y-93769003D01*
X246020533Y-93631557D01*
X245983343Y-93558567D01*
X245844517Y-93367490D01*
X245677510Y-93200483D01*
X245642872Y-93175317D01*
X245600207Y-93119989D01*
X245594228Y-93050375D01*
X245626833Y-92988580D01*
X245642873Y-92974682D01*
X245677510Y-92949517D01*
X245844517Y-92782510D01*
X245983343Y-92591433D01*
X246090568Y-92380992D01*
X246163553Y-92156368D01*
X246178221Y-92063757D01*
X246200500Y-91923097D01*
X246200500Y-91686902D01*
X246163553Y-91453631D01*
X246099101Y-91255270D01*
X246090568Y-91229008D01*
X246090566Y-91229005D01*
X246090566Y-91229003D01*
X245997927Y-91047190D01*
X245983343Y-91018567D01*
X245844517Y-90827490D01*
X245677510Y-90660483D01*
X245642872Y-90635317D01*
X245600207Y-90579989D01*
X245594228Y-90510375D01*
X245626833Y-90448580D01*
X245642873Y-90434682D01*
X245644426Y-90433554D01*
X245677510Y-90409517D01*
X245844517Y-90242510D01*
X245983343Y-90051433D01*
X246090568Y-89840992D01*
X246163553Y-89616368D01*
X246176758Y-89532993D01*
X246200500Y-89383097D01*
X246200500Y-89146902D01*
X246163553Y-88913631D01*
X246092531Y-88695051D01*
X246090568Y-88689008D01*
X246090566Y-88689005D01*
X246090566Y-88689003D01*
X246018030Y-88546645D01*
X245983343Y-88478567D01*
X245844517Y-88287490D01*
X245677510Y-88120483D01*
X245642872Y-88095317D01*
X245600207Y-88039989D01*
X245594228Y-87970375D01*
X245626833Y-87908580D01*
X245642873Y-87894682D01*
X245677510Y-87869517D01*
X245844517Y-87702510D01*
X245983343Y-87511433D01*
X246090568Y-87300992D01*
X246163553Y-87076368D01*
X246172230Y-87021585D01*
X246200500Y-86843097D01*
X246200500Y-86606902D01*
X246163553Y-86373631D01*
X246093982Y-86159516D01*
X246090568Y-86149008D01*
X246090566Y-86149005D01*
X246090566Y-86149003D01*
X245983342Y-85938566D01*
X245940640Y-85879792D01*
X245844517Y-85747490D01*
X245677510Y-85580483D01*
X245642872Y-85555317D01*
X245600207Y-85499989D01*
X245594228Y-85430375D01*
X245626833Y-85368580D01*
X245642873Y-85354682D01*
X245677510Y-85329517D01*
X245844517Y-85162510D01*
X245983343Y-84971433D01*
X246090568Y-84760992D01*
X246163553Y-84536368D01*
X246172230Y-84481585D01*
X246200500Y-84303097D01*
X246200500Y-84066902D01*
X246163553Y-83833631D01*
X246129689Y-83729412D01*
X246090568Y-83609008D01*
X246090566Y-83609005D01*
X246090566Y-83609003D01*
X246034002Y-83497991D01*
X245983343Y-83398567D01*
X245844517Y-83207490D01*
X245677510Y-83040483D01*
X245642872Y-83015317D01*
X245600207Y-82959989D01*
X245594228Y-82890375D01*
X245626833Y-82828580D01*
X245642873Y-82814682D01*
X245677510Y-82789517D01*
X245844517Y-82622510D01*
X245983343Y-82431433D01*
X246090568Y-82220992D01*
X246163553Y-81996368D01*
X246200500Y-81763097D01*
X246200500Y-81526902D01*
X246163553Y-81293631D01*
X246105807Y-81115908D01*
X246090568Y-81069008D01*
X246090566Y-81069005D01*
X246090566Y-81069003D01*
X245986620Y-80864999D01*
X245983343Y-80858567D01*
X245844517Y-80667490D01*
X245677510Y-80500483D01*
X245642872Y-80475317D01*
X245600207Y-80419989D01*
X245594228Y-80350375D01*
X245626833Y-80288580D01*
X245642873Y-80274682D01*
X245677510Y-80249517D01*
X245844517Y-80082510D01*
X245983343Y-79891433D01*
X246090568Y-79680992D01*
X246163553Y-79456368D01*
X246176775Y-79372890D01*
X246200500Y-79223097D01*
X246200500Y-79214097D01*
X246220185Y-79147058D01*
X246272989Y-79101303D01*
X246342147Y-79091359D01*
X246405703Y-79120384D01*
X246412181Y-79126416D01*
X248363181Y-81077416D01*
X248396666Y-81138739D01*
X248399500Y-81165097D01*
X248399500Y-94913330D01*
X248399499Y-94913348D01*
X248399499Y-95079054D01*
X248399498Y-95079054D01*
X248399499Y-95079057D01*
X248440423Y-95231785D01*
X248442991Y-95236233D01*
X248442994Y-95236244D01*
X248442997Y-95236243D01*
X248519477Y-95368712D01*
X248519481Y-95368717D01*
X248638349Y-95487585D01*
X248638355Y-95487590D01*
X252165425Y-99014660D01*
X252198910Y-99075983D01*
X252199361Y-99078149D01*
X252230261Y-99233491D01*
X252230264Y-99233501D01*
X252290602Y-99379172D01*
X252290609Y-99379185D01*
X252378210Y-99510288D01*
X252378213Y-99510292D01*
X252489707Y-99621786D01*
X252489711Y-99621789D01*
X252620814Y-99709390D01*
X252620827Y-99709397D01*
X252766498Y-99769735D01*
X252766503Y-99769737D01*
X252915176Y-99799310D01*
X252921153Y-99800499D01*
X252921156Y-99800500D01*
X252921158Y-99800500D01*
X253078844Y-99800500D01*
X253078845Y-99800499D01*
X253233497Y-99769737D01*
X253379179Y-99709394D01*
X253510289Y-99621789D01*
X253621789Y-99510289D01*
X253709394Y-99379179D01*
X253769737Y-99233497D01*
X253800500Y-99078842D01*
X253800500Y-98921158D01*
X253800500Y-98921155D01*
X253800499Y-98921153D01*
X253776688Y-98801447D01*
X253769737Y-98766503D01*
X253762256Y-98748443D01*
X253709397Y-98620827D01*
X253709390Y-98620814D01*
X253621789Y-98489711D01*
X253621786Y-98489707D01*
X253510292Y-98378213D01*
X253510288Y-98378210D01*
X253379185Y-98290609D01*
X253379172Y-98290602D01*
X253233501Y-98230264D01*
X253233491Y-98230261D01*
X253078149Y-98199361D01*
X253016238Y-98166976D01*
X253014660Y-98165425D01*
X249636819Y-94787584D01*
X249603334Y-94726261D01*
X249600500Y-94699903D01*
X249600500Y-81562135D01*
X251649500Y-81562135D01*
X251649500Y-83357870D01*
X251649501Y-83357876D01*
X251655908Y-83417483D01*
X251706202Y-83552328D01*
X251706206Y-83552335D01*
X251792452Y-83667544D01*
X251792455Y-83667547D01*
X251907664Y-83753793D01*
X251907671Y-83753797D01*
X252039082Y-83802810D01*
X252095016Y-83844681D01*
X252119433Y-83910145D01*
X252104582Y-83978418D01*
X252083431Y-84006673D01*
X251969889Y-84120215D01*
X251844951Y-84292179D01*
X251748444Y-84481585D01*
X251682753Y-84683760D01*
X251660887Y-84821820D01*
X251649500Y-84893713D01*
X251649500Y-85106287D01*
X251682754Y-85316243D01*
X251699759Y-85368580D01*
X251748444Y-85518414D01*
X251844951Y-85707820D01*
X251969890Y-85879786D01*
X252120213Y-86030109D01*
X252292182Y-86155050D01*
X252300946Y-86159516D01*
X252351742Y-86207491D01*
X252368536Y-86275312D01*
X252345998Y-86341447D01*
X252300946Y-86380484D01*
X252292182Y-86384949D01*
X252120213Y-86509890D01*
X251969890Y-86660213D01*
X251844951Y-86832179D01*
X251748444Y-87021585D01*
X251682753Y-87223760D01*
X251670521Y-87300992D01*
X251649500Y-87433713D01*
X251649500Y-87646287D01*
X251682754Y-87856243D01*
X251699759Y-87908580D01*
X251748444Y-88058414D01*
X251844951Y-88247820D01*
X251969890Y-88419786D01*
X252120213Y-88570109D01*
X252292179Y-88695048D01*
X252292181Y-88695049D01*
X252292184Y-88695051D01*
X252301493Y-88699794D01*
X252352290Y-88747766D01*
X252369087Y-88815587D01*
X252346552Y-88881722D01*
X252301505Y-88920760D01*
X252292446Y-88925376D01*
X252292440Y-88925380D01*
X252238282Y-88964727D01*
X252238282Y-88964728D01*
X252870591Y-89597037D01*
X252807007Y-89614075D01*
X252692993Y-89679901D01*
X252599901Y-89772993D01*
X252534075Y-89887007D01*
X252517037Y-89950591D01*
X251884728Y-89318282D01*
X251884727Y-89318282D01*
X251845380Y-89372439D01*
X251748904Y-89561782D01*
X251683242Y-89763869D01*
X251683242Y-89763872D01*
X251650000Y-89973753D01*
X251650000Y-90186246D01*
X251683242Y-90396127D01*
X251683242Y-90396130D01*
X251748904Y-90598217D01*
X251845375Y-90787550D01*
X251884728Y-90841716D01*
X252517037Y-90209408D01*
X252534075Y-90272993D01*
X252599901Y-90387007D01*
X252692993Y-90480099D01*
X252807007Y-90545925D01*
X252870590Y-90562962D01*
X252238282Y-91195269D01*
X252238282Y-91195270D01*
X252292449Y-91234624D01*
X252481782Y-91331095D01*
X252683870Y-91396757D01*
X252893754Y-91430000D01*
X253106246Y-91430000D01*
X253316127Y-91396757D01*
X253316130Y-91396757D01*
X253518217Y-91331095D01*
X253707554Y-91234622D01*
X253761716Y-91195270D01*
X253761717Y-91195270D01*
X253129408Y-90562962D01*
X253192993Y-90545925D01*
X253307007Y-90480099D01*
X253400099Y-90387007D01*
X253465925Y-90272993D01*
X253482962Y-90209408D01*
X254115270Y-90841717D01*
X254115270Y-90841716D01*
X254154622Y-90787554D01*
X254251095Y-90598217D01*
X254316757Y-90396130D01*
X254316757Y-90396127D01*
X254350000Y-90186246D01*
X254350000Y-89973753D01*
X254316757Y-89763872D01*
X254316757Y-89763869D01*
X254251095Y-89561782D01*
X254154624Y-89372449D01*
X254115270Y-89318282D01*
X254115269Y-89318282D01*
X253482962Y-89950590D01*
X253465925Y-89887007D01*
X253400099Y-89772993D01*
X253307007Y-89679901D01*
X253192993Y-89614075D01*
X253129409Y-89597037D01*
X253761716Y-88964728D01*
X253707547Y-88925373D01*
X253707547Y-88925372D01*
X253698500Y-88920763D01*
X253647706Y-88872788D01*
X253630912Y-88804966D01*
X253653451Y-88738832D01*
X253698508Y-88699793D01*
X253707816Y-88695051D01*
X253793485Y-88632809D01*
X253879786Y-88570109D01*
X253879788Y-88570106D01*
X253879792Y-88570104D01*
X254030104Y-88419792D01*
X254030106Y-88419788D01*
X254030109Y-88419786D01*
X254155048Y-88247820D01*
X254155047Y-88247820D01*
X254155051Y-88247816D01*
X254251557Y-88058412D01*
X254317246Y-87856243D01*
X254350500Y-87646287D01*
X254350500Y-87433713D01*
X254317246Y-87223757D01*
X254251557Y-87021588D01*
X254155051Y-86832184D01*
X254155049Y-86832181D01*
X254155048Y-86832179D01*
X254030109Y-86660213D01*
X253879786Y-86509890D01*
X253707820Y-86384951D01*
X253707115Y-86384591D01*
X253699054Y-86380485D01*
X253648259Y-86332512D01*
X253631463Y-86264692D01*
X253653999Y-86198556D01*
X253699054Y-86159515D01*
X253707816Y-86155051D01*
X253729789Y-86139086D01*
X253879786Y-86030109D01*
X253879788Y-86030106D01*
X253879792Y-86030104D01*
X254030104Y-85879792D01*
X254030106Y-85879788D01*
X254030109Y-85879786D01*
X254155048Y-85707820D01*
X254155047Y-85707820D01*
X254155051Y-85707816D01*
X254251557Y-85518412D01*
X254317246Y-85316243D01*
X254350500Y-85106287D01*
X254350500Y-84893713D01*
X254317246Y-84683757D01*
X254251557Y-84481588D01*
X254155051Y-84292184D01*
X254155049Y-84292181D01*
X254155048Y-84292179D01*
X254030109Y-84120213D01*
X253916569Y-84006673D01*
X253883084Y-83945350D01*
X253888068Y-83875658D01*
X253929940Y-83819725D01*
X253960915Y-83802810D01*
X254092331Y-83753796D01*
X254207546Y-83667546D01*
X254293796Y-83552331D01*
X254344091Y-83417483D01*
X254350500Y-83357873D01*
X254350499Y-81562128D01*
X254344091Y-81502517D01*
X254293796Y-81367669D01*
X254293795Y-81367668D01*
X254293793Y-81367664D01*
X254207547Y-81252455D01*
X254207544Y-81252452D01*
X254092335Y-81166206D01*
X254092328Y-81166202D01*
X253957482Y-81115908D01*
X253957483Y-81115908D01*
X253897883Y-81109501D01*
X253897881Y-81109500D01*
X253897873Y-81109500D01*
X253897864Y-81109500D01*
X252102129Y-81109500D01*
X252102123Y-81109501D01*
X252042516Y-81115908D01*
X251907671Y-81166202D01*
X251907664Y-81166206D01*
X251792455Y-81252452D01*
X251792452Y-81252455D01*
X251706206Y-81367664D01*
X251706202Y-81367671D01*
X251655908Y-81502517D01*
X251649501Y-81562116D01*
X251649501Y-81562123D01*
X251649500Y-81562135D01*
X249600500Y-81562135D01*
X249600500Y-80785945D01*
X249600499Y-80785941D01*
X249570327Y-80673331D01*
X249570327Y-80673330D01*
X249559578Y-80633218D01*
X249559577Y-80633215D01*
X249542435Y-80603525D01*
X249522244Y-80568553D01*
X249490564Y-80513681D01*
X249480522Y-80496287D01*
X249480521Y-80496286D01*
X249480520Y-80496284D01*
X249368716Y-80384480D01*
X249368715Y-80384479D01*
X249364385Y-80380149D01*
X249364374Y-80380139D01*
X246152798Y-77168563D01*
X246119313Y-77107240D01*
X246122547Y-77042566D01*
X246163553Y-76916368D01*
X246183705Y-76789126D01*
X246200500Y-76683097D01*
X246200500Y-76446902D01*
X246163553Y-76213631D01*
X246090566Y-75989003D01*
X246034002Y-75877991D01*
X245983343Y-75778567D01*
X245844517Y-75587490D01*
X245677510Y-75420483D01*
X245642872Y-75395317D01*
X245600207Y-75339989D01*
X245594228Y-75270375D01*
X245626833Y-75208580D01*
X245642873Y-75194682D01*
X245677510Y-75169517D01*
X245844517Y-75002510D01*
X245983343Y-74811433D01*
X246090568Y-74600992D01*
X246163553Y-74376368D01*
X246172671Y-74318797D01*
X246200500Y-74143097D01*
X246200500Y-73906902D01*
X246163553Y-73673631D01*
X246090566Y-73449003D01*
X245983342Y-73238566D01*
X245983340Y-73238563D01*
X245844517Y-73047490D01*
X245677510Y-72880483D01*
X245618282Y-72837451D01*
X245575617Y-72782122D01*
X245567550Y-72727404D01*
X245569104Y-72707657D01*
X244837574Y-71976128D01*
X244896853Y-71960245D01*
X245013147Y-71893102D01*
X245108102Y-71798147D01*
X245175245Y-71681853D01*
X245191128Y-71622574D01*
X245922658Y-72354105D01*
X245922658Y-72354104D01*
X245982914Y-72271169D01*
X245982918Y-72271163D01*
X246090102Y-72060802D01*
X246163065Y-71836247D01*
X246200000Y-71603052D01*
X246200000Y-71366947D01*
X246163065Y-71133752D01*
X246090102Y-70909197D01*
X245982914Y-70698828D01*
X245922658Y-70615894D01*
X245922658Y-70615893D01*
X245191128Y-71347424D01*
X245175245Y-71288147D01*
X245108102Y-71171853D01*
X245013147Y-71076898D01*
X244896853Y-71009755D01*
X244837574Y-70993871D01*
X245569105Y-70262340D01*
X245569104Y-70262338D01*
X245486174Y-70202087D01*
X245275802Y-70094897D01*
X245051247Y-70021934D01*
X245051248Y-70021934D01*
X244818052Y-69985000D01*
X244581948Y-69985000D01*
X244348752Y-70021934D01*
X244124197Y-70094897D01*
X243913830Y-70202084D01*
X243830894Y-70262340D01*
X244562425Y-70993871D01*
X244503147Y-71009755D01*
X244386853Y-71076898D01*
X244291898Y-71171853D01*
X244224755Y-71288147D01*
X244208871Y-71347424D01*
X243477340Y-70615894D01*
X243417084Y-70698830D01*
X243309897Y-70909197D01*
X243236934Y-71133752D01*
X243200000Y-71366947D01*
X243200000Y-71603052D01*
X243236934Y-71836247D01*
X243309897Y-72060802D01*
X243417087Y-72271174D01*
X243477338Y-72354104D01*
X243477340Y-72354105D01*
X244208871Y-71622574D01*
X244224755Y-71681853D01*
X244291898Y-71798147D01*
X244386853Y-71893102D01*
X244503147Y-71960245D01*
X244562425Y-71976128D01*
X243830893Y-72707658D01*
X243832448Y-72727405D01*
X243818084Y-72795783D01*
X243781717Y-72837451D01*
X243722490Y-72880482D01*
X243555485Y-73047487D01*
X243555485Y-73047488D01*
X243555483Y-73047490D01*
X243495862Y-73129550D01*
X243416657Y-73238566D01*
X243309433Y-73449003D01*
X243236446Y-73673631D01*
X243199500Y-73906902D01*
X243199500Y-74143097D01*
X243236446Y-74376368D01*
X243309433Y-74600996D01*
X243402198Y-74783056D01*
X243416657Y-74811433D01*
X243555483Y-75002510D01*
X243722490Y-75169517D01*
X243757127Y-75194683D01*
X243799792Y-75250013D01*
X243805771Y-75319626D01*
X243773165Y-75381421D01*
X243757130Y-75395315D01*
X243739365Y-75408222D01*
X243722488Y-75420484D01*
X243555485Y-75587487D01*
X243555485Y-75587488D01*
X243555483Y-75587490D01*
X243495862Y-75669550D01*
X243416657Y-75778566D01*
X243309433Y-75989003D01*
X243236446Y-76213631D01*
X243199500Y-76446902D01*
X243199500Y-76683097D01*
X243236446Y-76916368D01*
X243309433Y-77140996D01*
X243416657Y-77351433D01*
X243555483Y-77542510D01*
X243722490Y-77709517D01*
X243757127Y-77734683D01*
X243799792Y-77790013D01*
X243805771Y-77859626D01*
X243773165Y-77921421D01*
X243757130Y-77935315D01*
X243739365Y-77948222D01*
X243722488Y-77960484D01*
X243555485Y-78127487D01*
X243555485Y-78127488D01*
X243555483Y-78127490D01*
X243495862Y-78209550D01*
X243416657Y-78318566D01*
X243309433Y-78529003D01*
X243236446Y-78753631D01*
X243199500Y-78986902D01*
X243199500Y-79223097D01*
X243236446Y-79456368D01*
X243309433Y-79680996D01*
X243362930Y-79785988D01*
X243416657Y-79891433D01*
X243555483Y-80082510D01*
X243722490Y-80249517D01*
X243757127Y-80274683D01*
X243799792Y-80330013D01*
X243805771Y-80399626D01*
X243773165Y-80461421D01*
X243757130Y-80475315D01*
X243739365Y-80488222D01*
X243722488Y-80500484D01*
X243555485Y-80667487D01*
X243555485Y-80667488D01*
X243555483Y-80667490D01*
X243551238Y-80673333D01*
X243416657Y-80858566D01*
X243309433Y-81069003D01*
X243236446Y-81293631D01*
X243199500Y-81526902D01*
X243199500Y-81763097D01*
X243236446Y-81996368D01*
X243309433Y-82220996D01*
X243416657Y-82431433D01*
X243555483Y-82622510D01*
X243722490Y-82789517D01*
X243757127Y-82814683D01*
X243799792Y-82870013D01*
X243805771Y-82939626D01*
X243773165Y-83001421D01*
X243757130Y-83015315D01*
X243739365Y-83028222D01*
X243722488Y-83040484D01*
X243555485Y-83207487D01*
X243555485Y-83207488D01*
X243555483Y-83207490D01*
X243495862Y-83289550D01*
X243416657Y-83398566D01*
X243356417Y-83516795D01*
X243308442Y-83567591D01*
X243245932Y-83584500D01*
X242485097Y-83584500D01*
X242418058Y-83564815D01*
X242397416Y-83548181D01*
X242368718Y-83519483D01*
X242368716Y-83519481D01*
X242231785Y-83440423D01*
X242079057Y-83399499D01*
X241920943Y-83399499D01*
X241806397Y-83430192D01*
X241768214Y-83440423D01*
X241631284Y-83519481D01*
X241631281Y-83519483D01*
X221631286Y-103519478D01*
X221519481Y-103631282D01*
X221519480Y-103631284D01*
X221482665Y-103695051D01*
X221469361Y-103718094D01*
X221469359Y-103718096D01*
X221440425Y-103768209D01*
X221440424Y-103768210D01*
X221427803Y-103815312D01*
X221399499Y-103920943D01*
X221399499Y-103920945D01*
X221399499Y-104089046D01*
X221399500Y-104089059D01*
X221399500Y-109422963D01*
X221379815Y-109490002D01*
X221327011Y-109535757D01*
X221257853Y-109545701D01*
X221194297Y-109516676D01*
X221177125Y-109498450D01*
X221038918Y-109318338D01*
X221038911Y-109318330D01*
X220876670Y-109156089D01*
X220876661Y-109156081D01*
X220694617Y-109016392D01*
X220495890Y-108901657D01*
X220495876Y-108901650D01*
X220283887Y-108813842D01*
X220062238Y-108754452D01*
X220024215Y-108749446D01*
X219834741Y-108724500D01*
X219834734Y-108724500D01*
X219769657Y-108724500D01*
X219702618Y-108704815D01*
X219656863Y-108652011D01*
X219646919Y-108582853D01*
X219675944Y-108519297D01*
X219731338Y-108482569D01*
X219875992Y-108435568D01*
X220086433Y-108328343D01*
X220277510Y-108189517D01*
X220444517Y-108022510D01*
X220583343Y-107831433D01*
X220690568Y-107620992D01*
X220763553Y-107396368D01*
X220778221Y-107303757D01*
X220800500Y-107163097D01*
X220800500Y-106926902D01*
X220763553Y-106693631D01*
X220690566Y-106469003D01*
X220620533Y-106331557D01*
X220583343Y-106258567D01*
X220444517Y-106067490D01*
X220277510Y-105900483D01*
X220242872Y-105875317D01*
X220200207Y-105819989D01*
X220194228Y-105750375D01*
X220226833Y-105688580D01*
X220242873Y-105674682D01*
X220277510Y-105649517D01*
X220444517Y-105482510D01*
X220583343Y-105291433D01*
X220690568Y-105080992D01*
X220763553Y-104856368D01*
X220778221Y-104763757D01*
X220800500Y-104623097D01*
X220800500Y-104386902D01*
X220763553Y-104153631D01*
X220690566Y-103929003D01*
X220608637Y-103768209D01*
X220583343Y-103718567D01*
X220444517Y-103527490D01*
X220277510Y-103360483D01*
X220242872Y-103335317D01*
X220200207Y-103279989D01*
X220194228Y-103210375D01*
X220226833Y-103148580D01*
X220242873Y-103134682D01*
X220277510Y-103109517D01*
X220444517Y-102942510D01*
X220583343Y-102751433D01*
X220690568Y-102540992D01*
X220763553Y-102316368D01*
X220778221Y-102223757D01*
X220800500Y-102083097D01*
X220800500Y-101846902D01*
X220763553Y-101613631D01*
X220690566Y-101389003D01*
X220620533Y-101251557D01*
X220583343Y-101178567D01*
X220444517Y-100987490D01*
X220277510Y-100820483D01*
X220242872Y-100795317D01*
X220200207Y-100739989D01*
X220194228Y-100670375D01*
X220226833Y-100608580D01*
X220242873Y-100594682D01*
X220277510Y-100569517D01*
X220444517Y-100402510D01*
X220583343Y-100211433D01*
X220690568Y-100000992D01*
X220763553Y-99776368D01*
X220788036Y-99621789D01*
X220800500Y-99543097D01*
X220800500Y-99306902D01*
X220763553Y-99073631D01*
X220690566Y-98849003D01*
X220620533Y-98711557D01*
X220583343Y-98638567D01*
X220444517Y-98447490D01*
X220277510Y-98280483D01*
X220242872Y-98255317D01*
X220200207Y-98199989D01*
X220194228Y-98130375D01*
X220226833Y-98068580D01*
X220242873Y-98054682D01*
X220277510Y-98029517D01*
X220444517Y-97862510D01*
X220583343Y-97671433D01*
X220690568Y-97460992D01*
X220763553Y-97236368D01*
X220778221Y-97143757D01*
X220800500Y-97003097D01*
X220800500Y-96766902D01*
X220763553Y-96533631D01*
X220690566Y-96309003D01*
X220620533Y-96171557D01*
X220583343Y-96098567D01*
X220444517Y-95907490D01*
X220277510Y-95740483D01*
X220242872Y-95715317D01*
X220200207Y-95659989D01*
X220194228Y-95590375D01*
X220226833Y-95528580D01*
X220242873Y-95514682D01*
X220277510Y-95489517D01*
X220444517Y-95322510D01*
X220583343Y-95131433D01*
X220690568Y-94920992D01*
X220763553Y-94696368D01*
X220781341Y-94584060D01*
X220800500Y-94463097D01*
X220800500Y-94226902D01*
X220763553Y-93993631D01*
X220690566Y-93769003D01*
X220620533Y-93631557D01*
X220583343Y-93558567D01*
X220444517Y-93367490D01*
X220277510Y-93200483D01*
X220242872Y-93175317D01*
X220200207Y-93119989D01*
X220194228Y-93050375D01*
X220226833Y-92988580D01*
X220242873Y-92974682D01*
X220277510Y-92949517D01*
X220444517Y-92782510D01*
X220583343Y-92591433D01*
X220690568Y-92380992D01*
X220763553Y-92156368D01*
X220778221Y-92063757D01*
X220800500Y-91923097D01*
X220800500Y-91686902D01*
X220763553Y-91453631D01*
X220699101Y-91255270D01*
X220690568Y-91229008D01*
X220690566Y-91229005D01*
X220690566Y-91229003D01*
X220597927Y-91047190D01*
X220583343Y-91018567D01*
X220444517Y-90827490D01*
X220277510Y-90660483D01*
X220242872Y-90635317D01*
X220200207Y-90579989D01*
X220194228Y-90510375D01*
X220226833Y-90448580D01*
X220242873Y-90434682D01*
X220244426Y-90433554D01*
X220277510Y-90409517D01*
X220444517Y-90242510D01*
X220583343Y-90051433D01*
X220690568Y-89840992D01*
X220763553Y-89616368D01*
X220776758Y-89532993D01*
X220800500Y-89383097D01*
X220800500Y-89146902D01*
X220763553Y-88913631D01*
X220692531Y-88695051D01*
X220690568Y-88689008D01*
X220690566Y-88689005D01*
X220690566Y-88689003D01*
X220618030Y-88546645D01*
X220583343Y-88478567D01*
X220444517Y-88287490D01*
X220277510Y-88120483D01*
X220242872Y-88095317D01*
X220200207Y-88039989D01*
X220194228Y-87970375D01*
X220226833Y-87908580D01*
X220242873Y-87894682D01*
X220277510Y-87869517D01*
X220444517Y-87702510D01*
X220583343Y-87511433D01*
X220690568Y-87300992D01*
X220763553Y-87076368D01*
X220772230Y-87021585D01*
X220800500Y-86843097D01*
X220800500Y-86606902D01*
X220763553Y-86373631D01*
X220693982Y-86159516D01*
X220690568Y-86149008D01*
X220690566Y-86149005D01*
X220690566Y-86149003D01*
X220583342Y-85938566D01*
X220540640Y-85879792D01*
X220444517Y-85747490D01*
X220277510Y-85580483D01*
X220242872Y-85555317D01*
X220200207Y-85499989D01*
X220194228Y-85430375D01*
X220226833Y-85368580D01*
X220242873Y-85354682D01*
X220277510Y-85329517D01*
X220444517Y-85162510D01*
X220583343Y-84971433D01*
X220690568Y-84760992D01*
X220763553Y-84536368D01*
X220772230Y-84481585D01*
X220800500Y-84303097D01*
X220800500Y-84066902D01*
X220763553Y-83833631D01*
X220729689Y-83729412D01*
X220690568Y-83609008D01*
X220690566Y-83609005D01*
X220690566Y-83609003D01*
X220634002Y-83497991D01*
X220583343Y-83398567D01*
X220444517Y-83207490D01*
X220277510Y-83040483D01*
X220242872Y-83015317D01*
X220200207Y-82959989D01*
X220194228Y-82890375D01*
X220226833Y-82828580D01*
X220242873Y-82814682D01*
X220277510Y-82789517D01*
X220444517Y-82622510D01*
X220583343Y-82431433D01*
X220690568Y-82220992D01*
X220763553Y-81996368D01*
X220800500Y-81763097D01*
X220800500Y-81526902D01*
X220763553Y-81293631D01*
X220705807Y-81115908D01*
X220690568Y-81069008D01*
X220690566Y-81069005D01*
X220690566Y-81069003D01*
X220586620Y-80864999D01*
X220583343Y-80858567D01*
X220444517Y-80667490D01*
X220277510Y-80500483D01*
X220242872Y-80475317D01*
X220200207Y-80419989D01*
X220194228Y-80350375D01*
X220226833Y-80288580D01*
X220242873Y-80274682D01*
X220277510Y-80249517D01*
X220444517Y-80082510D01*
X220583343Y-79891433D01*
X220690568Y-79680992D01*
X220763553Y-79456368D01*
X220776775Y-79372890D01*
X220800500Y-79223097D01*
X220800500Y-78986902D01*
X220763553Y-78753631D01*
X220690566Y-78529003D01*
X220583342Y-78318566D01*
X220537478Y-78255440D01*
X220444517Y-78127490D01*
X220277510Y-77960483D01*
X220242872Y-77935317D01*
X220200207Y-77879989D01*
X220194228Y-77810375D01*
X220226833Y-77748580D01*
X220242873Y-77734682D01*
X220277510Y-77709517D01*
X220444517Y-77542510D01*
X220583343Y-77351433D01*
X220690568Y-77140992D01*
X220763553Y-76916368D01*
X220763554Y-76916362D01*
X220800500Y-76683097D01*
X220800500Y-76446902D01*
X220763553Y-76213631D01*
X220690566Y-75989003D01*
X220634002Y-75877991D01*
X220583343Y-75778567D01*
X220444517Y-75587490D01*
X220277510Y-75420483D01*
X220242872Y-75395317D01*
X220200207Y-75339989D01*
X220194228Y-75270375D01*
X220226833Y-75208580D01*
X220242873Y-75194682D01*
X220277510Y-75169517D01*
X220444517Y-75002510D01*
X220583343Y-74811433D01*
X220690568Y-74600992D01*
X220763553Y-74376368D01*
X220772671Y-74318797D01*
X220800500Y-74143097D01*
X220800500Y-73906902D01*
X220763553Y-73673631D01*
X220690566Y-73449003D01*
X220583342Y-73238566D01*
X220583340Y-73238563D01*
X220493449Y-73114839D01*
X220469970Y-73049035D01*
X220485795Y-72980981D01*
X220534744Y-72933410D01*
X220534546Y-72933047D01*
X220535851Y-72932334D01*
X220535901Y-72932286D01*
X220536111Y-72932192D01*
X220542326Y-72928797D01*
X220542331Y-72928796D01*
X220657546Y-72842546D01*
X220743796Y-72727331D01*
X220794091Y-72592483D01*
X220800500Y-72532873D01*
X220800499Y-70437128D01*
X220794091Y-70377517D01*
X220794090Y-70377514D01*
X220784922Y-70352931D01*
X220743797Y-70242671D01*
X220743793Y-70242664D01*
X220657547Y-70127455D01*
X220657544Y-70127452D01*
X220542335Y-70041206D01*
X220542328Y-70041202D01*
X220407482Y-69990908D01*
X220407483Y-69990908D01*
X220347883Y-69984501D01*
X220347881Y-69984500D01*
X220347873Y-69984500D01*
X220347864Y-69984500D01*
X218252129Y-69984500D01*
X218252123Y-69984501D01*
X218192516Y-69990908D01*
X218057671Y-70041202D01*
X218057664Y-70041206D01*
X217942455Y-70127452D01*
X217942452Y-70127455D01*
X217856206Y-70242664D01*
X217856202Y-70242671D01*
X217805908Y-70377517D01*
X217799501Y-70437116D01*
X217799501Y-70437123D01*
X217799500Y-70437135D01*
X217799500Y-72532870D01*
X217799501Y-72532876D01*
X217805908Y-72592483D01*
X217856202Y-72727328D01*
X217856206Y-72727335D01*
X217942452Y-72842544D01*
X217942455Y-72842547D01*
X218057664Y-72928793D01*
X218065454Y-72933047D01*
X218063646Y-72936357D01*
X218105351Y-72967449D01*
X218129897Y-73032865D01*
X218115180Y-73101167D01*
X218106549Y-73114840D01*
X218016659Y-73238563D01*
X217909433Y-73449003D01*
X217836446Y-73673631D01*
X217799500Y-73906902D01*
X217799500Y-74143097D01*
X217836446Y-74376368D01*
X217909433Y-74600996D01*
X218002198Y-74783056D01*
X218016657Y-74811433D01*
X218155483Y-75002510D01*
X218322490Y-75169517D01*
X218357127Y-75194683D01*
X218399792Y-75250013D01*
X218405771Y-75319626D01*
X218373165Y-75381421D01*
X218357130Y-75395315D01*
X218339365Y-75408222D01*
X218322488Y-75420484D01*
X218155485Y-75587487D01*
X218155485Y-75587488D01*
X218155483Y-75587490D01*
X218095862Y-75669550D01*
X218016657Y-75778566D01*
X217909433Y-75989003D01*
X217836446Y-76213631D01*
X217799500Y-76446902D01*
X217799500Y-76683097D01*
X217836446Y-76916368D01*
X217909433Y-77140996D01*
X218016657Y-77351433D01*
X218155483Y-77542510D01*
X218322490Y-77709517D01*
X218357127Y-77734683D01*
X218399792Y-77790013D01*
X218405771Y-77859626D01*
X218373165Y-77921421D01*
X218357130Y-77935315D01*
X218339365Y-77948222D01*
X218322488Y-77960484D01*
X218155485Y-78127487D01*
X218155485Y-78127488D01*
X218155483Y-78127490D01*
X218095862Y-78209550D01*
X218016657Y-78318566D01*
X217909433Y-78529003D01*
X217836446Y-78753631D01*
X217799500Y-78986902D01*
X217799500Y-79223097D01*
X217836446Y-79456368D01*
X217909433Y-79680996D01*
X217962930Y-79785988D01*
X218016657Y-79891433D01*
X218155483Y-80082510D01*
X218322490Y-80249517D01*
X218357127Y-80274683D01*
X218399792Y-80330013D01*
X218405771Y-80399626D01*
X218373165Y-80461421D01*
X218357130Y-80475315D01*
X218339365Y-80488222D01*
X218322488Y-80500484D01*
X218155485Y-80667487D01*
X218155485Y-80667488D01*
X218155483Y-80667490D01*
X218151238Y-80673333D01*
X218016657Y-80858566D01*
X217909433Y-81069003D01*
X217836446Y-81293631D01*
X217799500Y-81526902D01*
X217799500Y-81763097D01*
X217836446Y-81996368D01*
X217909433Y-82220996D01*
X218016657Y-82431433D01*
X218155483Y-82622510D01*
X218322490Y-82789517D01*
X218357127Y-82814683D01*
X218399792Y-82870013D01*
X218405771Y-82939626D01*
X218373165Y-83001421D01*
X218357130Y-83015315D01*
X218339365Y-83028222D01*
X218322488Y-83040484D01*
X218155485Y-83207487D01*
X218155485Y-83207488D01*
X218155483Y-83207490D01*
X218095862Y-83289550D01*
X218016657Y-83398566D01*
X217909433Y-83609003D01*
X217836446Y-83833631D01*
X217799500Y-84066902D01*
X217799500Y-84303097D01*
X217836446Y-84536368D01*
X217909433Y-84760996D01*
X218016657Y-84971433D01*
X218155483Y-85162510D01*
X218322490Y-85329517D01*
X218357127Y-85354683D01*
X218399792Y-85410013D01*
X218405771Y-85479626D01*
X218373165Y-85541421D01*
X218357130Y-85555315D01*
X218339365Y-85568222D01*
X218322488Y-85580484D01*
X218155485Y-85747487D01*
X218155485Y-85747488D01*
X218155483Y-85747490D01*
X218095862Y-85829550D01*
X218016657Y-85938566D01*
X217909433Y-86149003D01*
X217836446Y-86373631D01*
X217799500Y-86606902D01*
X217799500Y-86843097D01*
X217836446Y-87076368D01*
X217909433Y-87300996D01*
X218016657Y-87511433D01*
X218155483Y-87702510D01*
X218322490Y-87869517D01*
X218357127Y-87894683D01*
X218399792Y-87950013D01*
X218405771Y-88019626D01*
X218373165Y-88081421D01*
X218357130Y-88095315D01*
X218339365Y-88108222D01*
X218322488Y-88120484D01*
X218155485Y-88287487D01*
X218155485Y-88287488D01*
X218155483Y-88287490D01*
X218095862Y-88369550D01*
X218016657Y-88478566D01*
X217909433Y-88689003D01*
X217836446Y-88913631D01*
X217799500Y-89146902D01*
X217799500Y-89383097D01*
X217836446Y-89616368D01*
X217909433Y-89840996D01*
X218007261Y-90032993D01*
X218016657Y-90051433D01*
X218155483Y-90242510D01*
X218322490Y-90409517D01*
X218357127Y-90434683D01*
X218399792Y-90490013D01*
X218405771Y-90559626D01*
X218373165Y-90621421D01*
X218357130Y-90635315D01*
X218339365Y-90648222D01*
X218322488Y-90660484D01*
X218155485Y-90827487D01*
X218155485Y-90827488D01*
X218155483Y-90827490D01*
X218095862Y-90909550D01*
X218016657Y-91018566D01*
X217909433Y-91229003D01*
X217836446Y-91453631D01*
X217799500Y-91686902D01*
X217799500Y-91923097D01*
X217836446Y-92156368D01*
X217909433Y-92380996D01*
X217963082Y-92486287D01*
X218016657Y-92591433D01*
X218155483Y-92782510D01*
X218322490Y-92949517D01*
X218357127Y-92974683D01*
X218399792Y-93030013D01*
X218405771Y-93099626D01*
X218373165Y-93161421D01*
X218357130Y-93175315D01*
X218339365Y-93188222D01*
X218322488Y-93200484D01*
X218155485Y-93367487D01*
X218155485Y-93367488D01*
X218155483Y-93367490D01*
X218095862Y-93449550D01*
X218016657Y-93558566D01*
X217909433Y-93769003D01*
X217836446Y-93993631D01*
X217799500Y-94226902D01*
X217799500Y-94463097D01*
X217836446Y-94696368D01*
X217909433Y-94920996D01*
X217989970Y-95079057D01*
X218016657Y-95131433D01*
X218155483Y-95322510D01*
X218322490Y-95489517D01*
X218357127Y-95514683D01*
X218399792Y-95570013D01*
X218405771Y-95639626D01*
X218373165Y-95701421D01*
X218357130Y-95715315D01*
X218339365Y-95728222D01*
X218322488Y-95740484D01*
X218155485Y-95907487D01*
X218155485Y-95907488D01*
X218155483Y-95907490D01*
X218095862Y-95989550D01*
X218016657Y-96098566D01*
X217909433Y-96309003D01*
X217836446Y-96533631D01*
X217799500Y-96766902D01*
X217799500Y-97003097D01*
X217836446Y-97236368D01*
X217909433Y-97460996D01*
X217963082Y-97566287D01*
X218016657Y-97671433D01*
X218155483Y-97862510D01*
X218322490Y-98029517D01*
X218357127Y-98054683D01*
X218399792Y-98110013D01*
X218405771Y-98179626D01*
X218373165Y-98241421D01*
X218357130Y-98255315D01*
X218339365Y-98268222D01*
X218322488Y-98280484D01*
X218155485Y-98447487D01*
X218155485Y-98447488D01*
X218155483Y-98447490D01*
X218095862Y-98529550D01*
X218016657Y-98638566D01*
X217909433Y-98849003D01*
X217836446Y-99073631D01*
X217799500Y-99306902D01*
X217799500Y-99543097D01*
X217836446Y-99776368D01*
X217909433Y-100000996D01*
X217963082Y-100106287D01*
X218016657Y-100211433D01*
X218155483Y-100402510D01*
X218322490Y-100569517D01*
X218357127Y-100594683D01*
X218399792Y-100650013D01*
X218405771Y-100719626D01*
X218373165Y-100781421D01*
X218357130Y-100795315D01*
X218339365Y-100808222D01*
X218322488Y-100820484D01*
X218155485Y-100987487D01*
X218155485Y-100987488D01*
X218155483Y-100987490D01*
X218095862Y-101069550D01*
X218016657Y-101178566D01*
X217909433Y-101389003D01*
X217836446Y-101613631D01*
X217799500Y-101846902D01*
X217799500Y-102083097D01*
X217836446Y-102316368D01*
X217909433Y-102540996D01*
X217963082Y-102646287D01*
X218016657Y-102751433D01*
X218155483Y-102942510D01*
X218322490Y-103109517D01*
X218357127Y-103134683D01*
X218399792Y-103190013D01*
X218405771Y-103259626D01*
X218373165Y-103321421D01*
X218357130Y-103335315D01*
X218339365Y-103348222D01*
X218322488Y-103360484D01*
X218155485Y-103527487D01*
X218155485Y-103527488D01*
X218155483Y-103527490D01*
X218095862Y-103609550D01*
X218016657Y-103718566D01*
X217909433Y-103929003D01*
X217836446Y-104153631D01*
X217799500Y-104386902D01*
X217799500Y-104623097D01*
X217836446Y-104856368D01*
X217909433Y-105080996D01*
X217963082Y-105186287D01*
X218016657Y-105291433D01*
X218155483Y-105482510D01*
X218322490Y-105649517D01*
X218357127Y-105674683D01*
X218399792Y-105730013D01*
X218405771Y-105799626D01*
X218373165Y-105861421D01*
X218357130Y-105875315D01*
X218339365Y-105888222D01*
X218322488Y-105900484D01*
X218155485Y-106067487D01*
X218155485Y-106067488D01*
X218155483Y-106067490D01*
X218095862Y-106149550D01*
X218016657Y-106258566D01*
X217909433Y-106469003D01*
X217836446Y-106693631D01*
X217799500Y-106926902D01*
X217799500Y-107163097D01*
X217836446Y-107396368D01*
X217909433Y-107620996D01*
X217963082Y-107726287D01*
X218016657Y-107831433D01*
X218155483Y-108022510D01*
X218322490Y-108189517D01*
X218513567Y-108328343D01*
X218612991Y-108379002D01*
X218724003Y-108435566D01*
X218724005Y-108435566D01*
X218724008Y-108435568D01*
X218844412Y-108474689D01*
X218948631Y-108508553D01*
X219181903Y-108545500D01*
X219215708Y-108545500D01*
X219282747Y-108565185D01*
X219328502Y-108617989D01*
X219338446Y-108687147D01*
X219309421Y-108750703D01*
X219250643Y-108788477D01*
X219247835Y-108789265D01*
X219190418Y-108804649D01*
X219156112Y-108813842D01*
X218944123Y-108901650D01*
X218944109Y-108901657D01*
X218745382Y-109016392D01*
X218563338Y-109156081D01*
X218401081Y-109318338D01*
X218261392Y-109500382D01*
X218146657Y-109699109D01*
X218146650Y-109699123D01*
X218058842Y-109911112D01*
X217999453Y-110132759D01*
X217999451Y-110132770D01*
X217969500Y-110360258D01*
X217969500Y-110589741D01*
X217994446Y-110779215D01*
X217999452Y-110817238D01*
X217999453Y-110817240D01*
X218058842Y-111038887D01*
X218146650Y-111250876D01*
X218146657Y-111250890D01*
X218261392Y-111449617D01*
X218401081Y-111631661D01*
X218401089Y-111631670D01*
X218563330Y-111793911D01*
X218563338Y-111793918D01*
X218745382Y-111933607D01*
X218745385Y-111933608D01*
X218745388Y-111933611D01*
X218944112Y-112048344D01*
X218944117Y-112048346D01*
X218944123Y-112048349D01*
X218990648Y-112067620D01*
X219156113Y-112136158D01*
X219377762Y-112195548D01*
X219605266Y-112225500D01*
X219605273Y-112225500D01*
X219834727Y-112225500D01*
X219834734Y-112225500D01*
X220062238Y-112195548D01*
X220283887Y-112136158D01*
X220495888Y-112048344D01*
X220694612Y-111933611D01*
X220876661Y-111793919D01*
X220876665Y-111793914D01*
X220876670Y-111793911D01*
X221038911Y-111631670D01*
X221038914Y-111631665D01*
X221038919Y-111631661D01*
X221177125Y-111451549D01*
X221233553Y-111410347D01*
X221303299Y-111406192D01*
X221364219Y-111440405D01*
X221396971Y-111502122D01*
X221399500Y-111527036D01*
X221399500Y-113275500D01*
X221379815Y-113342539D01*
X221327011Y-113388294D01*
X221275500Y-113399500D01*
X204563148Y-113399500D01*
X204522227Y-113410464D01*
X204522227Y-113410465D01*
X204484959Y-113420451D01*
X204410422Y-113440423D01*
X204410417Y-113440426D01*
X204273498Y-113519475D01*
X204273490Y-113519481D01*
X191709481Y-126083490D01*
X191709477Y-126083495D01*
X191670180Y-126151561D01*
X191660276Y-126168716D01*
X191630423Y-126220423D01*
X191589499Y-126373151D01*
X191589499Y-126373153D01*
X191589499Y-126383164D01*
X191569814Y-126450203D01*
X191521795Y-126493648D01*
X191455976Y-126527185D01*
X191277641Y-126656752D01*
X191277636Y-126656756D01*
X191227463Y-126706929D01*
X191166140Y-126740413D01*
X191096448Y-126735428D01*
X191040515Y-126693557D01*
X191023601Y-126662580D01*
X190993797Y-126582671D01*
X190993793Y-126582664D01*
X190907547Y-126467455D01*
X190907544Y-126467452D01*
X190792335Y-126381206D01*
X190792328Y-126381202D01*
X190657482Y-126330908D01*
X190657483Y-126330908D01*
X190597883Y-126324501D01*
X190597881Y-126324500D01*
X190597873Y-126324500D01*
X190597864Y-126324500D01*
X188702129Y-126324500D01*
X188702123Y-126324501D01*
X188642516Y-126330908D01*
X188507671Y-126381202D01*
X188507664Y-126381206D01*
X188392455Y-126467452D01*
X188392452Y-126467455D01*
X188306206Y-126582664D01*
X188306202Y-126582671D01*
X188255908Y-126717517D01*
X188249501Y-126777116D01*
X188249500Y-126777135D01*
X184822742Y-126777135D01*
X184702363Y-126656756D01*
X184702358Y-126656752D01*
X184524025Y-126527187D01*
X184524024Y-126527186D01*
X184524022Y-126527185D01*
X184406791Y-126467452D01*
X184327606Y-126427104D01*
X184327603Y-126427103D01*
X184117952Y-126358985D01*
X184009086Y-126341742D01*
X183900222Y-126324500D01*
X183679778Y-126324500D01*
X183607201Y-126335995D01*
X183462047Y-126358985D01*
X183252396Y-126427103D01*
X183252393Y-126427104D01*
X183055974Y-126527187D01*
X182877641Y-126656752D01*
X182877636Y-126656756D01*
X182827463Y-126706929D01*
X182766140Y-126740413D01*
X182696448Y-126735428D01*
X182640515Y-126693557D01*
X182623601Y-126662580D01*
X182593797Y-126582671D01*
X182593793Y-126582664D01*
X182507547Y-126467455D01*
X182507544Y-126467452D01*
X182392335Y-126381206D01*
X182392328Y-126381202D01*
X182257482Y-126330908D01*
X182257483Y-126330908D01*
X182197883Y-126324501D01*
X182197881Y-126324500D01*
X182197873Y-126324500D01*
X182197864Y-126324500D01*
X180302129Y-126324500D01*
X180302123Y-126324501D01*
X180242516Y-126330908D01*
X180107671Y-126381202D01*
X180107664Y-126381206D01*
X179992455Y-126467452D01*
X179992452Y-126467455D01*
X179906206Y-126582664D01*
X179906202Y-126582671D01*
X179855908Y-126717517D01*
X179849501Y-126777116D01*
X179849500Y-126777135D01*
X176600500Y-126777135D01*
X176600500Y-123715513D01*
X180799500Y-123715513D01*
X180799500Y-123904486D01*
X180829059Y-124091118D01*
X180887454Y-124270836D01*
X180949229Y-124392075D01*
X180973240Y-124439199D01*
X181084310Y-124592073D01*
X181217927Y-124725690D01*
X181370801Y-124836760D01*
X181450347Y-124877290D01*
X181539163Y-124922545D01*
X181539165Y-124922545D01*
X181539168Y-124922547D01*
X181635497Y-124953846D01*
X181718881Y-124980940D01*
X181905514Y-125010500D01*
X181905519Y-125010500D01*
X182094486Y-125010500D01*
X182281118Y-124980940D01*
X182460832Y-124922547D01*
X182629199Y-124836760D01*
X182782073Y-124725690D01*
X182915690Y-124592073D01*
X183026760Y-124439199D01*
X183112547Y-124270832D01*
X183170940Y-124091118D01*
X183183408Y-124012398D01*
X183200500Y-123904486D01*
X183200500Y-123715513D01*
X187799500Y-123715513D01*
X187799500Y-123904486D01*
X187829059Y-124091118D01*
X187887454Y-124270836D01*
X187949229Y-124392075D01*
X187973240Y-124439199D01*
X188084310Y-124592073D01*
X188217927Y-124725690D01*
X188370801Y-124836760D01*
X188450347Y-124877290D01*
X188539163Y-124922545D01*
X188539165Y-124922545D01*
X188539168Y-124922547D01*
X188635497Y-124953846D01*
X188718881Y-124980940D01*
X188905514Y-125010500D01*
X188905519Y-125010500D01*
X189094486Y-125010500D01*
X189281118Y-124980940D01*
X189460832Y-124922547D01*
X189629199Y-124836760D01*
X189782073Y-124725690D01*
X189915690Y-124592073D01*
X190026760Y-124439199D01*
X190112547Y-124270832D01*
X190170940Y-124091118D01*
X190183408Y-124012398D01*
X190200500Y-123904486D01*
X190200500Y-123715513D01*
X190170940Y-123528881D01*
X190143846Y-123445497D01*
X190112547Y-123349168D01*
X190112545Y-123349165D01*
X190112545Y-123349163D01*
X190026759Y-123180800D01*
X190003777Y-123149168D01*
X189915690Y-123027927D01*
X189782073Y-122894310D01*
X189629199Y-122783240D01*
X189585794Y-122761124D01*
X189460836Y-122697454D01*
X189281118Y-122639059D01*
X189094486Y-122609500D01*
X189094481Y-122609500D01*
X188905519Y-122609500D01*
X188905514Y-122609500D01*
X188718881Y-122639059D01*
X188539163Y-122697454D01*
X188370800Y-122783240D01*
X188309295Y-122827927D01*
X188217927Y-122894310D01*
X188217925Y-122894312D01*
X188217924Y-122894312D01*
X188084312Y-123027924D01*
X188084312Y-123027925D01*
X188084310Y-123027927D01*
X188036610Y-123093579D01*
X187973240Y-123180800D01*
X187887454Y-123349163D01*
X187829059Y-123528881D01*
X187799500Y-123715513D01*
X183200500Y-123715513D01*
X183170940Y-123528881D01*
X183143846Y-123445497D01*
X183112547Y-123349168D01*
X183112545Y-123349165D01*
X183112545Y-123349163D01*
X183026759Y-123180800D01*
X183003777Y-123149168D01*
X182915690Y-123027927D01*
X182782073Y-122894310D01*
X182629199Y-122783240D01*
X182585794Y-122761124D01*
X182460836Y-122697454D01*
X182281118Y-122639059D01*
X182094486Y-122609500D01*
X182094481Y-122609500D01*
X181905519Y-122609500D01*
X181905514Y-122609500D01*
X181718881Y-122639059D01*
X181539163Y-122697454D01*
X181370800Y-122783240D01*
X181309295Y-122827927D01*
X181217927Y-122894310D01*
X181217925Y-122894312D01*
X181217924Y-122894312D01*
X181084312Y-123027924D01*
X181084312Y-123027925D01*
X181084310Y-123027927D01*
X181036610Y-123093579D01*
X180973240Y-123180800D01*
X180887454Y-123349163D01*
X180829059Y-123528881D01*
X180799500Y-123715513D01*
X176600500Y-123715513D01*
X176600500Y-116095513D01*
X180799500Y-116095513D01*
X180799500Y-116284486D01*
X180829059Y-116471118D01*
X180887454Y-116650836D01*
X180958355Y-116789986D01*
X180973240Y-116819199D01*
X181084310Y-116972073D01*
X181217927Y-117105690D01*
X181370801Y-117216760D01*
X181401051Y-117232173D01*
X181539163Y-117302545D01*
X181539165Y-117302545D01*
X181539168Y-117302547D01*
X181630784Y-117332315D01*
X181718881Y-117360940D01*
X181905514Y-117390500D01*
X181905519Y-117390500D01*
X182094486Y-117390500D01*
X182281118Y-117360940D01*
X182282623Y-117360451D01*
X182460832Y-117302547D01*
X182629199Y-117216760D01*
X182782073Y-117105690D01*
X182915690Y-116972073D01*
X183026760Y-116819199D01*
X183112547Y-116650832D01*
X183170940Y-116471118D01*
X183175869Y-116440000D01*
X183200500Y-116284486D01*
X183200500Y-116095513D01*
X187799500Y-116095513D01*
X187799500Y-116284486D01*
X187829059Y-116471118D01*
X187887454Y-116650836D01*
X187958355Y-116789986D01*
X187973240Y-116819199D01*
X188084310Y-116972073D01*
X188217927Y-117105690D01*
X188370801Y-117216760D01*
X188401051Y-117232173D01*
X188539163Y-117302545D01*
X188539165Y-117302545D01*
X188539168Y-117302547D01*
X188630784Y-117332315D01*
X188718881Y-117360940D01*
X188905514Y-117390500D01*
X188905519Y-117390500D01*
X189094486Y-117390500D01*
X189281118Y-117360940D01*
X189282623Y-117360451D01*
X189460832Y-117302547D01*
X189629199Y-117216760D01*
X189782073Y-117105690D01*
X189915690Y-116972073D01*
X190026760Y-116819199D01*
X190112547Y-116650832D01*
X190170940Y-116471118D01*
X190175869Y-116440000D01*
X190200500Y-116284486D01*
X190200500Y-116095513D01*
X190171124Y-115910045D01*
X190171124Y-115910042D01*
X190171123Y-115910038D01*
X190170958Y-115908997D01*
X190170940Y-115908882D01*
X190166596Y-115895513D01*
X195799500Y-115895513D01*
X195799500Y-116084486D01*
X195829059Y-116271118D01*
X195887454Y-116450836D01*
X195925243Y-116525000D01*
X195973240Y-116619199D01*
X196084310Y-116772073D01*
X196217927Y-116905690D01*
X196370801Y-117016760D01*
X196434474Y-117049203D01*
X196539163Y-117102545D01*
X196539165Y-117102545D01*
X196539168Y-117102547D01*
X196623136Y-117129830D01*
X196718881Y-117160940D01*
X196905514Y-117190500D01*
X196905519Y-117190500D01*
X197094486Y-117190500D01*
X197281118Y-117160940D01*
X197460832Y-117102547D01*
X197629199Y-117016760D01*
X197782073Y-116905690D01*
X197915690Y-116772073D01*
X198026760Y-116619199D01*
X198112547Y-116450832D01*
X198170940Y-116271118D01*
X198176581Y-116235500D01*
X198200500Y-116084486D01*
X198200500Y-115895513D01*
X198170940Y-115708881D01*
X198122825Y-115560800D01*
X198112547Y-115529168D01*
X198112545Y-115529165D01*
X198112545Y-115529163D01*
X198046435Y-115399415D01*
X198026760Y-115360801D01*
X197915690Y-115207927D01*
X197782073Y-115074310D01*
X197629199Y-114963240D01*
X197614285Y-114955641D01*
X197460836Y-114877454D01*
X197281118Y-114819059D01*
X197094486Y-114789500D01*
X197094481Y-114789500D01*
X196905519Y-114789500D01*
X196905514Y-114789500D01*
X196718881Y-114819059D01*
X196539163Y-114877454D01*
X196370800Y-114963240D01*
X196334657Y-114989500D01*
X196217927Y-115074310D01*
X196217925Y-115074312D01*
X196217924Y-115074312D01*
X196084312Y-115207924D01*
X196084312Y-115207925D01*
X196084310Y-115207927D01*
X196036610Y-115273579D01*
X195973240Y-115360800D01*
X195887454Y-115529163D01*
X195829059Y-115708881D01*
X195799500Y-115895513D01*
X190166596Y-115895513D01*
X190112547Y-115729168D01*
X190112545Y-115729165D01*
X190112545Y-115729163D01*
X190053171Y-115612636D01*
X190026760Y-115560801D01*
X189915690Y-115407927D01*
X189782073Y-115274310D01*
X189629199Y-115163240D01*
X189620848Y-115158985D01*
X189460836Y-115077454D01*
X189281118Y-115019059D01*
X189094486Y-114989500D01*
X189094481Y-114989500D01*
X188905519Y-114989500D01*
X188905514Y-114989500D01*
X188718881Y-115019059D01*
X188539163Y-115077454D01*
X188370800Y-115163240D01*
X188309295Y-115207927D01*
X188217927Y-115274310D01*
X188217925Y-115274312D01*
X188217924Y-115274312D01*
X188084312Y-115407924D01*
X188084312Y-115407925D01*
X188084310Y-115407927D01*
X188048832Y-115456758D01*
X187973240Y-115560800D01*
X187887454Y-115729163D01*
X187829059Y-115908881D01*
X187799500Y-116095513D01*
X183200500Y-116095513D01*
X183170940Y-115908881D01*
X183112545Y-115729163D01*
X183053171Y-115612636D01*
X183026760Y-115560801D01*
X182915690Y-115407927D01*
X182782073Y-115274310D01*
X182629199Y-115163240D01*
X182620848Y-115158985D01*
X182460836Y-115077454D01*
X182281118Y-115019059D01*
X182094486Y-114989500D01*
X182094481Y-114989500D01*
X181905519Y-114989500D01*
X181905514Y-114989500D01*
X181718881Y-115019059D01*
X181539163Y-115077454D01*
X181370800Y-115163240D01*
X181309295Y-115207927D01*
X181217927Y-115274310D01*
X181217925Y-115274312D01*
X181217924Y-115274312D01*
X181084312Y-115407924D01*
X181084312Y-115407925D01*
X181084310Y-115407927D01*
X181048832Y-115456758D01*
X180973240Y-115560800D01*
X180887454Y-115729163D01*
X180829059Y-115908881D01*
X180799500Y-116095513D01*
X176600500Y-116095513D01*
X176600500Y-112127135D01*
X179869500Y-112127135D01*
X179869500Y-113922870D01*
X179869501Y-113922876D01*
X179875908Y-113982483D01*
X179926202Y-114117328D01*
X179926206Y-114117335D01*
X180012452Y-114232544D01*
X180012455Y-114232547D01*
X180127664Y-114318793D01*
X180127671Y-114318797D01*
X180262517Y-114369091D01*
X180262516Y-114369091D01*
X180269444Y-114369835D01*
X180322127Y-114375500D01*
X182117872Y-114375499D01*
X182177483Y-114369091D01*
X182312331Y-114318796D01*
X182427546Y-114232546D01*
X182513796Y-114117331D01*
X182564091Y-113982483D01*
X182570500Y-113922873D01*
X182570499Y-112959174D01*
X182570499Y-112127155D01*
X197870000Y-112127155D01*
X197870000Y-112775000D01*
X198786988Y-112775000D01*
X198754075Y-112832007D01*
X198720000Y-112959174D01*
X198720000Y-113090826D01*
X198754075Y-113217993D01*
X198786988Y-113275000D01*
X197870000Y-113275000D01*
X197870000Y-113922844D01*
X197876401Y-113982372D01*
X197876403Y-113982379D01*
X197926645Y-114117086D01*
X197926649Y-114117093D01*
X198012809Y-114232187D01*
X198012812Y-114232190D01*
X198127906Y-114318350D01*
X198127913Y-114318354D01*
X198262620Y-114368596D01*
X198262627Y-114368598D01*
X198322155Y-114374999D01*
X198322172Y-114375000D01*
X198970000Y-114375000D01*
X198970000Y-113458012D01*
X199027007Y-113490925D01*
X199154174Y-113525000D01*
X199285826Y-113525000D01*
X199412993Y-113490925D01*
X199470000Y-113458012D01*
X199470000Y-114375000D01*
X200117828Y-114375000D01*
X200117844Y-114374999D01*
X200177372Y-114368598D01*
X200177379Y-114368596D01*
X200312086Y-114318354D01*
X200312093Y-114318350D01*
X200427187Y-114232190D01*
X200427190Y-114232187D01*
X200513350Y-114117093D01*
X200513354Y-114117086D01*
X200563596Y-113982379D01*
X200563598Y-113982372D01*
X200569999Y-113922844D01*
X200570000Y-113922827D01*
X200570000Y-113275000D01*
X199653012Y-113275000D01*
X199685925Y-113217993D01*
X199720000Y-113090826D01*
X199720000Y-112959174D01*
X199685925Y-112832007D01*
X199653012Y-112775000D01*
X200570000Y-112775000D01*
X200570000Y-112127172D01*
X200569999Y-112127155D01*
X200563598Y-112067627D01*
X200563596Y-112067620D01*
X200513354Y-111932913D01*
X200513350Y-111932906D01*
X200427190Y-111817812D01*
X200427187Y-111817809D01*
X200312093Y-111731649D01*
X200312086Y-111731645D01*
X200177379Y-111681403D01*
X200177372Y-111681401D01*
X200117844Y-111675000D01*
X199470000Y-111675000D01*
X199470000Y-112591988D01*
X199412993Y-112559075D01*
X199285826Y-112525000D01*
X199154174Y-112525000D01*
X199027007Y-112559075D01*
X198970000Y-112591988D01*
X198970000Y-111675000D01*
X198322155Y-111675000D01*
X198262627Y-111681401D01*
X198262620Y-111681403D01*
X198127913Y-111731645D01*
X198127906Y-111731649D01*
X198012812Y-111817809D01*
X198012809Y-111817812D01*
X197926649Y-111932906D01*
X197926645Y-111932913D01*
X197876403Y-112067620D01*
X197876401Y-112067627D01*
X197870000Y-112127155D01*
X182570499Y-112127155D01*
X182570499Y-112127129D01*
X182570498Y-112127123D01*
X182570497Y-112127116D01*
X182564091Y-112067517D01*
X182556939Y-112048342D01*
X182513797Y-111932671D01*
X182513793Y-111932664D01*
X182427547Y-111817455D01*
X182427544Y-111817452D01*
X182312335Y-111731206D01*
X182312328Y-111731202D01*
X182177482Y-111680908D01*
X182177483Y-111680908D01*
X182117883Y-111674501D01*
X182117881Y-111674500D01*
X182117873Y-111674500D01*
X182117864Y-111674500D01*
X180322129Y-111674500D01*
X180322123Y-111674501D01*
X180262516Y-111680908D01*
X180127671Y-111731202D01*
X180127664Y-111731206D01*
X180012455Y-111817452D01*
X180012452Y-111817455D01*
X179926206Y-111932664D01*
X179926202Y-111932671D01*
X179875908Y-112067517D01*
X179869501Y-112127116D01*
X179869501Y-112127123D01*
X179869500Y-112127135D01*
X176600500Y-112127135D01*
X176600500Y-92273713D01*
X204649500Y-92273713D01*
X204649500Y-92486287D01*
X204682754Y-92696243D01*
X204710784Y-92782511D01*
X204748444Y-92898414D01*
X204844951Y-93087820D01*
X204969890Y-93259786D01*
X205120213Y-93410109D01*
X205292182Y-93535050D01*
X205300946Y-93539516D01*
X205351742Y-93587491D01*
X205368536Y-93655312D01*
X205345998Y-93721447D01*
X205300946Y-93760484D01*
X205292182Y-93764949D01*
X205120213Y-93889890D01*
X204969890Y-94040213D01*
X204844951Y-94212179D01*
X204748444Y-94401585D01*
X204682753Y-94603760D01*
X204649500Y-94813713D01*
X204649500Y-95026286D01*
X204682047Y-95231784D01*
X204682754Y-95236243D01*
X204725797Y-95368716D01*
X204748444Y-95438414D01*
X204844951Y-95627820D01*
X204969890Y-95799786D01*
X205120213Y-95950109D01*
X205292182Y-96075050D01*
X205300946Y-96079516D01*
X205351742Y-96127491D01*
X205368536Y-96195312D01*
X205345998Y-96261447D01*
X205300946Y-96300484D01*
X205292182Y-96304949D01*
X205120213Y-96429890D01*
X204969890Y-96580213D01*
X204844951Y-96752179D01*
X204748444Y-96941585D01*
X204682753Y-97143760D01*
X204649500Y-97353713D01*
X204649500Y-97566287D01*
X204682754Y-97776243D01*
X204710784Y-97862511D01*
X204748444Y-97978414D01*
X204844951Y-98167820D01*
X204969890Y-98339786D01*
X205120213Y-98490109D01*
X205292182Y-98615050D01*
X205300946Y-98619516D01*
X205351742Y-98667491D01*
X205368536Y-98735312D01*
X205345998Y-98801447D01*
X205300946Y-98840484D01*
X205292182Y-98844949D01*
X205120213Y-98969890D01*
X204969890Y-99120213D01*
X204844951Y-99292179D01*
X204748444Y-99481585D01*
X204682753Y-99683760D01*
X204649500Y-99893713D01*
X204649500Y-100106287D01*
X204682754Y-100316243D01*
X204720977Y-100433882D01*
X204748444Y-100518414D01*
X204844951Y-100707820D01*
X204969890Y-100879786D01*
X205120213Y-101030109D01*
X205292182Y-101155050D01*
X205300946Y-101159516D01*
X205351742Y-101207491D01*
X205368536Y-101275312D01*
X205345998Y-101341447D01*
X205300946Y-101380484D01*
X205292182Y-101384949D01*
X205120213Y-101509890D01*
X204969890Y-101660213D01*
X204844951Y-101832179D01*
X204748444Y-102021585D01*
X204682753Y-102223760D01*
X204649500Y-102433713D01*
X204649500Y-102646287D01*
X204682754Y-102856243D01*
X204710784Y-102942511D01*
X204748444Y-103058414D01*
X204844951Y-103247820D01*
X204969890Y-103419786D01*
X205120213Y-103570109D01*
X205292182Y-103695050D01*
X205300946Y-103699516D01*
X205351742Y-103747491D01*
X205368536Y-103815312D01*
X205345998Y-103881447D01*
X205300946Y-103920484D01*
X205292182Y-103924949D01*
X205120213Y-104049890D01*
X204969890Y-104200213D01*
X204844951Y-104372179D01*
X204748444Y-104561585D01*
X204682753Y-104763760D01*
X204649500Y-104973713D01*
X204649500Y-105186287D01*
X204682754Y-105396243D01*
X204710784Y-105482511D01*
X204748444Y-105598414D01*
X204844951Y-105787820D01*
X204969890Y-105959786D01*
X205120213Y-106110109D01*
X205292182Y-106235050D01*
X205300946Y-106239516D01*
X205351742Y-106287491D01*
X205368536Y-106355312D01*
X205345998Y-106421447D01*
X205300946Y-106460484D01*
X205292182Y-106464949D01*
X205120213Y-106589890D01*
X204969890Y-106740213D01*
X204844951Y-106912179D01*
X204748444Y-107101585D01*
X204682753Y-107303760D01*
X204664452Y-107419310D01*
X204649500Y-107513713D01*
X204649500Y-107726287D01*
X204682754Y-107936243D01*
X204720977Y-108053882D01*
X204748444Y-108138414D01*
X204844951Y-108327820D01*
X204969890Y-108499786D01*
X205120213Y-108650109D01*
X205292179Y-108775048D01*
X205292181Y-108775049D01*
X205292184Y-108775051D01*
X205481588Y-108871557D01*
X205683757Y-108937246D01*
X205893713Y-108970500D01*
X205893714Y-108970500D01*
X206106286Y-108970500D01*
X206106287Y-108970500D01*
X206316243Y-108937246D01*
X206518412Y-108871557D01*
X206707816Y-108775051D01*
X206777394Y-108724500D01*
X206879786Y-108650109D01*
X206879788Y-108650106D01*
X206879792Y-108650104D01*
X207030104Y-108499792D01*
X207030106Y-108499788D01*
X207030109Y-108499786D01*
X207155048Y-108327820D01*
X207155047Y-108327820D01*
X207155051Y-108327816D01*
X207251557Y-108138412D01*
X207317246Y-107936243D01*
X207350500Y-107726287D01*
X207350500Y-107513713D01*
X207317246Y-107303757D01*
X207251557Y-107101588D01*
X207155051Y-106912184D01*
X207155049Y-106912181D01*
X207155048Y-106912179D01*
X207030109Y-106740213D01*
X206879786Y-106589890D01*
X206707820Y-106464951D01*
X206707115Y-106464591D01*
X206699054Y-106460485D01*
X206648259Y-106412512D01*
X206631463Y-106344692D01*
X206653999Y-106278556D01*
X206699054Y-106239515D01*
X206707816Y-106235051D01*
X206729789Y-106219086D01*
X206879786Y-106110109D01*
X206879788Y-106110106D01*
X206879792Y-106110104D01*
X207030104Y-105959792D01*
X207030106Y-105959788D01*
X207030109Y-105959786D01*
X207155048Y-105787820D01*
X207155047Y-105787820D01*
X207155051Y-105787816D01*
X207251557Y-105598412D01*
X207317246Y-105396243D01*
X207350500Y-105186287D01*
X207350500Y-104973713D01*
X207317246Y-104763757D01*
X207251557Y-104561588D01*
X207155051Y-104372184D01*
X207155049Y-104372181D01*
X207155048Y-104372179D01*
X207030109Y-104200213D01*
X206879786Y-104049890D01*
X206707820Y-103924951D01*
X206707115Y-103924591D01*
X206699054Y-103920485D01*
X206648259Y-103872512D01*
X206631463Y-103804692D01*
X206653999Y-103738556D01*
X206699054Y-103699515D01*
X206707816Y-103695051D01*
X206795583Y-103631285D01*
X206879786Y-103570109D01*
X206879788Y-103570106D01*
X206879792Y-103570104D01*
X207030104Y-103419792D01*
X207030106Y-103419788D01*
X207030109Y-103419786D01*
X207155048Y-103247820D01*
X207155047Y-103247820D01*
X207155051Y-103247816D01*
X207251557Y-103058412D01*
X207317246Y-102856243D01*
X207350500Y-102646287D01*
X207350500Y-102433713D01*
X207317246Y-102223757D01*
X207251557Y-102021588D01*
X207155051Y-101832184D01*
X207155049Y-101832181D01*
X207155048Y-101832179D01*
X207030109Y-101660213D01*
X206879786Y-101509890D01*
X206707820Y-101384951D01*
X206707115Y-101384591D01*
X206699054Y-101380485D01*
X206648259Y-101332512D01*
X206631463Y-101264692D01*
X206653999Y-101198556D01*
X206699054Y-101159515D01*
X206707816Y-101155051D01*
X206729789Y-101139086D01*
X206879786Y-101030109D01*
X206879788Y-101030106D01*
X206879792Y-101030104D01*
X207030104Y-100879792D01*
X207030106Y-100879788D01*
X207030109Y-100879786D01*
X207155048Y-100707820D01*
X207155047Y-100707820D01*
X207155051Y-100707816D01*
X207251557Y-100518412D01*
X207317246Y-100316243D01*
X207350500Y-100106287D01*
X207350500Y-99893713D01*
X207317246Y-99683757D01*
X207251557Y-99481588D01*
X207155051Y-99292184D01*
X207155049Y-99292181D01*
X207155048Y-99292179D01*
X207030109Y-99120213D01*
X206879786Y-98969890D01*
X206707820Y-98844951D01*
X206707115Y-98844591D01*
X206699054Y-98840485D01*
X206648259Y-98792512D01*
X206631463Y-98724692D01*
X206653999Y-98658556D01*
X206699054Y-98619515D01*
X206707816Y-98615051D01*
X206729789Y-98599086D01*
X206879786Y-98490109D01*
X206879788Y-98490106D01*
X206879792Y-98490104D01*
X207030104Y-98339792D01*
X207030106Y-98339788D01*
X207030109Y-98339786D01*
X207155048Y-98167820D01*
X207155047Y-98167820D01*
X207155051Y-98167816D01*
X207251557Y-97978412D01*
X207317246Y-97776243D01*
X207350500Y-97566287D01*
X207350500Y-97353713D01*
X207317246Y-97143757D01*
X207251557Y-96941588D01*
X207155051Y-96752184D01*
X207155049Y-96752181D01*
X207155048Y-96752179D01*
X207030109Y-96580213D01*
X206879786Y-96429890D01*
X206707820Y-96304951D01*
X206707115Y-96304591D01*
X206699054Y-96300485D01*
X206648259Y-96252512D01*
X206631463Y-96184692D01*
X206653999Y-96118556D01*
X206699054Y-96079515D01*
X206707816Y-96075051D01*
X206729789Y-96059086D01*
X206879786Y-95950109D01*
X206879788Y-95950106D01*
X206879792Y-95950104D01*
X207030104Y-95799792D01*
X207030106Y-95799788D01*
X207030109Y-95799786D01*
X207155048Y-95627820D01*
X207155047Y-95627820D01*
X207155051Y-95627816D01*
X207251557Y-95438412D01*
X207317246Y-95236243D01*
X207350500Y-95026287D01*
X207350500Y-94813713D01*
X207317246Y-94603757D01*
X207251557Y-94401588D01*
X207155051Y-94212184D01*
X207155049Y-94212181D01*
X207155048Y-94212179D01*
X207030109Y-94040213D01*
X206879786Y-93889890D01*
X206707820Y-93764951D01*
X206707115Y-93764591D01*
X206699054Y-93760485D01*
X206648259Y-93712512D01*
X206631463Y-93644692D01*
X206653999Y-93578556D01*
X206699054Y-93539515D01*
X206707816Y-93535051D01*
X206729789Y-93519086D01*
X206879786Y-93410109D01*
X206879788Y-93410106D01*
X206879792Y-93410104D01*
X207030104Y-93259792D01*
X207030106Y-93259788D01*
X207030109Y-93259786D01*
X207155048Y-93087820D01*
X207155047Y-93087820D01*
X207155051Y-93087816D01*
X207251557Y-92898412D01*
X207317246Y-92696243D01*
X207350500Y-92486287D01*
X207350500Y-92273713D01*
X207317246Y-92063757D01*
X207251557Y-91861588D01*
X207155051Y-91672184D01*
X207155049Y-91672181D01*
X207155048Y-91672179D01*
X207030109Y-91500213D01*
X206916181Y-91386285D01*
X206882696Y-91324962D01*
X206887680Y-91255270D01*
X206929552Y-91199337D01*
X206960529Y-91182422D01*
X207092086Y-91133354D01*
X207092093Y-91133350D01*
X207207187Y-91047190D01*
X207207190Y-91047187D01*
X207293350Y-90932093D01*
X207293354Y-90932086D01*
X207343596Y-90797379D01*
X207343598Y-90797372D01*
X207349999Y-90737844D01*
X207350000Y-90737827D01*
X207350000Y-90090000D01*
X206433012Y-90090000D01*
X206465925Y-90032993D01*
X206500000Y-89905826D01*
X206500000Y-89774174D01*
X206465925Y-89647007D01*
X206433012Y-89590000D01*
X207350000Y-89590000D01*
X207350000Y-88942172D01*
X207349999Y-88942155D01*
X207343598Y-88882627D01*
X207343596Y-88882620D01*
X207293354Y-88747913D01*
X207293350Y-88747906D01*
X207207190Y-88632812D01*
X207207187Y-88632809D01*
X207092093Y-88546649D01*
X207092086Y-88546645D01*
X206957379Y-88496403D01*
X206957372Y-88496401D01*
X206897844Y-88490000D01*
X206250000Y-88490000D01*
X206250000Y-89406988D01*
X206192993Y-89374075D01*
X206065826Y-89340000D01*
X205934174Y-89340000D01*
X205807007Y-89374075D01*
X205750000Y-89406988D01*
X205750000Y-88490000D01*
X205102155Y-88490000D01*
X205042627Y-88496401D01*
X205042620Y-88496403D01*
X204907913Y-88546645D01*
X204907906Y-88546649D01*
X204792812Y-88632809D01*
X204792809Y-88632812D01*
X204706649Y-88747906D01*
X204706645Y-88747913D01*
X204656403Y-88882620D01*
X204656401Y-88882627D01*
X204650000Y-88942155D01*
X204650000Y-89590000D01*
X205566988Y-89590000D01*
X205534075Y-89647007D01*
X205500000Y-89774174D01*
X205500000Y-89905826D01*
X205534075Y-90032993D01*
X205566988Y-90090000D01*
X204650000Y-90090000D01*
X204650000Y-90737844D01*
X204656401Y-90797372D01*
X204656403Y-90797379D01*
X204706645Y-90932086D01*
X204706649Y-90932093D01*
X204792809Y-91047187D01*
X204792812Y-91047190D01*
X204907906Y-91133350D01*
X204907913Y-91133354D01*
X205039470Y-91182422D01*
X205095404Y-91224293D01*
X205119821Y-91289758D01*
X205104969Y-91358031D01*
X205083819Y-91386285D01*
X204969889Y-91500215D01*
X204844951Y-91672179D01*
X204748444Y-91861585D01*
X204682753Y-92063760D01*
X204668085Y-92156372D01*
X204649500Y-92273713D01*
X176600500Y-92273713D01*
X176600500Y-78344011D01*
X204200000Y-78344011D01*
X204200000Y-78815000D01*
X205399999Y-78815000D01*
X205374979Y-78875402D01*
X205350000Y-79000981D01*
X205350000Y-79129019D01*
X205374979Y-79254598D01*
X205399999Y-79315000D01*
X204200001Y-79315000D01*
X204200001Y-79785988D01*
X204206147Y-79874559D01*
X204206148Y-79874568D01*
X204254941Y-80082017D01*
X204254946Y-80082032D01*
X204341028Y-80276990D01*
X204461474Y-80452820D01*
X204612179Y-80603525D01*
X204788009Y-80723971D01*
X204982967Y-80810053D01*
X204982982Y-80810058D01*
X205190429Y-80858850D01*
X205190444Y-80858852D01*
X205279011Y-80864999D01*
X205749999Y-80864999D01*
X205750000Y-80864998D01*
X205750000Y-79665001D01*
X205810402Y-79690021D01*
X205935981Y-79715000D01*
X206064019Y-79715000D01*
X206189598Y-79690021D01*
X206250000Y-79665001D01*
X206250000Y-80864999D01*
X206720988Y-80864999D01*
X206809559Y-80858852D01*
X206809568Y-80858851D01*
X207017017Y-80810058D01*
X207017032Y-80810053D01*
X207211990Y-80723971D01*
X207387820Y-80603525D01*
X207538525Y-80452820D01*
X207658971Y-80276990D01*
X207745053Y-80082032D01*
X207745058Y-80082017D01*
X207793850Y-79874570D01*
X207793852Y-79874555D01*
X207800000Y-79785988D01*
X207800000Y-79315000D01*
X206600001Y-79315000D01*
X206625021Y-79254598D01*
X206650000Y-79129019D01*
X206650000Y-79000981D01*
X206625021Y-78875402D01*
X206600001Y-78815000D01*
X207799999Y-78815000D01*
X207799999Y-78344011D01*
X207793852Y-78255440D01*
X207793851Y-78255431D01*
X207745058Y-78047982D01*
X207745053Y-78047967D01*
X207658971Y-77853009D01*
X207538525Y-77677179D01*
X207387820Y-77526474D01*
X207211990Y-77406028D01*
X207017032Y-77319946D01*
X207017017Y-77319941D01*
X206809570Y-77271149D01*
X206809555Y-77271147D01*
X206720989Y-77265000D01*
X206250000Y-77265000D01*
X206250000Y-78464998D01*
X206189598Y-78439979D01*
X206064019Y-78415000D01*
X205935981Y-78415000D01*
X205810402Y-78439979D01*
X205750000Y-78464998D01*
X205750000Y-77265000D01*
X205279012Y-77265000D01*
X205190440Y-77271147D01*
X205190431Y-77271148D01*
X204982982Y-77319941D01*
X204982967Y-77319946D01*
X204788009Y-77406028D01*
X204612179Y-77526474D01*
X204461474Y-77677179D01*
X204341028Y-77853009D01*
X204254946Y-78047967D01*
X204254941Y-78047982D01*
X204206149Y-78255429D01*
X204206147Y-78255444D01*
X204200000Y-78344011D01*
X176600500Y-78344011D01*
X176600500Y-72127135D01*
X179869500Y-72127135D01*
X179869500Y-73922870D01*
X179869501Y-73922876D01*
X179875908Y-73982483D01*
X179926202Y-74117328D01*
X179926206Y-74117335D01*
X180012452Y-74232544D01*
X180012455Y-74232547D01*
X180127664Y-74318793D01*
X180127671Y-74318797D01*
X180262517Y-74369091D01*
X180262516Y-74369091D01*
X180269444Y-74369835D01*
X180322127Y-74375500D01*
X182117872Y-74375499D01*
X182177483Y-74369091D01*
X182312331Y-74318796D01*
X182427546Y-74232546D01*
X182513796Y-74117331D01*
X182564091Y-73982483D01*
X182570500Y-73922873D01*
X182570499Y-72127135D01*
X197869500Y-72127135D01*
X197869500Y-73922870D01*
X197869501Y-73922876D01*
X197875908Y-73982483D01*
X197926202Y-74117328D01*
X197926206Y-74117335D01*
X198012452Y-74232544D01*
X198012455Y-74232547D01*
X198127664Y-74318793D01*
X198127671Y-74318797D01*
X198262517Y-74369091D01*
X198262516Y-74369091D01*
X198269444Y-74369835D01*
X198322127Y-74375500D01*
X200117872Y-74375499D01*
X200177483Y-74369091D01*
X200312331Y-74318796D01*
X200427546Y-74232546D01*
X200513796Y-74117331D01*
X200564091Y-73982483D01*
X200570500Y-73922873D01*
X200570500Y-73866995D01*
X204199500Y-73866995D01*
X204199500Y-74103004D01*
X204199501Y-74103020D01*
X204230306Y-74337010D01*
X204291394Y-74564993D01*
X204381714Y-74783045D01*
X204381719Y-74783056D01*
X204452677Y-74905957D01*
X204499727Y-74987450D01*
X204499729Y-74987453D01*
X204499730Y-74987454D01*
X204643406Y-75174697D01*
X204643412Y-75174704D01*
X204810295Y-75341587D01*
X204810302Y-75341593D01*
X204920306Y-75426001D01*
X204997550Y-75485273D01*
X205128918Y-75561118D01*
X205201943Y-75603280D01*
X205201948Y-75603282D01*
X205201951Y-75603284D01*
X205420007Y-75693606D01*
X205647986Y-75754693D01*
X205881989Y-75785500D01*
X205881996Y-75785500D01*
X206118004Y-75785500D01*
X206118011Y-75785500D01*
X206352014Y-75754693D01*
X206579993Y-75693606D01*
X206798049Y-75603284D01*
X207002450Y-75485273D01*
X207189699Y-75341592D01*
X207356592Y-75174699D01*
X207500273Y-74987450D01*
X207618284Y-74783049D01*
X207708606Y-74564993D01*
X207769693Y-74337014D01*
X207800500Y-74103011D01*
X207800500Y-73866989D01*
X207769693Y-73632986D01*
X207708606Y-73405007D01*
X207618284Y-73186951D01*
X207618282Y-73186948D01*
X207618280Y-73186943D01*
X207576118Y-73113918D01*
X207500273Y-72982550D01*
X207356592Y-72795301D01*
X207356587Y-72795295D01*
X207189704Y-72628412D01*
X207189697Y-72628406D01*
X207002454Y-72484730D01*
X207002453Y-72484729D01*
X207002450Y-72484727D01*
X206920957Y-72437677D01*
X206798056Y-72366719D01*
X206798045Y-72366714D01*
X206579993Y-72276394D01*
X206352010Y-72215306D01*
X206118020Y-72184501D01*
X206118017Y-72184500D01*
X206118011Y-72184500D01*
X205881989Y-72184500D01*
X205881983Y-72184500D01*
X205881979Y-72184501D01*
X205647989Y-72215306D01*
X205420006Y-72276394D01*
X205201954Y-72366714D01*
X205201943Y-72366719D01*
X204997545Y-72484730D01*
X204810302Y-72628406D01*
X204810295Y-72628412D01*
X204643412Y-72795295D01*
X204643406Y-72795302D01*
X204499730Y-72982545D01*
X204381719Y-73186943D01*
X204381714Y-73186954D01*
X204291394Y-73405006D01*
X204230306Y-73632989D01*
X204199501Y-73866979D01*
X204199500Y-73866995D01*
X200570500Y-73866995D01*
X200570499Y-72127128D01*
X200564091Y-72067517D01*
X200561586Y-72060802D01*
X200513797Y-71932671D01*
X200513793Y-71932664D01*
X200427547Y-71817455D01*
X200427544Y-71817452D01*
X200312335Y-71731206D01*
X200312328Y-71731202D01*
X200177482Y-71680908D01*
X200177483Y-71680908D01*
X200117883Y-71674501D01*
X200117881Y-71674500D01*
X200117873Y-71674500D01*
X200117864Y-71674500D01*
X198322129Y-71674500D01*
X198322123Y-71674501D01*
X198262516Y-71680908D01*
X198127671Y-71731202D01*
X198127664Y-71731206D01*
X198012455Y-71817452D01*
X198012452Y-71817455D01*
X197926206Y-71932664D01*
X197926202Y-71932671D01*
X197875908Y-72067517D01*
X197869501Y-72127116D01*
X197869501Y-72127123D01*
X197869500Y-72127135D01*
X182570499Y-72127135D01*
X182570499Y-72127128D01*
X182564091Y-72067517D01*
X182561586Y-72060802D01*
X182513797Y-71932671D01*
X182513793Y-71932664D01*
X182427547Y-71817455D01*
X182427544Y-71817452D01*
X182312335Y-71731206D01*
X182312328Y-71731202D01*
X182177482Y-71680908D01*
X182177483Y-71680908D01*
X182117883Y-71674501D01*
X182117881Y-71674500D01*
X182117873Y-71674500D01*
X182117864Y-71674500D01*
X180322129Y-71674500D01*
X180322123Y-71674501D01*
X180262516Y-71680908D01*
X180127671Y-71731202D01*
X180127664Y-71731206D01*
X180012455Y-71817452D01*
X180012452Y-71817455D01*
X179926206Y-71932664D01*
X179926202Y-71932671D01*
X179875908Y-72067517D01*
X179869501Y-72127116D01*
X179869501Y-72127123D01*
X179869500Y-72127135D01*
X176600500Y-72127135D01*
X176600500Y-58393713D01*
X177673174Y-58393713D01*
X177673174Y-58606286D01*
X177706427Y-58816239D01*
X177772118Y-59018414D01*
X177868625Y-59207820D01*
X177993564Y-59379786D01*
X178132379Y-59518601D01*
X178165864Y-59579924D01*
X178160880Y-59649616D01*
X178119008Y-59705549D01*
X178109795Y-59711821D01*
X177955016Y-59807289D01*
X177830963Y-59931342D01*
X177738861Y-60080663D01*
X177738860Y-60080666D01*
X177683675Y-60247203D01*
X177683675Y-60247204D01*
X177683674Y-60247204D01*
X177673174Y-60349983D01*
X177673174Y-61650001D01*
X177673175Y-61650018D01*
X177683674Y-61752796D01*
X177683675Y-61752799D01*
X177738859Y-61919331D01*
X177738861Y-61919336D01*
X177758796Y-61951656D01*
X177830962Y-62068656D01*
X177955018Y-62192712D01*
X178104340Y-62284814D01*
X178270877Y-62339999D01*
X178373665Y-62350500D01*
X179973682Y-62350499D01*
X180076471Y-62339999D01*
X180175940Y-62307037D01*
X180245765Y-62304636D01*
X180305807Y-62340367D01*
X180337001Y-62402887D01*
X180336560Y-62448934D01*
X180323174Y-62516234D01*
X180323174Y-62683771D01*
X180355856Y-62848074D01*
X180355858Y-62848082D01*
X180419969Y-63002860D01*
X180513047Y-63142162D01*
X180631511Y-63260626D01*
X180724168Y-63322537D01*
X180770811Y-63353703D01*
X180925592Y-63417816D01*
X181089902Y-63450499D01*
X181089906Y-63450500D01*
X181089907Y-63450500D01*
X181257442Y-63450500D01*
X181257443Y-63450499D01*
X181421756Y-63417816D01*
X181576537Y-63353703D01*
X181715836Y-63260626D01*
X181834300Y-63142162D01*
X181927377Y-63002863D01*
X181991490Y-62848082D01*
X182024174Y-62683767D01*
X182024174Y-62516233D01*
X181991490Y-62351918D01*
X181927377Y-62197137D01*
X181896211Y-62150494D01*
X181834300Y-62057837D01*
X181715836Y-61939373D01*
X181639772Y-61888549D01*
X185172151Y-61888549D01*
X185172151Y-62111450D01*
X185172152Y-62111466D01*
X185201245Y-62332452D01*
X185201246Y-62332457D01*
X185201247Y-62332463D01*
X185250488Y-62516232D01*
X185258941Y-62547780D01*
X185258944Y-62547790D01*
X185342339Y-62749123D01*
X185344246Y-62753726D01*
X185455703Y-62946774D01*
X185455708Y-62946780D01*
X185455709Y-62946782D01*
X185591402Y-63123622D01*
X185591408Y-63123629D01*
X185749021Y-63281242D01*
X185749027Y-63281247D01*
X185925877Y-63416948D01*
X186118925Y-63528405D01*
X186324870Y-63613710D01*
X186540188Y-63671404D01*
X186761194Y-63700500D01*
X186761201Y-63700500D01*
X186984101Y-63700500D01*
X186984108Y-63700500D01*
X187205114Y-63671404D01*
X187420432Y-63613710D01*
X187626377Y-63528405D01*
X187819425Y-63416948D01*
X187996275Y-63281247D01*
X188153898Y-63123624D01*
X188289599Y-62946774D01*
X188401056Y-62753726D01*
X188486361Y-62547781D01*
X188544055Y-62332463D01*
X188573151Y-62111457D01*
X188573151Y-61888543D01*
X188544055Y-61667537D01*
X188486361Y-61452219D01*
X188401056Y-61246274D01*
X188289599Y-61053226D01*
X188248745Y-60999984D01*
X192672151Y-60999984D01*
X192672151Y-63000015D01*
X192682651Y-63102795D01*
X192682652Y-63102797D01*
X192689555Y-63123629D01*
X192737837Y-63269335D01*
X192737838Y-63269337D01*
X192829937Y-63418651D01*
X192829940Y-63418655D01*
X192953995Y-63542710D01*
X192953999Y-63542713D01*
X193103313Y-63634812D01*
X193103315Y-63634813D01*
X193103317Y-63634814D01*
X193269854Y-63689999D01*
X193372643Y-63700500D01*
X193372648Y-63700500D01*
X195372654Y-63700500D01*
X195372659Y-63700500D01*
X195475448Y-63689999D01*
X195641985Y-63634814D01*
X195791306Y-63542711D01*
X195915362Y-63418655D01*
X195920541Y-63410258D01*
X217969500Y-63410258D01*
X217969500Y-63639741D01*
X217977500Y-63700500D01*
X217999452Y-63867238D01*
X217999453Y-63867240D01*
X218058842Y-64088887D01*
X218146650Y-64300876D01*
X218146657Y-64300890D01*
X218261392Y-64499617D01*
X218401081Y-64681661D01*
X218401089Y-64681670D01*
X218563330Y-64843911D01*
X218563338Y-64843918D01*
X218745382Y-64983607D01*
X218745385Y-64983608D01*
X218745388Y-64983611D01*
X218944112Y-65098344D01*
X218944117Y-65098346D01*
X218944123Y-65098349D01*
X219035480Y-65136190D01*
X219156113Y-65186158D01*
X219377762Y-65245548D01*
X219605266Y-65275500D01*
X219605273Y-65275500D01*
X219834727Y-65275500D01*
X219834734Y-65275500D01*
X220062238Y-65245548D01*
X220283887Y-65186158D01*
X220495888Y-65098344D01*
X220694612Y-64983611D01*
X220876661Y-64843919D01*
X220876665Y-64843914D01*
X220876670Y-64843911D01*
X221038911Y-64681670D01*
X221038914Y-64681665D01*
X221038919Y-64681661D01*
X221178611Y-64499612D01*
X221293344Y-64300888D01*
X221381158Y-64088887D01*
X221440548Y-63867238D01*
X221470500Y-63639734D01*
X221470500Y-63410266D01*
X221470499Y-63410258D01*
X242479500Y-63410258D01*
X242479500Y-63639741D01*
X242487500Y-63700500D01*
X242509452Y-63867238D01*
X242509453Y-63867240D01*
X242568842Y-64088887D01*
X242656650Y-64300876D01*
X242656657Y-64300890D01*
X242771392Y-64499617D01*
X242911081Y-64681661D01*
X242911089Y-64681670D01*
X243073330Y-64843911D01*
X243073338Y-64843918D01*
X243255382Y-64983607D01*
X243255385Y-64983608D01*
X243255388Y-64983611D01*
X243454112Y-65098344D01*
X243454117Y-65098346D01*
X243454123Y-65098349D01*
X243545480Y-65136190D01*
X243666113Y-65186158D01*
X243887762Y-65245548D01*
X244115266Y-65275500D01*
X244115273Y-65275500D01*
X244344727Y-65275500D01*
X244344734Y-65275500D01*
X244572238Y-65245548D01*
X244793887Y-65186158D01*
X245005888Y-65098344D01*
X245204612Y-64983611D01*
X245386661Y-64843919D01*
X245386665Y-64843914D01*
X245386670Y-64843911D01*
X245548911Y-64681670D01*
X245548914Y-64681665D01*
X245548919Y-64681661D01*
X245688611Y-64499612D01*
X245803344Y-64300888D01*
X245891158Y-64088887D01*
X245950548Y-63867238D01*
X245980500Y-63639734D01*
X245980500Y-63410266D01*
X245950548Y-63182762D01*
X245891158Y-62961113D01*
X245841190Y-62840480D01*
X245803349Y-62749123D01*
X245803346Y-62749117D01*
X245803344Y-62749112D01*
X245688611Y-62550388D01*
X245688608Y-62550385D01*
X245688607Y-62550382D01*
X245548918Y-62368338D01*
X245548911Y-62368330D01*
X245386670Y-62206089D01*
X245386661Y-62206081D01*
X245204617Y-62066392D01*
X245005890Y-61951657D01*
X245005876Y-61951650D01*
X244793887Y-61863842D01*
X244728407Y-61846297D01*
X244572238Y-61804452D01*
X244534215Y-61799446D01*
X244344741Y-61774500D01*
X244344734Y-61774500D01*
X244115266Y-61774500D01*
X244115258Y-61774500D01*
X243898715Y-61803009D01*
X243887762Y-61804452D01*
X243839928Y-61817269D01*
X243666112Y-61863842D01*
X243454123Y-61951650D01*
X243454109Y-61951657D01*
X243255382Y-62066392D01*
X243073338Y-62206081D01*
X242911081Y-62368338D01*
X242771392Y-62550382D01*
X242656657Y-62749109D01*
X242656650Y-62749123D01*
X242574781Y-62946774D01*
X242568842Y-62961113D01*
X242525297Y-63123629D01*
X242509453Y-63182759D01*
X242509451Y-63182770D01*
X242479500Y-63410258D01*
X221470499Y-63410258D01*
X221440548Y-63182762D01*
X221381158Y-62961113D01*
X221331190Y-62840480D01*
X221293349Y-62749123D01*
X221293346Y-62749117D01*
X221293344Y-62749112D01*
X221178611Y-62550388D01*
X221178608Y-62550385D01*
X221178607Y-62550382D01*
X221038918Y-62368338D01*
X221038911Y-62368330D01*
X220876670Y-62206089D01*
X220876661Y-62206081D01*
X220694617Y-62066392D01*
X220495890Y-61951657D01*
X220495876Y-61951650D01*
X220283887Y-61863842D01*
X220218407Y-61846297D01*
X220062238Y-61804452D01*
X220024215Y-61799446D01*
X219834741Y-61774500D01*
X219834734Y-61774500D01*
X219605266Y-61774500D01*
X219605258Y-61774500D01*
X219388715Y-61803009D01*
X219377762Y-61804452D01*
X219329928Y-61817269D01*
X219156112Y-61863842D01*
X218944123Y-61951650D01*
X218944109Y-61951657D01*
X218745382Y-62066392D01*
X218563338Y-62206081D01*
X218401081Y-62368338D01*
X218261392Y-62550382D01*
X218146657Y-62749109D01*
X218146650Y-62749123D01*
X218064781Y-62946774D01*
X218058842Y-62961113D01*
X218015297Y-63123629D01*
X217999453Y-63182759D01*
X217999451Y-63182770D01*
X217969500Y-63410258D01*
X195920541Y-63410258D01*
X196007465Y-63269334D01*
X196062650Y-63102797D01*
X196073151Y-63000008D01*
X196073151Y-60999992D01*
X196062650Y-60897203D01*
X196007465Y-60730666D01*
X196000119Y-60718757D01*
X195915364Y-60581348D01*
X195915361Y-60581344D01*
X195791306Y-60457289D01*
X195791302Y-60457286D01*
X195641988Y-60365187D01*
X195641986Y-60365186D01*
X195531558Y-60328594D01*
X195475448Y-60310001D01*
X195475446Y-60310000D01*
X195372666Y-60299500D01*
X195372659Y-60299500D01*
X193372643Y-60299500D01*
X193372635Y-60299500D01*
X193269855Y-60310000D01*
X193269854Y-60310001D01*
X193103315Y-60365186D01*
X193103313Y-60365187D01*
X192953999Y-60457286D01*
X192953995Y-60457289D01*
X192829940Y-60581344D01*
X192829937Y-60581348D01*
X192737838Y-60730662D01*
X192737837Y-60730664D01*
X192682652Y-60897203D01*
X192682651Y-60897204D01*
X192672151Y-60999984D01*
X188248745Y-60999984D01*
X188153898Y-60876376D01*
X188153893Y-60876370D01*
X187996280Y-60718757D01*
X187996273Y-60718751D01*
X187819433Y-60583058D01*
X187819431Y-60583057D01*
X187819425Y-60583052D01*
X187626377Y-60471595D01*
X187626373Y-60471593D01*
X187420441Y-60386293D01*
X187420434Y-60386291D01*
X187420432Y-60386290D01*
X187205114Y-60328596D01*
X187205108Y-60328595D01*
X187205103Y-60328594D01*
X186984117Y-60299501D01*
X186984114Y-60299500D01*
X186984108Y-60299500D01*
X186761194Y-60299500D01*
X186761188Y-60299500D01*
X186761184Y-60299501D01*
X186540198Y-60328594D01*
X186540191Y-60328595D01*
X186540188Y-60328596D01*
X186403632Y-60365186D01*
X186324870Y-60386290D01*
X186324860Y-60386293D01*
X186118928Y-60471593D01*
X186118924Y-60471595D01*
X185925877Y-60583052D01*
X185925868Y-60583058D01*
X185749028Y-60718751D01*
X185749021Y-60718757D01*
X185591408Y-60876370D01*
X185591402Y-60876377D01*
X185455709Y-61053217D01*
X185455703Y-61053226D01*
X185344246Y-61246273D01*
X185344244Y-61246277D01*
X185258944Y-61452209D01*
X185258941Y-61452219D01*
X185201248Y-61667534D01*
X185201245Y-61667547D01*
X185172152Y-61888533D01*
X185172151Y-61888549D01*
X181639772Y-61888549D01*
X181576534Y-61846295D01*
X181421756Y-61782184D01*
X181421748Y-61782182D01*
X181257445Y-61749500D01*
X181257441Y-61749500D01*
X181089907Y-61749500D01*
X181089902Y-61749500D01*
X180925599Y-61782182D01*
X180925587Y-61782185D01*
X180840887Y-61817269D01*
X180771418Y-61824738D01*
X180708939Y-61793462D01*
X180673287Y-61733373D01*
X180670077Y-61690108D01*
X180674174Y-61650009D01*
X180674173Y-60349992D01*
X180671987Y-60328597D01*
X180663673Y-60247203D01*
X180663672Y-60247200D01*
X180608488Y-60080666D01*
X180516386Y-59931344D01*
X180392330Y-59807288D01*
X180243008Y-59715186D01*
X180243007Y-59715185D01*
X180237552Y-59711821D01*
X180190828Y-59659873D01*
X180179605Y-59590910D01*
X180207449Y-59526828D01*
X180214946Y-59518623D01*
X180353778Y-59379792D01*
X180478725Y-59207816D01*
X180575231Y-59018412D01*
X180640920Y-58816243D01*
X180674174Y-58606287D01*
X180674174Y-58393713D01*
X180640920Y-58183757D01*
X180575231Y-57981588D01*
X180478725Y-57792184D01*
X180478723Y-57792181D01*
X180478722Y-57792179D01*
X180353783Y-57620213D01*
X180203460Y-57469890D01*
X180031494Y-57344951D01*
X179842088Y-57248444D01*
X179842087Y-57248443D01*
X179842086Y-57248443D01*
X179639917Y-57182754D01*
X179639915Y-57182753D01*
X179639914Y-57182753D01*
X179478631Y-57157208D01*
X179429961Y-57149500D01*
X178917387Y-57149500D01*
X178868716Y-57157208D01*
X178707434Y-57182753D01*
X178505259Y-57248444D01*
X178315853Y-57344951D01*
X178143887Y-57469890D01*
X177993564Y-57620213D01*
X177868625Y-57792179D01*
X177772118Y-57981585D01*
X177706427Y-58183760D01*
X177673174Y-58393713D01*
X176600500Y-58393713D01*
X176600500Y-55910837D01*
X239769500Y-55910837D01*
X239769500Y-56139162D01*
X239805215Y-56364660D01*
X239875770Y-56581803D01*
X239979421Y-56785228D01*
X240113621Y-56969937D01*
X240275063Y-57131379D01*
X240459772Y-57265579D01*
X240555884Y-57314550D01*
X240663196Y-57369229D01*
X240663198Y-57369229D01*
X240663201Y-57369231D01*
X240779592Y-57407049D01*
X240880339Y-57439784D01*
X241105838Y-57475500D01*
X241105843Y-57475500D01*
X242634162Y-57475500D01*
X242859660Y-57439784D01*
X243076799Y-57369231D01*
X243280228Y-57265579D01*
X243464937Y-57131379D01*
X243626379Y-56969937D01*
X243760579Y-56785228D01*
X243864231Y-56581799D01*
X243934784Y-56364660D01*
X243970500Y-56139162D01*
X243970500Y-55910837D01*
X252269500Y-55910837D01*
X252269500Y-56139162D01*
X252305215Y-56364660D01*
X252375770Y-56581803D01*
X252479421Y-56785228D01*
X252613621Y-56969937D01*
X252775063Y-57131379D01*
X252959772Y-57265579D01*
X253055884Y-57314550D01*
X253163196Y-57369229D01*
X253163198Y-57369229D01*
X253163201Y-57369231D01*
X253279592Y-57407049D01*
X253380339Y-57439784D01*
X253605838Y-57475500D01*
X253605843Y-57475500D01*
X255134162Y-57475500D01*
X255359660Y-57439784D01*
X255576799Y-57369231D01*
X255780228Y-57265579D01*
X255964937Y-57131379D01*
X256126379Y-56969937D01*
X256260579Y-56785228D01*
X256364231Y-56581799D01*
X256434784Y-56364660D01*
X256470500Y-56139162D01*
X256470500Y-55910837D01*
X256434784Y-55685339D01*
X256364229Y-55468196D01*
X256260578Y-55264771D01*
X256126379Y-55080063D01*
X255964937Y-54918621D01*
X255780228Y-54784421D01*
X255576803Y-54680770D01*
X255359660Y-54610215D01*
X255134162Y-54574500D01*
X255134157Y-54574500D01*
X253605843Y-54574500D01*
X253605838Y-54574500D01*
X253380339Y-54610215D01*
X253163196Y-54680770D01*
X252959771Y-54784421D01*
X252775061Y-54918622D01*
X252613622Y-55080061D01*
X252479421Y-55264771D01*
X252375770Y-55468196D01*
X252305215Y-55685339D01*
X252269500Y-55910837D01*
X243970500Y-55910837D01*
X243934784Y-55685339D01*
X243864229Y-55468196D01*
X243760578Y-55264771D01*
X243626379Y-55080063D01*
X243464937Y-54918621D01*
X243280228Y-54784421D01*
X243076803Y-54680770D01*
X242859660Y-54610215D01*
X242634162Y-54574500D01*
X242634157Y-54574500D01*
X241105843Y-54574500D01*
X241105838Y-54574500D01*
X240880339Y-54610215D01*
X240663196Y-54680770D01*
X240459771Y-54784421D01*
X240275061Y-54918622D01*
X240113622Y-55080061D01*
X239979421Y-55264771D01*
X239875770Y-55468196D01*
X239805215Y-55685339D01*
X239769500Y-55910837D01*
X176600500Y-55910837D01*
X176600500Y-49599983D01*
X180279500Y-49599983D01*
X180279500Y-52400001D01*
X180279501Y-52400018D01*
X180290000Y-52502796D01*
X180290001Y-52502799D01*
X180319171Y-52590826D01*
X180345186Y-52669334D01*
X180437288Y-52818656D01*
X180561344Y-52942712D01*
X180710666Y-53034814D01*
X180877203Y-53089999D01*
X180979991Y-53100500D01*
X183780008Y-53100499D01*
X183882797Y-53089999D01*
X184049334Y-53034814D01*
X184198656Y-52942712D01*
X184322712Y-52818656D01*
X184414814Y-52669334D01*
X184469999Y-52502797D01*
X184480500Y-52400009D01*
X184480499Y-50862332D01*
X195519500Y-50862332D01*
X195519500Y-51137667D01*
X195519501Y-51137684D01*
X195555438Y-51410655D01*
X195555439Y-51410660D01*
X195555440Y-51410666D01*
X195578008Y-51494890D01*
X195626704Y-51676630D01*
X195732075Y-51931017D01*
X195732080Y-51931028D01*
X195793580Y-52037547D01*
X195869751Y-52169479D01*
X195869753Y-52169482D01*
X195869754Y-52169483D01*
X196037370Y-52387926D01*
X196037376Y-52387933D01*
X196232066Y-52582623D01*
X196232073Y-52582629D01*
X196295486Y-52631287D01*
X196450521Y-52750249D01*
X196569007Y-52818657D01*
X196688971Y-52887919D01*
X196688976Y-52887921D01*
X196688979Y-52887923D01*
X196943368Y-52993295D01*
X197209334Y-53064560D01*
X197482326Y-53100500D01*
X197482333Y-53100500D01*
X197757667Y-53100500D01*
X197757674Y-53100500D01*
X198030666Y-53064560D01*
X198296632Y-52993295D01*
X198551021Y-52887923D01*
X198789479Y-52750249D01*
X198879571Y-52681118D01*
X198952367Y-52625262D01*
X198997244Y-52590826D01*
X199007928Y-52582628D01*
X199202628Y-52387928D01*
X199370249Y-52169479D01*
X199507923Y-51931021D01*
X199613295Y-51676632D01*
X199626552Y-51627155D01*
X214750000Y-51627155D01*
X214750000Y-52275000D01*
X215666988Y-52275000D01*
X215634075Y-52332007D01*
X215600000Y-52459174D01*
X215600000Y-52590826D01*
X215634075Y-52717993D01*
X215666988Y-52775000D01*
X214750000Y-52775000D01*
X214750000Y-53422844D01*
X214756401Y-53482372D01*
X214756403Y-53482379D01*
X214806645Y-53617086D01*
X214806649Y-53617093D01*
X214892809Y-53732187D01*
X214892812Y-53732190D01*
X215007906Y-53818350D01*
X215007913Y-53818354D01*
X215142620Y-53868596D01*
X215142627Y-53868598D01*
X215202155Y-53874999D01*
X215202172Y-53875000D01*
X215850000Y-53875000D01*
X215850000Y-52958012D01*
X215907007Y-52990925D01*
X216034174Y-53025000D01*
X216165826Y-53025000D01*
X216292993Y-52990925D01*
X216350000Y-52958012D01*
X216350000Y-53875000D01*
X216997828Y-53875000D01*
X216997844Y-53874999D01*
X217057372Y-53868598D01*
X217057379Y-53868596D01*
X217192086Y-53818354D01*
X217192093Y-53818350D01*
X217307187Y-53732190D01*
X217307190Y-53732187D01*
X217393350Y-53617093D01*
X217393354Y-53617086D01*
X217442422Y-53485529D01*
X217484293Y-53429595D01*
X217549757Y-53405178D01*
X217618030Y-53420030D01*
X217646285Y-53441181D01*
X217760213Y-53555109D01*
X217932179Y-53680048D01*
X217932181Y-53680049D01*
X217932184Y-53680051D01*
X218121588Y-53776557D01*
X218323757Y-53842246D01*
X218533713Y-53875500D01*
X218533714Y-53875500D01*
X218746286Y-53875500D01*
X218746287Y-53875500D01*
X218956243Y-53842246D01*
X219158412Y-53776557D01*
X219347816Y-53680051D01*
X219434471Y-53617093D01*
X219519786Y-53555109D01*
X219519788Y-53555106D01*
X219519792Y-53555104D01*
X219670104Y-53404792D01*
X219670106Y-53404788D01*
X219670109Y-53404786D01*
X219795048Y-53232820D01*
X219795047Y-53232820D01*
X219795051Y-53232816D01*
X219799514Y-53224054D01*
X219847488Y-53173259D01*
X219915308Y-53156463D01*
X219981444Y-53178999D01*
X220020486Y-53224056D01*
X220024951Y-53232820D01*
X220149890Y-53404786D01*
X220300213Y-53555109D01*
X220472179Y-53680048D01*
X220472181Y-53680049D01*
X220472184Y-53680051D01*
X220661588Y-53776557D01*
X220863757Y-53842246D01*
X221073713Y-53875500D01*
X221073714Y-53875500D01*
X221286286Y-53875500D01*
X221286287Y-53875500D01*
X221496243Y-53842246D01*
X221698412Y-53776557D01*
X221887816Y-53680051D01*
X221974471Y-53617093D01*
X222059786Y-53555109D01*
X222059788Y-53555106D01*
X222059792Y-53555104D01*
X222210104Y-53404792D01*
X222210106Y-53404788D01*
X222210109Y-53404786D01*
X222335048Y-53232820D01*
X222335047Y-53232820D01*
X222335051Y-53232816D01*
X222339514Y-53224054D01*
X222387488Y-53173259D01*
X222455308Y-53156463D01*
X222521444Y-53178999D01*
X222560486Y-53224056D01*
X222564951Y-53232820D01*
X222689890Y-53404786D01*
X222840213Y-53555109D01*
X223012179Y-53680048D01*
X223012181Y-53680049D01*
X223012184Y-53680051D01*
X223201588Y-53776557D01*
X223403757Y-53842246D01*
X223613713Y-53875500D01*
X223613714Y-53875500D01*
X223826286Y-53875500D01*
X223826287Y-53875500D01*
X224036243Y-53842246D01*
X224238412Y-53776557D01*
X224427816Y-53680051D01*
X224514471Y-53617093D01*
X224599786Y-53555109D01*
X224599788Y-53555106D01*
X224599792Y-53555104D01*
X224750104Y-53404792D01*
X224750106Y-53404788D01*
X224750109Y-53404786D01*
X224875048Y-53232820D01*
X224875047Y-53232820D01*
X224875051Y-53232816D01*
X224971557Y-53043412D01*
X225037246Y-52841243D01*
X225070500Y-52631287D01*
X225070500Y-52418713D01*
X225037246Y-52208757D01*
X224971557Y-52006588D01*
X224875051Y-51817184D01*
X224875049Y-51817181D01*
X224875048Y-51817179D01*
X224750109Y-51645213D01*
X224599786Y-51494890D01*
X224427820Y-51369951D01*
X224238414Y-51273444D01*
X224238413Y-51273443D01*
X224238412Y-51273443D01*
X224036243Y-51207754D01*
X224036241Y-51207753D01*
X224036240Y-51207753D01*
X223874957Y-51182208D01*
X223826287Y-51174500D01*
X223613713Y-51174500D01*
X223565042Y-51182208D01*
X223403760Y-51207753D01*
X223201585Y-51273444D01*
X223012179Y-51369951D01*
X222840213Y-51494890D01*
X222689890Y-51645213D01*
X222564949Y-51817182D01*
X222560484Y-51825946D01*
X222512509Y-51876742D01*
X222444688Y-51893536D01*
X222378553Y-51870998D01*
X222339516Y-51825946D01*
X222335050Y-51817182D01*
X222210109Y-51645213D01*
X222059786Y-51494890D01*
X221887820Y-51369951D01*
X221698414Y-51273444D01*
X221698413Y-51273443D01*
X221698412Y-51273443D01*
X221496243Y-51207754D01*
X221496241Y-51207753D01*
X221496240Y-51207753D01*
X221334957Y-51182208D01*
X221286287Y-51174500D01*
X221073713Y-51174500D01*
X221025042Y-51182208D01*
X220863760Y-51207753D01*
X220661585Y-51273444D01*
X220472179Y-51369951D01*
X220300213Y-51494890D01*
X220149890Y-51645213D01*
X220024949Y-51817182D01*
X220020484Y-51825946D01*
X219972509Y-51876742D01*
X219904688Y-51893536D01*
X219838553Y-51870998D01*
X219799516Y-51825946D01*
X219795050Y-51817182D01*
X219670109Y-51645213D01*
X219519786Y-51494890D01*
X219347820Y-51369951D01*
X219158414Y-51273444D01*
X219158413Y-51273443D01*
X219158412Y-51273443D01*
X218956243Y-51207754D01*
X218956241Y-51207753D01*
X218956240Y-51207753D01*
X218794957Y-51182208D01*
X218746287Y-51174500D01*
X218533713Y-51174500D01*
X218485042Y-51182208D01*
X218323760Y-51207753D01*
X218121585Y-51273444D01*
X217932179Y-51369951D01*
X217760215Y-51494889D01*
X217646285Y-51608819D01*
X217584962Y-51642303D01*
X217515270Y-51637319D01*
X217459337Y-51595447D01*
X217442422Y-51564470D01*
X217393354Y-51432913D01*
X217393350Y-51432906D01*
X217307190Y-51317812D01*
X217307187Y-51317809D01*
X217192093Y-51231649D01*
X217192086Y-51231645D01*
X217057379Y-51181403D01*
X217057372Y-51181401D01*
X216997844Y-51175000D01*
X216350000Y-51175000D01*
X216350000Y-52091988D01*
X216292993Y-52059075D01*
X216165826Y-52025000D01*
X216034174Y-52025000D01*
X215907007Y-52059075D01*
X215850000Y-52091988D01*
X215850000Y-51175000D01*
X215202155Y-51175000D01*
X215142627Y-51181401D01*
X215142620Y-51181403D01*
X215007913Y-51231645D01*
X215007906Y-51231649D01*
X214892812Y-51317809D01*
X214892809Y-51317812D01*
X214806649Y-51432906D01*
X214806645Y-51432913D01*
X214756403Y-51567620D01*
X214756401Y-51567627D01*
X214750000Y-51627155D01*
X199626552Y-51627155D01*
X199684560Y-51410666D01*
X199720500Y-51137674D01*
X199720500Y-50862326D01*
X199716312Y-50830513D01*
X229509500Y-50830513D01*
X229509500Y-51019486D01*
X229539059Y-51206118D01*
X229597454Y-51385836D01*
X229683240Y-51554199D01*
X229794310Y-51707073D01*
X229927927Y-51840690D01*
X230080801Y-51951760D01*
X230160347Y-51992290D01*
X230249163Y-52037545D01*
X230249165Y-52037545D01*
X230249168Y-52037547D01*
X230315424Y-52059075D01*
X230428881Y-52095940D01*
X230615514Y-52125500D01*
X230615519Y-52125500D01*
X230804486Y-52125500D01*
X230991118Y-52095940D01*
X231170832Y-52037547D01*
X231339199Y-51951760D01*
X231492073Y-51840690D01*
X231625690Y-51707073D01*
X231736760Y-51554199D01*
X231822547Y-51385832D01*
X231880940Y-51206118D01*
X231910500Y-51019486D01*
X231910500Y-50830513D01*
X237129500Y-50830513D01*
X237129500Y-51019486D01*
X237159059Y-51206118D01*
X237217454Y-51385836D01*
X237303240Y-51554199D01*
X237414310Y-51707073D01*
X237547927Y-51840690D01*
X237700801Y-51951760D01*
X237780347Y-51992290D01*
X237869163Y-52037545D01*
X237869165Y-52037545D01*
X237869168Y-52037547D01*
X237935424Y-52059075D01*
X238048881Y-52095940D01*
X238235514Y-52125500D01*
X238235519Y-52125500D01*
X238424486Y-52125500D01*
X238611118Y-52095940D01*
X238790832Y-52037547D01*
X238959199Y-51951760D01*
X239112073Y-51840690D01*
X239245690Y-51707073D01*
X239356760Y-51554199D01*
X239442547Y-51385832D01*
X239500940Y-51206118D01*
X239530500Y-51019481D01*
X239530500Y-50910843D01*
X239769500Y-50910843D01*
X239769500Y-51088367D01*
X239769500Y-51139162D01*
X239805215Y-51364660D01*
X239875770Y-51581803D01*
X239939600Y-51707075D01*
X239979421Y-51785228D01*
X240113621Y-51969937D01*
X240275063Y-52131379D01*
X240459772Y-52265579D01*
X240555884Y-52314550D01*
X240663196Y-52369229D01*
X240663198Y-52369229D01*
X240663201Y-52369231D01*
X240779592Y-52407049D01*
X240880339Y-52439784D01*
X241105838Y-52475500D01*
X241105843Y-52475500D01*
X242634162Y-52475500D01*
X242859660Y-52439784D01*
X243076799Y-52369231D01*
X243280228Y-52265579D01*
X243464937Y-52131379D01*
X243626379Y-51969937D01*
X243760579Y-51785228D01*
X243864231Y-51581799D01*
X243934784Y-51364660D01*
X243942204Y-51317812D01*
X243970500Y-51139162D01*
X243970500Y-50910837D01*
X252269500Y-50910837D01*
X252269500Y-51139162D01*
X252305215Y-51364660D01*
X252375770Y-51581803D01*
X252439600Y-51707075D01*
X252479421Y-51785228D01*
X252613621Y-51969937D01*
X252775063Y-52131379D01*
X252959772Y-52265579D01*
X253055884Y-52314550D01*
X253163196Y-52369229D01*
X253163198Y-52369229D01*
X253163201Y-52369231D01*
X253279592Y-52407049D01*
X253380339Y-52439784D01*
X253605838Y-52475500D01*
X253605843Y-52475500D01*
X255134162Y-52475500D01*
X255359660Y-52439784D01*
X255576799Y-52369231D01*
X255780228Y-52265579D01*
X255964937Y-52131379D01*
X256126379Y-51969937D01*
X256260579Y-51785228D01*
X256364231Y-51581799D01*
X256434784Y-51364660D01*
X256442204Y-51317812D01*
X256470500Y-51139162D01*
X256470500Y-50910837D01*
X256434784Y-50685339D01*
X256364229Y-50468196D01*
X256309550Y-50360884D01*
X256260579Y-50264772D01*
X256126379Y-50080063D01*
X255964937Y-49918621D01*
X255780228Y-49784421D01*
X255576803Y-49680770D01*
X255359660Y-49610215D01*
X255134162Y-49574500D01*
X255134157Y-49574500D01*
X253605843Y-49574500D01*
X253605838Y-49574500D01*
X253380339Y-49610215D01*
X253163196Y-49680770D01*
X252959771Y-49784421D01*
X252775061Y-49918622D01*
X252613622Y-50080061D01*
X252479421Y-50264771D01*
X252375770Y-50468196D01*
X252305215Y-50685339D01*
X252269500Y-50910837D01*
X243970500Y-50910837D01*
X243934784Y-50685339D01*
X243864229Y-50468196D01*
X243809550Y-50360884D01*
X243760579Y-50264772D01*
X243626379Y-50080063D01*
X243464937Y-49918621D01*
X243280228Y-49784421D01*
X243076803Y-49680770D01*
X242859660Y-49610215D01*
X242634162Y-49574500D01*
X242634157Y-49574500D01*
X241105843Y-49574500D01*
X241105838Y-49574500D01*
X240880339Y-49610215D01*
X240663196Y-49680770D01*
X240459771Y-49784421D01*
X240275061Y-49918622D01*
X240113622Y-50080061D01*
X239979421Y-50264771D01*
X239875770Y-50468196D01*
X239805215Y-50685339D01*
X239778137Y-50856304D01*
X239778136Y-50856312D01*
X239769500Y-50910843D01*
X239530500Y-50910843D01*
X239530500Y-50830519D01*
X239530500Y-50830513D01*
X239500940Y-50643881D01*
X239443857Y-50468201D01*
X239442547Y-50464168D01*
X239442545Y-50464165D01*
X239442545Y-50464163D01*
X239397290Y-50375347D01*
X239356760Y-50295801D01*
X239245690Y-50142927D01*
X239112073Y-50009310D01*
X238959199Y-49898240D01*
X238790836Y-49812454D01*
X238611118Y-49754059D01*
X238424486Y-49724500D01*
X238424481Y-49724500D01*
X238235519Y-49724500D01*
X238235514Y-49724500D01*
X238048881Y-49754059D01*
X237869163Y-49812454D01*
X237700800Y-49898240D01*
X237613579Y-49961610D01*
X237547927Y-50009310D01*
X237547925Y-50009312D01*
X237547924Y-50009312D01*
X237414312Y-50142924D01*
X237414312Y-50142925D01*
X237414310Y-50142927D01*
X237366610Y-50208579D01*
X237303240Y-50295800D01*
X237217454Y-50464163D01*
X237159059Y-50643881D01*
X237129500Y-50830513D01*
X231910500Y-50830513D01*
X231880940Y-50643881D01*
X231823857Y-50468201D01*
X231822547Y-50464168D01*
X231822545Y-50464165D01*
X231822545Y-50464163D01*
X231777290Y-50375347D01*
X231736760Y-50295801D01*
X231625690Y-50142927D01*
X231492073Y-50009310D01*
X231339199Y-49898240D01*
X231170836Y-49812454D01*
X230991118Y-49754059D01*
X230804486Y-49724500D01*
X230804481Y-49724500D01*
X230615519Y-49724500D01*
X230615514Y-49724500D01*
X230428881Y-49754059D01*
X230249163Y-49812454D01*
X230080800Y-49898240D01*
X229993579Y-49961610D01*
X229927927Y-50009310D01*
X229927925Y-50009312D01*
X229927924Y-50009312D01*
X229794312Y-50142924D01*
X229794312Y-50142925D01*
X229794310Y-50142927D01*
X229746610Y-50208579D01*
X229683240Y-50295800D01*
X229597454Y-50464163D01*
X229539059Y-50643881D01*
X229509500Y-50830513D01*
X199716312Y-50830513D01*
X199684560Y-50589334D01*
X199613295Y-50323368D01*
X199507923Y-50068979D01*
X199507921Y-50068976D01*
X199507919Y-50068971D01*
X199421114Y-49918622D01*
X199370249Y-49830521D01*
X199202628Y-49612072D01*
X199202623Y-49612066D01*
X199007933Y-49417376D01*
X199007926Y-49417370D01*
X198789483Y-49249754D01*
X198789482Y-49249753D01*
X198789479Y-49249751D01*
X198670995Y-49181344D01*
X198551028Y-49112080D01*
X198551017Y-49112075D01*
X198296630Y-49006704D01*
X198141676Y-48965185D01*
X198030666Y-48935440D01*
X198030660Y-48935439D01*
X198030655Y-48935438D01*
X197757684Y-48899501D01*
X197757679Y-48899500D01*
X197757674Y-48899500D01*
X197482326Y-48899500D01*
X197482320Y-48899500D01*
X197482315Y-48899501D01*
X197209344Y-48935438D01*
X197209337Y-48935439D01*
X197209334Y-48935440D01*
X197153125Y-48950500D01*
X196943369Y-49006704D01*
X196688982Y-49112075D01*
X196688971Y-49112080D01*
X196450516Y-49249754D01*
X196232073Y-49417370D01*
X196232066Y-49417376D01*
X196037376Y-49612066D01*
X196037370Y-49612073D01*
X195869754Y-49830516D01*
X195732080Y-50068971D01*
X195732075Y-50068982D01*
X195626704Y-50323369D01*
X195555441Y-50589331D01*
X195555438Y-50589344D01*
X195519501Y-50862315D01*
X195519500Y-50862332D01*
X184480499Y-50862332D01*
X184480499Y-49599992D01*
X184469999Y-49497203D01*
X184414814Y-49330666D01*
X184322712Y-49181344D01*
X184198656Y-49057288D01*
X184049334Y-48965186D01*
X183882797Y-48910001D01*
X183882795Y-48910000D01*
X183780010Y-48899500D01*
X180979998Y-48899500D01*
X180979981Y-48899501D01*
X180877203Y-48910000D01*
X180877200Y-48910001D01*
X180710668Y-48965185D01*
X180710663Y-48965187D01*
X180561342Y-49057289D01*
X180437289Y-49181342D01*
X180345187Y-49330663D01*
X180345186Y-49330666D01*
X180290001Y-49497203D01*
X180290001Y-49497204D01*
X180290000Y-49497204D01*
X180279500Y-49599983D01*
X176600500Y-49599983D01*
X176600500Y-43829500D01*
X176620185Y-43762461D01*
X176672989Y-43716706D01*
X176724500Y-43705500D01*
X263375500Y-43705500D01*
X263442539Y-43725185D01*
G37*
%TD.AperFunction*%
%TD*%
M02*
