%TF.GenerationSoftware,KiCad,Pcbnew,9.0.4*%
%TF.CreationDate,2025-11-05T16:33:01+05:30*%
%TF.ProjectId,BikeSSv3,42696b65-5353-4763-932e-6b696361645f,rev?*%
%TF.SameCoordinates,Original*%
%TF.FileFunction,Legend,Bot*%
%TF.FilePolarity,Positive*%
%FSLAX46Y46*%
G04 Gerber Fmt 4.6, Leading zero omitted, Abs format (unit mm)*
G04 Created by KiCad (PCBNEW 9.0.4) date 2025-11-05 16:33:01*
%MOMM*%
%LPD*%
G01*
G04 APERTURE LIST*
%ADD10C,0.150000*%
%ADD11C,0.120000*%
G04 APERTURE END LIST*
D10*
X123404819Y-32714285D02*
X124119104Y-32714285D01*
X124119104Y-32714285D02*
X124261961Y-32666666D01*
X124261961Y-32666666D02*
X124357200Y-32571428D01*
X124357200Y-32571428D02*
X124404819Y-32428571D01*
X124404819Y-32428571D02*
X124404819Y-32333333D01*
X124404819Y-33714285D02*
X124404819Y-33142857D01*
X124404819Y-33428571D02*
X123404819Y-33428571D01*
X123404819Y-33428571D02*
X123547676Y-33333333D01*
X123547676Y-33333333D02*
X123642914Y-33238095D01*
X123642914Y-33238095D02*
X123690533Y-33142857D01*
X124404819Y-34666666D02*
X124404819Y-34095238D01*
X124404819Y-34380952D02*
X123404819Y-34380952D01*
X123404819Y-34380952D02*
X123547676Y-34285714D01*
X123547676Y-34285714D02*
X123642914Y-34190476D01*
X123642914Y-34190476D02*
X123690533Y-34095238D01*
X124404819Y-35619047D02*
X124404819Y-35047619D01*
X124404819Y-35333333D02*
X123404819Y-35333333D01*
X123404819Y-35333333D02*
X123547676Y-35238095D01*
X123547676Y-35238095D02*
X123642914Y-35142857D01*
X123642914Y-35142857D02*
X123690533Y-35047619D01*
D11*
%TO.C,J111*%
X122860000Y-30190000D02*
X122860000Y-31610000D01*
X111140000Y-30190000D02*
X122860000Y-30190000D01*
X122860000Y-31610000D02*
X118360000Y-31610000D01*
X117250000Y-32500000D02*
X117250000Y-33000000D01*
X111750000Y-32500000D02*
X117250000Y-32500000D01*
X117250000Y-33000000D02*
X111750000Y-33000000D01*
X111750000Y-33000000D02*
X111750000Y-32500000D01*
X111140000Y-34000000D02*
X111140000Y-30190000D01*
X111140000Y-34000000D02*
X111140000Y-37810000D01*
X120950000Y-34950000D02*
X120350000Y-35250000D01*
X117250000Y-35000000D02*
X117250000Y-35500000D01*
X111750000Y-35000000D02*
X117250000Y-35000000D01*
X120350000Y-35250000D02*
X120950000Y-35550000D01*
X117250000Y-35500000D02*
X111750000Y-35500000D01*
X111750000Y-35500000D02*
X111750000Y-35000000D01*
X120950000Y-35550000D02*
X120950000Y-34950000D01*
X122860000Y-36390000D02*
X118360000Y-36390000D01*
X122860000Y-37810000D02*
X122860000Y-36390000D01*
X111140000Y-37810000D02*
X122860000Y-37810000D01*
%TD*%
M02*
