%TF.GenerationSoftware,KiCad,Pcbnew,9.0.4*%
%TF.CreationDate,2025-11-05T17:22:30+05:30*%
%TF.ProjectId,BikeSSv3,42696b65-5353-4763-932e-6b696361645f,rev?*%
%TF.SameCoordinates,Original*%
%TF.FileFunction,Copper,L1,Top*%
%TF.FilePolarity,Positive*%
%FSLAX46Y46*%
G04 Gerber Fmt 4.6, Leading zero omitted, Abs format (unit mm)*
G04 Created by KiCad (PCBNEW 9.0.4) date 2025-11-05 17:22:30*
%MOMM*%
%LPD*%
G01*
G04 APERTURE LIST*
G04 Aperture macros list*
%AMRoundRect*
0 Rectangle with rounded corners*
0 $1 Rounding radius*
0 $2 $3 $4 $5 $6 $7 $8 $9 X,Y pos of 4 corners*
0 Add a 4 corners polygon primitive as box body*
4,1,4,$2,$3,$4,$5,$6,$7,$8,$9,$2,$3,0*
0 Add four circle primitives for the rounded corners*
1,1,$1+$1,$2,$3*
1,1,$1+$1,$4,$5*
1,1,$1+$1,$6,$7*
1,1,$1+$1,$8,$9*
0 Add four rect primitives between the rounded corners*
20,1,$1+$1,$2,$3,$4,$5,0*
20,1,$1+$1,$4,$5,$6,$7,0*
20,1,$1+$1,$6,$7,$8,$9,0*
20,1,$1+$1,$8,$9,$2,$3,0*%
G04 Aperture macros list end*
%TA.AperFunction,ComponentPad*%
%ADD10C,1.348000*%
%TD*%
%TA.AperFunction,ComponentPad*%
%ADD11RoundRect,0.250000X0.750000X-0.600000X0.750000X0.600000X-0.750000X0.600000X-0.750000X-0.600000X0*%
%TD*%
%TA.AperFunction,ComponentPad*%
%ADD12O,2.000000X1.700000*%
%TD*%
%TA.AperFunction,ComponentPad*%
%ADD13RoundRect,0.650000X-0.650000X0.650000X-0.650000X-0.650000X0.650000X-0.650000X0.650000X0.650000X0*%
%TD*%
%TA.AperFunction,ComponentPad*%
%ADD14C,2.600000*%
%TD*%
%TA.AperFunction,ComponentPad*%
%ADD15R,1.700000X1.700000*%
%TD*%
%TA.AperFunction,ComponentPad*%
%ADD16C,1.700000*%
%TD*%
%TA.AperFunction,ComponentPad*%
%ADD17RoundRect,0.650000X0.650000X-0.650000X0.650000X0.650000X-0.650000X0.650000X-0.650000X-0.650000X0*%
%TD*%
%TA.AperFunction,ViaPad*%
%ADD18C,0.600000*%
%TD*%
%TA.AperFunction,Conductor*%
%ADD19C,0.200000*%
%TD*%
G04 APERTURE END LIST*
D10*
%TO.P,U102,0,GPIO0*%
%TO.N,unconnected-(U102-GPIO0-Pad0)*%
X207990000Y-59030000D03*
%TO.P,U102,1,GPIO1*%
%TO.N,unconnected-(U102-GPIO1-Pad1)*%
X207990000Y-56490000D03*
%TO.P,U102,2,GPIO2*%
%TO.N,unconnected-(U102-GPIO2-Pad2)*%
X207990000Y-53950000D03*
%TO.P,U102,3,GPIO3*%
%TO.N,unconnected-(U102-GPIO3-Pad3)*%
X207990000Y-51410000D03*
%TO.P,U102,3.3,3V3*%
%TO.N,/3.3V*%
X207990000Y-46330000D03*
%TO.P,U102,4,GPIO4*%
%TO.N,/4*%
X207990000Y-48870000D03*
%TO.P,U102,5,GPIO5*%
%TO.N,/5*%
X192750000Y-41250000D03*
%TO.P,U102,5V,5V*%
%TO.N,/VCCb*%
X207990000Y-41250000D03*
%TO.P,U102,6,GPIO6*%
%TO.N,unconnected-(U102-GPIO6-Pad6)*%
X192750000Y-43790000D03*
%TO.P,U102,7,GPIO7*%
%TO.N,unconnected-(U102-GPIO7-Pad7)*%
X192750000Y-46330000D03*
%TO.P,U102,8,GPIO8*%
%TO.N,unconnected-(U102-GPIO8-Pad8)*%
X192750000Y-48870000D03*
%TO.P,U102,9,GPIO9*%
%TO.N,unconnected-(U102-GPIO9-Pad9)*%
X192750000Y-51410000D03*
%TO.P,U102,10,GPIO10*%
%TO.N,unconnected-(U102-GPIO10-Pad10)*%
X192750000Y-53950000D03*
%TO.P,U102,20,GPIO20*%
%TO.N,unconnected-(U102-GPIO20-Pad20)*%
X192750000Y-56490000D03*
%TO.P,U102,21,GPIO21*%
%TO.N,unconnected-(U102-GPIO21-Pad21)*%
X192750000Y-59030000D03*
%TO.P,U102,G,GND*%
%TO.N,/GNDs*%
X207990000Y-43790000D03*
%TD*%
D11*
%TO.P,J111,1,Pin_1*%
%TO.N,/VCCs*%
X274850000Y-52750000D03*
D12*
%TO.P,J111,2,Pin_2*%
%TO.N,/GNDs*%
X274850000Y-50250000D03*
%TD*%
D13*
%TO.P,TP105,1,1*%
%TO.N,/VCCb*%
X219000000Y-47500000D03*
D14*
%TO.P,TP105,2,2*%
%TO.N,/GNDs*%
X219000000Y-54500000D03*
%TD*%
D13*
%TO.P,TP104,1,1*%
%TO.N,/VCCs*%
X249000000Y-47500000D03*
D14*
%TO.P,TP104,2,2*%
%TO.N,/GNDs*%
X249000000Y-54500000D03*
%TD*%
D15*
%TO.P,J110,1,Pin_1*%
%TO.N,/GNDs*%
X183725000Y-46025000D03*
D16*
%TO.P,J110,2,Pin_2*%
%TO.N,/3.3V*%
X183725000Y-43485000D03*
%TO.P,J110,3,Pin_3*%
%TO.N,/4*%
X183725000Y-40945000D03*
%TD*%
D17*
%TO.P,TP102,1,1*%
%TO.N,/VCCs*%
X257500000Y-55000000D03*
D14*
%TO.P,TP102,2,2*%
%TO.N,/GNDs*%
X257500000Y-48000000D03*
%TD*%
D15*
%TO.P,J109,1,Pin_1*%
%TO.N,/VCCb*%
X183500000Y-60580000D03*
D16*
%TO.P,J109,2,Pin_2*%
%TO.N,/GNDs*%
X183500000Y-58040000D03*
%TO.P,J109,3,Pin_3*%
%TO.N,unconnected-(J109-Pin_3-Pad3)*%
X183500000Y-55500000D03*
%TO.P,J109,4,Pin_4*%
%TO.N,/5*%
X183500000Y-52960000D03*
%TD*%
D18*
%TO.N,/4*%
X190000000Y-53000000D03*
%TD*%
D19*
%TO.N,/5*%
X189000000Y-45000000D02*
X189000000Y-47460000D01*
X192750000Y-41250000D02*
X189000000Y-45000000D01*
X183500000Y-52960000D02*
X189000000Y-47460000D01*
%TO.N,/4*%
X190000000Y-61500000D02*
X190000000Y-53000000D01*
X199500000Y-57360000D02*
X199500000Y-61500000D01*
%TO.N,/3.3V*%
X202830000Y-46330000D02*
X194500000Y-38000000D01*
%TO.N,/VCCb*%
X219000000Y-47500000D02*
X214240000Y-47500000D01*
%TO.N,/4*%
X207990000Y-48870000D02*
X199500000Y-57360000D01*
%TO.N,/VCCs*%
X257500000Y-55000000D02*
X250000000Y-47500000D01*
X250000000Y-47500000D02*
X249000000Y-47500000D01*
%TO.N,/3.3V*%
X189210000Y-38000000D02*
X183725000Y-43485000D01*
X207990000Y-46330000D02*
X202830000Y-46330000D01*
X194500000Y-38000000D02*
X189210000Y-38000000D01*
%TO.N,/VCCb*%
X214240000Y-47500000D02*
X207990000Y-41250000D01*
%TO.N,/4*%
X199500000Y-61500000D02*
X190000000Y-61500000D01*
%TD*%
%TA.AperFunction,Conductor*%
%TO.N,/GNDs*%
G36*
X282192539Y-36895185D02*
G01*
X282238294Y-36947989D01*
X282249500Y-36999500D01*
X282249500Y-65000500D01*
X282229815Y-65067539D01*
X282177011Y-65113294D01*
X282125500Y-65124500D01*
X182124500Y-65124500D01*
X182057461Y-65104815D01*
X182011706Y-65052011D01*
X182000500Y-65000500D01*
X182000500Y-61770102D01*
X182020185Y-61703063D01*
X182072989Y-61657308D01*
X182142147Y-61647364D01*
X182205703Y-61676389D01*
X182223762Y-61695786D01*
X182292454Y-61787546D01*
X182338643Y-61822123D01*
X182407664Y-61873793D01*
X182407671Y-61873797D01*
X182542517Y-61924091D01*
X182542516Y-61924091D01*
X182549444Y-61924835D01*
X182602127Y-61930500D01*
X184397872Y-61930499D01*
X184457483Y-61924091D01*
X184592331Y-61873796D01*
X184707546Y-61787546D01*
X184793796Y-61672331D01*
X184844091Y-61537483D01*
X184850500Y-61477873D01*
X184850499Y-59682128D01*
X184844091Y-59622517D01*
X184802521Y-59511063D01*
X184793797Y-59487671D01*
X184793793Y-59487664D01*
X184707547Y-59372455D01*
X184707544Y-59372452D01*
X184592335Y-59286206D01*
X184592328Y-59286202D01*
X184457482Y-59235908D01*
X184457483Y-59235908D01*
X184397883Y-59229501D01*
X184397881Y-59229500D01*
X184397873Y-59229500D01*
X184397865Y-59229500D01*
X184387309Y-59229500D01*
X184320270Y-59209815D01*
X184299628Y-59193181D01*
X183629408Y-58522962D01*
X183692993Y-58505925D01*
X183807007Y-58440099D01*
X183900099Y-58347007D01*
X183965925Y-58232993D01*
X183982962Y-58169408D01*
X184615270Y-58801717D01*
X184615270Y-58801716D01*
X184654622Y-58747554D01*
X184751095Y-58558217D01*
X184816757Y-58356130D01*
X184816757Y-58356127D01*
X184850000Y-58146246D01*
X184850000Y-57933753D01*
X184816757Y-57723872D01*
X184816757Y-57723869D01*
X184751095Y-57521782D01*
X184654624Y-57332449D01*
X184615270Y-57278282D01*
X184615269Y-57278282D01*
X183982962Y-57910590D01*
X183965925Y-57847007D01*
X183900099Y-57732993D01*
X183807007Y-57639901D01*
X183692993Y-57574075D01*
X183629409Y-57557037D01*
X184261716Y-56924728D01*
X184207547Y-56885373D01*
X184207547Y-56885372D01*
X184198500Y-56880763D01*
X184147706Y-56832788D01*
X184130912Y-56764966D01*
X184153451Y-56698832D01*
X184198508Y-56659793D01*
X184207816Y-56655051D01*
X184307764Y-56582435D01*
X184379786Y-56530109D01*
X184379788Y-56530106D01*
X184379792Y-56530104D01*
X184530104Y-56379792D01*
X184530106Y-56379788D01*
X184530109Y-56379786D01*
X184655048Y-56207820D01*
X184655047Y-56207820D01*
X184655051Y-56207816D01*
X184751557Y-56018412D01*
X184817246Y-55816243D01*
X184850500Y-55606287D01*
X184850500Y-55393713D01*
X184817246Y-55183757D01*
X184751557Y-54981588D01*
X184655051Y-54792184D01*
X184655049Y-54792181D01*
X184655048Y-54792179D01*
X184530109Y-54620213D01*
X184379786Y-54469890D01*
X184207820Y-54344951D01*
X184207115Y-54344591D01*
X184199054Y-54340485D01*
X184148259Y-54292512D01*
X184131463Y-54224692D01*
X184153999Y-54158556D01*
X184199054Y-54119515D01*
X184207816Y-54115051D01*
X184248285Y-54085649D01*
X184379786Y-53990109D01*
X184379788Y-53990106D01*
X184379792Y-53990104D01*
X184530104Y-53839792D01*
X184530106Y-53839788D01*
X184530109Y-53839786D01*
X184655048Y-53667820D01*
X184655047Y-53667820D01*
X184655051Y-53667816D01*
X184751557Y-53478412D01*
X184817246Y-53276243D01*
X184850500Y-53066287D01*
X184850500Y-52853713D01*
X184817246Y-52643757D01*
X184803506Y-52601473D01*
X184801512Y-52531635D01*
X184833755Y-52475478D01*
X189480520Y-47828716D01*
X189559577Y-47691784D01*
X189600501Y-47539057D01*
X189600501Y-47380942D01*
X189600501Y-47373347D01*
X189600500Y-47373329D01*
X189600500Y-45300096D01*
X189620185Y-45233057D01*
X189636814Y-45212420D01*
X191385406Y-43463827D01*
X191446729Y-43430343D01*
X191516421Y-43435327D01*
X191572354Y-43477199D01*
X191596771Y-43542663D01*
X191595560Y-43570907D01*
X191575500Y-43697559D01*
X191575500Y-43882440D01*
X191604419Y-44065030D01*
X191661546Y-44240849D01*
X191661547Y-44240852D01*
X191718588Y-44352799D01*
X191724694Y-44364784D01*
X191745479Y-44405575D01*
X191854135Y-44555129D01*
X191854139Y-44555134D01*
X191984865Y-44685860D01*
X191984870Y-44685864D01*
X192054644Y-44736557D01*
X192134428Y-44794523D01*
X192214850Y-44835500D01*
X192299147Y-44878452D01*
X192299150Y-44878453D01*
X192387059Y-44907016D01*
X192474971Y-44935580D01*
X192485150Y-44937192D01*
X192487263Y-44937527D01*
X192550397Y-44967457D01*
X192587328Y-45026769D01*
X192586330Y-45096631D01*
X192547719Y-45154864D01*
X192487263Y-45182473D01*
X192474969Y-45184420D01*
X192299150Y-45241546D01*
X192299147Y-45241547D01*
X192134424Y-45325479D01*
X191984870Y-45434135D01*
X191984865Y-45434139D01*
X191854139Y-45564865D01*
X191854135Y-45564870D01*
X191745479Y-45714424D01*
X191661547Y-45879147D01*
X191661546Y-45879150D01*
X191604419Y-46054969D01*
X191575500Y-46237559D01*
X191575500Y-46422440D01*
X191604419Y-46605030D01*
X191661546Y-46780849D01*
X191661547Y-46780852D01*
X191711972Y-46879815D01*
X191737797Y-46930500D01*
X191745479Y-46945575D01*
X191854135Y-47095129D01*
X191854139Y-47095134D01*
X191984865Y-47225860D01*
X191984870Y-47225864D01*
X192112168Y-47318350D01*
X192134428Y-47334523D01*
X192242106Y-47389388D01*
X192299147Y-47418452D01*
X192299150Y-47418453D01*
X192387059Y-47447016D01*
X192474971Y-47475580D01*
X192485150Y-47477192D01*
X192487263Y-47477527D01*
X192550397Y-47507457D01*
X192587328Y-47566769D01*
X192586330Y-47636631D01*
X192547719Y-47694864D01*
X192487263Y-47722473D01*
X192474969Y-47724420D01*
X192299150Y-47781546D01*
X192299147Y-47781547D01*
X192134424Y-47865479D01*
X191984870Y-47974135D01*
X191984865Y-47974139D01*
X191854139Y-48104865D01*
X191854135Y-48104870D01*
X191745479Y-48254424D01*
X191661547Y-48419147D01*
X191661546Y-48419150D01*
X191604419Y-48594969D01*
X191575500Y-48777559D01*
X191575500Y-48962440D01*
X191604419Y-49145030D01*
X191661546Y-49320849D01*
X191661547Y-49320852D01*
X191686865Y-49370540D01*
X191720870Y-49437279D01*
X191745479Y-49485575D01*
X191854135Y-49635129D01*
X191854139Y-49635134D01*
X191984865Y-49765860D01*
X191984870Y-49765864D01*
X192115318Y-49860639D01*
X192134428Y-49874523D01*
X192242106Y-49929388D01*
X192299147Y-49958452D01*
X192299150Y-49958453D01*
X192387059Y-49987016D01*
X192474971Y-50015580D01*
X192485150Y-50017192D01*
X192487263Y-50017527D01*
X192550397Y-50047457D01*
X192587328Y-50106769D01*
X192586330Y-50176631D01*
X192547719Y-50234864D01*
X192487263Y-50262473D01*
X192474969Y-50264420D01*
X192299150Y-50321546D01*
X192299147Y-50321547D01*
X192134424Y-50405479D01*
X191984870Y-50514135D01*
X191984865Y-50514139D01*
X191854139Y-50644865D01*
X191854135Y-50644870D01*
X191745479Y-50794424D01*
X191661547Y-50959147D01*
X191661546Y-50959150D01*
X191604419Y-51134969D01*
X191575500Y-51317559D01*
X191575500Y-51502440D01*
X191604419Y-51685030D01*
X191661546Y-51860849D01*
X191661547Y-51860852D01*
X191745479Y-52025575D01*
X191854135Y-52175129D01*
X191854139Y-52175134D01*
X191984865Y-52305860D01*
X191984870Y-52305864D01*
X192084451Y-52378213D01*
X192134428Y-52414523D01*
X192242106Y-52469388D01*
X192299147Y-52498452D01*
X192299150Y-52498453D01*
X192358597Y-52517768D01*
X192474971Y-52555580D01*
X192485150Y-52557192D01*
X192487263Y-52557527D01*
X192550397Y-52587457D01*
X192587328Y-52646769D01*
X192586330Y-52716631D01*
X192547719Y-52774864D01*
X192487263Y-52802473D01*
X192474969Y-52804420D01*
X192299150Y-52861546D01*
X192299147Y-52861547D01*
X192134424Y-52945479D01*
X191984870Y-53054135D01*
X191984865Y-53054139D01*
X191854139Y-53184865D01*
X191854135Y-53184870D01*
X191745479Y-53334424D01*
X191661547Y-53499147D01*
X191661546Y-53499150D01*
X191604419Y-53674969D01*
X191575500Y-53857559D01*
X191575500Y-54042440D01*
X191604419Y-54225030D01*
X191661546Y-54400849D01*
X191661547Y-54400852D01*
X191745479Y-54565575D01*
X191854135Y-54715129D01*
X191854139Y-54715134D01*
X191984865Y-54845860D01*
X191984870Y-54845864D01*
X192115318Y-54940639D01*
X192134428Y-54954523D01*
X192233275Y-55004888D01*
X192299147Y-55038452D01*
X192299150Y-55038453D01*
X192358597Y-55057768D01*
X192474971Y-55095580D01*
X192485150Y-55097192D01*
X192487263Y-55097527D01*
X192550397Y-55127457D01*
X192587328Y-55186769D01*
X192586330Y-55256631D01*
X192547719Y-55314864D01*
X192487263Y-55342473D01*
X192474969Y-55344420D01*
X192299150Y-55401546D01*
X192299147Y-55401547D01*
X192134424Y-55485479D01*
X191984870Y-55594135D01*
X191984865Y-55594139D01*
X191854139Y-55724865D01*
X191854135Y-55724870D01*
X191745479Y-55874424D01*
X191661547Y-56039147D01*
X191661546Y-56039150D01*
X191604419Y-56214969D01*
X191575500Y-56397559D01*
X191575500Y-56582440D01*
X191604419Y-56765030D01*
X191661546Y-56940849D01*
X191661547Y-56940852D01*
X191718588Y-57052799D01*
X191730809Y-57076785D01*
X191745479Y-57105575D01*
X191854135Y-57255129D01*
X191854139Y-57255134D01*
X191984865Y-57385860D01*
X191984870Y-57385864D01*
X192058085Y-57439057D01*
X192134428Y-57494523D01*
X192223682Y-57540000D01*
X192299147Y-57578452D01*
X192299150Y-57578453D01*
X192363561Y-57599381D01*
X192474971Y-57635580D01*
X192485150Y-57637192D01*
X192487263Y-57637527D01*
X192550397Y-57667457D01*
X192587328Y-57726769D01*
X192586330Y-57796631D01*
X192547719Y-57854864D01*
X192487263Y-57882473D01*
X192474969Y-57884420D01*
X192299150Y-57941546D01*
X192299147Y-57941547D01*
X192134424Y-58025479D01*
X191984870Y-58134135D01*
X191984865Y-58134139D01*
X191854139Y-58264865D01*
X191854135Y-58264870D01*
X191745479Y-58414424D01*
X191661547Y-58579147D01*
X191661546Y-58579150D01*
X191604419Y-58754969D01*
X191575500Y-58937559D01*
X191575500Y-59122440D01*
X191604419Y-59305030D01*
X191661546Y-59480849D01*
X191661547Y-59480852D01*
X191676941Y-59511063D01*
X191733729Y-59622516D01*
X191745479Y-59645575D01*
X191854135Y-59795129D01*
X191854139Y-59795134D01*
X191984865Y-59925860D01*
X191984870Y-59925864D01*
X192115318Y-60020639D01*
X192134428Y-60034523D01*
X192242106Y-60089388D01*
X192299147Y-60118452D01*
X192299150Y-60118453D01*
X192474969Y-60175580D01*
X192657560Y-60204500D01*
X192657565Y-60204500D01*
X192842440Y-60204500D01*
X193025030Y-60175580D01*
X193200849Y-60118453D01*
X193200852Y-60118452D01*
X193365572Y-60034523D01*
X193515136Y-59925859D01*
X193645859Y-59795136D01*
X193754523Y-59645572D01*
X193838452Y-59480852D01*
X193873672Y-59372455D01*
X193895580Y-59305030D01*
X193924500Y-59122440D01*
X193924500Y-58937559D01*
X193895580Y-58754969D01*
X193838453Y-58579150D01*
X193838452Y-58579147D01*
X193789410Y-58482898D01*
X193754523Y-58414428D01*
X193705539Y-58347007D01*
X193645864Y-58264870D01*
X193645860Y-58264865D01*
X193515134Y-58134139D01*
X193515129Y-58134135D01*
X193365575Y-58025479D01*
X193365574Y-58025478D01*
X193365572Y-58025477D01*
X193312799Y-57998588D01*
X193200852Y-57941547D01*
X193200849Y-57941546D01*
X193025030Y-57884420D01*
X193012737Y-57882473D01*
X192949602Y-57852544D01*
X192912671Y-57793232D01*
X192913669Y-57723370D01*
X192952279Y-57665137D01*
X193012737Y-57637527D01*
X193014508Y-57637246D01*
X193025029Y-57635580D01*
X193200852Y-57578452D01*
X193365572Y-57494523D01*
X193515136Y-57385859D01*
X193645859Y-57255136D01*
X193754523Y-57105572D01*
X193838452Y-56940852D01*
X193856478Y-56885373D01*
X193895580Y-56765030D01*
X193924500Y-56582440D01*
X193924500Y-56397559D01*
X193895580Y-56214969D01*
X193838453Y-56039150D01*
X193838452Y-56039147D01*
X193786546Y-55937277D01*
X193754523Y-55874428D01*
X193740639Y-55855318D01*
X193645864Y-55724870D01*
X193645860Y-55724865D01*
X193515134Y-55594139D01*
X193515129Y-55594135D01*
X193365575Y-55485479D01*
X193365574Y-55485478D01*
X193365572Y-55485477D01*
X193312799Y-55458588D01*
X193200852Y-55401547D01*
X193200849Y-55401546D01*
X193025030Y-55344420D01*
X193012737Y-55342473D01*
X192949602Y-55312544D01*
X192912671Y-55253232D01*
X192913669Y-55183370D01*
X192952279Y-55125137D01*
X193012737Y-55097527D01*
X193014508Y-55097246D01*
X193025029Y-55095580D01*
X193200852Y-55038452D01*
X193365572Y-54954523D01*
X193515136Y-54845859D01*
X193645859Y-54715136D01*
X193754523Y-54565572D01*
X193838452Y-54400852D01*
X193867841Y-54310402D01*
X193895580Y-54225030D01*
X193924500Y-54042440D01*
X193924500Y-53857559D01*
X193895580Y-53674969D01*
X193838453Y-53499150D01*
X193838452Y-53499147D01*
X193790233Y-53404513D01*
X193754523Y-53334428D01*
X193740639Y-53315318D01*
X193645864Y-53184870D01*
X193645860Y-53184865D01*
X193515134Y-53054139D01*
X193515129Y-53054135D01*
X193365575Y-52945479D01*
X193365574Y-52945478D01*
X193365572Y-52945477D01*
X193312799Y-52918588D01*
X193200852Y-52861547D01*
X193200849Y-52861546D01*
X193025030Y-52804420D01*
X193012737Y-52802473D01*
X192949602Y-52772544D01*
X192912671Y-52713232D01*
X192913669Y-52643370D01*
X192952279Y-52585137D01*
X193012737Y-52557527D01*
X193014508Y-52557246D01*
X193025029Y-52555580D01*
X193200852Y-52498452D01*
X193365572Y-52414523D01*
X193515136Y-52305859D01*
X193645859Y-52175136D01*
X193754523Y-52025572D01*
X193838452Y-51860852D01*
X193887972Y-51708444D01*
X193895580Y-51685030D01*
X193924500Y-51502440D01*
X193924500Y-51317559D01*
X193895580Y-51134969D01*
X193838453Y-50959150D01*
X193838452Y-50959147D01*
X193809388Y-50902106D01*
X193754523Y-50794428D01*
X193697488Y-50715925D01*
X193645864Y-50644870D01*
X193645860Y-50644865D01*
X193515134Y-50514139D01*
X193515129Y-50514135D01*
X193365575Y-50405479D01*
X193365574Y-50405478D01*
X193365572Y-50405477D01*
X193312799Y-50378588D01*
X193200852Y-50321547D01*
X193200849Y-50321546D01*
X193025030Y-50264420D01*
X193012737Y-50262473D01*
X192949602Y-50232544D01*
X192912671Y-50173232D01*
X192913669Y-50103370D01*
X192952279Y-50045137D01*
X193012737Y-50017527D01*
X193014508Y-50017246D01*
X193025029Y-50015580D01*
X193200852Y-49958452D01*
X193365572Y-49874523D01*
X193515136Y-49765859D01*
X193645859Y-49635136D01*
X193754523Y-49485572D01*
X193838452Y-49320852D01*
X193871132Y-49220272D01*
X193895580Y-49145030D01*
X193924500Y-48962440D01*
X193924500Y-48777559D01*
X193895580Y-48594969D01*
X193838453Y-48419150D01*
X193838452Y-48419147D01*
X193805030Y-48353554D01*
X193754523Y-48254428D01*
X193707422Y-48189598D01*
X193645864Y-48104870D01*
X193645860Y-48104865D01*
X193515134Y-47974139D01*
X193515129Y-47974135D01*
X193365575Y-47865479D01*
X193365574Y-47865478D01*
X193365572Y-47865477D01*
X193312799Y-47838588D01*
X193200852Y-47781547D01*
X193200849Y-47781546D01*
X193025030Y-47724420D01*
X193012737Y-47722473D01*
X192949602Y-47692544D01*
X192912671Y-47633232D01*
X192913669Y-47563370D01*
X192952279Y-47505137D01*
X193012737Y-47477527D01*
X193014508Y-47477246D01*
X193025029Y-47475580D01*
X193200852Y-47418452D01*
X193365572Y-47334523D01*
X193515136Y-47225859D01*
X193645859Y-47095136D01*
X193754523Y-46945572D01*
X193838452Y-46780852D01*
X193839060Y-46778980D01*
X193895580Y-46605030D01*
X193924500Y-46422440D01*
X193924500Y-46237559D01*
X193895580Y-46054969D01*
X193838453Y-45879150D01*
X193838452Y-45879147D01*
X193774924Y-45754468D01*
X193754523Y-45714428D01*
X193728336Y-45678385D01*
X193645864Y-45564870D01*
X193645860Y-45564865D01*
X193515134Y-45434139D01*
X193515129Y-45434135D01*
X193365575Y-45325479D01*
X193365574Y-45325478D01*
X193365572Y-45325477D01*
X193312799Y-45298588D01*
X193200852Y-45241547D01*
X193200849Y-45241546D01*
X193025030Y-45184420D01*
X193012737Y-45182473D01*
X192949602Y-45152544D01*
X192912671Y-45093232D01*
X192913669Y-45023370D01*
X192952279Y-44965137D01*
X193012737Y-44937527D01*
X193014508Y-44937246D01*
X193025029Y-44935580D01*
X193200852Y-44878452D01*
X193365572Y-44794523D01*
X193515136Y-44685859D01*
X193645859Y-44555136D01*
X193754523Y-44405572D01*
X193838452Y-44240852D01*
X193848476Y-44210000D01*
X193895580Y-44065030D01*
X193924500Y-43882440D01*
X193924500Y-43697559D01*
X193895580Y-43514969D01*
X193838453Y-43339150D01*
X193838452Y-43339147D01*
X193809388Y-43282106D01*
X193754523Y-43174428D01*
X193667179Y-43054208D01*
X193645864Y-43024870D01*
X193645860Y-43024865D01*
X193515134Y-42894139D01*
X193515129Y-42894135D01*
X193365575Y-42785479D01*
X193365574Y-42785478D01*
X193365572Y-42785477D01*
X193312799Y-42758588D01*
X193200852Y-42701547D01*
X193200849Y-42701546D01*
X193025030Y-42644420D01*
X193012737Y-42642473D01*
X192949602Y-42612544D01*
X192912671Y-42553232D01*
X192913669Y-42483370D01*
X192952279Y-42425137D01*
X193012737Y-42397527D01*
X193014508Y-42397246D01*
X193025029Y-42395580D01*
X193200852Y-42338452D01*
X193365572Y-42254523D01*
X193515136Y-42145859D01*
X193645859Y-42015136D01*
X193754523Y-41865572D01*
X193838452Y-41700852D01*
X193838453Y-41700849D01*
X193895580Y-41525030D01*
X193924500Y-41342440D01*
X193924500Y-41157559D01*
X193895580Y-40974969D01*
X193838453Y-40799150D01*
X193838452Y-40799147D01*
X193809388Y-40742106D01*
X193754523Y-40634428D01*
X193740639Y-40615318D01*
X193645864Y-40484870D01*
X193645860Y-40484865D01*
X193515134Y-40354139D01*
X193515129Y-40354135D01*
X193365575Y-40245479D01*
X193365574Y-40245478D01*
X193365572Y-40245477D01*
X193312799Y-40218588D01*
X193200852Y-40161547D01*
X193200849Y-40161546D01*
X193025030Y-40104419D01*
X192842440Y-40075500D01*
X192842435Y-40075500D01*
X192657565Y-40075500D01*
X192657560Y-40075500D01*
X192474969Y-40104419D01*
X192299150Y-40161546D01*
X192299147Y-40161547D01*
X192134424Y-40245479D01*
X191984870Y-40354135D01*
X191984865Y-40354139D01*
X191854139Y-40484865D01*
X191854135Y-40484870D01*
X191745479Y-40634424D01*
X191661547Y-40799147D01*
X191661546Y-40799150D01*
X191604419Y-40974969D01*
X191575500Y-41157559D01*
X191575500Y-41342440D01*
X191597450Y-41481026D01*
X191588495Y-41550319D01*
X191562658Y-41588105D01*
X188631286Y-44519478D01*
X188519481Y-44631282D01*
X188519480Y-44631284D01*
X188473745Y-44710500D01*
X188440423Y-44768215D01*
X188399499Y-44920943D01*
X188399499Y-44920945D01*
X188399499Y-45089046D01*
X188399500Y-45089059D01*
X188399500Y-47159902D01*
X188379815Y-47226941D01*
X188363181Y-47247583D01*
X183984522Y-51626241D01*
X183923199Y-51659726D01*
X183858523Y-51656491D01*
X183816245Y-51642754D01*
X183676272Y-51620584D01*
X183606287Y-51609500D01*
X183393713Y-51609500D01*
X183345042Y-51617208D01*
X183183760Y-51642753D01*
X182981585Y-51708444D01*
X182792179Y-51804951D01*
X182620213Y-51929890D01*
X182469890Y-52080213D01*
X182344951Y-52252179D01*
X182248445Y-52441582D01*
X182248443Y-52441587D01*
X182248443Y-52441588D01*
X182242429Y-52460094D01*
X182202992Y-52517768D01*
X182138633Y-52544965D01*
X182069787Y-52533050D01*
X182018312Y-52485805D01*
X182000500Y-52421773D01*
X182000500Y-40838713D01*
X182374500Y-40838713D01*
X182374500Y-41051287D01*
X182407754Y-41261243D01*
X182435321Y-41346086D01*
X182473444Y-41463414D01*
X182569951Y-41652820D01*
X182694890Y-41824786D01*
X182845213Y-41975109D01*
X183017182Y-42100050D01*
X183025946Y-42104516D01*
X183076742Y-42152491D01*
X183093536Y-42220312D01*
X183070998Y-42286447D01*
X183025946Y-42325484D01*
X183017182Y-42329949D01*
X182845213Y-42454890D01*
X182694890Y-42605213D01*
X182569951Y-42777179D01*
X182473444Y-42966585D01*
X182407753Y-43168760D01*
X182380766Y-43339150D01*
X182374500Y-43378713D01*
X182374500Y-43591287D01*
X182407754Y-43801243D01*
X182456775Y-43952114D01*
X182473444Y-44003414D01*
X182569951Y-44192820D01*
X182694890Y-44364786D01*
X182808818Y-44478714D01*
X182842303Y-44540037D01*
X182837319Y-44609729D01*
X182795447Y-44665662D01*
X182764471Y-44682577D01*
X182632912Y-44731646D01*
X182632906Y-44731649D01*
X182517812Y-44817809D01*
X182517809Y-44817812D01*
X182431649Y-44932906D01*
X182431645Y-44932913D01*
X182381403Y-45067620D01*
X182381401Y-45067627D01*
X182375000Y-45127155D01*
X182375000Y-45775000D01*
X183291988Y-45775000D01*
X183259075Y-45832007D01*
X183225000Y-45959174D01*
X183225000Y-46090826D01*
X183259075Y-46217993D01*
X183291988Y-46275000D01*
X182375000Y-46275000D01*
X182375000Y-46922844D01*
X182381401Y-46982372D01*
X182381403Y-46982379D01*
X182431645Y-47117086D01*
X182431649Y-47117093D01*
X182517809Y-47232187D01*
X182517812Y-47232190D01*
X182632906Y-47318350D01*
X182632913Y-47318354D01*
X182767620Y-47368596D01*
X182767627Y-47368598D01*
X182827155Y-47374999D01*
X182827172Y-47375000D01*
X183475000Y-47375000D01*
X183475000Y-46458012D01*
X183532007Y-46490925D01*
X183659174Y-46525000D01*
X183790826Y-46525000D01*
X183917993Y-46490925D01*
X183975000Y-46458012D01*
X183975000Y-47375000D01*
X184622828Y-47375000D01*
X184622844Y-47374999D01*
X184682372Y-47368598D01*
X184682379Y-47368596D01*
X184817086Y-47318354D01*
X184817093Y-47318350D01*
X184932187Y-47232190D01*
X184932190Y-47232187D01*
X185018350Y-47117093D01*
X185018354Y-47117086D01*
X185068596Y-46982379D01*
X185068598Y-46982372D01*
X185074999Y-46922844D01*
X185075000Y-46922827D01*
X185075000Y-46275000D01*
X184158012Y-46275000D01*
X184190925Y-46217993D01*
X184225000Y-46090826D01*
X184225000Y-45959174D01*
X184190925Y-45832007D01*
X184158012Y-45775000D01*
X185075000Y-45775000D01*
X185075000Y-45127172D01*
X185074999Y-45127155D01*
X185068598Y-45067627D01*
X185068596Y-45067620D01*
X185018354Y-44932913D01*
X185018350Y-44932906D01*
X184932190Y-44817812D01*
X184932187Y-44817809D01*
X184817093Y-44731649D01*
X184817088Y-44731646D01*
X184685528Y-44682577D01*
X184629595Y-44640705D01*
X184605178Y-44575241D01*
X184620030Y-44506968D01*
X184641175Y-44478720D01*
X184755104Y-44364792D01*
X184880051Y-44192816D01*
X184976557Y-44003412D01*
X185042246Y-43801243D01*
X185075500Y-43591287D01*
X185075500Y-43378713D01*
X185042246Y-43168757D01*
X185028506Y-43126473D01*
X185026512Y-43056635D01*
X185058755Y-43000478D01*
X189422416Y-38636819D01*
X189483739Y-38603334D01*
X189510097Y-38600500D01*
X194199903Y-38600500D01*
X194266942Y-38620185D01*
X194287584Y-38636819D01*
X202345139Y-46694374D01*
X202345149Y-46694385D01*
X202349479Y-46698715D01*
X202349480Y-46698716D01*
X202461284Y-46810520D01*
X202546119Y-46859499D01*
X202598215Y-46889577D01*
X202750943Y-46930501D01*
X202750946Y-46930501D01*
X202916653Y-46930501D01*
X202916669Y-46930500D01*
X206911345Y-46930500D01*
X206978384Y-46950185D01*
X207011663Y-46981615D01*
X207094135Y-47095130D01*
X207224865Y-47225860D01*
X207224870Y-47225864D01*
X207352168Y-47318350D01*
X207374428Y-47334523D01*
X207482106Y-47389388D01*
X207539147Y-47418452D01*
X207539150Y-47418453D01*
X207627059Y-47447016D01*
X207714971Y-47475580D01*
X207725150Y-47477192D01*
X207727263Y-47477527D01*
X207790397Y-47507457D01*
X207827328Y-47566769D01*
X207826330Y-47636631D01*
X207787719Y-47694864D01*
X207727263Y-47722473D01*
X207714969Y-47724420D01*
X207539150Y-47781546D01*
X207539147Y-47781547D01*
X207374424Y-47865479D01*
X207224870Y-47974135D01*
X207224865Y-47974139D01*
X207094139Y-48104865D01*
X207094135Y-48104870D01*
X206985479Y-48254424D01*
X206901547Y-48419147D01*
X206901546Y-48419150D01*
X206844419Y-48594969D01*
X206815500Y-48777559D01*
X206815500Y-48962440D01*
X206837450Y-49101026D01*
X206828495Y-49170319D01*
X206802658Y-49208105D01*
X199131286Y-56879478D01*
X199019482Y-56991281D01*
X199019478Y-56991287D01*
X198970116Y-57076785D01*
X198940424Y-57128212D01*
X198940423Y-57128213D01*
X198919961Y-57204579D01*
X198899499Y-57280943D01*
X198899499Y-57280945D01*
X198899499Y-57449046D01*
X198899500Y-57449059D01*
X198899500Y-60775500D01*
X198879815Y-60842539D01*
X198827011Y-60888294D01*
X198775500Y-60899500D01*
X190724500Y-60899500D01*
X190657461Y-60879815D01*
X190611706Y-60827011D01*
X190600500Y-60775500D01*
X190600500Y-53579765D01*
X190620185Y-53512726D01*
X190621398Y-53510874D01*
X190643089Y-53478412D01*
X190709394Y-53379179D01*
X190769737Y-53233497D01*
X190800500Y-53078842D01*
X190800500Y-52921158D01*
X190800500Y-52921155D01*
X190800499Y-52921153D01*
X190788643Y-52861548D01*
X190769737Y-52766503D01*
X190754948Y-52730799D01*
X190709397Y-52620827D01*
X190709390Y-52620814D01*
X190621789Y-52489711D01*
X190621786Y-52489707D01*
X190510292Y-52378213D01*
X190510288Y-52378210D01*
X190379185Y-52290609D01*
X190379172Y-52290602D01*
X190233501Y-52230264D01*
X190233489Y-52230261D01*
X190078845Y-52199500D01*
X190078842Y-52199500D01*
X189921158Y-52199500D01*
X189921155Y-52199500D01*
X189766510Y-52230261D01*
X189766498Y-52230264D01*
X189620827Y-52290602D01*
X189620814Y-52290609D01*
X189489711Y-52378210D01*
X189489707Y-52378213D01*
X189378213Y-52489707D01*
X189378210Y-52489711D01*
X189290609Y-52620814D01*
X189290602Y-52620827D01*
X189230264Y-52766498D01*
X189230261Y-52766510D01*
X189199500Y-52921153D01*
X189199500Y-53078846D01*
X189230261Y-53233489D01*
X189230264Y-53233501D01*
X189290602Y-53379172D01*
X189290609Y-53379185D01*
X189378602Y-53510874D01*
X189399480Y-53577551D01*
X189399500Y-53579765D01*
X189399500Y-61420943D01*
X189399500Y-61579057D01*
X189432728Y-61703063D01*
X189440423Y-61731783D01*
X189440426Y-61731790D01*
X189519475Y-61868709D01*
X189519479Y-61868714D01*
X189519480Y-61868716D01*
X189631284Y-61980520D01*
X189631286Y-61980521D01*
X189631290Y-61980524D01*
X189768209Y-62059573D01*
X189768216Y-62059577D01*
X189920943Y-62100500D01*
X189920945Y-62100500D01*
X199579055Y-62100500D01*
X199579057Y-62100500D01*
X199731784Y-62059577D01*
X199868716Y-61980520D01*
X199980520Y-61868716D01*
X200059577Y-61731784D01*
X200100500Y-61579057D01*
X200100500Y-57660096D01*
X200120185Y-57593057D01*
X200136814Y-57572420D01*
X206625408Y-51083825D01*
X206686729Y-51050342D01*
X206756421Y-51055326D01*
X206812354Y-51097198D01*
X206836771Y-51162662D01*
X206835560Y-51190906D01*
X206815500Y-51317559D01*
X206815500Y-51502440D01*
X206844419Y-51685030D01*
X206901546Y-51860849D01*
X206901547Y-51860852D01*
X206985479Y-52025575D01*
X207094135Y-52175129D01*
X207094139Y-52175134D01*
X207224865Y-52305860D01*
X207224870Y-52305864D01*
X207324451Y-52378213D01*
X207374428Y-52414523D01*
X207482106Y-52469388D01*
X207539147Y-52498452D01*
X207539150Y-52498453D01*
X207598597Y-52517768D01*
X207714971Y-52555580D01*
X207725150Y-52557192D01*
X207727263Y-52557527D01*
X207790397Y-52587457D01*
X207827328Y-52646769D01*
X207826330Y-52716631D01*
X207787719Y-52774864D01*
X207727263Y-52802473D01*
X207714969Y-52804420D01*
X207539150Y-52861546D01*
X207539147Y-52861547D01*
X207374424Y-52945479D01*
X207224870Y-53054135D01*
X207224865Y-53054139D01*
X207094139Y-53184865D01*
X207094135Y-53184870D01*
X206985479Y-53334424D01*
X206901547Y-53499147D01*
X206901546Y-53499150D01*
X206844419Y-53674969D01*
X206815500Y-53857559D01*
X206815500Y-54042440D01*
X206844419Y-54225030D01*
X206901546Y-54400849D01*
X206901547Y-54400852D01*
X206985479Y-54565575D01*
X207094135Y-54715129D01*
X207094139Y-54715134D01*
X207224865Y-54845860D01*
X207224870Y-54845864D01*
X207355318Y-54940639D01*
X207374428Y-54954523D01*
X207473275Y-55004888D01*
X207539147Y-55038452D01*
X207539150Y-55038453D01*
X207598597Y-55057768D01*
X207714971Y-55095580D01*
X207725150Y-55097192D01*
X207727263Y-55097527D01*
X207790397Y-55127457D01*
X207827328Y-55186769D01*
X207826330Y-55256631D01*
X207787719Y-55314864D01*
X207727263Y-55342473D01*
X207714969Y-55344420D01*
X207539150Y-55401546D01*
X207539147Y-55401547D01*
X207374424Y-55485479D01*
X207224870Y-55594135D01*
X207224865Y-55594139D01*
X207094139Y-55724865D01*
X207094135Y-55724870D01*
X206985479Y-55874424D01*
X206901547Y-56039147D01*
X206901546Y-56039150D01*
X206844419Y-56214969D01*
X206815500Y-56397559D01*
X206815500Y-56582440D01*
X206844419Y-56765030D01*
X206901546Y-56940849D01*
X206901547Y-56940852D01*
X206958588Y-57052799D01*
X206970809Y-57076785D01*
X206985479Y-57105575D01*
X207094135Y-57255129D01*
X207094139Y-57255134D01*
X207224865Y-57385860D01*
X207224870Y-57385864D01*
X207298085Y-57439057D01*
X207374428Y-57494523D01*
X207463682Y-57540000D01*
X207539147Y-57578452D01*
X207539150Y-57578453D01*
X207603561Y-57599381D01*
X207714971Y-57635580D01*
X207725150Y-57637192D01*
X207727263Y-57637527D01*
X207790397Y-57667457D01*
X207827328Y-57726769D01*
X207826330Y-57796631D01*
X207787719Y-57854864D01*
X207727263Y-57882473D01*
X207714969Y-57884420D01*
X207539150Y-57941546D01*
X207539147Y-57941547D01*
X207374424Y-58025479D01*
X207224870Y-58134135D01*
X207224865Y-58134139D01*
X207094139Y-58264865D01*
X207094135Y-58264870D01*
X206985479Y-58414424D01*
X206901547Y-58579147D01*
X206901546Y-58579150D01*
X206844419Y-58754969D01*
X206815500Y-58937559D01*
X206815500Y-59122440D01*
X206844419Y-59305030D01*
X206901546Y-59480849D01*
X206901547Y-59480852D01*
X206916941Y-59511063D01*
X206973729Y-59622516D01*
X206985479Y-59645575D01*
X207094135Y-59795129D01*
X207094139Y-59795134D01*
X207224865Y-59925860D01*
X207224870Y-59925864D01*
X207355318Y-60020639D01*
X207374428Y-60034523D01*
X207482106Y-60089388D01*
X207539147Y-60118452D01*
X207539150Y-60118453D01*
X207714969Y-60175580D01*
X207897560Y-60204500D01*
X207897565Y-60204500D01*
X208082440Y-60204500D01*
X208265030Y-60175580D01*
X208440849Y-60118453D01*
X208440852Y-60118452D01*
X208605572Y-60034523D01*
X208755136Y-59925859D01*
X208885859Y-59795136D01*
X208994523Y-59645572D01*
X209078452Y-59480852D01*
X209113672Y-59372455D01*
X209135580Y-59305030D01*
X209164500Y-59122440D01*
X209164500Y-58937559D01*
X209135580Y-58754969D01*
X209078453Y-58579150D01*
X209078452Y-58579147D01*
X209029410Y-58482898D01*
X208994523Y-58414428D01*
X208945539Y-58347007D01*
X208885864Y-58264870D01*
X208885860Y-58264865D01*
X208755134Y-58134139D01*
X208755129Y-58134135D01*
X208605575Y-58025479D01*
X208605574Y-58025478D01*
X208605572Y-58025477D01*
X208552799Y-57998588D01*
X208440852Y-57941547D01*
X208440849Y-57941546D01*
X208265030Y-57884420D01*
X208252737Y-57882473D01*
X208189602Y-57852544D01*
X208152671Y-57793232D01*
X208153669Y-57723370D01*
X208192279Y-57665137D01*
X208252737Y-57637527D01*
X208254508Y-57637246D01*
X208265029Y-57635580D01*
X208440852Y-57578452D01*
X208605572Y-57494523D01*
X208755136Y-57385859D01*
X208885859Y-57255136D01*
X208994523Y-57105572D01*
X209078452Y-56940852D01*
X209096478Y-56885373D01*
X209135580Y-56765030D01*
X209164500Y-56582440D01*
X209164500Y-56397559D01*
X209135580Y-56214969D01*
X209078453Y-56039150D01*
X209078452Y-56039147D01*
X209030797Y-55945620D01*
X209026546Y-55937277D01*
X208994523Y-55874428D01*
X208994521Y-55874425D01*
X208994520Y-55874423D01*
X208885864Y-55724870D01*
X208885860Y-55724865D01*
X208755134Y-55594139D01*
X208755129Y-55594135D01*
X208605575Y-55485479D01*
X208605574Y-55485478D01*
X208605572Y-55485477D01*
X208552799Y-55458588D01*
X208440852Y-55401547D01*
X208440849Y-55401546D01*
X208265030Y-55344420D01*
X208252737Y-55342473D01*
X208189602Y-55312544D01*
X208152671Y-55253232D01*
X208153669Y-55183370D01*
X208192279Y-55125137D01*
X208252737Y-55097527D01*
X208254508Y-55097246D01*
X208265029Y-55095580D01*
X208440852Y-55038452D01*
X208605572Y-54954523D01*
X208755136Y-54845859D01*
X208885859Y-54715136D01*
X208994523Y-54565572D01*
X209078452Y-54400852D01*
X209084572Y-54382014D01*
X217200000Y-54382014D01*
X217200000Y-54617985D01*
X217230799Y-54851914D01*
X217291870Y-55079837D01*
X217382160Y-55297819D01*
X217382165Y-55297828D01*
X217500144Y-55502171D01*
X217500145Y-55502172D01*
X217562721Y-55583723D01*
X218398958Y-54747487D01*
X218423978Y-54807890D01*
X218495112Y-54914351D01*
X218585649Y-55004888D01*
X218692110Y-55076022D01*
X218752511Y-55101041D01*
X217916275Y-55937277D01*
X217997827Y-55999854D01*
X217997828Y-55999855D01*
X218202171Y-56117834D01*
X218202180Y-56117839D01*
X218420163Y-56208129D01*
X218420161Y-56208129D01*
X218648085Y-56269200D01*
X218882014Y-56299999D01*
X218882029Y-56300000D01*
X219117971Y-56300000D01*
X219117985Y-56299999D01*
X219351914Y-56269200D01*
X219579837Y-56208129D01*
X219797819Y-56117839D01*
X219797828Y-56117834D01*
X220002181Y-55999850D01*
X220083723Y-55937279D01*
X220083723Y-55937276D01*
X219247487Y-55101041D01*
X219307890Y-55076022D01*
X219414351Y-55004888D01*
X219504888Y-54914351D01*
X219576022Y-54807890D01*
X219601041Y-54747487D01*
X220437276Y-55583723D01*
X220437279Y-55583723D01*
X220499850Y-55502181D01*
X220617834Y-55297828D01*
X220617839Y-55297819D01*
X220708129Y-55079837D01*
X220769200Y-54851914D01*
X220799999Y-54617985D01*
X220800000Y-54617971D01*
X220800000Y-54382028D01*
X220799999Y-54382014D01*
X247200000Y-54382014D01*
X247200000Y-54617985D01*
X247230799Y-54851914D01*
X247291870Y-55079837D01*
X247382160Y-55297819D01*
X247382165Y-55297828D01*
X247500144Y-55502171D01*
X247500145Y-55502172D01*
X247562721Y-55583723D01*
X248398958Y-54747487D01*
X248423978Y-54807890D01*
X248495112Y-54914351D01*
X248585649Y-55004888D01*
X248692110Y-55076022D01*
X248752511Y-55101041D01*
X247916275Y-55937277D01*
X247997827Y-55999854D01*
X247997828Y-55999855D01*
X248202171Y-56117834D01*
X248202180Y-56117839D01*
X248420163Y-56208129D01*
X248420161Y-56208129D01*
X248648085Y-56269200D01*
X248882014Y-56299999D01*
X248882029Y-56300000D01*
X249117971Y-56300000D01*
X249117985Y-56299999D01*
X249351914Y-56269200D01*
X249579837Y-56208129D01*
X249797819Y-56117839D01*
X249797828Y-56117834D01*
X250002181Y-55999850D01*
X250083723Y-55937279D01*
X250083723Y-55937276D01*
X249247487Y-55101041D01*
X249307890Y-55076022D01*
X249414351Y-55004888D01*
X249504888Y-54914351D01*
X249576022Y-54807890D01*
X249601041Y-54747488D01*
X250437276Y-55583723D01*
X250437279Y-55583723D01*
X250499850Y-55502181D01*
X250617834Y-55297828D01*
X250617839Y-55297819D01*
X250708129Y-55079837D01*
X250769200Y-54851914D01*
X250799999Y-54617985D01*
X250800000Y-54617971D01*
X250800000Y-54382028D01*
X250799999Y-54382014D01*
X250769200Y-54148085D01*
X250708129Y-53920162D01*
X250617839Y-53702180D01*
X250617834Y-53702171D01*
X250499855Y-53497828D01*
X250499854Y-53497827D01*
X250437277Y-53416275D01*
X249601041Y-54252511D01*
X249576022Y-54192110D01*
X249504888Y-54085649D01*
X249414351Y-53995112D01*
X249307890Y-53923978D01*
X249247488Y-53898958D01*
X250083723Y-53062721D01*
X250002172Y-53000145D01*
X250002171Y-53000144D01*
X249797828Y-52882165D01*
X249797819Y-52882160D01*
X249579836Y-52791870D01*
X249579838Y-52791870D01*
X249351914Y-52730799D01*
X249117985Y-52700000D01*
X248882014Y-52700000D01*
X248648085Y-52730799D01*
X248420162Y-52791870D01*
X248202180Y-52882160D01*
X248202171Y-52882165D01*
X247997828Y-53000144D01*
X247997818Y-53000150D01*
X247916275Y-53062720D01*
X247916275Y-53062721D01*
X248752512Y-53898958D01*
X248692110Y-53923978D01*
X248585649Y-53995112D01*
X248495112Y-54085649D01*
X248423978Y-54192110D01*
X248398958Y-54252511D01*
X247562721Y-53416275D01*
X247562720Y-53416275D01*
X247500150Y-53497818D01*
X247500144Y-53497828D01*
X247382165Y-53702171D01*
X247382160Y-53702180D01*
X247291870Y-53920162D01*
X247230799Y-54148085D01*
X247200000Y-54382014D01*
X220799999Y-54382014D01*
X220769200Y-54148085D01*
X220708129Y-53920162D01*
X220617839Y-53702180D01*
X220617834Y-53702171D01*
X220499855Y-53497828D01*
X220499854Y-53497827D01*
X220437277Y-53416275D01*
X219601041Y-54252511D01*
X219576022Y-54192110D01*
X219504888Y-54085649D01*
X219414351Y-53995112D01*
X219307890Y-53923978D01*
X219247488Y-53898958D01*
X220083723Y-53062721D01*
X220002172Y-53000145D01*
X220002171Y-53000144D01*
X219797828Y-52882165D01*
X219797819Y-52882160D01*
X219579836Y-52791870D01*
X219579838Y-52791870D01*
X219351914Y-52730799D01*
X219117985Y-52700000D01*
X218882014Y-52700000D01*
X218648085Y-52730799D01*
X218420162Y-52791870D01*
X218202180Y-52882160D01*
X218202171Y-52882165D01*
X217997828Y-53000144D01*
X217997818Y-53000150D01*
X217916275Y-53062720D01*
X217916275Y-53062721D01*
X218752512Y-53898958D01*
X218692110Y-53923978D01*
X218585649Y-53995112D01*
X218495112Y-54085649D01*
X218423978Y-54192110D01*
X218398958Y-54252512D01*
X217562721Y-53416275D01*
X217562720Y-53416275D01*
X217500150Y-53497818D01*
X217500144Y-53497828D01*
X217382165Y-53702171D01*
X217382160Y-53702180D01*
X217291870Y-53920162D01*
X217230799Y-54148085D01*
X217200000Y-54382014D01*
X209084572Y-54382014D01*
X209092271Y-54358319D01*
X209098340Y-54339644D01*
X209098340Y-54339643D01*
X209110750Y-54301447D01*
X209135580Y-54225029D01*
X209152999Y-54115048D01*
X209164500Y-54042440D01*
X209164500Y-53857559D01*
X209135580Y-53674969D01*
X209078453Y-53499150D01*
X209078452Y-53499147D01*
X209030233Y-53404513D01*
X208994523Y-53334428D01*
X208988641Y-53326332D01*
X208885865Y-53184870D01*
X208755134Y-53054139D01*
X208755129Y-53054135D01*
X208605575Y-52945479D01*
X208605574Y-52945478D01*
X208605572Y-52945477D01*
X208552799Y-52918588D01*
X208440852Y-52861547D01*
X208440849Y-52861546D01*
X208265030Y-52804420D01*
X208252737Y-52802473D01*
X208189602Y-52772544D01*
X208152671Y-52713232D01*
X208153669Y-52643370D01*
X208192279Y-52585137D01*
X208252737Y-52557527D01*
X208254508Y-52557246D01*
X208265029Y-52555580D01*
X208440852Y-52498452D01*
X208605572Y-52414523D01*
X208755136Y-52305859D01*
X208885859Y-52175136D01*
X208994523Y-52025572D01*
X209078452Y-51860852D01*
X209127972Y-51708444D01*
X209135580Y-51685030D01*
X209164500Y-51502440D01*
X209164500Y-51317559D01*
X209135580Y-51134969D01*
X209078453Y-50959150D01*
X209078452Y-50959147D01*
X209049388Y-50902106D01*
X208994523Y-50794428D01*
X208937488Y-50715925D01*
X208885864Y-50644870D01*
X208885860Y-50644865D01*
X208755134Y-50514139D01*
X208755129Y-50514135D01*
X208605575Y-50405479D01*
X208605574Y-50405478D01*
X208605572Y-50405477D01*
X208552799Y-50378588D01*
X208440852Y-50321547D01*
X208440849Y-50321546D01*
X208265030Y-50264420D01*
X208252737Y-50262473D01*
X208189602Y-50232544D01*
X208152671Y-50173232D01*
X208153669Y-50103370D01*
X208192279Y-50045137D01*
X208252737Y-50017527D01*
X208254508Y-50017246D01*
X208265029Y-50015580D01*
X208440852Y-49958452D01*
X208605572Y-49874523D01*
X208755136Y-49765859D01*
X208885859Y-49635136D01*
X208994523Y-49485572D01*
X209078452Y-49320852D01*
X209111132Y-49220272D01*
X209135580Y-49145030D01*
X209164500Y-48962440D01*
X209164500Y-48777559D01*
X209135580Y-48594969D01*
X209078453Y-48419150D01*
X209078452Y-48419147D01*
X209045030Y-48353554D01*
X208994523Y-48254428D01*
X208947422Y-48189598D01*
X208885864Y-48104870D01*
X208885860Y-48104865D01*
X208755134Y-47974139D01*
X208755129Y-47974135D01*
X208605575Y-47865479D01*
X208605574Y-47865478D01*
X208605572Y-47865477D01*
X208552799Y-47838588D01*
X208440852Y-47781547D01*
X208440849Y-47781546D01*
X208265030Y-47724420D01*
X208252737Y-47722473D01*
X208189602Y-47692544D01*
X208152671Y-47633232D01*
X208153669Y-47563370D01*
X208192279Y-47505137D01*
X208252737Y-47477527D01*
X208254508Y-47477246D01*
X208265029Y-47475580D01*
X208440852Y-47418452D01*
X208605572Y-47334523D01*
X208755136Y-47225859D01*
X208885859Y-47095136D01*
X208994523Y-46945572D01*
X209078452Y-46780852D01*
X209079060Y-46778980D01*
X209135580Y-46605030D01*
X209164500Y-46422440D01*
X209164500Y-46237559D01*
X209135580Y-46054969D01*
X209078453Y-45879150D01*
X209078452Y-45879147D01*
X209014924Y-45754468D01*
X208994523Y-45714428D01*
X208968336Y-45678385D01*
X208885864Y-45564870D01*
X208885860Y-45564865D01*
X208755134Y-45434139D01*
X208755129Y-45434135D01*
X208605575Y-45325479D01*
X208605574Y-45325478D01*
X208605572Y-45325477D01*
X208552799Y-45298588D01*
X208440852Y-45241547D01*
X208440849Y-45241546D01*
X208265033Y-45184421D01*
X208265031Y-45184420D01*
X208265029Y-45184420D01*
X208252736Y-45182473D01*
X208251133Y-45182219D01*
X208188000Y-45152287D01*
X208151071Y-45092974D01*
X208152071Y-45023111D01*
X208190683Y-44964880D01*
X208251143Y-44937272D01*
X208264911Y-44935091D01*
X208440661Y-44877986D01*
X208605310Y-44794094D01*
X208625715Y-44779268D01*
X208625716Y-44779268D01*
X208054090Y-44207642D01*
X208152114Y-44181378D01*
X208247886Y-44126084D01*
X208326084Y-44047886D01*
X208381378Y-43952114D01*
X208407643Y-43854089D01*
X208979268Y-44425716D01*
X208979268Y-44425715D01*
X208994094Y-44405310D01*
X209077986Y-44240661D01*
X209135092Y-44064908D01*
X209164000Y-43882395D01*
X209164000Y-43697606D01*
X209143837Y-43570307D01*
X209152791Y-43501013D01*
X209197787Y-43447561D01*
X209264539Y-43426921D01*
X209331852Y-43445646D01*
X209353991Y-43463227D01*
X211103179Y-45212415D01*
X213871284Y-47980520D01*
X213871286Y-47980521D01*
X213871290Y-47980524D01*
X214008209Y-48059573D01*
X214008216Y-48059577D01*
X214160943Y-48100501D01*
X214160945Y-48100501D01*
X214326654Y-48100501D01*
X214326670Y-48100500D01*
X217075546Y-48100500D01*
X217142585Y-48120185D01*
X217188340Y-48172989D01*
X217199164Y-48218881D01*
X217199351Y-48218869D01*
X217199429Y-48220005D01*
X217199471Y-48220180D01*
X217199500Y-48221019D01*
X217205650Y-48309624D01*
X217205652Y-48309640D01*
X217254465Y-48517176D01*
X217254467Y-48517182D01*
X217254468Y-48517185D01*
X217340591Y-48712237D01*
X217340592Y-48712238D01*
X217461088Y-48888141D01*
X217461093Y-48888147D01*
X217611852Y-49038906D01*
X217611858Y-49038911D01*
X217787763Y-49159409D01*
X217982815Y-49245532D01*
X217982821Y-49245533D01*
X217982823Y-49245534D01*
X218190359Y-49294347D01*
X218190364Y-49294347D01*
X218190370Y-49294349D01*
X218239602Y-49297766D01*
X218278984Y-49300500D01*
X218278988Y-49300500D01*
X219721016Y-49300500D01*
X219756459Y-49298039D01*
X219809630Y-49294349D01*
X219809636Y-49294347D01*
X219809640Y-49294347D01*
X220017176Y-49245534D01*
X220017174Y-49245534D01*
X220017185Y-49245532D01*
X220212237Y-49159409D01*
X220388142Y-49038911D01*
X220538911Y-48888142D01*
X220659409Y-48712237D01*
X220745532Y-48517185D01*
X220794349Y-48309630D01*
X220800500Y-48221012D01*
X220800500Y-46778988D01*
X220800499Y-46778984D01*
X247199500Y-46778984D01*
X247199500Y-48221015D01*
X247205650Y-48309624D01*
X247205652Y-48309640D01*
X247254465Y-48517176D01*
X247254467Y-48517182D01*
X247254468Y-48517185D01*
X247340591Y-48712237D01*
X247340592Y-48712238D01*
X247461088Y-48888141D01*
X247461093Y-48888147D01*
X247611852Y-49038906D01*
X247611858Y-49038911D01*
X247787763Y-49159409D01*
X247982815Y-49245532D01*
X247982821Y-49245533D01*
X247982823Y-49245534D01*
X248190359Y-49294347D01*
X248190364Y-49294347D01*
X248190370Y-49294349D01*
X248239602Y-49297766D01*
X248278984Y-49300500D01*
X248278988Y-49300500D01*
X249721016Y-49300500D01*
X249756459Y-49298039D01*
X249809630Y-49294349D01*
X249809636Y-49294347D01*
X249809640Y-49294347D01*
X250017176Y-49245534D01*
X250017174Y-49245534D01*
X250017185Y-49245532D01*
X250212237Y-49159409D01*
X250388142Y-49038911D01*
X250451228Y-48975824D01*
X250512548Y-48942340D01*
X250582240Y-48947324D01*
X250626589Y-48975825D01*
X255682609Y-54031845D01*
X255716094Y-54093168D01*
X255715635Y-54147912D01*
X255705652Y-54190359D01*
X255705650Y-54190376D01*
X255699500Y-54278984D01*
X255699500Y-55721015D01*
X255705650Y-55809624D01*
X255705652Y-55809640D01*
X255754465Y-56017176D01*
X255754467Y-56017182D01*
X255754468Y-56017185D01*
X255840591Y-56212237D01*
X255842464Y-56214971D01*
X255961088Y-56388141D01*
X255961093Y-56388147D01*
X256111852Y-56538906D01*
X256111858Y-56538911D01*
X256287763Y-56659409D01*
X256482815Y-56745532D01*
X256482821Y-56745533D01*
X256482823Y-56745534D01*
X256690359Y-56794347D01*
X256690364Y-56794347D01*
X256690370Y-56794349D01*
X256739602Y-56797766D01*
X256778984Y-56800500D01*
X256778988Y-56800500D01*
X258221016Y-56800500D01*
X258256459Y-56798039D01*
X258309630Y-56794349D01*
X258309636Y-56794347D01*
X258309640Y-56794347D01*
X258465468Y-56757695D01*
X258517185Y-56745532D01*
X258712237Y-56659409D01*
X258888142Y-56538911D01*
X259038911Y-56388142D01*
X259159409Y-56212237D01*
X259245532Y-56017185D01*
X259262364Y-55945620D01*
X259294347Y-55809640D01*
X259294347Y-55809636D01*
X259294349Y-55809630D01*
X259300500Y-55721012D01*
X259300500Y-54278988D01*
X259294349Y-54190370D01*
X259294347Y-54190364D01*
X259294347Y-54190359D01*
X259245534Y-53982823D01*
X259245532Y-53982817D01*
X259245532Y-53982815D01*
X259159409Y-53787763D01*
X259038911Y-53611858D01*
X259038906Y-53611852D01*
X258888147Y-53461093D01*
X258888141Y-53461088D01*
X258712238Y-53340592D01*
X258712239Y-53340592D01*
X258712237Y-53340591D01*
X258517185Y-53254468D01*
X258517183Y-53254467D01*
X258517182Y-53254467D01*
X258517176Y-53254465D01*
X258309640Y-53205652D01*
X258309624Y-53205650D01*
X258221016Y-53199500D01*
X258221012Y-53199500D01*
X256778988Y-53199500D01*
X256778984Y-53199500D01*
X256690376Y-53205650D01*
X256690359Y-53205652D01*
X256647912Y-53215635D01*
X256578147Y-53211820D01*
X256531845Y-53182609D01*
X255449219Y-52099983D01*
X273349500Y-52099983D01*
X273349500Y-53400001D01*
X273349501Y-53400018D01*
X273360000Y-53502796D01*
X273360001Y-53502799D01*
X273415185Y-53669331D01*
X273415187Y-53669336D01*
X273418663Y-53674971D01*
X273507288Y-53818656D01*
X273631344Y-53942712D01*
X273780666Y-54034814D01*
X273947203Y-54089999D01*
X274049991Y-54100500D01*
X275650008Y-54100499D01*
X275752797Y-54089999D01*
X275919334Y-54034814D01*
X276068656Y-53942712D01*
X276192712Y-53818656D01*
X276284814Y-53669334D01*
X276339999Y-53502797D01*
X276350500Y-53400009D01*
X276350499Y-52099992D01*
X276339999Y-51997203D01*
X276284814Y-51830666D01*
X276192712Y-51681344D01*
X276068656Y-51557288D01*
X275919334Y-51465186D01*
X275919332Y-51465185D01*
X275913440Y-51461551D01*
X275866716Y-51409603D01*
X275855493Y-51340641D01*
X275883337Y-51276558D01*
X275890856Y-51268330D01*
X276029728Y-51129458D01*
X276154620Y-50957557D01*
X276251095Y-50768217D01*
X276316757Y-50566129D01*
X276316757Y-50566126D01*
X276327231Y-50500000D01*
X275283012Y-50500000D01*
X275315925Y-50442993D01*
X275350000Y-50315826D01*
X275350000Y-50184174D01*
X275315925Y-50057007D01*
X275283012Y-50000000D01*
X276327231Y-50000000D01*
X276316757Y-49933873D01*
X276316757Y-49933870D01*
X276251095Y-49731782D01*
X276154620Y-49542442D01*
X276029727Y-49370540D01*
X276029723Y-49370535D01*
X275879464Y-49220276D01*
X275879459Y-49220272D01*
X275707557Y-49095379D01*
X275518217Y-48998904D01*
X275316129Y-48933242D01*
X275106246Y-48900000D01*
X275100000Y-48900000D01*
X275100000Y-49816988D01*
X275042993Y-49784075D01*
X274915826Y-49750000D01*
X274784174Y-49750000D01*
X274657007Y-49784075D01*
X274600000Y-49816988D01*
X274600000Y-48900000D01*
X274593754Y-48900000D01*
X274383872Y-48933242D01*
X274383869Y-48933242D01*
X274181782Y-48998904D01*
X273992442Y-49095379D01*
X273820540Y-49220272D01*
X273820535Y-49220276D01*
X273670276Y-49370535D01*
X273670272Y-49370540D01*
X273545379Y-49542442D01*
X273448904Y-49731782D01*
X273383242Y-49933870D01*
X273383242Y-49933873D01*
X273372769Y-50000000D01*
X274416988Y-50000000D01*
X274384075Y-50057007D01*
X274350000Y-50184174D01*
X274350000Y-50315826D01*
X274384075Y-50442993D01*
X274416988Y-50500000D01*
X273372769Y-50500000D01*
X273383242Y-50566126D01*
X273383242Y-50566129D01*
X273448904Y-50768217D01*
X273545379Y-50957557D01*
X273670272Y-51129459D01*
X273670276Y-51129464D01*
X273809143Y-51268331D01*
X273842628Y-51329654D01*
X273837644Y-51399346D01*
X273795772Y-51455279D01*
X273786559Y-51461551D01*
X273631342Y-51557289D01*
X273507289Y-51681342D01*
X273415187Y-51830663D01*
X273415186Y-51830666D01*
X273360001Y-51997203D01*
X273360001Y-51997204D01*
X273360000Y-51997204D01*
X273349500Y-52099983D01*
X255449219Y-52099983D01*
X251231250Y-47882014D01*
X255700000Y-47882014D01*
X255700000Y-48117985D01*
X255730799Y-48351914D01*
X255791870Y-48579837D01*
X255882160Y-48797819D01*
X255882165Y-48797828D01*
X256000144Y-49002171D01*
X256000145Y-49002172D01*
X256062721Y-49083723D01*
X256898958Y-48247487D01*
X256923978Y-48307890D01*
X256995112Y-48414351D01*
X257085649Y-48504888D01*
X257192110Y-48576022D01*
X257252511Y-48601041D01*
X256416275Y-49437277D01*
X256497827Y-49499854D01*
X256497828Y-49499855D01*
X256702171Y-49617834D01*
X256702180Y-49617839D01*
X256920163Y-49708129D01*
X256920161Y-49708129D01*
X257148085Y-49769200D01*
X257382014Y-49799999D01*
X257382029Y-49800000D01*
X257617971Y-49800000D01*
X257617985Y-49799999D01*
X257851914Y-49769200D01*
X258079837Y-49708129D01*
X258297819Y-49617839D01*
X258297828Y-49617834D01*
X258502181Y-49499850D01*
X258583723Y-49437279D01*
X258583723Y-49437276D01*
X257747487Y-48601041D01*
X257807890Y-48576022D01*
X257914351Y-48504888D01*
X258004888Y-48414351D01*
X258076022Y-48307890D01*
X258101041Y-48247487D01*
X258937276Y-49083723D01*
X258937279Y-49083723D01*
X258999850Y-49002181D01*
X259117834Y-48797828D01*
X259117839Y-48797819D01*
X259208129Y-48579837D01*
X259269200Y-48351914D01*
X259299999Y-48117985D01*
X259300000Y-48117971D01*
X259300000Y-47882028D01*
X259299999Y-47882014D01*
X259269200Y-47648085D01*
X259208129Y-47420162D01*
X259117839Y-47202180D01*
X259117834Y-47202171D01*
X258999855Y-46997828D01*
X258999854Y-46997827D01*
X258937277Y-46916275D01*
X258101041Y-47752511D01*
X258076022Y-47692110D01*
X258004888Y-47585649D01*
X257914351Y-47495112D01*
X257807890Y-47423978D01*
X257747488Y-47398958D01*
X258583723Y-46562721D01*
X258502172Y-46500145D01*
X258502171Y-46500144D01*
X258297828Y-46382165D01*
X258297819Y-46382160D01*
X258079836Y-46291870D01*
X258079838Y-46291870D01*
X257851914Y-46230799D01*
X257617985Y-46200000D01*
X257382014Y-46200000D01*
X257148085Y-46230799D01*
X256920162Y-46291870D01*
X256702180Y-46382160D01*
X256702171Y-46382165D01*
X256497828Y-46500144D01*
X256497818Y-46500150D01*
X256416275Y-46562720D01*
X256416275Y-46562721D01*
X257252512Y-47398958D01*
X257192110Y-47423978D01*
X257085649Y-47495112D01*
X256995112Y-47585649D01*
X256923978Y-47692110D01*
X256898958Y-47752512D01*
X256062721Y-46916275D01*
X256062720Y-46916275D01*
X256000150Y-46997818D01*
X256000144Y-46997828D01*
X255882165Y-47202171D01*
X255882160Y-47202180D01*
X255791870Y-47420162D01*
X255730799Y-47648085D01*
X255700000Y-47882014D01*
X251231250Y-47882014D01*
X250836819Y-47487583D01*
X250803334Y-47426260D01*
X250800500Y-47399902D01*
X250800500Y-46778984D01*
X250794928Y-46698713D01*
X250794349Y-46690370D01*
X250794346Y-46690356D01*
X250782283Y-46639063D01*
X250747439Y-46490925D01*
X250745532Y-46482815D01*
X250659409Y-46287763D01*
X250538911Y-46111858D01*
X250538906Y-46111852D01*
X250388147Y-45961093D01*
X250388141Y-45961088D01*
X250212238Y-45840592D01*
X250212239Y-45840592D01*
X250212237Y-45840591D01*
X250017185Y-45754468D01*
X250017183Y-45754467D01*
X250017182Y-45754467D01*
X250017176Y-45754465D01*
X249809640Y-45705652D01*
X249809624Y-45705650D01*
X249721016Y-45699500D01*
X249721012Y-45699500D01*
X248278988Y-45699500D01*
X248278984Y-45699500D01*
X248190375Y-45705650D01*
X248190359Y-45705652D01*
X247982823Y-45754465D01*
X247982817Y-45754467D01*
X247787761Y-45840592D01*
X247611858Y-45961088D01*
X247611852Y-45961093D01*
X247461093Y-46111852D01*
X247461088Y-46111858D01*
X247340592Y-46287761D01*
X247254467Y-46482817D01*
X247254465Y-46482823D01*
X247205652Y-46690359D01*
X247205650Y-46690375D01*
X247199500Y-46778984D01*
X220800499Y-46778984D01*
X220800499Y-46778980D01*
X220794928Y-46698713D01*
X220794349Y-46690370D01*
X220794347Y-46690364D01*
X220794347Y-46690359D01*
X220745534Y-46482823D01*
X220745532Y-46482817D01*
X220745532Y-46482815D01*
X220659409Y-46287763D01*
X220538911Y-46111858D01*
X220538906Y-46111852D01*
X220388147Y-45961093D01*
X220388141Y-45961088D01*
X220212238Y-45840592D01*
X220212239Y-45840592D01*
X220212237Y-45840591D01*
X220017185Y-45754468D01*
X220017183Y-45754467D01*
X220017182Y-45754467D01*
X220017176Y-45754465D01*
X219809640Y-45705652D01*
X219809624Y-45705650D01*
X219721016Y-45699500D01*
X219721012Y-45699500D01*
X218278988Y-45699500D01*
X218278984Y-45699500D01*
X218190375Y-45705650D01*
X218190359Y-45705652D01*
X217982823Y-45754465D01*
X217982817Y-45754467D01*
X217787761Y-45840592D01*
X217611858Y-45961088D01*
X217611852Y-45961093D01*
X217461093Y-46111852D01*
X217461088Y-46111858D01*
X217340592Y-46287761D01*
X217254467Y-46482817D01*
X217254465Y-46482823D01*
X217205652Y-46690359D01*
X217205650Y-46690375D01*
X217199500Y-46778980D01*
X217199471Y-46779820D01*
X217199434Y-46779930D01*
X217199351Y-46781131D01*
X217199042Y-46781109D01*
X217177463Y-46846133D01*
X217123097Y-46890020D01*
X217075546Y-46899500D01*
X214540098Y-46899500D01*
X214473059Y-46879815D01*
X214452417Y-46863181D01*
X209177341Y-41588106D01*
X209143856Y-41526783D01*
X209142549Y-41481026D01*
X209164500Y-41342439D01*
X209164500Y-41157559D01*
X209135580Y-40974969D01*
X209078453Y-40799150D01*
X209078452Y-40799147D01*
X209049388Y-40742106D01*
X208994523Y-40634428D01*
X208980639Y-40615318D01*
X208885864Y-40484870D01*
X208885860Y-40484865D01*
X208755134Y-40354139D01*
X208755129Y-40354135D01*
X208605575Y-40245479D01*
X208605574Y-40245478D01*
X208605572Y-40245477D01*
X208552799Y-40218588D01*
X208440852Y-40161547D01*
X208440849Y-40161546D01*
X208265030Y-40104419D01*
X208082440Y-40075500D01*
X208082435Y-40075500D01*
X207897565Y-40075500D01*
X207897560Y-40075500D01*
X207714969Y-40104419D01*
X207539150Y-40161546D01*
X207539147Y-40161547D01*
X207374424Y-40245479D01*
X207224870Y-40354135D01*
X207224865Y-40354139D01*
X207094139Y-40484865D01*
X207094135Y-40484870D01*
X206985479Y-40634424D01*
X206901547Y-40799147D01*
X206901546Y-40799150D01*
X206844419Y-40974969D01*
X206815500Y-41157559D01*
X206815500Y-41342440D01*
X206844419Y-41525030D01*
X206901546Y-41700849D01*
X206901547Y-41700852D01*
X206985479Y-41865575D01*
X207094135Y-42015129D01*
X207094139Y-42015134D01*
X207224865Y-42145860D01*
X207224870Y-42145864D01*
X207294644Y-42196557D01*
X207374428Y-42254523D01*
X207482106Y-42309388D01*
X207539147Y-42338452D01*
X207539150Y-42338453D01*
X207714970Y-42395580D01*
X207728860Y-42397780D01*
X207791995Y-42427709D01*
X207828927Y-42487020D01*
X207827929Y-42556883D01*
X207789320Y-42615115D01*
X207728864Y-42642726D01*
X207715088Y-42644908D01*
X207539338Y-42702013D01*
X207374692Y-42785903D01*
X207374688Y-42785906D01*
X207354283Y-42800729D01*
X207354283Y-42800730D01*
X207925910Y-43372356D01*
X207827886Y-43398622D01*
X207732114Y-43453916D01*
X207653916Y-43532114D01*
X207598622Y-43627886D01*
X207572356Y-43725909D01*
X207000730Y-43154283D01*
X207000729Y-43154283D01*
X206985906Y-43174688D01*
X206985903Y-43174692D01*
X206902013Y-43339338D01*
X206844907Y-43515091D01*
X206816000Y-43697604D01*
X206816000Y-43882395D01*
X206844907Y-44064908D01*
X206902014Y-44240664D01*
X206985900Y-44405303D01*
X206985903Y-44405307D01*
X207000730Y-44425715D01*
X207000730Y-44425716D01*
X207572356Y-43854090D01*
X207598622Y-43952114D01*
X207653916Y-44047886D01*
X207732114Y-44126084D01*
X207827886Y-44181378D01*
X207925909Y-44207643D01*
X207354283Y-44779268D01*
X207354283Y-44779269D01*
X207374686Y-44794092D01*
X207539338Y-44877986D01*
X207715087Y-44935091D01*
X207728857Y-44937272D01*
X207791993Y-44967200D01*
X207828926Y-45026510D01*
X207827930Y-45096373D01*
X207789322Y-45154607D01*
X207728867Y-45182218D01*
X207714971Y-45184419D01*
X207539150Y-45241546D01*
X207539147Y-45241547D01*
X207374424Y-45325479D01*
X207224870Y-45434135D01*
X207224865Y-45434139D01*
X207094135Y-45564869D01*
X207011663Y-45678385D01*
X206956334Y-45721051D01*
X206911345Y-45729500D01*
X203130097Y-45729500D01*
X203063058Y-45709815D01*
X203042416Y-45693181D01*
X194987590Y-37638355D01*
X194987588Y-37638352D01*
X194868717Y-37519481D01*
X194868716Y-37519480D01*
X194781904Y-37469360D01*
X194781904Y-37469359D01*
X194781900Y-37469358D01*
X194731785Y-37440423D01*
X194579057Y-37399499D01*
X194420943Y-37399499D01*
X194413347Y-37399499D01*
X194413331Y-37399500D01*
X189130940Y-37399500D01*
X189090019Y-37410464D01*
X189090019Y-37410465D01*
X189052751Y-37420451D01*
X188978214Y-37440423D01*
X188978209Y-37440426D01*
X188841290Y-37519475D01*
X188841282Y-37519481D01*
X185287181Y-41073583D01*
X185225858Y-41107068D01*
X185156166Y-41102084D01*
X185100233Y-41060212D01*
X185075816Y-40994748D01*
X185075500Y-40985902D01*
X185075500Y-40838713D01*
X185043144Y-40634428D01*
X185042246Y-40628757D01*
X184976557Y-40426588D01*
X184880051Y-40237184D01*
X184880049Y-40237181D01*
X184880048Y-40237179D01*
X184755109Y-40065213D01*
X184604786Y-39914890D01*
X184432820Y-39789951D01*
X184243414Y-39693444D01*
X184243413Y-39693443D01*
X184243412Y-39693443D01*
X184041243Y-39627754D01*
X184041241Y-39627753D01*
X184041240Y-39627753D01*
X183879957Y-39602208D01*
X183831287Y-39594500D01*
X183618713Y-39594500D01*
X183570042Y-39602208D01*
X183408760Y-39627753D01*
X183206585Y-39693444D01*
X183017179Y-39789951D01*
X182845213Y-39914890D01*
X182694890Y-40065213D01*
X182569951Y-40237179D01*
X182473444Y-40426585D01*
X182407753Y-40628760D01*
X182380766Y-40799150D01*
X182374500Y-40838713D01*
X182000500Y-40838713D01*
X182000500Y-36999500D01*
X182020185Y-36932461D01*
X182072989Y-36886706D01*
X182124500Y-36875500D01*
X282125500Y-36875500D01*
X282192539Y-36895185D01*
G37*
%TD.AperFunction*%
%TA.AperFunction,Conductor*%
G36*
X183034075Y-58232993D02*
G01*
X183099901Y-58347007D01*
X183192993Y-58440099D01*
X183307007Y-58505925D01*
X183370590Y-58522962D01*
X182700370Y-59193181D01*
X182639047Y-59226666D01*
X182612698Y-59229500D01*
X182602134Y-59229500D01*
X182602123Y-59229501D01*
X182542516Y-59235908D01*
X182407671Y-59286202D01*
X182407664Y-59286206D01*
X182292455Y-59372452D01*
X182292452Y-59372455D01*
X182223766Y-59464208D01*
X182167832Y-59506079D01*
X182098141Y-59511063D01*
X182036818Y-59477577D01*
X182003334Y-59416254D01*
X182000500Y-59389897D01*
X182000500Y-58576611D01*
X182020185Y-58509572D01*
X182072989Y-58463817D01*
X182142147Y-58453873D01*
X182205703Y-58482898D01*
X182242432Y-58538294D01*
X182248906Y-58558221D01*
X182345375Y-58747550D01*
X182384728Y-58801716D01*
X183017037Y-58169408D01*
X183034075Y-58232993D01*
G37*
%TD.AperFunction*%
%TA.AperFunction,Conductor*%
G36*
X182205703Y-55944513D02*
G01*
X182242430Y-55999906D01*
X182248044Y-56017185D01*
X182248444Y-56018414D01*
X182344951Y-56207820D01*
X182469890Y-56379786D01*
X182620213Y-56530109D01*
X182792179Y-56655048D01*
X182792181Y-56655049D01*
X182792184Y-56655051D01*
X182801493Y-56659794D01*
X182852290Y-56707766D01*
X182869087Y-56775587D01*
X182846552Y-56841722D01*
X182801505Y-56880760D01*
X182792446Y-56885376D01*
X182792440Y-56885380D01*
X182738282Y-56924727D01*
X182738282Y-56924728D01*
X183370591Y-57557037D01*
X183307007Y-57574075D01*
X183192993Y-57639901D01*
X183099901Y-57732993D01*
X183034075Y-57847007D01*
X183017037Y-57910591D01*
X182384728Y-57278282D01*
X182384727Y-57278282D01*
X182345380Y-57332439D01*
X182248904Y-57521782D01*
X182242431Y-57541706D01*
X182202994Y-57599381D01*
X182138635Y-57626580D01*
X182069789Y-57614665D01*
X182018313Y-57567421D01*
X182000500Y-57503388D01*
X182000500Y-56038226D01*
X182020185Y-55971187D01*
X182072989Y-55925432D01*
X182142147Y-55915488D01*
X182205703Y-55944513D01*
G37*
%TD.AperFunction*%
%TD*%
M02*
