%TF.GenerationSoftware,KiCad,Pcbnew,9.0.4*%
%TF.CreationDate,2025-11-05T17:22:30+05:30*%
%TF.ProjectId,BikeSSv3,42696b65-5353-4763-932e-6b696361645f,rev?*%
%TF.SameCoordinates,Original*%
%TF.FileFunction,Legend,Top*%
%TF.FilePolarity,Positive*%
%FSLAX46Y46*%
G04 Gerber Fmt 4.6, Leading zero omitted, Abs format (unit mm)*
G04 Created by KiCad (PCBNEW 9.0.4) date 2025-11-05 17:22:30*
%MOMM*%
%LPD*%
G01*
G04 APERTURE LIST*
%ADD10C,0.100000*%
%ADD11C,0.150000*%
%ADD12C,0.127000*%
%ADD13C,0.120000*%
G04 APERTURE END LIST*
D10*
X216000000Y-42500000D02*
X252000000Y-42500000D01*
X252000000Y-59500000D01*
X216000000Y-59500000D01*
X216000000Y-42500000D01*
D11*
X192940714Y-36952319D02*
X192940714Y-37761842D01*
X192940714Y-37761842D02*
X192988333Y-37857080D01*
X192988333Y-37857080D02*
X193035952Y-37904700D01*
X193035952Y-37904700D02*
X193131190Y-37952319D01*
X193131190Y-37952319D02*
X193321666Y-37952319D01*
X193321666Y-37952319D02*
X193416904Y-37904700D01*
X193416904Y-37904700D02*
X193464523Y-37857080D01*
X193464523Y-37857080D02*
X193512142Y-37761842D01*
X193512142Y-37761842D02*
X193512142Y-36952319D01*
X194512142Y-37952319D02*
X193940714Y-37952319D01*
X194226428Y-37952319D02*
X194226428Y-36952319D01*
X194226428Y-36952319D02*
X194131190Y-37095176D01*
X194131190Y-37095176D02*
X194035952Y-37190414D01*
X194035952Y-37190414D02*
X193940714Y-37238033D01*
X195131190Y-36952319D02*
X195226428Y-36952319D01*
X195226428Y-36952319D02*
X195321666Y-36999938D01*
X195321666Y-36999938D02*
X195369285Y-37047557D01*
X195369285Y-37047557D02*
X195416904Y-37142795D01*
X195416904Y-37142795D02*
X195464523Y-37333271D01*
X195464523Y-37333271D02*
X195464523Y-37571366D01*
X195464523Y-37571366D02*
X195416904Y-37761842D01*
X195416904Y-37761842D02*
X195369285Y-37857080D01*
X195369285Y-37857080D02*
X195321666Y-37904700D01*
X195321666Y-37904700D02*
X195226428Y-37952319D01*
X195226428Y-37952319D02*
X195131190Y-37952319D01*
X195131190Y-37952319D02*
X195035952Y-37904700D01*
X195035952Y-37904700D02*
X194988333Y-37857080D01*
X194988333Y-37857080D02*
X194940714Y-37761842D01*
X194940714Y-37761842D02*
X194893095Y-37571366D01*
X194893095Y-37571366D02*
X194893095Y-37333271D01*
X194893095Y-37333271D02*
X194940714Y-37142795D01*
X194940714Y-37142795D02*
X194988333Y-37047557D01*
X194988333Y-37047557D02*
X195035952Y-36999938D01*
X195035952Y-36999938D02*
X195131190Y-36952319D01*
X195845476Y-37047557D02*
X195893095Y-36999938D01*
X195893095Y-36999938D02*
X195988333Y-36952319D01*
X195988333Y-36952319D02*
X196226428Y-36952319D01*
X196226428Y-36952319D02*
X196321666Y-36999938D01*
X196321666Y-36999938D02*
X196369285Y-37047557D01*
X196369285Y-37047557D02*
X196416904Y-37142795D01*
X196416904Y-37142795D02*
X196416904Y-37238033D01*
X196416904Y-37238033D02*
X196369285Y-37380890D01*
X196369285Y-37380890D02*
X195797857Y-37952319D01*
X195797857Y-37952319D02*
X196416904Y-37952319D01*
X220954819Y-52254285D02*
X220954819Y-51682857D01*
X221954819Y-51968571D02*
X220954819Y-51968571D01*
X221954819Y-51349523D02*
X220954819Y-51349523D01*
X220954819Y-51349523D02*
X220954819Y-50968571D01*
X220954819Y-50968571D02*
X221002438Y-50873333D01*
X221002438Y-50873333D02*
X221050057Y-50825714D01*
X221050057Y-50825714D02*
X221145295Y-50778095D01*
X221145295Y-50778095D02*
X221288152Y-50778095D01*
X221288152Y-50778095D02*
X221383390Y-50825714D01*
X221383390Y-50825714D02*
X221431009Y-50873333D01*
X221431009Y-50873333D02*
X221478628Y-50968571D01*
X221478628Y-50968571D02*
X221478628Y-51349523D01*
X221954819Y-49825714D02*
X221954819Y-50397142D01*
X221954819Y-50111428D02*
X220954819Y-50111428D01*
X220954819Y-50111428D02*
X221097676Y-50206666D01*
X221097676Y-50206666D02*
X221192914Y-50301904D01*
X221192914Y-50301904D02*
X221240533Y-50397142D01*
X220954819Y-49206666D02*
X220954819Y-49111428D01*
X220954819Y-49111428D02*
X221002438Y-49016190D01*
X221002438Y-49016190D02*
X221050057Y-48968571D01*
X221050057Y-48968571D02*
X221145295Y-48920952D01*
X221145295Y-48920952D02*
X221335771Y-48873333D01*
X221335771Y-48873333D02*
X221573866Y-48873333D01*
X221573866Y-48873333D02*
X221764342Y-48920952D01*
X221764342Y-48920952D02*
X221859580Y-48968571D01*
X221859580Y-48968571D02*
X221907200Y-49016190D01*
X221907200Y-49016190D02*
X221954819Y-49111428D01*
X221954819Y-49111428D02*
X221954819Y-49206666D01*
X221954819Y-49206666D02*
X221907200Y-49301904D01*
X221907200Y-49301904D02*
X221859580Y-49349523D01*
X221859580Y-49349523D02*
X221764342Y-49397142D01*
X221764342Y-49397142D02*
X221573866Y-49444761D01*
X221573866Y-49444761D02*
X221335771Y-49444761D01*
X221335771Y-49444761D02*
X221145295Y-49397142D01*
X221145295Y-49397142D02*
X221050057Y-49349523D01*
X221050057Y-49349523D02*
X221002438Y-49301904D01*
X221002438Y-49301904D02*
X220954819Y-49206666D01*
X220954819Y-47968571D02*
X220954819Y-48444761D01*
X220954819Y-48444761D02*
X221431009Y-48492380D01*
X221431009Y-48492380D02*
X221383390Y-48444761D01*
X221383390Y-48444761D02*
X221335771Y-48349523D01*
X221335771Y-48349523D02*
X221335771Y-48111428D01*
X221335771Y-48111428D02*
X221383390Y-48016190D01*
X221383390Y-48016190D02*
X221431009Y-47968571D01*
X221431009Y-47968571D02*
X221526247Y-47920952D01*
X221526247Y-47920952D02*
X221764342Y-47920952D01*
X221764342Y-47920952D02*
X221859580Y-47968571D01*
X221859580Y-47968571D02*
X221907200Y-48016190D01*
X221907200Y-48016190D02*
X221954819Y-48111428D01*
X221954819Y-48111428D02*
X221954819Y-48349523D01*
X221954819Y-48349523D02*
X221907200Y-48444761D01*
X221907200Y-48444761D02*
X221859580Y-48492380D01*
X250954819Y-52254285D02*
X250954819Y-51682857D01*
X251954819Y-51968571D02*
X250954819Y-51968571D01*
X251954819Y-51349523D02*
X250954819Y-51349523D01*
X250954819Y-51349523D02*
X250954819Y-50968571D01*
X250954819Y-50968571D02*
X251002438Y-50873333D01*
X251002438Y-50873333D02*
X251050057Y-50825714D01*
X251050057Y-50825714D02*
X251145295Y-50778095D01*
X251145295Y-50778095D02*
X251288152Y-50778095D01*
X251288152Y-50778095D02*
X251383390Y-50825714D01*
X251383390Y-50825714D02*
X251431009Y-50873333D01*
X251431009Y-50873333D02*
X251478628Y-50968571D01*
X251478628Y-50968571D02*
X251478628Y-51349523D01*
X251954819Y-49825714D02*
X251954819Y-50397142D01*
X251954819Y-50111428D02*
X250954819Y-50111428D01*
X250954819Y-50111428D02*
X251097676Y-50206666D01*
X251097676Y-50206666D02*
X251192914Y-50301904D01*
X251192914Y-50301904D02*
X251240533Y-50397142D01*
X250954819Y-49206666D02*
X250954819Y-49111428D01*
X250954819Y-49111428D02*
X251002438Y-49016190D01*
X251002438Y-49016190D02*
X251050057Y-48968571D01*
X251050057Y-48968571D02*
X251145295Y-48920952D01*
X251145295Y-48920952D02*
X251335771Y-48873333D01*
X251335771Y-48873333D02*
X251573866Y-48873333D01*
X251573866Y-48873333D02*
X251764342Y-48920952D01*
X251764342Y-48920952D02*
X251859580Y-48968571D01*
X251859580Y-48968571D02*
X251907200Y-49016190D01*
X251907200Y-49016190D02*
X251954819Y-49111428D01*
X251954819Y-49111428D02*
X251954819Y-49206666D01*
X251954819Y-49206666D02*
X251907200Y-49301904D01*
X251907200Y-49301904D02*
X251859580Y-49349523D01*
X251859580Y-49349523D02*
X251764342Y-49397142D01*
X251764342Y-49397142D02*
X251573866Y-49444761D01*
X251573866Y-49444761D02*
X251335771Y-49444761D01*
X251335771Y-49444761D02*
X251145295Y-49397142D01*
X251145295Y-49397142D02*
X251050057Y-49349523D01*
X251050057Y-49349523D02*
X251002438Y-49301904D01*
X251002438Y-49301904D02*
X250954819Y-49206666D01*
X251288152Y-48016190D02*
X251954819Y-48016190D01*
X250907200Y-48254285D02*
X251621485Y-48492380D01*
X251621485Y-48492380D02*
X251621485Y-47873333D01*
X182439285Y-48249819D02*
X182439285Y-48964104D01*
X182439285Y-48964104D02*
X182391666Y-49106961D01*
X182391666Y-49106961D02*
X182296428Y-49202200D01*
X182296428Y-49202200D02*
X182153571Y-49249819D01*
X182153571Y-49249819D02*
X182058333Y-49249819D01*
X183439285Y-49249819D02*
X182867857Y-49249819D01*
X183153571Y-49249819D02*
X183153571Y-48249819D01*
X183153571Y-48249819D02*
X183058333Y-48392676D01*
X183058333Y-48392676D02*
X182963095Y-48487914D01*
X182963095Y-48487914D02*
X182867857Y-48535533D01*
X184391666Y-49249819D02*
X183820238Y-49249819D01*
X184105952Y-49249819D02*
X184105952Y-48249819D01*
X184105952Y-48249819D02*
X184010714Y-48392676D01*
X184010714Y-48392676D02*
X183915476Y-48487914D01*
X183915476Y-48487914D02*
X183820238Y-48535533D01*
X185010714Y-48249819D02*
X185105952Y-48249819D01*
X185105952Y-48249819D02*
X185201190Y-48297438D01*
X185201190Y-48297438D02*
X185248809Y-48345057D01*
X185248809Y-48345057D02*
X185296428Y-48440295D01*
X185296428Y-48440295D02*
X185344047Y-48630771D01*
X185344047Y-48630771D02*
X185344047Y-48868866D01*
X185344047Y-48868866D02*
X185296428Y-49059342D01*
X185296428Y-49059342D02*
X185248809Y-49154580D01*
X185248809Y-49154580D02*
X185201190Y-49202200D01*
X185201190Y-49202200D02*
X185105952Y-49249819D01*
X185105952Y-49249819D02*
X185010714Y-49249819D01*
X185010714Y-49249819D02*
X184915476Y-49202200D01*
X184915476Y-49202200D02*
X184867857Y-49154580D01*
X184867857Y-49154580D02*
X184820238Y-49059342D01*
X184820238Y-49059342D02*
X184772619Y-48868866D01*
X184772619Y-48868866D02*
X184772619Y-48630771D01*
X184772619Y-48630771D02*
X184820238Y-48440295D01*
X184820238Y-48440295D02*
X184867857Y-48345057D01*
X184867857Y-48345057D02*
X184915476Y-48297438D01*
X184915476Y-48297438D02*
X185010714Y-48249819D01*
X254454819Y-54674285D02*
X254454819Y-54102857D01*
X255454819Y-54388571D02*
X254454819Y-54388571D01*
X255454819Y-53769523D02*
X254454819Y-53769523D01*
X254454819Y-53769523D02*
X254454819Y-53388571D01*
X254454819Y-53388571D02*
X254502438Y-53293333D01*
X254502438Y-53293333D02*
X254550057Y-53245714D01*
X254550057Y-53245714D02*
X254645295Y-53198095D01*
X254645295Y-53198095D02*
X254788152Y-53198095D01*
X254788152Y-53198095D02*
X254883390Y-53245714D01*
X254883390Y-53245714D02*
X254931009Y-53293333D01*
X254931009Y-53293333D02*
X254978628Y-53388571D01*
X254978628Y-53388571D02*
X254978628Y-53769523D01*
X255454819Y-52245714D02*
X255454819Y-52817142D01*
X255454819Y-52531428D02*
X254454819Y-52531428D01*
X254454819Y-52531428D02*
X254597676Y-52626666D01*
X254597676Y-52626666D02*
X254692914Y-52721904D01*
X254692914Y-52721904D02*
X254740533Y-52817142D01*
X254454819Y-51626666D02*
X254454819Y-51531428D01*
X254454819Y-51531428D02*
X254502438Y-51436190D01*
X254502438Y-51436190D02*
X254550057Y-51388571D01*
X254550057Y-51388571D02*
X254645295Y-51340952D01*
X254645295Y-51340952D02*
X254835771Y-51293333D01*
X254835771Y-51293333D02*
X255073866Y-51293333D01*
X255073866Y-51293333D02*
X255264342Y-51340952D01*
X255264342Y-51340952D02*
X255359580Y-51388571D01*
X255359580Y-51388571D02*
X255407200Y-51436190D01*
X255407200Y-51436190D02*
X255454819Y-51531428D01*
X255454819Y-51531428D02*
X255454819Y-51626666D01*
X255454819Y-51626666D02*
X255407200Y-51721904D01*
X255407200Y-51721904D02*
X255359580Y-51769523D01*
X255359580Y-51769523D02*
X255264342Y-51817142D01*
X255264342Y-51817142D02*
X255073866Y-51864761D01*
X255073866Y-51864761D02*
X254835771Y-51864761D01*
X254835771Y-51864761D02*
X254645295Y-51817142D01*
X254645295Y-51817142D02*
X254550057Y-51769523D01*
X254550057Y-51769523D02*
X254502438Y-51721904D01*
X254502438Y-51721904D02*
X254454819Y-51626666D01*
X254550057Y-50912380D02*
X254502438Y-50864761D01*
X254502438Y-50864761D02*
X254454819Y-50769523D01*
X254454819Y-50769523D02*
X254454819Y-50531428D01*
X254454819Y-50531428D02*
X254502438Y-50436190D01*
X254502438Y-50436190D02*
X254550057Y-50388571D01*
X254550057Y-50388571D02*
X254645295Y-50340952D01*
X254645295Y-50340952D02*
X254740533Y-50340952D01*
X254740533Y-50340952D02*
X254883390Y-50388571D01*
X254883390Y-50388571D02*
X255454819Y-50959999D01*
X255454819Y-50959999D02*
X255454819Y-50340952D01*
X186594285Y-62804819D02*
X186594285Y-63519104D01*
X186594285Y-63519104D02*
X186546666Y-63661961D01*
X186546666Y-63661961D02*
X186451428Y-63757200D01*
X186451428Y-63757200D02*
X186308571Y-63804819D01*
X186308571Y-63804819D02*
X186213333Y-63804819D01*
X187594285Y-63804819D02*
X187022857Y-63804819D01*
X187308571Y-63804819D02*
X187308571Y-62804819D01*
X187308571Y-62804819D02*
X187213333Y-62947676D01*
X187213333Y-62947676D02*
X187118095Y-63042914D01*
X187118095Y-63042914D02*
X187022857Y-63090533D01*
X188213333Y-62804819D02*
X188308571Y-62804819D01*
X188308571Y-62804819D02*
X188403809Y-62852438D01*
X188403809Y-62852438D02*
X188451428Y-62900057D01*
X188451428Y-62900057D02*
X188499047Y-62995295D01*
X188499047Y-62995295D02*
X188546666Y-63185771D01*
X188546666Y-63185771D02*
X188546666Y-63423866D01*
X188546666Y-63423866D02*
X188499047Y-63614342D01*
X188499047Y-63614342D02*
X188451428Y-63709580D01*
X188451428Y-63709580D02*
X188403809Y-63757200D01*
X188403809Y-63757200D02*
X188308571Y-63804819D01*
X188308571Y-63804819D02*
X188213333Y-63804819D01*
X188213333Y-63804819D02*
X188118095Y-63757200D01*
X188118095Y-63757200D02*
X188070476Y-63709580D01*
X188070476Y-63709580D02*
X188022857Y-63614342D01*
X188022857Y-63614342D02*
X187975238Y-63423866D01*
X187975238Y-63423866D02*
X187975238Y-63185771D01*
X187975238Y-63185771D02*
X188022857Y-62995295D01*
X188022857Y-62995295D02*
X188070476Y-62900057D01*
X188070476Y-62900057D02*
X188118095Y-62852438D01*
X188118095Y-62852438D02*
X188213333Y-62804819D01*
X189022857Y-63804819D02*
X189213333Y-63804819D01*
X189213333Y-63804819D02*
X189308571Y-63757200D01*
X189308571Y-63757200D02*
X189356190Y-63709580D01*
X189356190Y-63709580D02*
X189451428Y-63566723D01*
X189451428Y-63566723D02*
X189499047Y-63376247D01*
X189499047Y-63376247D02*
X189499047Y-62995295D01*
X189499047Y-62995295D02*
X189451428Y-62900057D01*
X189451428Y-62900057D02*
X189403809Y-62852438D01*
X189403809Y-62852438D02*
X189308571Y-62804819D01*
X189308571Y-62804819D02*
X189118095Y-62804819D01*
X189118095Y-62804819D02*
X189022857Y-62852438D01*
X189022857Y-62852438D02*
X188975238Y-62900057D01*
X188975238Y-62900057D02*
X188927619Y-62995295D01*
X188927619Y-62995295D02*
X188927619Y-63233390D01*
X188927619Y-63233390D02*
X188975238Y-63328628D01*
X188975238Y-63328628D02*
X189022857Y-63376247D01*
X189022857Y-63376247D02*
X189118095Y-63423866D01*
X189118095Y-63423866D02*
X189308571Y-63423866D01*
X189308571Y-63423866D02*
X189403809Y-63376247D01*
X189403809Y-63376247D02*
X189451428Y-63328628D01*
X189451428Y-63328628D02*
X189499047Y-63233390D01*
D12*
%TO.C,U102*%
X191370000Y-62500000D02*
X191370000Y-39800000D01*
X209370000Y-62500000D02*
X191370000Y-62500000D01*
X209370000Y-62500000D02*
X209370000Y-39800000D01*
X195870000Y-39800000D02*
X191370000Y-39800000D01*
X209370000Y-39800000D02*
X204870000Y-39800000D01*
X195870000Y-38500000D02*
X195870000Y-39800000D01*
X204870000Y-38500000D02*
X204870000Y-39800000D01*
X204870000Y-38500000D02*
X195870000Y-38500000D01*
D13*
%TO.C,TP105*%
X217500000Y-56500000D02*
X220500000Y-56500000D01*
X217500000Y-56500000D02*
X217500000Y-46000000D01*
X220500000Y-46000000D02*
X220500000Y-56500000D01*
X220500000Y-46000000D02*
X217500000Y-46000000D01*
%TO.C,TP104*%
X247500000Y-56500000D02*
X250500000Y-56500000D01*
X247500000Y-56500000D02*
X247500000Y-46000000D01*
X250500000Y-46000000D02*
X250500000Y-56500000D01*
X250500000Y-46000000D02*
X247500000Y-46000000D01*
%TO.C,J110*%
X182395000Y-47355000D02*
X182395000Y-46025000D01*
X183725000Y-47355000D02*
X182395000Y-47355000D01*
X182395000Y-44755000D02*
X182395000Y-39615000D01*
X185055000Y-44755000D02*
X182395000Y-44755000D01*
X185055000Y-44755000D02*
X185055000Y-39615000D01*
X185055000Y-39615000D02*
X182395000Y-39615000D01*
%TO.C,TP102*%
X256000000Y-56500000D02*
X259000000Y-56500000D01*
X256000000Y-56500000D02*
X256000000Y-46000000D01*
X259000000Y-46000000D02*
X259000000Y-56500000D01*
X259000000Y-46000000D02*
X256000000Y-46000000D01*
D10*
X253500000Y-60000000D02*
X282500000Y-60000000D01*
X282500000Y-43000000D01*
X253500000Y-43000000D01*
X253500000Y-60000000D01*
D13*
%TO.C,J109*%
X193590000Y-51630000D02*
X184960000Y-51630000D01*
X184960000Y-52600000D02*
X184550000Y-52600000D01*
X184960000Y-53320000D02*
X184550000Y-53320000D01*
X193590000Y-54230000D02*
X184960000Y-54230000D01*
X184960000Y-55140000D02*
X184550000Y-55140000D01*
X184960000Y-55860000D02*
X184550000Y-55860000D01*
X193590000Y-56770000D02*
X184960000Y-56770000D01*
X184960000Y-57680000D02*
X184550000Y-57680000D01*
X184960000Y-58400000D02*
X184550000Y-58400000D01*
X193590000Y-59310000D02*
X184960000Y-59310000D01*
X193590000Y-59428100D02*
X184960000Y-59428100D01*
X193590000Y-59546195D02*
X184960000Y-59546195D01*
X193590000Y-59664290D02*
X184960000Y-59664290D01*
X193590000Y-59782385D02*
X184960000Y-59782385D01*
X193590000Y-59900480D02*
X184960000Y-59900480D01*
X193590000Y-60018575D02*
X184960000Y-60018575D01*
X193590000Y-60136670D02*
X184960000Y-60136670D01*
X184960000Y-60220000D02*
X184610000Y-60220000D01*
X193590000Y-60254765D02*
X184960000Y-60254765D01*
X193590000Y-60372860D02*
X184960000Y-60372860D01*
X193590000Y-60490955D02*
X184960000Y-60490955D01*
X193590000Y-60609050D02*
X184960000Y-60609050D01*
X193590000Y-60727145D02*
X184960000Y-60727145D01*
X193590000Y-60845240D02*
X184960000Y-60845240D01*
X184960000Y-60940000D02*
X184610000Y-60940000D01*
X193590000Y-60963335D02*
X184960000Y-60963335D01*
X193590000Y-61081430D02*
X184960000Y-61081430D01*
X193590000Y-61199525D02*
X184960000Y-61199525D01*
X193590000Y-61317620D02*
X184960000Y-61317620D01*
X193590000Y-61435715D02*
X184960000Y-61435715D01*
X193590000Y-61553810D02*
X184960000Y-61553810D01*
X193590000Y-61671905D02*
X184960000Y-61671905D01*
X193590000Y-61790000D02*
X184960000Y-61790000D01*
X193590000Y-61910000D02*
X193590000Y-51630000D01*
X193590000Y-61910000D02*
X184960000Y-61910000D01*
X184960000Y-61910000D02*
X184960000Y-51630000D01*
X183500000Y-61910000D02*
X182390000Y-61910000D01*
X182390000Y-61910000D02*
X182390000Y-60580000D01*
%TD*%
M02*
