%TF.GenerationSoftware,KiCad,Pcbnew,9.0.4*%
%TF.CreationDate,2025-11-10T11:10:46+05:30*%
%TF.ProjectId,BikeSSv3,42696b65-5353-4763-932e-6b696361645f,rev?*%
%TF.SameCoordinates,Original*%
%TF.FileFunction,Copper,L1,Top*%
%TF.FilePolarity,Positive*%
%FSLAX46Y46*%
G04 Gerber Fmt 4.6, Leading zero omitted, Abs format (unit mm)*
G04 Created by KiCad (PCBNEW 9.0.4) date 2025-11-10 11:10:46*
%MOMM*%
%LPD*%
G01*
G04 APERTURE LIST*
G04 Aperture macros list*
%AMRoundRect*
0 Rectangle with rounded corners*
0 $1 Rounding radius*
0 $2 $3 $4 $5 $6 $7 $8 $9 X,Y pos of 4 corners*
0 Add a 4 corners polygon primitive as box body*
4,1,4,$2,$3,$4,$5,$6,$7,$8,$9,$2,$3,0*
0 Add four circle primitives for the rounded corners*
1,1,$1+$1,$2,$3*
1,1,$1+$1,$4,$5*
1,1,$1+$1,$6,$7*
1,1,$1+$1,$8,$9*
0 Add four rect primitives between the rounded corners*
20,1,$1+$1,$2,$3,$4,$5,0*
20,1,$1+$1,$4,$5,$6,$7,0*
20,1,$1+$1,$6,$7,$8,$9,0*
20,1,$1+$1,$8,$9,$2,$3,0*%
G04 Aperture macros list end*
%TA.AperFunction,ComponentPad*%
%ADD10R,1.700000X1.700000*%
%TD*%
%TA.AperFunction,ComponentPad*%
%ADD11C,1.700000*%
%TD*%
%TA.AperFunction,ComponentPad*%
%ADD12C,1.400000*%
%TD*%
%TA.AperFunction,ComponentPad*%
%ADD13RoundRect,0.650000X0.650000X-0.650000X0.650000X0.650000X-0.650000X0.650000X-0.650000X-0.650000X0*%
%TD*%
%TA.AperFunction,ComponentPad*%
%ADD14C,2.600000*%
%TD*%
%TA.AperFunction,ComponentPad*%
%ADD15R,1.800000X1.800000*%
%TD*%
%TA.AperFunction,ComponentPad*%
%ADD16C,1.800000*%
%TD*%
%TA.AperFunction,ComponentPad*%
%ADD17RoundRect,0.250000X-0.500000X0.500000X-0.500000X-0.500000X0.500000X-0.500000X0.500000X0.500000X0*%
%TD*%
%TA.AperFunction,ComponentPad*%
%ADD18C,1.500000*%
%TD*%
%TA.AperFunction,ComponentPad*%
%ADD19O,3.200000X1.900000*%
%TD*%
%TA.AperFunction,ComponentPad*%
%ADD20RoundRect,0.650000X-0.650000X0.650000X-0.650000X-0.650000X0.650000X-0.650000X0.650000X0.650000X0*%
%TD*%
%TA.AperFunction,ComponentPad*%
%ADD21C,1.348000*%
%TD*%
%TA.AperFunction,ComponentPad*%
%ADD22R,2.000000X2.000000*%
%TD*%
%TA.AperFunction,ComponentPad*%
%ADD23C,2.000000*%
%TD*%
%TA.AperFunction,ComponentPad*%
%ADD24RoundRect,0.250000X-1.350000X-1.350000X1.350000X-1.350000X1.350000X1.350000X-1.350000X1.350000X0*%
%TD*%
%TA.AperFunction,ComponentPad*%
%ADD25C,3.200000*%
%TD*%
%TA.AperFunction,ComponentPad*%
%ADD26R,2.800000X2.800000*%
%TD*%
%TA.AperFunction,ComponentPad*%
%ADD27C,2.800000*%
%TD*%
%TA.AperFunction,ComponentPad*%
%ADD28C,1.308000*%
%TD*%
%TA.AperFunction,ComponentPad*%
%ADD29RoundRect,0.250000X-0.550000X0.550000X-0.550000X-0.550000X0.550000X-0.550000X0.550000X0.550000X0*%
%TD*%
%TA.AperFunction,ComponentPad*%
%ADD30C,1.600000*%
%TD*%
%TA.AperFunction,ComponentPad*%
%ADD31RoundRect,0.220589X0.529411X-0.529411X0.529411X0.529411X-0.529411X0.529411X-0.529411X-0.529411X0*%
%TD*%
%TA.AperFunction,ComponentPad*%
%ADD32O,1.500000X1.500000*%
%TD*%
%TA.AperFunction,ComponentPad*%
%ADD33RoundRect,0.250001X0.949999X0.949999X-0.949999X0.949999X-0.949999X-0.949999X0.949999X-0.949999X0*%
%TD*%
%TA.AperFunction,ComponentPad*%
%ADD34C,2.400000*%
%TD*%
%TA.AperFunction,ComponentPad*%
%ADD35RoundRect,0.250000X0.750000X-0.600000X0.750000X0.600000X-0.750000X0.600000X-0.750000X-0.600000X0*%
%TD*%
%TA.AperFunction,ComponentPad*%
%ADD36O,2.000000X1.700000*%
%TD*%
%TA.AperFunction,ViaPad*%
%ADD37C,1.200000*%
%TD*%
%TA.AperFunction,Conductor*%
%ADD38C,1.000000*%
%TD*%
%TA.AperFunction,Conductor*%
%ADD39C,0.250000*%
%TD*%
%TA.AperFunction,Conductor*%
%ADD40C,0.800000*%
%TD*%
G04 APERTURE END LIST*
D10*
%TO.P,J107,1,Pin_1*%
%TO.N,VCC*%
X229980000Y-79525000D03*
D11*
%TO.P,J107,2,Pin_2*%
%TO.N,GND*%
X232520000Y-79525000D03*
%TO.P,J107,3,Pin_3*%
%TO.N,D16*%
X235060000Y-79525000D03*
%TO.P,J107,4,Pin_4*%
%TO.N,D17*%
X237600000Y-79525000D03*
%TD*%
D10*
%TO.P,J108,1,Pin_1*%
%TO.N,GND*%
X195100000Y-140025000D03*
%TD*%
D12*
%TO.P,R102,1*%
%TO.N,Net-(D103-K)*%
X210880000Y-150610000D03*
%TO.P,R102,2*%
%TO.N,GND*%
X210880000Y-142990000D03*
%TD*%
D10*
%TO.P,J104,1,Pin_1*%
%TO.N,VCC*%
X217200000Y-117180000D03*
D11*
%TO.P,J104,2,Pin_2*%
%TO.N,GND*%
X217200000Y-119720000D03*
%TO.P,J104,3,Pin_3*%
%TO.N,D22*%
X217200000Y-122260000D03*
%TO.P,J104,4,Pin_4*%
%TO.N,D21*%
X217200000Y-124800000D03*
%TO.P,J104,5,Pin_5*%
%TO.N,unconnected-(J104-Pin_5-Pad5)*%
X217200000Y-127340000D03*
%TO.P,J104,6,Pin_6*%
%TO.N,unconnected-(J104-Pin_6-Pad6)*%
X217200000Y-129880000D03*
%TO.P,J104,7,Pin_7*%
%TO.N,GND*%
X217200000Y-132420000D03*
%TO.P,J104,8,Pin_8*%
%TO.N,unconnected-(J104-Pin_8-Pad8)*%
X217200000Y-134960000D03*
%TD*%
D13*
%TO.P,TP102,1,1*%
%TO.N,/VCCs*%
X257500000Y-55000000D03*
D14*
%TO.P,TP102,2,2*%
%TO.N,/GNDs*%
X257500000Y-48000000D03*
%TD*%
D10*
%TO.P,J110,1,Pin_1*%
%TO.N,/GNDs*%
X183725000Y-46025000D03*
D11*
%TO.P,J110,2,Pin_2*%
%TO.N,/3.3V*%
X183725000Y-43485000D03*
%TO.P,J110,3,Pin_3*%
%TO.N,/4*%
X183725000Y-40945000D03*
%TD*%
D15*
%TO.P,D107,1,K*%
%TO.N,GND*%
X219880000Y-155000000D03*
D16*
%TO.P,D107,2,A*%
%TO.N,Net-(D107-A)*%
X222420000Y-155000000D03*
%TD*%
D15*
%TO.P,D106,1,K*%
%TO.N,Net-(D105-A)*%
X228880000Y-155000000D03*
D16*
%TO.P,D106,2,A*%
%TO.N,Net-(D106-A)*%
X226340000Y-155000000D03*
%TD*%
D12*
%TO.P,R103,1*%
%TO.N,Net-(D104-K)*%
X195880000Y-150810000D03*
%TO.P,R103,2*%
%TO.N,GND*%
X195880000Y-143190000D03*
%TD*%
D13*
%TO.P,TP101,1,1*%
%TO.N,VCC*%
X219880000Y-106065000D03*
D14*
%TO.P,TP101,2,2*%
%TO.N,GND*%
X219880000Y-100985000D03*
%TD*%
D12*
%TO.P,R105,1*%
%TO.N,VCC*%
X228880000Y-143190000D03*
%TO.P,R105,2*%
%TO.N,Net-(D106-A)*%
X228880000Y-150810000D03*
%TD*%
D15*
%TO.P,D103,1,K*%
%TO.N,Net-(D103-K)*%
X210930000Y-154525000D03*
D16*
%TO.P,D103,2,A*%
%TO.N,/D33*%
X213470000Y-154525000D03*
%TD*%
D17*
%TO.P,Q101,1,C*%
%TO.N,Net-(D105-A)*%
X260700000Y-141020000D03*
D18*
%TO.P,Q101,2,B*%
%TO.N,Net-(Q101-B)*%
X263240000Y-143560000D03*
%TO.P,Q101,3,E*%
%TO.N,GND*%
X260700000Y-146100000D03*
%TD*%
D19*
%TO.P,SW102,1,1*%
%TO.N,Net-(R104-Pad2)*%
X255750000Y-78025000D03*
X268250000Y-78025000D03*
%TO.P,SW102,2,2*%
%TO.N,/D12*%
X255750000Y-83025000D03*
X268250000Y-83025000D03*
%TD*%
D10*
%TO.P,J105,1,Pin_1*%
%TO.N,GND*%
X264000000Y-111200000D03*
D11*
%TO.P,J105,2,Pin_2*%
%TO.N,D26*%
X264000000Y-113740000D03*
%TO.P,J105,3,Pin_3*%
%TO.N,D25*%
X264000000Y-116280000D03*
%TO.P,J105,4,Pin_4*%
%TO.N,VCC*%
X264000000Y-118820000D03*
%TD*%
D20*
%TO.P,TP104,1,1*%
%TO.N,/VCCs*%
X249000000Y-47500000D03*
D14*
%TO.P,TP104,2,2*%
%TO.N,/GNDs*%
X249000000Y-54500000D03*
%TD*%
D10*
%TO.P,J106,1,Pin_1*%
%TO.N,/12V-*%
X195100000Y-100025000D03*
%TD*%
D12*
%TO.P,R107,1*%
%TO.N,D14*%
X261600000Y-127715000D03*
%TO.P,R107,2*%
%TO.N,Net-(Q101-B)*%
X261600000Y-135335000D03*
%TD*%
%TO.P,R101,1*%
%TO.N,Net-(D102-K)*%
X202880000Y-150810000D03*
%TO.P,R101,2*%
%TO.N,GND*%
X202880000Y-143190000D03*
%TD*%
D10*
%TO.P,J102,1,Pin_1*%
%TO.N,/12V+ DO*%
X213100000Y-100025000D03*
%TD*%
D12*
%TO.P,R106,1*%
%TO.N,VCC*%
X223880000Y-143190000D03*
%TO.P,R106,2*%
%TO.N,Net-(D107-A)*%
X223880000Y-150810000D03*
%TD*%
D21*
%TO.P,U102,0,GPIO0*%
%TO.N,unconnected-(U102-GPIO0-Pad0)*%
X207990000Y-59030000D03*
%TO.P,U102,1,GPIO1*%
%TO.N,unconnected-(U102-GPIO1-Pad1)*%
X207990000Y-56490000D03*
%TO.P,U102,2,GPIO2*%
%TO.N,unconnected-(U102-GPIO2-Pad2)*%
X207990000Y-53950000D03*
%TO.P,U102,3,GPIO3*%
%TO.N,unconnected-(U102-GPIO3-Pad3)*%
X207990000Y-51410000D03*
%TO.P,U102,3.3,3V3*%
%TO.N,/3.3V*%
X207990000Y-46330000D03*
%TO.P,U102,4,GPIO4*%
%TO.N,/4*%
X207990000Y-48870000D03*
%TO.P,U102,5,GPIO5*%
%TO.N,/5*%
X192750000Y-41250000D03*
%TO.P,U102,5V,5V*%
%TO.N,/VCCb*%
X207990000Y-41250000D03*
%TO.P,U102,6,GPIO6*%
%TO.N,unconnected-(U102-GPIO6-Pad6)*%
X192750000Y-43790000D03*
%TO.P,U102,7,GPIO7*%
%TO.N,unconnected-(U102-GPIO7-Pad7)*%
X192750000Y-46330000D03*
%TO.P,U102,8,GPIO8*%
%TO.N,unconnected-(U102-GPIO8-Pad8)*%
X192750000Y-48870000D03*
%TO.P,U102,9,GPIO9*%
%TO.N,unconnected-(U102-GPIO9-Pad9)*%
X192750000Y-51410000D03*
%TO.P,U102,10,GPIO10*%
%TO.N,unconnected-(U102-GPIO10-Pad10)*%
X192750000Y-53950000D03*
%TO.P,U102,20,GPIO20*%
%TO.N,unconnected-(U102-GPIO20-Pad20)*%
X192750000Y-56490000D03*
%TO.P,U102,21,GPIO21*%
%TO.N,unconnected-(U102-GPIO21-Pad21)*%
X192750000Y-59030000D03*
%TO.P,U102,G,GND*%
%TO.N,/GNDs*%
X207990000Y-43790000D03*
%TD*%
D15*
%TO.P,D102,1,K*%
%TO.N,Net-(D102-K)*%
X203530000Y-154725000D03*
D16*
%TO.P,D102,2,A*%
%TO.N,/D27*%
X206070000Y-154725000D03*
%TD*%
D22*
%TO.P,U101,1,3V3*%
%TO.N,unconnected-(U101-3V3-Pad1)*%
X233180000Y-98485000D03*
D23*
%TO.P,U101,2,GND*%
%TO.N,GND*%
X233180000Y-101025000D03*
%TO.P,U101,3,D15*%
%TO.N,unconnected-(U101-D15-Pad3)*%
X233180000Y-103565000D03*
%TO.P,U101,4,D2*%
%TO.N,unconnected-(U101-D2-Pad4)*%
X233180000Y-106105000D03*
%TO.P,U101,5,D4*%
%TO.N,unconnected-(U101-D4-Pad5)*%
X233180000Y-108645000D03*
%TO.P,U101,6,RX2*%
%TO.N,D16*%
X233180000Y-111185000D03*
%TO.P,U101,7,TX2*%
%TO.N,D17*%
X233180000Y-113725000D03*
%TO.P,U101,8,D5*%
%TO.N,unconnected-(U101-D5-Pad8)*%
X233180000Y-116265000D03*
%TO.P,U101,9,D18*%
%TO.N,unconnected-(U101-D18-Pad9)*%
X233180000Y-118805000D03*
%TO.P,U101,10,D19*%
%TO.N,unconnected-(U101-D19-Pad10)*%
X233180000Y-121345000D03*
%TO.P,U101,11,D21*%
%TO.N,unconnected-(U101-D21-Pad11)*%
X233180000Y-123885000D03*
%TO.P,U101,12,RX0*%
%TO.N,unconnected-(U101-RX0-Pad12)*%
X233180000Y-126425000D03*
%TO.P,U101,13,TX0*%
%TO.N,unconnected-(U101-TX0-Pad13)*%
X233180000Y-128965000D03*
%TO.P,U101,14,D22*%
%TO.N,D22*%
X233180000Y-131505000D03*
%TO.P,U101,15,D23*%
%TO.N,D21*%
X233180000Y-134045000D03*
%TO.P,U101,16,EN*%
%TO.N,unconnected-(U101-EN-Pad16)*%
X258580000Y-134045000D03*
%TO.P,U101,17,VP*%
%TO.N,unconnected-(U101-VP-Pad17)*%
X258580000Y-131505000D03*
%TO.P,U101,18,VN*%
%TO.N,unconnected-(U101-VN-Pad18)*%
X258580000Y-128965000D03*
%TO.P,U101,19,D34*%
%TO.N,unconnected-(U101-D34-Pad19)*%
X258580000Y-126425000D03*
%TO.P,U101,20,D35*%
%TO.N,unconnected-(U101-D35-Pad20)*%
X258580000Y-123885000D03*
%TO.P,U101,21,D32*%
%TO.N,unconnected-(U101-D32-Pad21)*%
X258580000Y-121345000D03*
%TO.P,U101,22,D33*%
%TO.N,/D33*%
X258580000Y-118805000D03*
%TO.P,U101,23,D25*%
%TO.N,D25*%
X258580000Y-116265000D03*
%TO.P,U101,24,D26*%
%TO.N,D26*%
X258580000Y-113725000D03*
%TO.P,U101,25,D27*%
%TO.N,/D27*%
X258580000Y-111185000D03*
%TO.P,U101,26,D14*%
%TO.N,D14*%
X258580000Y-108645000D03*
%TO.P,U101,27,D12*%
%TO.N,/D12*%
X258580000Y-106105000D03*
%TO.P,U101,28,D13*%
%TO.N,/D13*%
X258580000Y-103565000D03*
%TO.P,U101,29,GND*%
%TO.N,GND*%
X258580000Y-101025000D03*
%TO.P,U101,30,VIN*%
%TO.N,VCC*%
X258580000Y-98485000D03*
%TD*%
D10*
%TO.P,J109,1,Pin_1*%
%TO.N,/VCCb*%
X183500000Y-60580000D03*
D11*
%TO.P,J109,2,Pin_2*%
%TO.N,/GNDs*%
X183500000Y-58040000D03*
%TO.P,J109,3,Pin_3*%
%TO.N,unconnected-(J109-Pin_3-Pad3)*%
X183500000Y-55500000D03*
%TO.P,J109,4,Pin_4*%
%TO.N,/5*%
X183500000Y-52960000D03*
%TD*%
D24*
%TO.P,D101,1,K*%
%TO.N,/12V+DI*%
X196260000Y-78000000D03*
D25*
%TO.P,D101,2,A*%
%TO.N,/12V+ DO*%
X211500000Y-78000000D03*
%TD*%
D12*
%TO.P,R104,1*%
%TO.N,GND*%
X244440000Y-77950000D03*
%TO.P,R104,2*%
%TO.N,Net-(R104-Pad2)*%
X252060000Y-77950000D03*
%TD*%
D20*
%TO.P,TP105,1,1*%
%TO.N,/VCCb*%
X219000000Y-47500000D03*
D14*
%TO.P,TP105,2,2*%
%TO.N,/GNDs*%
X219000000Y-54500000D03*
%TD*%
D26*
%TO.P,J112,1,Pin_1*%
%TO.N,/NO*%
X261720000Y-156600000D03*
D27*
%TO.P,J112,2,Pin_2*%
%TO.N,/COM*%
X266800000Y-156600000D03*
%TO.P,J112,3,Pin_3*%
%TO.N,/NC*%
X271880000Y-156600000D03*
%TD*%
D28*
%TO.P,K101,COIL1*%
%TO.N,VCC*%
X241780000Y-143525000D03*
%TO.P,K101,COIL2*%
%TO.N,Net-(D105-A)*%
X241780000Y-155525000D03*
%TO.P,K101,COM*%
%TO.N,/COM*%
X239780000Y-149645000D03*
%TO.P,K101,NC*%
%TO.N,/NC*%
X253980000Y-143525000D03*
%TO.P,K101,NO*%
%TO.N,/NO*%
X253980000Y-155525000D03*
%TD*%
D15*
%TO.P,D104,1,K*%
%TO.N,Net-(D104-K)*%
X195130000Y-154725000D03*
D16*
%TO.P,D104,2,A*%
%TO.N,/D13*%
X197670000Y-154725000D03*
%TD*%
D29*
%TO.P,D105,1,K*%
%TO.N,VCC*%
X233880000Y-143190000D03*
D30*
%TO.P,D105,2,A*%
%TO.N,Net-(D105-A)*%
X233880000Y-150810000D03*
%TD*%
D31*
%TO.P,J101,1,Pin_1*%
%TO.N,/12V-*%
X193053674Y-88000000D03*
D32*
%TO.P,J101,2,Pin_2*%
%TO.N,/12V+DI*%
X193053674Y-85500000D03*
%TD*%
D33*
%TO.P,C101,1*%
%TO.N,/12V+ DO*%
X208252651Y-89000000D03*
D34*
%TO.N,/12V-*%
X200752651Y-89000000D03*
%TD*%
D10*
%TO.P,J103,1,Pin_1*%
%TO.N,VCC*%
X213100000Y-140025000D03*
%TD*%
D35*
%TO.P,J111,1,Pin_1*%
%TO.N,/VCCs*%
X274850000Y-52750000D03*
D36*
%TO.P,J111,2,Pin_2*%
%TO.N,/GNDs*%
X274850000Y-50250000D03*
%TD*%
D37*
%TO.N,/D13*%
X266880000Y-126000000D03*
%TO.N,/4*%
X199400000Y-46600000D03*
%TD*%
D38*
%TO.N,VCC*%
X233880000Y-143190000D02*
X235115000Y-143190000D01*
X238280000Y-140025000D02*
X213100000Y-140025000D01*
X235115000Y-143190000D02*
X238280000Y-140025000D01*
X241780000Y-143525000D02*
X238280000Y-140025000D01*
X228880000Y-143190000D02*
X233880000Y-143190000D01*
X223880000Y-143190000D02*
X228880000Y-143190000D01*
%TO.N,D26*%
X264000000Y-113740000D02*
X258595000Y-113740000D01*
D39*
X258595000Y-113740000D02*
X258580000Y-113725000D01*
%TO.N,D25*%
X258595000Y-116280000D02*
X258580000Y-116265000D01*
D38*
X264000000Y-116280000D02*
X258595000Y-116280000D01*
D40*
%TO.N,D16*%
X235100000Y-82400000D02*
X235100000Y-81300000D01*
X233180000Y-111185000D02*
X236015000Y-111185000D01*
X236015000Y-111185000D02*
X239100000Y-108100000D01*
X239100000Y-86400000D02*
X235100000Y-82400000D01*
X239100000Y-108100000D02*
X239100000Y-86400000D01*
X235060000Y-81260000D02*
X235060000Y-79525000D01*
X235100000Y-81300000D02*
X235060000Y-81260000D01*
%TO.N,D17*%
X237600000Y-79525000D02*
X242775000Y-84700000D01*
X242775000Y-84700000D02*
X242800000Y-84700000D01*
X242800000Y-110500000D02*
X239575000Y-113725000D01*
X239575000Y-113725000D02*
X233180000Y-113725000D01*
X242800000Y-84700000D02*
X242800000Y-110500000D01*
D38*
%TO.N,/D13*%
X266880000Y-127000000D02*
X266880000Y-126000000D01*
X266880000Y-146000000D02*
X266880000Y-127000000D01*
X253880000Y-159000000D02*
X266880000Y-146000000D01*
X201945000Y-159000000D02*
X253880000Y-159000000D01*
X197670000Y-154725000D02*
X201945000Y-159000000D01*
%TO.N,/12V-*%
X199752651Y-88000000D02*
X193053674Y-88000000D01*
X195100000Y-100025000D02*
X193053674Y-97978674D01*
X200752651Y-89000000D02*
X199752651Y-88000000D01*
X193053674Y-97978674D02*
X193053674Y-88000000D01*
%TO.N,/12V+ DO*%
X213100000Y-100025000D02*
X213100000Y-93847349D01*
X208252651Y-89000000D02*
X208252651Y-81247349D01*
X213100000Y-93847349D02*
X208252651Y-89000000D01*
X208252651Y-81247349D02*
X211500000Y-78000000D01*
%TO.N,/12V+DI*%
X193053674Y-85500000D02*
X193053674Y-81206326D01*
X193053674Y-81206326D02*
X196260000Y-78000000D01*
%TO.N,Net-(D102-K)*%
X203530000Y-151460000D02*
X202880000Y-150810000D01*
X203530000Y-154725000D02*
X203530000Y-151460000D01*
%TO.N,Net-(D103-K)*%
X210930000Y-154525000D02*
X210930000Y-150660000D01*
X210930000Y-150660000D02*
X210880000Y-150610000D01*
%TO.N,Net-(D104-K)*%
X195130000Y-151560000D02*
X195880000Y-150810000D01*
X195130000Y-154725000D02*
X195130000Y-151560000D01*
D40*
%TO.N,Net-(R104-Pad2)*%
X255650000Y-77925000D02*
X255750000Y-78025000D01*
X255675000Y-77950000D02*
X255750000Y-78025000D01*
D38*
X255750000Y-78025000D02*
X268250000Y-78025000D01*
X252060000Y-77950000D02*
X255675000Y-77950000D01*
%TO.N,Net-(D105-A)*%
X229690000Y-155000000D02*
X233880000Y-150810000D01*
X228880000Y-155000000D02*
X229690000Y-155000000D01*
X233880000Y-150810000D02*
X237065000Y-150810000D01*
X241780000Y-155525000D02*
X247520000Y-155525000D01*
X260700000Y-142345000D02*
X260700000Y-141020000D01*
X247520000Y-155525000D02*
X260700000Y-142345000D01*
X237065000Y-150810000D02*
X241780000Y-155525000D01*
%TO.N,/D12*%
X258580000Y-106105000D02*
X255750000Y-103275000D01*
X255750000Y-83025000D02*
X268250000Y-83025000D01*
X255750000Y-103275000D02*
X255750000Y-83025000D01*
%TO.N,/VCCs*%
X250000000Y-47500000D02*
X249000000Y-47500000D01*
X257500000Y-55000000D02*
X250000000Y-47500000D01*
%TO.N,/4*%
X207990000Y-48870000D02*
X201670000Y-48870000D01*
X201670000Y-48870000D02*
X199400000Y-46600000D01*
%TO.N,/VCCb*%
X214240000Y-47500000D02*
X207990000Y-41250000D01*
X219000000Y-47500000D02*
X214240000Y-47500000D01*
%TO.N,/5*%
X189000000Y-45000000D02*
X189000000Y-47460000D01*
X192750000Y-41250000D02*
X189000000Y-45000000D01*
X183500000Y-52960000D02*
X189000000Y-47460000D01*
%TO.N,/3.3V*%
X194500000Y-38000000D02*
X189210000Y-38000000D01*
X207990000Y-46330000D02*
X202830000Y-46330000D01*
X202830000Y-46330000D02*
X194500000Y-38000000D01*
X189210000Y-38000000D02*
X183725000Y-43485000D01*
%TO.N,Net-(D106-A)*%
X226340000Y-153350000D02*
X228880000Y-150810000D01*
X226340000Y-155000000D02*
X226340000Y-153350000D01*
%TO.N,Net-(D107-A)*%
X223880000Y-153540000D02*
X223880000Y-150810000D01*
X222420000Y-155000000D02*
X223880000Y-153540000D01*
%TO.N,Net-(Q101-B)*%
X263240000Y-136975000D02*
X263240000Y-143560000D01*
X261600000Y-135335000D02*
X263240000Y-136975000D01*
%TO.N,D14*%
X266400000Y-122915000D02*
X266400000Y-107800000D01*
X261600000Y-127715000D02*
X266400000Y-122915000D01*
X262225000Y-105000000D02*
X258580000Y-108645000D01*
X263600000Y-105000000D02*
X262225000Y-105000000D01*
X266400000Y-107800000D02*
X263600000Y-105000000D01*
%TD*%
M02*
